<svg xmlns="http://www.w3.org/2000/svg" viewBox="0 0 85.41 72.55"><defs><style>.cls-1{fill:#fff;}</style></defs><g id="Layer_2" data-name="Layer 2"><g id="Layer_1-2" data-name="Layer 1"><path class="cls-1" d="M84.51,67.58a2.91,2.91,0,0,1-2.06,5H64a2.91,2.91,0,0,0,2.06-5L36.94,38.46a2.9,2.9,0,0,1,0-4.1L66.05,5A2.91,2.91,0,0,0,64,0H82.49a2.91,2.91,0,0,1,2.07,5L55.43,34.36a2.91,2.91,0,0,0,0,4.1Z"/><path class="cls-1" d="M52.2,71.69a2.92,2.92,0,0,0,2.07.86H35.77a2.9,2.9,0,0,1-2.07-.86L.84,38.45a2.91,2.91,0,0,1,0-4.08L33.69.87A2.91,2.91,0,0,1,35.77,0H54.28A2.9,2.9,0,0,0,52.2.87L19.34,34.37a2.91,2.91,0,0,0,0,4.08Z"/></g></g></svg>