<svg width="11" height="9" viewBox="0 0 11 9" fill="none" xmlns="http://www.w3.org/2000/svg">
<path d="M4.7158 0.308311C4.62284 0.214582 4.51223 0.140188 4.39038 0.0894194C4.26852 0.0386507 4.13781 0.0125122 4.0058 0.0125122C3.87379 0.0125122 3.74308 0.0386507 3.62122 0.0894194C3.49936 0.140188 3.38876 0.214582 3.2958 0.308311L0.295798 3.30831C0.20207 3.40127 0.127676 3.51187 0.0769072 3.63373C0.0261385 3.75559 0 3.8863 0 4.01831C0 4.15032 0.0261385 4.28103 0.0769072 4.40289C0.127676 4.52475 0.20207 4.63535 0.295798 4.72831L3.2958 7.72831C3.38876 7.82204 3.49936 7.89643 3.62122 7.9472C3.74308 7.99797 3.87379 8.02411 4.0058 8.02411C4.13781 8.02411 4.26852 7.99797 4.39038 7.9472C4.51223 7.89643 4.62284 7.82204 4.7158 7.72831C4.80953 7.63535 4.88392 7.52475 4.93469 7.40289C4.98546 7.28103 5.0116 7.15032 5.0116 7.01831C5.0116 6.8863 4.98546 6.75559 4.93469 6.63373C4.88392 6.51187 4.80953 6.40127 4.7158 6.30831L2.4158 4.01831L4.7158 1.72831C4.80953 1.63535 4.88392 1.52475 4.93469 1.40289C4.98546 1.28103 5.0116 1.15032 5.0116 1.01831C5.0116 0.886299 4.98546 0.755593 4.93469 0.633734C4.88392 0.511874 4.80953 0.401273 4.7158 0.308311ZM7.9158 4.01831L10.2558 1.72831C10.4441 1.54001 10.5499 1.28461 10.5499 1.01831C10.5499 0.752009 10.4441 0.496614 10.2558 0.308311C10.0675 0.120007 9.8121 0.0142188 9.5458 0.0142188C9.2795 0.0142188 9.0241 0.120007 8.8358 0.308311L5.8358 3.30831C5.74207 3.40127 5.66768 3.51187 5.61691 3.63373C5.56614 3.75559 5.54 3.8863 5.54 4.01831C5.54 4.15032 5.56614 4.28103 5.61691 4.40289C5.66768 4.52475 5.74207 4.63535 5.8358 4.72831L8.8358 7.72831C8.92876 7.82204 9.03936 7.89643 9.16122 7.9472C9.28308 7.99797 9.41379 8.02411 9.5458 8.02411C9.67781 8.02411 9.80851 7.99797 9.93037 7.9472C10.0522 7.89643 10.1628 7.82204 10.2558 7.72831C10.3495 7.63535 10.4239 7.52475 10.4747 7.40289C10.5255 7.28103 10.5516 7.15032 10.5516 7.01831C10.5516 6.8863 10.5255 6.75559 10.4747 6.63373C10.4239 6.51187 10.3495 6.40127 10.2558 6.30831L7.9158 4.01831Z" fill="white"/>
</svg>
