<svg id="Layer_1" data-name="Layer 1" xmlns="http://www.w3.org/2000/svg" xmlns:xlink="http://www.w3.org/1999/xlink" viewBox="0 0 164.89 164.89"><defs><style>.cls-1{fill:#001c5c;}.cls-2{fill:url(#radial-gradient);}.cls-3{fill:url(#radial-gradient-2);}.cls-4{fill:url(#radial-gradient-3);}.cls-5{fill:url(#linear-gradient);}</style><radialGradient id="radial-gradient" cx="49.01" cy="92.82" fx="57.642275826466104" r="85.81" gradientTransform="translate(-24.29 130.52) rotate(-80.74) scale(1 0.71)" gradientUnits="userSpaceOnUse"><stop offset="0.42" stop-color="#001c5c"/><stop offset="0.45" stop-color="#002c63"/><stop offset="0.56" stop-color="#026b82"/><stop offset="0.66" stop-color="#03a09b"/><stop offset="0.76" stop-color="#04c9ae"/><stop offset="0.85" stop-color="#04e7bc"/><stop offset="0.92" stop-color="#05f9c5"/><stop offset="0.98" stop-color="#05ffc8"/></radialGradient><radialGradient id="radial-gradient-2" cx="59.25" cy="45.7" fx="81.92132739029827" r="80.46" gradientTransform="translate(-4.17 39.26) rotate(-15.86) scale(1 0.51)" gradientUnits="userSpaceOnUse"><stop offset="0.33" stop-color="#001c5c"/><stop offset="0.36" stop-color="#01396a"/><stop offset="0.41" stop-color="#026780"/><stop offset="0.47" stop-color="#039093"/><stop offset="0.53" stop-color="#03b3a4"/><stop offset="0.59" stop-color="#04ceb1"/><stop offset="0.66" stop-color="#04e4bb"/><stop offset="0.73" stop-color="#05f3c2"/><stop offset="0.82" stop-color="#05fcc7"/><stop offset="0.94" stop-color="#05ffc8"/></radialGradient><radialGradient id="radial-gradient-3" cx="85.35" cy="81.37" r="109.35" gradientTransform="matrix(0.72, -0.69, 0.51, 0.54, -18.09, 96.72)" gradientUnits="userSpaceOnUse"><stop offset="0" stop-color="#05ffc8"/><stop offset="0.25" stop-color="#05fdc8"/><stop offset="0.36" stop-color="#07f6c7"/><stop offset="0.45" stop-color="#09e9c5"/><stop offset="0.52" stop-color="#0dd7c2"/><stop offset="0.58" stop-color="#11bfbe"/><stop offset="0.64" stop-color="#16a2ba"/><stop offset="0.69" stop-color="#1d81b4"/><stop offset="0.73" stop-color="#235faf"/></radialGradient><linearGradient id="linear-gradient" x1="22.65" y1="150.1" x2="27" y2="150.1" gradientTransform="translate(0.01 -0.01)" gradientUnits="userSpaceOnUse"><stop offset="0" stop-color="#235faf"/><stop offset="0.45" stop-color="#14adbb"/><stop offset="0.82" stop-color="#09e8c4"/><stop offset="1" stop-color="#05ffc8"/></linearGradient></defs><path class="cls-1" d="M120,20.07c-2.49-.09-34.43-1.13-51.82,4.23C50,29.89,38.48,39.79,26.93,60.28c-4.39,7.77-8.81,21.55-10.6,37.36a63.6,63.6,0,0,0,.59,18.53c3,16.41,5.68,21,5.68,21,1.24,4.84,2.47,9.66,3.4,14.57-.6-1.3-1.21-2.6-1.78-3.89-.36-1-3.15-9.3-4.12-12.11-.3-.9-.61-1.84-.91-2.81,0,0-5.46-21.51-4.37-32.74.76-7.9,3.1-34.47,19-53.09S64,16.11,120,20.07Z"/><path class="cls-2" d="M33.38,47.66l.47-.52c-15.93,18.62-18.27,45.19-19,53.09C13.73,111.46,19.19,133,19.19,133a3.11,3.11,0,0,0-.54-.31,3.71,3.71,0,0,0-1.33-.29,4.94,4.94,0,0,0-2,.47,5.35,5.35,0,0,0-2.35,2.41,4.62,4.62,0,0,0-.37,1.21,2.71,2.71,0,0,0-.06.37c0,.09,0,.14,0,.14s0-.05,0-.14a3,3,0,0,1,0-.39,5.17,5.17,0,0,1,1.18-2.85,4.87,4.87,0,0,1,1.47-1.16,5.09,5.09,0,0,1,2.13-.54,4,4,0,0,1,1.42.27l.22.1,0,0a3.33,3.33,0,0,0-1.44-.49,5.76,5.76,0,0,0-2.31.24,5.21,5.21,0,0,0-2.83,2.2c-.07.11-.12.24-.18.34s-.11.22-.15.33a5.71,5.71,0,0,0-.2.57c-.07.29-.12.48-.13.52a5.24,5.24,0,0,1,.09-.55,5.19,5.19,0,0,1,.16-.62,2.2,2.2,0,0,1,.13-.36,3.29,3.29,0,0,1,.17-.39,4.83,4.83,0,0,1,1.12-1.47,5,5,0,0,1,1.73-1,6.29,6.29,0,0,1,2.39-.3,4.1,4.1,0,0,1,1.44.45.7.7,0,0,1,0-.12,6,6,0,0,0-.54-.33,3.7,3.7,0,0,0-1.91-.4,2.33,2.33,0,0,0-.38,0l-.31.06a3.13,3.13,0,0,0-.37.11,7.24,7.24,0,0,0-2.18,1.21,8.62,8.62,0,0,0-1.56,1.59,8.8,8.8,0,0,0-.53.74c-.14.25-.27.46-.36.63l-.28.57c0-.05.1-.27.24-.62.08-.19.2-.42.33-.68a7,7,0,0,1,.5-.82A8.13,8.13,0,0,1,13,131.94a6.41,6.41,0,0,1,2.22-1.3,2.06,2.06,0,0,1,.39-.12,2.34,2.34,0,0,0,.32-.07l.4,0a3.87,3.87,0,0,1,2,.4l.18.1h0a1.06,1.06,0,0,0-.17-.2l-.24-.25a6.42,6.42,0,0,0-1.36-.95,8.5,8.5,0,0,0-1.45-.66l-.83-.19a7.12,7.12,0,0,0-3.3.25,5.7,5.7,0,0,0-1,.37l-.36.14.34-.21a4.67,4.67,0,0,1,.95-.51,5.59,5.59,0,0,1,3.35-.47c.1,0,.42.09.86.18a8.73,8.73,0,0,1,1.5.65,5.6,5.6,0,0,1,1.12.71,9.55,9.55,0,0,0-1.49-1.34A17.27,17.27,0,0,0,14.21,127c-.67-.32-1.19-.51-1.34-.57a7.8,7.8,0,0,0-5.42-.26,2.9,2.9,0,0,0-.47.21,3.3,3.3,0,0,0-.42.23,6.51,6.51,0,0,0-.63.46c-.3.27-.47.44-.51.48s.2-.24.48-.54a7.5,7.5,0,0,1,.62-.54c.12-.1.27-.17.42-.27a2.34,2.34,0,0,1,.47-.25,7.13,7.13,0,0,1,5.51.06c.16.06.68.24,1.37.56A17.11,17.11,0,0,1,16.65,128a9.62,9.62,0,0,1,1.29,1.1,11.87,11.87,0,0,0-1.32-1.76,11.2,11.2,0,0,0-2.5-2c-.37-.21-.74-.36-1.11-.53s-.71-.36-1-.54a10.44,10.44,0,0,0-1.75-.84A3,3,0,0,0,9,123.19a2.11,2.11,0,0,0-.34,0h-.1l.1,0a1.52,1.52,0,0,1,.33-.09,2.93,2.93,0,0,1,1.25,0,8.9,8.9,0,0,1,1.79.72c.33.16.68.34,1,.49a11.33,11.33,0,0,1,1.13.53,10.63,10.63,0,0,1,2.58,2.05A17.56,17.56,0,0,0,15,125a15.59,15.59,0,0,0-3.82-2.66c-.25-.12-.49-.23-.7-.31l-1-.31,1,.17c.21.06.46.15.72.24a11.8,11.8,0,0,1,3.92,2.51,20,20,0,0,1,2.31,2.53l-.56-.83a26,26,0,0,0-1.66-2.08c-.5-.52-1-1-1.43-1.38a11.5,11.5,0,0,0-1.24-1l-.49-.3-.38-.21a1.65,1.65,0,0,1-.32-.16l.33.1.39.14a5.26,5.26,0,0,1,.52.23,8.32,8.32,0,0,1,1.3.83,12,12,0,0,1,1.48,1.36A23.86,23.86,0,0,1,17.09,126l.73,1.07c-.12-.49-.18-1-.3-1.45s-.19-1-.32-1.57c-.15-.16-1-1.24-1.18-1.38a15.36,15.36,0,0,0-1.37-1c-.4-.19-.7-.36-.8-.39a7.66,7.66,0,0,0-3.34-.57l-.58.06c-.18,0-.32.09-.44.11l-.37.1.36-.16c.11,0,.26-.13.43-.19l.59-.14a6.24,6.24,0,0,1,3.42.38,8.6,8.6,0,0,0-1.21-.41A14.08,14.08,0,0,0,9,120.23l-1.53.08.41-.09c.26-.06.64-.14,1.12-.21a9.94,9.94,0,0,1,3.73,0,8.92,8.92,0,0,1,1.5.48l-.06,0a7.08,7.08,0,0,0-1.84-.8,11,11,0,0,0-1.08-.22c-.84-.11-1.66-.14-2.4-.19a18,18,0,0,1-2-.24,7.2,7.2,0,0,1-1.31-.4l-.46-.21.47.14a7.8,7.8,0,0,0,1.31.24c.56.06,1.23.08,2,.09a19,19,0,0,1,2.42.14,7.92,7.92,0,0,1,.81.14l-.18-.07-.33-.08c-.2,0-.35-.07-.41-.08-.9-.13-1.78-.2-2.57-.31a7.17,7.17,0,0,1-2.09-.55,3.73,3.73,0,0,1-.4-.2l-.36-.21a6.41,6.41,0,0,1-.55-.42c-.25-.23-.41-.38-.44-.42l.46.35a4.26,4.26,0,0,0,.56.35l.36.17a2.9,2.9,0,0,0,.41.16,9,9,0,0,0,2.07.4l1.18.09a11.23,11.23,0,0,1-2-.94A7.33,7.33,0,0,1,6.07,116a8.19,8.19,0,0,1-1-1.39c-.16-.28-.25-.47-.29-.55l.32.5a8.76,8.76,0,0,0,1,1.25,8,8,0,0,0,1.73,1.29,16.58,16.58,0,0,0,2.29,1c.16.06.76.23,1.52.5l-.44-.22a19.66,19.66,0,0,1-2.72-1.54,9.34,9.34,0,0,1-2-1.84,4.1,4.1,0,0,1-.36-.49c-.11-.16-.22-.3-.31-.46a9.3,9.3,0,0,1-.42-.83c-.15-.37-.24-.63-.28-.73,0,.1.15.34.31.68s.28.47.46.77a4,4,0,0,0,.32.43,3.75,3.75,0,0,0,.37.44,9.83,9.83,0,0,0,2.05,1.69,27.05,27.05,0,0,0,2.7,1.47l1.49.71-.37-.2c-.73-.36-1.44-.72-2-1.09a10.79,10.79,0,0,1-1.61-1.15l-.31-.27a2.23,2.23,0,0,1-.27-.26c-.15-.18-.3-.33-.41-.46l-.31-.35c.15.12.63.56.77.69a2.09,2.09,0,0,0,.28.22l.32.23a13.68,13.68,0,0,0,1.63,1c.61.33,1.32.68,2.05,1a18.83,18.83,0,0,1,2.58,1.47c.25.15,1.19.91,1.42,1.1a1.55,1.55,0,0,1,0-.21c-.08-.09-.89-.77-1-.88a7.08,7.08,0,0,0-2.13-1.29,33.26,33.26,0,0,1-3.47-1.91,17.22,17.22,0,0,1-4.47-4.16,10,10,0,0,1-.63-1c-.17-.32-.33-.58-.44-.82s-.28-.63-.31-.71l.35.66c.12.22.28.47.46.76s.41.6.67.92a19.76,19.76,0,0,0,4.49,3.93,30.72,30.72,0,0,0,3.46,1.85,10.7,10.7,0,0,1,1.61.84,11.82,11.82,0,0,0-1.57-1.16c-1.15-.68-2.22-1.23-3-1.7a10.12,10.12,0,0,1-1.18-.86s.52.31,1.24.65a32.73,32.73,0,0,1,3,1.52,17.77,17.77,0,0,1,2.57,1.79s0,0,0-.07l0-.18c-.06-.07-.82-.58-.89-.66a9.52,9.52,0,0,0-1.8-1.62,18.29,18.29,0,0,0-2-1.14l-1.17-.55a20.82,20.82,0,0,1-2.53-1.35,9.18,9.18,0,0,1-1.88-1.69,8,8,0,0,1-1-1.61l-.3-.67.34.62A7.71,7.71,0,0,0,6,111.36a9.45,9.45,0,0,0,1.9,1.52,26.87,26.87,0,0,0,2.52,1.3c.13.06.58.25,1.17.53a16.68,16.68,0,0,1,2.06,1.12,20.43,20.43,0,0,1,2.44,2l-.06-.34c-.17-.21-1.08-1-1.26-1.22a11.07,11.07,0,0,0-2.51-1.93c-.75-.41-1.48-.76-2.13-1.11a19.31,19.31,0,0,1-1.73-1c-.24-.15-.46-.31-.65-.45l-.26-.2-.6-.54.63.45.27.16.66.38c.49.25,1.1.54,1.77.84l.16.08a13.92,13.92,0,0,1-1.24-1l-.85-.8c-.26-.25-.5-.51-.71-.74-.76-.81-1.26-1.37-1.36-1.49l2.18,2,.87.73A9,9,0,0,0,11.35,113l1,.4a8.85,8.85,0,0,1,1.8.87l.46.32,0,0-.14-.15a3.86,3.86,0,0,0-.38-.3l-.21-.16-.21-.14a4,4,0,0,0-.45-.26c-.6-.33-1.25-.58-1.75-.82-.25-.12-.46-.26-.63-.35s-.29-.2-.34-.24a9.71,9.71,0,0,1-1.85-2c-.52-.66-1-1.27-1.39-1.74-.21-.23-.4-.44-.57-.6s-.32-.32-.44-.42l-.4-.33.42.27a3.52,3.52,0,0,1,.47.35,6.78,6.78,0,0,1,.61.54c.43.43.93,1,1.47,1.63a11,11,0,0,0,1.82,1.86l.33.22.61.33c.49.23,1.14.46,1.77.79a3.17,3.17,0,0,1,.47.27l.23.14.21.16a3,3,0,0,1,.41.32c0,.05.85.69.9.75l-.09-.63c-.09,0-.92-.68-1-.73l-.7-.36a16.56,16.56,0,0,1-2.08-1.19A16.84,16.84,0,0,1,9,109.72c-.33-.32-.6-.63-.77-.82l-.28-.31s.43.38,1.13.94a31.48,31.48,0,0,0,2.84,2,16.58,16.58,0,0,0,1.77,1l-.39-.23A20.08,20.08,0,0,1,11,110.45a24.21,24.21,0,0,0-3.35-2.33c-.44-.29-.79-.53-1-.72l-.36-.29.38.22c.25.15.62.35,1.07.58a15.05,15.05,0,0,1,3.45,2.16,18,18,0,0,0,2.29,1.76l.27.15c-.84-.8-1.62-1.44-1.79-1.57A25.68,25.68,0,0,0,8.24,108c-.24-.12-.46-.25-.65-.33l-.93-.42,1,.28c.2.06.43.16.68.26A16.35,16.35,0,0,1,12,110c.16.13.86.68,1.65,1.4-.1-.11-.2-.23-.29-.35s-.2-.2-.28-.29c-.36-.36-.63-.64-.72-.72a14.4,14.4,0,0,0-3.13-2.16,3.17,3.17,0,0,0-.58-.26l-.44-.18-.37-.16.38.09.46.11a5,5,0,0,1,.61.18,10.3,10.3,0,0,1,3.24,2l.74.72c.09.09.19.18.29.3l.78.91c-.16-.27-.33-.55-.51-.81a10.28,10.28,0,0,0-1.31-1.62,8.28,8.28,0,0,0-.84-.71,6.87,6.87,0,0,0-2-1c-.33-.1-.65-.16-.94-.24L7.92,107c-.51-.09-.93-.19-1.21-.27l-.43-.13.45.06c.28,0,.71.08,1.22.12l.85.08c.31.06.64.1,1,.18a6,6,0,0,1,2.1,1,9.12,9.12,0,0,1,.87.72l.3.31c-.2-.24-.4-.46-.57-.64l-.29-.3-.55-.5a10.13,10.13,0,0,0-2-1.31A8.82,8.82,0,0,0,8.7,106a5.34,5.34,0,0,0-.83-.24,5.71,5.71,0,0,0-.71-.13,3.81,3.81,0,0,0-.54,0l-.47,0,.47,0a4.79,4.79,0,0,1,.56,0,4.76,4.76,0,0,1,.72,0,5,5,0,0,1,.87.16,6.43,6.43,0,0,1,1,.33,7.72,7.72,0,0,1,2.07,1.29,5.89,5.89,0,0,0-.53-.46l-.33-.26a11,11,0,0,0-2.15-1.28,7,7,0,0,0-1.9-.53l-.4,0-.36,0a2.51,2.51,0,0,0-.58,0l-.49.1.49-.17a2.73,2.73,0,0,1,.59-.13l.37,0h.41a5.81,5.81,0,0,1,2,.39,8.71,8.71,0,0,1,2.22,1.24l.33.27A6.84,6.84,0,0,1,12,107l.37.33.35.37a8.29,8.29,0,0,0-.74-.9l-.27-.3-.51-.5a15.1,15.1,0,0,0-1.83-1.47c-.58-.4-1.15-.72-1.6-1-.22-.13-.44-.23-.63-.33L6.7,103l-.4-.19.42.12.5.16c.19.08.42.15.65.26a11.79,11.79,0,0,1,1.66.84,12.05,12.05,0,0,1,1.89,1.43l.52.51.28.29A15.9,15.9,0,0,1,13.53,108c.21.33.44.65.62,1,0,.1.11.2.17.3s0,0,0-.06c-.15-.28-.3-.56-.46-.83a29.91,29.91,0,0,0-2.24-3.29c-.66-.83-1.34-1.61-2-2.26S8.44,101.64,8,101.2l-.67-.6-.52-.44c-.25-.19-.4-.32-.43-.35s.19.13.46.29.33.22.54.37.45.33.71.53a23.39,23.39,0,0,1,1.76,1.56,25.58,25.58,0,0,1,2,2.24c.11.15.53.68,1,1.41-.09-.18-.84-1.57-.91-1.72-1.05-1.85-2-3.47-2.77-4.58-.18-.3-.36-.53-.51-.74l-.73-1c.08.08.64.73.79.91a6.17,6.17,0,0,1,.56.68,35.29,35.29,0,0,1,2.9,4.45c.07.14.84,1.54.93,1.71l.64,1.27-.12-.3c-.15-.34-.29-.68-.43-1-.27-.54-.46-1-.52-1.11-.86-1.67-1.67-3.15-2.27-4.19L9.48,99a4.15,4.15,0,0,1,.28.38c.18.26.46.63.79,1.12a38.51,38.51,0,0,1,2.39,4.07c.06.13.26.56.54,1.11.14.27.29.61.44,1,.07.17.89,1.88,1,2-.05-.6-.08-1.21-.11-1.82,0-.14-.83-1.81-.85-1.86l-.25-.57c-.08-.2-.18-.42-.28-.64l-.05-.09c-.3-.64-.67-1.32-1-2-1.06-1.83-2.25-3.61-2.45-3.94l-.56-.92,0,0c-.91-1.68-1.2-2.2-1.35-2.52l0-.06,0-.06,0-.07a.91.91,0,0,0-.07-.14l0-.07a.08.08,0,0,1,0,0,22.58,22.58,0,0,1-1.38-5.54v0c-.07-.65-.13-1.31-.17-2h0q0-.58-.06-1.17Q6,84.74,6,84.47c-.11-.53-.17-.87-.19-.94l.24.9c0,.09.06.2.09.31,0-.77,0-1.54,0-2.29Q6,81.92,6,81.52c-.06-.68-.09-1.07-.09-1.07s0,.38.14,1c0,.15,0,.32.08.5,0-1.16.09-2.29.18-3.37,0-.11,0-.22,0-.33.17-2.05.42-3.9.67-5.4A6.48,6.48,0,0,1,7,72.12c0-.32.1-.61.15-.89a6.52,6.52,0,0,1,.14-.74c.16-.66.27-1.1.33-1.29a.09.09,0,0,1,0,0v-.07a87,87,0,0,1,4.06-12.81l.3-.71c.55-1.32,1.17-2.69,1.86-4.09a.61.61,0,0,1,.07-.14q1.06-2.19,2.39-4.49l0,0h0c1.09-1.88,2.23-3.66,3.41-5.36l.18-.26h0c1.28-1.83,2.6-3.55,4-5.18l.36-.43c.52-.62,1.05-1.23,1.58-1.82l.78-.86c.6-.65,1.21-1.29,1.81-1.91h0l.23-.22.41-.42.07-.07A92.35,92.35,0,0,1,48.9,15.42c-.85.73-1.69,1.5-2.52,2.33l-.06.05-.06.07L45.18,19c-.39.4-.84.9-1.36,1.48s-1.08,1.25-1.69,2a54.15,54.15,0,0,0-7.34,12c-.16.35-.64,1.52-1.15,3a35.65,35.65,0,0,0-1,3.5v0A36,36,0,0,0,32,48.54h0c0,.23,0,.45,0,.68l.5-.59c.23-.93.56-2.23,1-3.75a40.37,40.37,0,0,1,1.52-4.42c.17-.4.32-.8.51-1.22s1.45-2.87,1.59-3.12.22-.38.37-.62c.5-.84,1-1.68,1.54-2.5s1.14-1.6,1.72-2.38l.18-.24.24-.33,0,0,0,0c9.67-12.84,23.28-17.59,30.32-19.65l.36-.1L72.7,10l.24-.07.31-.09.29-.08.17,0,.78-.2c1.76-.45,3.39-.81,4.81-1.06S82,8,83,7.9c1.41-.19,2.39-.31,2.85-.36-.46.06-1.44.19-2.85.4-1,.15-2.25.37-3.66.65s-3,.65-4.8,1.11a76.41,76.41,0,0,0-12,4.3,65.4,65.4,0,0,0-13,8c-.31.25-1,.8-1.81,1.57-.43.38-.94.82-1.45,1.33S45.24,26,44.66,26.59c-.28.3-.59.61-.88.94S41.72,30,41.57,30.15l-.43.57c-.56.76-1.13,1.55-1.69,2.35s-1,1.63-1.52,2.46l-.37.62c-.13.25-1.36,2.68-1.56,3.09s-.34.8-.5,1.2A40,40,0,0,0,34,44.8c-.35,1.2-.63,2.26-.84,3.12Z"/><path class="cls-3" d="M74.8,11.54l-.11,0ZM120,20.07c-56-4-70.2,8.48-86.11,27.07a67.26,67.26,0,0,1,6.6-14,40.58,40.58,0,0,1,8-9.33,55.59,55.59,0,0,1,5.88-4.48,73.87,73.87,0,0,1,7.44-4.21,77.68,77.68,0,0,1,7.41-3.15A67.12,67.12,0,0,1,82.5,8.64c1.91-.27,3.67-.37,5.2-.47s2.84,0,3.9,0l2.79.18h.14c1.4.16,3.64.42,6.06.77h0c2.5.36,5.78.89,9.68,1.72.87.17,1.68.35,2.43.53l.09,0c-.3-.06-1.26-.26-2.76-.54a74.46,74.46,0,0,0-7.9-1q-1.26-.07-2.64-.12l-2.13-.05-.74,0c-1,0-2,.07-3.07.13l-1.6.1a63.57,63.57,0,0,0-22.64,6.6,55.77,55.77,0,0,1,24.65-5l.62,0,1.23.07.69,0c8.89.73,18.92,3.81,23.57,8.38Z"/><path class="cls-4" d="M38.41,67.66l.06,0Zm4.87-6.07-.49.37c-.57.43-1.2,1-1.89,1.54s-1.45,1.21-2.28,1.84c-.44.28-2.28,1.53-2.77,1.86-1,.66-2,1.37-3,2.15s-2.15,1.54-3.26,2.27c-.33.22-1.45.9-2.94,1.85-.66.42-1.39.92-2.16,1.48.94-.82,1.86-1.55,2.66-2.16C28.17,72,37.86,65.33,43.28,61.59Zm-1.8-19,.06,0Zm83-10.6h0ZM120.1,20.08h0l1.64,1.65.19.19c1.64,1.68,2.48,2.63,2.48,2.63,2.85,3.22,3.56,4.62,5.7,6.26a16.81,16.81,0,0,0,5.37,2.73l-6.81.19-5.84.17h-.24c-4.71.16-11.45.82-16.91,1.43h0c-2.73.3-5.14.58-6.81.78h0l-5.5.54C90.47,37,83.19,38,82.43,38.12l-3.71.63-.37.07-.31,0c-.8.12-1.57.26-2.33.4-8.51,1.56-10,2.3-15.08,2.45-2.42.21-4.91.25-7.35.28-1.23,0-2.47,0-3.7.13-.7,0-1.4.08-2.09.16h0q-.78.09-1.53.24a22.59,22.59,0,0,0-6.79,2.65c-.35.21-.69.41-1,.63l0,0a17.56,17.56,0,0,0-2.76,2.08h0l-.27.23-.34.38-.05.06c-.33.35-.61.69-.85,1l-.53.64.13-.1c.33-.23.7-.48,1.12-.75l.32-.2c.66-.42,1.43-.87,2.3-1.32l.67-.33.42-.2.24-.11.19-.08.42-.19.44-.19.1,0,.74-.29.23-.09C43,45.51,45.69,45,54.61,44h0c6.74-.81,8.47-.94,12.54-1.59,3-.48,5.36-.94,6.94-1.26l-1.64.61h0l-.19.07-.12,0-.13.05h0l-.22.07-.75.26-.25.1-.13,0-.17.06h0l-.06,0-.06,0-.23.08-.35.13-1.63.54-.08,0-.23.08L57.57,46.81h0a43.91,43.91,0,0,0-5.17,2.88,56.17,56.17,0,0,1-16.28,6.38A35.78,35.78,0,0,0,46.51,54a35.34,35.34,0,0,0,5.55-2.58c-.39.45-.92,1-1.59,1.68h0a26.36,26.36,0,0,1-2.25,2c-3.74,2.87-6.41,3.29-10.07,5.37a29.83,29.83,0,0,0-7.45,6c2.74-1,5.66-2.29,8.7-3.78h0c1.78-.92,3.57-1.84,5.32-2.82l.15-.08.83-.47c1.22-.69,2.27-1.35,3.14-1.91l.18-.12.31-.19,1.28-.83.94-.63c-1,.7-2,1.47-3.1,2.31l.53-.4c.75-.55,1.26-.91,1.46-1.05L49,57.56l-1,.8.18-.11-.26.17c-.69.56-1.49,1.22-2.39,2l0,0a61.1,61.1,0,0,0-9.12,10.41l.16-.14c1.66-1.44,4.48-3.9,6.15-5.33l.17-.14.16-.14.2-.17.28-.24.57-.47q2.2-1.84,4.39-3.58l.1-.08.11-.09.1-.08.12-.1,0,0,0,0A31,31,0,0,0,45.37,64l-.36.47h0c-.67.88-1.24,1.75-1.74,2.56h0c-.34.55-.63,1.08-.9,1.58l0,0c-4.19,5.46-7.79,9.69-10.25,12.48l0,0-2.62,3.25c-1.06,1.29-2.22,2.62-3.39,3.94-.35.4-1.52,1.68-3,3.47q-.59.69-1.14,1.41v0a46.6,46.6,0,0,0-2.49,4.38c.33-.54.68-1.07,1.05-1.58l.78-1,1.15-1.25L21.3,95.13l-.74,1.07a27.44,27.44,0,0,0-2.8,5.54c.15-.32.3-.64.45-.94a25,25,0,0,1,1.59-2.61l.34-.49.33-.42c.2-.27.39-.49.53-.66l.45-.51-.42.55c-.14.18-.31.42-.5.69l-.3.45q-.16.24-.33.51A28.3,28.3,0,0,0,18.41,101,29.66,29.66,0,0,0,17,104.49l-.18.61c-.08.27-.19.62-.28,1,.21-.53.45-1.11.69-1.69.35-.84.74-1.67,1.06-2.31s.58-1.1.65-1.25a17,17,0,0,1,1.69-2.5,11.16,11.16,0,0,1,.84-.93c.27-.28.55-.5.79-.71l.35-.27.33-.24a5.26,5.26,0,0,1,.52-.33l.45-.26-.43.31a5.4,5.4,0,0,0-.51.39l-.31.25c-.1.09-.22.19-.34.31s-.48.46-.74.75-.53.61-.8,1a20.5,20.5,0,0,0-1.61,2.48c-.08.15-.33.6-.64,1.24l-.33.71.39-.68c.22-.37.42-.69.58-.93l.33-.5a14.82,14.82,0,0,1,4.43-4.34,10.05,10.05,0,0,1,1.52-.8l.57-.23-.56.29a12.21,12.21,0,0,0-1.48.9,17.58,17.58,0,0,0-4.28,4.42l-.32.49c-.15.24-.35.55-.56.92-.41.75-.94,1.69-1.4,2.68a17.92,17.92,0,0,0-1.07,2.89l-.09.41,0,.34c.17-.64.38-1.35.64-2A25.23,25.23,0,0,1,18,104.33c.17-.34.33-.65.46-.87l.26-.46a14.93,14.93,0,0,1,1.85-2.57c.31-.34.62-.67.92-.94a8.59,8.59,0,0,1,.85-.72c.26-.22.51-.37.72-.52s.41-.26.56-.35l.48-.27L23.6,98c-.15.11-.34.23-.55.4s-.44.35-.69.57-.53.48-.81.77-.58.62-.88,1a18.72,18.72,0,0,0-1.78,2.56l-.24.46a9.13,9.13,0,0,0-.44.85,26,26,0,0,0-1,2.48,27.87,27.87,0,0,0-.83,2.93.49.49,0,0,0,0,.12c.12-.52.27-1.08.43-1.64a23.56,23.56,0,0,1,.88-2.46c.15-.34.28-.63.39-.85l.23-.46A11.46,11.46,0,0,1,20,102.19l.45-.45.66-.56.62-.42a7.63,7.63,0,0,1,1.25-.65l.4-.16-.39.21a10.59,10.59,0,0,0-1.21.76l-.59.46-.63.59-.42.47a12.29,12.29,0,0,0-1.64,2.42c0,.07-.11.23-.22.44s-.23.51-.37.84a20.47,20.47,0,0,0-.83,2.42c-.27.93-.48,1.88-.63,2.63v.1c.15-.64.35-1.36.59-2.06a25,25,0,0,1,1-2.48c.32-.68.59-1.16.67-1.31a13,13,0,0,1,1.79-2.5,7.34,7.34,0,0,1,1.8-1.44,4.09,4.09,0,0,1,1.33-.48,3.52,3.52,0,0,1,.36,0h.12L24,101a3.14,3.14,0,0,0-.36.08,4.7,4.7,0,0,0-1.29.59,8,8,0,0,0-1.7,1.51A15.3,15.3,0,0,0,19,105.66c-.08.15-.34.62-.64,1.29a21.56,21.56,0,0,0-.95,2.44,25,25,0,0,0-.68,2.58c0,.14-.06.27-.08.39s.07.53.11.79c0-.27.07-.55.11-.83a20.67,20.67,0,0,1,.6-2.46l.16-.47c.05-.14.29-.77.31-.85a16.12,16.12,0,0,1,1.35-2.63c.25-.36.48-.71.72-1l.34-.43.33-.36c.21-.24.41-.43.59-.6l.25-.23.62-.49c-.06,0-.52.49-.58.56l-.24.25c-.17.19-.36.4-.55.65s-.21.25-.31.39-.21.29-.32.44c-.22.3-.44.66-.67,1a19.09,19.09,0,0,0-1.28,2.6c0,.07-.25.69-.3.82s-.09.3-.14.47a18.62,18.62,0,0,0-.56,2.4c0,.44-.13.88-.15,1.29,0,.21,0,.42,0,.61v.52l.15,1c.08-1.06.19-1.9.22-2.11s.07-.52.12-.78.11-.5.16-.74c.1-.48.24-.94.37-1.37a9.63,9.63,0,0,1,.43-1.19,5.29,5.29,0,0,1,.22-.53c.07-.16.15-.31.23-.46s.27-.55.41-.76.59-.9.65-1l-.58,1c-.12.22-.23.5-.37.79l-.2.47c-.07.16-.13.35-.19.53a12,12,0,0,0-.38,1.19c-.11.42-.24.87-.33,1.35-.05.24-.09.48-.14.73s-.08.5-.12.76a29.36,29.36,0,0,0-.25,3.58,1.62,1.62,0,0,1,0,.19l.24,1.32c0-.17,0-.35,0-.53,0-1,0-2.06,0-2.88,0-.41,0-.77,0-1s0-.48,0-.58a13.66,13.66,0,0,1,.7-3.48,16.93,16.93,0,0,1,1.15-2.52c.37-.67.69-1.19.92-1.54l.34-.54-.31.57c-.2.38-.5.92-.84,1.62a18.74,18.74,0,0,0-1,2.53,14.6,14.6,0,0,0-.64,3.38c0,.09,0,.29,0,.57s0,.63,0,1c0,.82,0,1.85,0,2.89v.6c0-.17.07-1,.08-1.09s0-1.25.06-1.74.05-1,.09-1.38c.05-.84.15-1.45.16-1.64l.06-.48c0-.15.05-.31.08-.46.06-.31.23-1.2.26-1.34L19,110l.15-.39a14.83,14.83,0,0,1,1.28-2.45c.41-.65.75-1.16,1-1.51s.25-.39.31-.48c-.17.32-.86,1.52-1.18,2.1a15.26,15.26,0,0,0-1.17,2.48c-.05.12-.09.24-.14.37s-.18.66-.22.8-.29,1.61-.31,1.77l-.06.46c0,.19-.1.8-.15,1.62q0,.28,0,.6c.16-1,.32-1.8.37-2a22.41,22.41,0,0,1,1-3.36A14.43,14.43,0,0,1,21,107.51a10,10,0,0,1,1-1.4l.4-.42-.37.46a12.42,12.42,0,0,0-1,1.47A16.44,16.44,0,0,0,20,110.1a25.11,25.11,0,0,0-.91,3.32c-.06.23-.22,1.09-.39,2.21.07-.25.13-.49.19-.72s.11-.39.16-.56.31-.93.34-1a22.51,22.51,0,0,1,2.93-5.51c.45-.63.83-1.1,1.1-1.43l.41-.49-.38.53c-.25.35-.61.85-1,1.51a27.93,27.93,0,0,0-2.28,4.3,16.53,16.53,0,0,1,2.31-3.65c.24-.29.47-.53.68-.74s.38-.38.54-.51.43-.35.46-.39-.19.2-.44.44-.31.33-.51.55-.41.48-.64.78a22,22,0,0,0-2.9,5.45,27.33,27.33,0,0,0-1,3.54c0,.08-.05.34-.06.39a27.27,27.27,0,0,1,1.29-3.52A20,20,0,0,1,23.52,109c.28-.29.55-.52.78-.73s.45-.36.62-.48l.53-.37-.51.42c-.17.13-.36.32-.59.53s-.48.47-.74.77a22.8,22.8,0,0,0-3.48,5.59,27.26,27.26,0,0,0-1.54,4.7c-.07.33-.13.68-.18,1l.06-.25a26.73,26.73,0,0,1,1.7-4.65,17.14,17.14,0,0,1,3.77-5.25,10.09,10.09,0,0,1,1.42-1.1l.54-.32-.52.37a12.49,12.49,0,0,0-1.36,1.2,19.56,19.56,0,0,0-3.61,5.31,25,25,0,0,0-1.63,4.59c-.13.55-.24,1.12-.33,1.67,0,.11,0,.22-.05.33.07-.34.14-.67.22-1a25.74,25.74,0,0,1,.91-3c.16-.4.3-.76.42-1s.21-.46.26-.55a15.32,15.32,0,0,1,1.87-3.1,11.21,11.21,0,0,1,1.92-2,7.91,7.91,0,0,1,1.46-.94l.55-.27-.54.32a9.44,9.44,0,0,0-1.4,1,13,13,0,0,0-1.83,2A17,17,0,0,0,21,115.92a10.14,10.14,0,0,1,2.35-2.71,11.76,11.76,0,0,1,2.46-1.49c.72-.33,1.31-.56,1.72-.71s.57-.21.62-.23l-.61.28c-.4.18-1,.45-1.69.83a13.64,13.64,0,0,0-2.38,1.59A10.52,10.52,0,0,0,21,116.4c-.05.09-.17.28-.31.57s-.32.67-.5,1.11a20.89,20.89,0,0,0-.68,2,15.26,15.26,0,0,1,.64-1.64l.15-.32.42-.76c.15-.27.28-.45.34-.55a11,11,0,0,1,2.55-2.74,12.64,12.64,0,0,1,2.4-1.46,16,16,0,0,1,1.7-.69l.62-.21-.61.26c-.39.17-1,.44-1.66.81a14.34,14.34,0,0,0-2.34,1.56,12,12,0,0,0-2.45,2.73c-.05.09-.18.27-.33.53s-.34.65-.4.74l-.14.32-.06.15.29-.51A11.54,11.54,0,0,1,23,115.54a6.41,6.41,0,0,1,2.38-1.2l.95-.26.71-.19.6-.19-.59.24c-.19.08-.43.16-.71.26s-.59.19-.93.32a6.81,6.81,0,0,0-2.29,1.29,12.29,12.29,0,0,0-2.27,2.77,13.67,13.67,0,0,0-.81,1.56,16,16,0,0,0-.68,1.85c0,.19-.07.38-.11.57a16.19,16.19,0,0,1,.71-1.92c.11-.23.21-.48.33-.7l.35-.64a10.07,10.07,0,0,1,.75-1.13,8.09,8.09,0,0,1,.75-.91l.36-.38.35-.31a7.17,7.17,0,0,1,.62-.5l.89-.59-.85.69c-.17.15-.37.35-.57.56a13.22,13.22,0,0,0-2.73,4.12,19.47,19.47,0,0,0-1.1,3.64c-.05.24-.08.49-.11.73a.52.52,0,0,1,0,.11c.06-.39.13-.8.21-1.21a14.71,14.71,0,0,1,.75-2.57c.13-.34.26-.63.37-.87l.22-.45a10.16,10.16,0,0,1,1.69-2.44A19.49,19.49,0,0,1,24,116.4a7.52,7.52,0,0,0,.64-.54c.19-.16.34-.33.46-.45l.36-.44-.33.48c-.12.14-.26.32-.44.51s-.39.39-.62.6c-.47.42-1.06.89-1.64,1.49a11.1,11.1,0,0,0-1.61,2.41l-.21.44c-.1.23-.23.51-.35.85a15.49,15.49,0,0,0-.6,2c.16-.59.31-1,.35-1.14a10.48,10.48,0,0,1,2.4-3.83c.38-.39.7-.69.91-.88l.35-.29-.32.34c-.2.22-.5.55-.84,1a12.76,12.76,0,0,0-2.24,3.87,9.71,9.71,0,0,0-.34,1.16,12.26,12.26,0,0,0-.31,2.2v.33a16.13,16.13,0,0,1,.45-2.35c.11-.41.23-.75.32-1s.18-.45.21-.54l.18-.44.41-.8c.07-.12.15-.24.23-.36a9.36,9.36,0,0,1,.92-1.28c.64-.74,1.25-1.33,1.72-1.87a7.62,7.62,0,0,0,1-1.45c0-.1.09-.19.12-.26s.09-.22.13-.3c0,.09-.09.25-.1.31l-.11.28a7.41,7.41,0,0,1-.94,1.55c-.45.6-1.05,1.23-1.66,2a9.86,9.86,0,0,0-.87,1.28c-.08.12-.15.24-.22.36s-.32.65-.39.78-.11.28-.17.42-.11.26-.2.52-.2.6-.3,1c-.05.16-.09.34-.13.52.11-.32.2-.6.29-.81s.18-.44.22-.52a11.88,11.88,0,0,1,1.67-2.83c.61-.74,1.2-1.33,1.66-1.86a10.6,10.6,0,0,0,1-1.34l.33-.51-.29.54a12.36,12.36,0,0,1-1,1.45c-.45.56-1,1.2-1.59,2a13.19,13.19,0,0,0-1.59,2.8c0,.08-.11.26-.21.51s-.2.57-.33,1A15.39,15.39,0,0,0,19.9,128l0,.34,0,.11c0-.15,0-.28,0-.31s0-.11,0-.19a10.4,10.4,0,0,1,.7-2.73c.07-.18.15-.35.21-.5a3.57,3.57,0,0,1,.19-.39l.23-.47.41-.72.41-.67.44-.62q.22-.28.45-.54c.57-.69,1.15-1.27,1.58-1.78a9.1,9.1,0,0,0,1-1.32c.15-.26.24-.43.28-.51q0,.12-.24.54a9.49,9.49,0,0,1-.89,1.43c-.41.55-1,1.17-1.52,1.88-.14.17-.28.36-.42.55l-.42.61-.4.68-.4.71-.22.46c-.05.11-.12.24-.18.38s-.13.31-.19.49a9.66,9.66,0,0,0-.64,2.62c0,.07,0,.11,0,.19s0,.41,0,.52a13.84,13.84,0,0,1,.6-2.51c.13-.38.28-.69.37-.94l.24-.49a9.44,9.44,0,0,1,1.82-2.56c.65-.63,1.24-1.19,1.71-1.68a8.84,8.84,0,0,0,1-1.29l.14-.24s.12-.23.16-.29l-.14.32a2.68,2.68,0,0,0-.12.24,9.45,9.45,0,0,1-1,1.4c-.89,1.12-2.4,2.23-3.39,4.33,0,.08-.12.24-.23.48s-.22.55-.35.92-.22.7-.31,1.1a6.49,6.49,0,0,1,.27-.64,8.76,8.76,0,0,1,.74-1.27,16.6,16.6,0,0,1,2-2.23c.63-.62,1.21-1.18,1.64-1.7a11.43,11.43,0,0,0,1-1.33l.31-.54-.28.57a9.41,9.41,0,0,1-.91,1.44,22.87,22.87,0,0,1-1.59,1.82A20.41,20.41,0,0,0,22,125.93a7.78,7.78,0,0,0-.7,1.24,8.58,8.58,0,0,0-.43,1.17c-.06.22-.11.46-.16.7a2.08,2.08,0,0,0-.06.36l0,.38a5.41,5.41,0,0,0-.05,1c0,.13.07.25.1.38,0-.26,0-.51.08-.75s.1-.62.16-.92a14.33,14.33,0,0,1,.43-1.56,10.39,10.39,0,0,1,.44-1.13,5.44,5.44,0,0,1,.28-.58l.24-.46a4.32,4.32,0,0,1,.27-.42l.27-.41.31-.36c.1-.11.2-.23.3-.33l.31-.3.63-.52a19.6,19.6,0,0,0,2.16-1.74A6.26,6.26,0,0,0,27.66,120c.11-.21.18-.39.23-.51l.08-.18-.07.19a3.75,3.75,0,0,1-.21.53,6.34,6.34,0,0,1-1.07,1.74,17.81,17.81,0,0,1-2.12,1.88c-.2.17-.41.35-.61.54l-.3.29c-.1.1-.19.22-.28.33s-.2.23-.29.35l-.26.39a4.06,4.06,0,0,0-.25.41l-.24.45c0,.09-.15.27-.27.56s-.28.65-.41,1.1-.27,1-.4,1.53c-.05.28-.1.58-.14.88s-.06.61-.09.92,0,.45,0,.68l0,.12c0-.08,0-.15,0-.22,0-.26.07-.52.1-.77s.1-.51.16-.76a11.6,11.6,0,0,1,.94-2.6c.17-.33.34-.61.46-.82s.24-.36.28-.43a12.57,12.57,0,0,1,1.93-2.29c.64-.6,1.23-1.12,1.69-1.61a8.46,8.46,0,0,0,1-1.27c.1-.16.17-.3.22-.39l.08-.14-.06.15c-.05.09-.11.24-.21.42a8.7,8.7,0,0,1-.94,1.38c-.45.53-1,1.09-1.65,1.72a14.5,14.5,0,0,0-1.85,2.3l-.27.42c-.12.21-.27.49-.44.81a12.05,12.05,0,0,0-.88,2.52l-.12.56a9.47,9.47,0,0,1,.8-2.27,9.94,9.94,0,0,1,.72-1.17,15.63,15.63,0,0,1,1.82-2.15c.58-.62,1.11-1.17,1.52-1.67q.32-.37.54-.69c.15-.22.29-.4.38-.56.19-.33.3-.5.3-.5l-.26.53c-.09.18-.21.37-.35.61s-.31.48-.51.75c-.39.54-.89,1.13-1.46,1.78A23.25,23.25,0,0,0,23.17,128a11.71,11.71,0,0,0-.68,1.15,9.08,9.08,0,0,0-.49,1.22,12.34,12.34,0,0,1,.53-1.18c.3-.57.56-.95.63-1.07a17.18,17.18,0,0,1,1.61-2c.52-.56,1-1,1.42-1.45l1.3-1.31-.31.39c-.21.26-.51.62-.9,1.07s-.85,1-1.35,1.55a21.66,21.66,0,0,0-1.55,2c-.07.12-.32.49-.6,1a10.71,10.71,0,0,0-.71,1.85c.12-.26.24-.49.35-.69a11.45,11.45,0,0,1,.74-1.12,18.63,18.63,0,0,1,1.87-2c.6-.58,1.14-1.08,1.56-1.55l.55-.66a5.83,5.83,0,0,0,.39-.53l.3-.44-.26.48c-.09.17-.22.35-.36.58l-.53.71c-.4.51-.92,1.07-1.5,1.67a25.77,25.77,0,0,0-1.81,2,8.06,8.06,0,0,0-.71,1.09,7.27,7.27,0,0,0-.81,2.33,8.19,8.19,0,0,0-.13,1.31l0,0c0-.15.06-.29.09-.43s.05-.23.08-.35.06-.2.11-.33a7.62,7.62,0,0,1,1.18-2.09c.4-.5.73-.83.82-.94.32-.34.64-.67,1-1s.56-.68.83-1c.51-.66,1-1.27,1.31-1.81s.65-1,.85-1.28l.31-.46-.28.5c-.18.32-.43.8-.77,1.36S26.48,128,26,128.72c-.27.32-.54.69-.83,1l-.95,1a10.67,10.67,0,0,0-.79.94,6.94,6.94,0,0,0-1.1,2l-.1.31c0,.11,0,.22-.07.33s-.06.27-.08.41a8.36,8.36,0,0,1,.32-.83A9.29,9.29,0,0,1,23.63,132a12.07,12.07,0,0,1,.82-.89c.67-.62,1.3-1.2,1.85-1.77.26-.3.52-.57.73-.86l.32-.42.27-.41a7.6,7.6,0,0,0,.43-.73,2.49,2.49,0,0,0,.17-.31l.34-.73c-.06.18-.25.68-.28.77a3.11,3.11,0,0,1-.15.33,6.53,6.53,0,0,1-.4.79l-.25.44c-.09.15-.2.29-.3.45-.21.31-.46.6-.72.93-.54.61-1.17,1.22-1.83,1.84a10.26,10.26,0,0,0-1.95,2.76,6.71,6.71,0,0,0-.46,1.44c.07-.16.14-.32.22-.48a.67.67,0,0,1,.06-.12c0-.05,0-.06.05-.12s.08-.16.12-.26a9,9,0,0,1,1.09-1.76c.35-.44.63-.74.71-.83.56-.63,1.12-1.17,1.61-1.69a14.68,14.68,0,0,0,1.25-1.46A9.94,9.94,0,0,0,28,127.8c.11-.22.18-.37.22-.43s-.08.22-.18.46a8.74,8.74,0,0,1-.64,1.23,13,13,0,0,1-1.2,1.58c-.47.56-1,1.13-1.58,1.75a11,11,0,0,0-1.59,2.32,8.84,8.84,0,0,1,1.18-1.44,11.25,11.25,0,0,1,.87-.83c.67-.63,1.33-1.19,1.89-1.76a9.28,9.28,0,0,0,1.35-1.7,6.34,6.34,0,0,0,.62-1.43c.07-.27.12-.46.15-.54,0,.08-.06.27-.11.56a6.72,6.72,0,0,1-.54,1.52,8.87,8.87,0,0,1-1.31,1.84c-.55.61-1.2,1.21-1.87,1.84-.11.09-.44.4-.85.83a9,9,0,0,0-1.32,1.75,4.8,4.8,0,0,0-.3.65.1.1,0,0,1,0-.05,6,6,0,0,1,1.35-1.27c.41-.3.73-.49.82-.56.64-.41,1.27-.77,1.81-1.14a7.69,7.69,0,0,0,1.36-1.16c.09-.09.16-.2.24-.29l.2-.27c.1-.19.22-.34.29-.48s.16-.32.2-.39-.09.21-.16.42-.16.32-.26.52a2.59,2.59,0,0,1-.19.31c-.07.1-.13.22-.22.33A7.06,7.06,0,0,1,27,133.26c-.54.42-1.17.81-1.8,1.22-.09.06-.41.27-.81.57a6,6,0,0,0-1.27,1.26,2.76,2.76,0,0,0-.51.9s-2.7-4.63-5.68-21a63.6,63.6,0,0,1-.59-18.53c1.79-15.81,6.21-29.59,10.6-37.36C38.48,39.79,50,29.89,68.14,24.3,85.53,18.94,117.47,20,120,20.07Z"/><path class="cls-5" d="M22.77,143.64c.14-.13.3-.07.52-.2.46-.28.51-1.06.46-1.7a7.55,7.55,0,0,1,.72,1.23,7.83,7.83,0,0,1,.64,2.25,8.93,8.93,0,0,1,.67,1.73c.43,1.58.17,2.41.51,3.94a8.39,8.39,0,0,0,.6,1.74,1.35,1.35,0,0,1,0,1.16,7,7,0,0,0-.33.73,8.52,8.52,0,0,0-.46,3.93H26a23.67,23.67,0,0,1-.7-3.91c-.19-2,0-2-.19-3.39a21.14,21.14,0,0,0-1.61-5C23.07,145.29,22.38,144,22.77,143.64Z"/></svg>