<svg id="Layer_1" data-name="Layer 1" xmlns="http://www.w3.org/2000/svg" xmlns:xlink="http://www.w3.org/1999/xlink" viewBox="0 0 164.89 164.89"><defs><style>.cls-1{fill:url(#linear-gradient);}.cls-2{fill:url(#linear-gradient-2);}.cls-3{fill:#001c5c;}</style><linearGradient id="linear-gradient" x1="81.15" y1="115.03" x2="54.75" y2="138.39" gradientUnits="userSpaceOnUse"><stop offset="0" stop-color="#3178b2"/><stop offset="1" stop-color="#05ffc8"/></linearGradient><linearGradient id="linear-gradient-2" x1="85.4" y1="126.67" x2="97.58" y2="104.84" xlink:href="#linear-gradient"/></defs><path d="M70.19,135.55l.07.06Zm0,0,.07.06Z"/><path class="cls-1" d="M126.33,143.12c1.12-.35,1.75-.58,1.75-.58a35.7,35.7,0,0,0,7.68-3.75,33.41,33.41,0,0,1-11,3.07c-9,.85-16.18-3.06-22.25-6.51-23.42-13.3-35.13-19.94-42.14-27.42A103.42,103.42,0,0,1,41.05,78.45c-.15,1.08-.35,2.6-.52,4.39a45.09,45.09,0,0,0-.25,5.33c0,.49,0,1,0,1.51s.33,3.65.36,4,.08.5.13.83c.18,1.09.38,2.19.59,3.28s.54,2.19.82,3.25l.21.79c.08.27,1.1,3.29,1.27,3.76s.36.94.54,1.38c.36.89.73,1.73,1.06,2.48s.7,1.45,1,2c.59,1.19,1,2.05,1.28,2.45A72.55,72.55,0,0,0,58,128a84.69,84.69,0,0,0,11,9.57c1.68,1.22,3.25,2.28,4.65,3.15,1,.59,1.82,1.13,2.6,1.59h0a45.78,45.78,0,0,0,4.21,2.33c4.61,2.24,8.43,3.11,15.89,4.55,3.37.66,6.49,1.24,9.31,1.75l-1.46-.33,1.91.41-.45-.08c1.75.37,3.38.65,4.87.85l-.15,0c-.38-.07-1.46-.26-3.12-.59a83.94,83.94,0,0,1-8.79-2.26l-2.85-1-1.91-.71a68.56,68.56,0,0,1-17.71-10.72,65.27,65.27,0,0,0,16.09,7.71l.21.07.42.13c.93.29,1.87.56,2.82.79,4.72,1.22,11.37,2.86,19.92,1.71h0c1.11-.13,2.22-.3,3.31-.53l1.31-.29,1.49-.41-1.52.38-1,.21a45.12,45.12,0,0,0,7.51-2.37,12.65,12.65,0,0,1-2.1.18,11.54,11.54,0,0,1-1.86-.13c.51-.09,1-.16,1.42-.25C125,143.47,125.76,143.3,126.33,143.12Zm-56.14-7.57.07.06Z"/><path class="cls-2" d="M136.73,134.75s-4.3-1.89-8.62-3.92c-.48-.26-1.06-.54-1.69-.86-3.51-1.82-23.27-11.79-25.93-13.22l-1.62-.88c-10-5.57-15.26-9.12-15.26-9.12a126.52,126.52,0,0,0-14.5-8.92,110.86,110.86,0,0,0-14.58-6.2c-.63-.33-1.25-.68-1.86-1.08a25.82,25.82,0,0,1-6.08-5.67c-.53-.67-1-1.36-1.44-2a99,99,0,0,0,16.32,24.07c9,9.8,19.85,15.59,41.46,27.16,6.38,3.42,13.16,6.74,21.83,6.35a40.8,40.8,0,0,0,7.58-1.14c.39-.23.76-.46,1.08-.69h0a26,26,0,0,1-2.77.76c.87-.23,1.74-.46,2.61-.72l-2,.49c-.63.15-1.39.34-2.26.53s-1.82.25-2.63.3a38.27,38.27,0,0,1,11.55-2.33,39.44,39.44,0,0,1,6,.19C141.9,137,139.48,136,136.73,134.75Zm-27.61-13.34c5.59,2.8,12.53,6.26,16.93,8.44C119.75,126.86,114.09,124,109.12,121.41Z"/><path class="cls-3" d="M136.59,138.23l-.82.55h0a33.41,33.41,0,0,1-11,3.07c-9,.85-16.18-3.06-22.25-6.51-23.42-13.3-35.13-19.94-42.14-27.42A103.42,103.42,0,0,1,41.05,78.45a104.65,104.65,0,0,1-4.24-18v-.27c.52,1.58,1.05,3.16,1.54,4.76A46.3,46.3,0,0,0,41,71.85q.73,2.91,1.66,5.75l.09,0c.77,1.84,1.57,3.6,2.38,5.29a99,99,0,0,0,16.32,24.07c9,9.8,19.85,15.59,41.46,27.16,6.38,3.42,13.16,6.74,21.83,6.35a40.8,40.8,0,0,0,7.58-1.14A38.69,38.69,0,0,1,136.59,138.23Z"/></svg>