<svg xmlns="http://www.w3.org/2000/svg" viewBox="0 0 31.96 32.13"><defs><style>.cls-1{fill:#ffffff;}</style></defs><g id="Layer_2" data-name="Layer 2"><g id="OBJECTS"><path class="cls-1" d="M23.21,15.45a3.81,3.81,0,1,0,3.8,3.8A3.81,3.81,0,0,0,23.21,15.45Zm0,5.07a1.27,1.27,0,1,1,1.27-1.27A1.27,1.27,0,0,1,23.21,20.52Zm0-10.14a8.75,8.75,0,0,0-8.75,8.74v.23c0,2.43,1.36,5.22,4.05,8.31a33.46,33.46,0,0,0,3.9,3.81l.8.64.8-.64a33.46,33.46,0,0,0,3.9-3.81C30.6,24.57,32,21.78,32,19.35v-.23A8.76,8.76,0,0,0,23.21,10.38Zm6.21,9c0,3.24-3.94,7.44-6.21,9.46A32.48,32.48,0,0,1,20.42,26C18.18,23.42,17,21.12,17,19.35v-.23a6.22,6.22,0,0,1,12.43,0v.23ZM17.68,32.13H6.47a3.81,3.81,0,0,1-3.81-3.81v-14l-.56.49a1.27,1.27,0,0,1-1.79-.12h0a1.27,1.27,0,0,1,.13-1.79L15,.26a1,1,0,0,1,1.37,0l9,7.79a11.19,11.19,0,0,0-2.18-.21,12.65,12.65,0,0,0-1.52.1.51.51,0,0,1-.44-.13L16.1,3.34a.57.57,0,0,0-.74,0L5.2,12.16V28.32a1.27,1.27,0,0,0,1.27,1.27H16.54a.68.68,0,0,1,.49.22c.39.43.77.83,1.13,1.19A.67.67,0,0,1,17.68,32.13Z"/></g></g></svg>