<svg xmlns="http://www.w3.org/2000/svg" viewBox="0 0 32.61 33.27"><defs><style>.cls-1{fill:#ffffff;}</style></defs><g id="Layer_2" data-name="Layer 2"><g id="OBJECTS"><path class="cls-1" d="M16.31,0A16.32,16.32,0,0,0,0,16.31a18.28,18.28,0,0,0,2,7.87,1.13,1.13,0,0,0,2-1,16,16,0,0,1-1.79-6.84,14,14,0,1,1,14,14A14.55,14.55,0,0,1,10,28.85a1.12,1.12,0,0,0-.86-.07L2,31.06a1.13,1.13,0,0,0,.34,2.21,1.06,1.06,0,0,0,.35-.05l6.7-2.14a16.78,16.78,0,0,0,6.93,1.53A16.31,16.31,0,0,0,16.31,0Z"/><path class="cls-1" d="M13.09,13.53a1.13,1.13,0,1,0,1.38,1.79,2.46,2.46,0,0,0,1.14-2.24,6.2,6.2,0,0,0-1.42-2.52A5.56,5.56,0,0,0,12,8.67a2.47,2.47,0,0,0-1.67.08A4,4,0,0,0,8,11a3.81,3.81,0,0,0,.2,3.1,20.37,20.37,0,0,0,4.69,6.41l0,0a20.34,20.34,0,0,0,6.9,4,4.44,4.44,0,0,0,1.45.26,3.48,3.48,0,0,0,1.65-.41,4,4,0,0,0,1.94-2.58,2.45,2.45,0,0,0-.11-1.67,5.67,5.67,0,0,0-2.12-2,6.11,6.11,0,0,0-2.67-1.13h0a2.47,2.47,0,0,0-2.1,1.37,1.14,1.14,0,1,0,1.94,1.18,2.9,2.9,0,0,1,.18-.27A8.58,8.58,0,0,1,22.63,21a.2.2,0,0,1,0,.13,1.83,1.83,0,0,1-.81,1.18,1.7,1.7,0,0,1-1.31,0,18.09,18.09,0,0,1-6.12-3.52h0a18.18,18.18,0,0,1-4.19-5.71,1.69,1.69,0,0,1-.13-1.3,1.87,1.87,0,0,1,1.08-.94c.07,0,.11,0,.13,0a8.74,8.74,0,0,1,2.07,2.49l-.25.21Z"/></g></g></svg>