<svg xmlns="http://www.w3.org/2000/svg" width="58" height="58" viewBox="0 0 58 58"><defs><style>.a{fill:#b0d2e8;}.b{fill:#045e8b;}</style></defs><g transform="translate(-0.437)"><rect class="a" width="58" height="58" rx="29" transform="translate(0.437 0)"/><g transform="translate(1 1.242)"><path class="b" d="M-2417.463,2518.219a28.142,28.142,0,0,1-28.142,28.141,28.141,28.141,0,0,1-28.141-28.141,28.141,28.141,0,0,1,28.141-28.141A28.142,28.142,0,0,1-2417.463,2518.219Zm-28.142-24.181a24.181,24.181,0,0,0-24.181,24.181A24.181,24.181,0,0,0-2445.6,2542.4a24.181,24.181,0,0,0,24.181-24.181A24.181,24.181,0,0,0-2445.6,2494.038Z" transform="translate(2473.746 -2490.078)"/><g transform="translate(9.451 9.451)"><path class="b" d="M-2435.032,2547.483a18.71,18.71,0,0,1-18.689-18.689,18.711,18.711,0,0,1,18.689-18.69,18.712,18.712,0,0,1,18.691,18.69A18.711,18.711,0,0,1-2435.032,2547.483Zm0-35.02a16.348,16.348,0,0,0-16.329,16.33,16.348,16.348,0,0,0,16.329,16.33,16.349,16.349,0,0,0,16.331-16.33A16.349,16.349,0,0,0-2435.032,2512.463Z" transform="translate(2453.721 -2510.103)"/></g><g transform="translate(19.491 27.447)"><path class="b" d="M-2431.267,2565.949a1.173,1.173,0,0,1-.307-.041,1.18,1.18,0,0,1-.833-1.445,21.961,21.961,0,0,1,21.184-16.229,22.052,22.052,0,0,1,4.573.479,1.179,1.179,0,0,1,.909,1.4,1.178,1.178,0,0,1-1.4.909,19.728,19.728,0,0,0-4.084-.427,19.6,19.6,0,0,0-18.905,14.482A1.181,1.181,0,0,1-2431.267,2565.949Z" transform="translate(2432.448 -2548.234)"/></g><g transform="translate(9.577 12.234)"><path class="b" d="M-2445.014,2532.276a21.871,21.871,0,0,1-7.673-1.38,1.179,1.179,0,0,1-.692-1.518,1.178,1.178,0,0,1,1.518-.692,19.511,19.511,0,0,0,6.847,1.23,19.593,19.593,0,0,0,18.486-13.125,1.179,1.179,0,0,1,1.5-.725,1.179,1.179,0,0,1,.725,1.5A21.955,21.955,0,0,1-2445.014,2532.276Z" transform="translate(2453.454 -2516)"/></g><g transform="translate(19.105 11.308)"><path class="b" d="M-2416.723,2547.875a1.18,1.18,0,0,1-1.179-1.15c-.2-7.844-6.656-22.62-15-30.657a1.18,1.18,0,0,1-.031-1.668,1.18,1.18,0,0,1,1.668-.031c8.746,8.42,15.515,24,15.725,32.3a1.179,1.179,0,0,1-1.149,1.209Z" transform="translate(2433.266 -2514.038)"/></g></g></g></svg>