<svg xmlns="http://www.w3.org/2000/svg" xmlns:xlink="http://www.w3.org/1999/xlink" width="403" height="403" viewBox="0 0 403 403"><defs><style>.a{fill:#d999b3;}.b{fill:#d7a3be;}.c{fill:#001c5c;}.d,.g,.j{mix-blend-mode:multiply;isolation:isolate;}.d{fill:url(#e);}.e{fill:#465a89;}.f{fill:#60a7b2;}.g{fill:url(#f);}.h{fill:#05ffc8;}.i{fill:#0089bf;}.j{fill:url(#g);}.k{fill:url(#h);}.l{fill:url(#i);}.m{fill:url(#j);}.n{fill:url(#k);}.o{fill:url(#l);}.p{filter:url(#c);}.q{filter:url(#a);}</style><filter id="a" x="1" y="1" width="402" height="402" filterUnits="userSpaceOnUse"><feOffset dx="8" dy="8" input="SourceAlpha"/><feGaussianBlur stdDeviation="13" result="b"/><feFlood flood-opacity="0.349"/><feComposite operator="in" in2="b"/><feComposite in="SourceGraphic"/></filter><filter id="c" x="0" y="0" width="372" height="372" filterUnits="userSpaceOnUse"><feOffset dx="-8" dy="-8" input="SourceAlpha"/><feGaussianBlur stdDeviation="8" result="d"/><feFlood flood-color="#fff" flood-opacity="0.6"/><feComposite operator="in" in2="d"/><feComposite in="SourceGraphic"/></filter><radialGradient id="e" cx="0.399" cy="0.181" r="0.816" gradientTransform="translate(0.165) scale(0.671 1)" gradientUnits="objectBoundingBox"><stop offset="0.067"/><stop offset="0.609" stop-color="#60a7b2" stop-opacity="0"/></radialGradient><linearGradient id="f" x1="0.616" y1="0.835" x2="0.384" y2="0.203" gradientUnits="objectBoundingBox"><stop offset="0.391" stop-color="#60a7b2" stop-opacity="0"/><stop offset="0.933"/></linearGradient><radialGradient id="g" cx="0.507" cy="0.173" r="0.888" gradientTransform="translate(0.145) scale(0.711 1)" gradientUnits="objectBoundingBox"><stop offset="0"/><stop offset="0.078" stop-color="#162629" stop-opacity="0.769"/><stop offset="0.778" stop-color="#60a7b2" stop-opacity="0"/></radialGradient><radialGradient id="h" cx="0.522" cy="0.168" r="1.8" gradientTransform="translate(0.204) scale(0.593 1)" gradientUnits="objectBoundingBox"><stop offset="0.067" stop-color="#fff"/><stop offset="0.137" stop-color="#e5fff9" stop-opacity="0.898"/><stop offset="0.287" stop-color="#a2ffea" stop-opacity="0.631"/><stop offset="0.504" stop-color="#3affd3" stop-opacity="0.212"/><stop offset="0.609" stop-color="#05ffc8" stop-opacity="0"/></radialGradient><radialGradient id="i" cx="-0.31" cy="0.431" r="0.448" gradientTransform="matrix(2.785, 0.216, -1.02, 1.616, 0.992, -0.198)" gradientUnits="objectBoundingBox"><stop offset="0" stop-color="#fff"/><stop offset="0.094" stop-color="#f9fcfd"/><stop offset="0.218" stop-color="#e8f4f9"/><stop offset="0.361" stop-color="#cce7f2"/><stop offset="0.517" stop-color="#a5d5e8"/><stop offset="0.684" stop-color="#73bedb"/><stop offset="0.857" stop-color="#37a2cc"/><stop offset="1" stop-color="#0089bf"/></radialGradient><radialGradient id="j" cx="0.659" cy="0.22" r="0.334" gradientTransform="matrix(0.877, 0.48, -0.241, 0.441, -2.242, -3.691)" gradientUnits="objectBoundingBox"><stop offset="0" stop-color="#fff" stop-opacity="0.2"/><stop offset="0.311" stop-color="#eef4f6" stop-opacity="0.188"/><stop offset="0.568" stop-color="#bbd1dd" stop-opacity="0.149"/><stop offset="0.805" stop-color="#6598b2" stop-opacity="0.078"/><stop offset="1" stop-color="#00547f" stop-opacity="0"/></radialGradient><radialGradient id="k" cx="1.283" cy="0.457" r="0.437" gradientTransform="matrix(-2.782, 0.221, 0.986, 1.526, -330.929, 19.071)" gradientUnits="objectBoundingBox"><stop offset="0" stop-color="#fff"/><stop offset="0.09" stop-color="#f1f8fb"/><stop offset="0.257" stop-color="#cfe8f3"/><stop offset="0.482" stop-color="#97cfe4"/><stop offset="0.754" stop-color="#4aabd1"/><stop offset="1" stop-color="#0089bf"/></radialGradient><radialGradient id="l" cx="0.66" cy="0.221" r="0.334" gradientTransform="matrix(-0.858, -0.513, -0.258, 0.431, -315.136, -126.582)" xlink:href="#j"/></defs><g transform="translate(-766 -4310)"><g class="q" transform="matrix(1, 0, 0, 1, 766, 4310)"><circle class="a" cx="147" cy="147" r="147" transform="translate(47 47)"/></g><g class="p" transform="matrix(1, 0, 0, 1, 766, 4310)"><circle class="b" cx="147" cy="147" r="147" transform="translate(47 47)"/></g><g transform="translate(754.662 4336.001)"><path class="c" d="M222.541,283.3c-22.51,5.35-37.37,1.83-46.9-2.57-8.73-4.03-15.26-9.84-21.41-14.91-7.42-6.12-14.29-11.17-23.83-10.75a27.992,27.992,0,0,0-11.5,3.15,36.448,36.448,0,0,0-5.19,3.2,47.529,47.529,0,0,1,2.19-7.01,42.935,42.935,0,0,1,11.46-16.3c12.28-10.75,30.05-13.42,43.59-8,.54.22,1.08.45,1.6.69,14.55,6.65,22.63,22,24.19,24.96,3.42,6.49,4.71,12.05,10.9,18.21A41.061,41.061,0,0,0,222.541,283.3Z"/><path class="d" d="M173.191,237.079a31.247,31.247,0,0,1-18.96,28.74c-7.42-6.12-14.29-11.17-23.83-10.75a27.992,27.992,0,0,0-11.5,3.15,29.932,29.932,0,0,1-3-3.81,42.935,42.935,0,0,1,11.46-16.3c12.28-10.75,30.05-13.42,43.59-8,.54.22,1.08.45,1.6.69A30.968,30.968,0,0,1,173.191,237.079Z"/><path class="e" d="M146.581,242.479c-4.65.03-32.64-.22-51.86-22.07-16.43-18.68-16.47-40.84-16.37-47.27a73.386,73.386,0,0,1,5.52-26.67,48.906,48.906,0,0,0,8.64,21.89c5.51,7.52,12.46,11.93,19.68,15.08,3.78,1.64,7.63,2.94,11.4,4.16,1.91.62,3.8,1.22,5.65,1.84h.01c5.22,1.75,10.07,3.61,14.08,6.39a22.937,22.937,0,0,1,7.02,7.46C154.071,209.719,156.4,221.129,146.581,242.479Z"/><path class="f" d="M148.412,120.6c5.562,12.328,16.825,21.684,15.1,35.437-1.184,9.356-8.533,22.025-37.524,34.894-1.185-1.726-3.052-4.317-5.522-7.308-7.549-9.135-13.351-12.91-16.825-16.283-10.761-10.38-12.086-29.092-9.657-41.1,2.911-14.416,12.067-23.17,20.68-31.18,21.483-19.957,46.8-27.125,63.184-29.936-8.072,5.12-16.906,11.725-23.31,19.636-5.22,6.445-8.834,13.773-9.1,21.884A30.852,30.852,0,0,0,148.412,120.6Z"/><path class="g" d="M154.536,84.761c-5.22,6.445-8.834,13.773-9.1,21.884-.161,5.2-.371,11.717,11.753,28.687,0,0-19.086,26.816-33.979,2.072,9.343-38.8,31.461-53.506,31.461-53.506Z"/><path class="h" d="M260.981,87.619c-3.73,16.73-9.87,44.19-33.11,54.99-2.61,1.21-18.14,8.43-33.33,2.53-18.11-7.03-19.02-26.2-36.97-32.42-9.86-3.41-19.63-1.11-26.07,1.2,11.02-23.18,24.02-31.89,33.29-35.68a50.361,50.361,0,0,1,18.73-3.64c20.94-.29,40.62,9.53,59.8-1.69,11.12-6.52,16.91-17.09,19.86-23.91.23,2.21.43,4.75.55,7.56A120.465,120.465,0,0,1,260.981,87.619Z"/><path class="i" d="M256.542,158.709a6,6,0,0,0,0-10.5,5.731,5.731,0,0,0-2.95-.79,6.045,6.045,0,0,0-6.02,6.05v48a6.319,6.319,0,1,1-3.511,0v-48a6.045,6.045,0,0,0-6.02-6.05,5.732,5.732,0,0,0-2.95.79,6,6,0,0,0,0,10.5c-1.15,26.06-10.163,49.193-25.623,68.123,10.167,10.842,13.073,16.064,15.723,29.847h10.4v-17.6a10.23,10.23,0,1,1,20.451,0v17.6h10.4c2.65-13.783,5.555-19,15.722-29.847C266.7,207.9,257.692,184.769,256.542,158.709Z"/><path class="j" d="M132.861,206.969c-13.39,1.03-22.6-7.22-22.74-17.25-.04-3.18.77-5.21,2.07-6.28,3.78,1.64,7.63,2.94,11.4,4.16l2.39,3.33,3.26-1.49h.01c5.22,1.75,10.07,3.61,14.08,6.39C143.5,199.769,142.121,206.259,132.861,206.969Z"/><path class="k" d="M263.731,56.559a42.878,42.878,0,0,1-80.21,18.04c20.94-.29,40.62,9.53,59.8-1.69,11.12-6.52,16.91-17.09,19.86-23.91C263.411,51.209,263.611,53.749,263.731,56.559Z"/><path class="l" d="M209.468,226.832a73.252,73.252,0,0,1,8.226,9.809,102.549,102.549,0,0,0,18.675-59.511,103.947,103.947,0,0,0-1.4-17.212A116.377,116.377,0,0,1,209.468,226.832Z"/><circle class="m" cx="5.015" cy="5.015" r="5.015" transform="translate(233.105 148.052)"/><path class="n" d="M282.164,226.832a73.245,73.245,0,0,0-8.225,9.809,102.542,102.542,0,0,1-18.675-59.511,103.837,103.837,0,0,1,1.4-17.212A116.376,116.376,0,0,0,282.164,226.832Z"/><circle class="o" cx="5.015" cy="5.015" r="5.015" transform="translate(248.497 148.052)"/></g></g></svg>