<svg xmlns="http://www.w3.org/2000/svg" width="32" height="24.001" viewBox="0 0 32 24.001"><defs><style>.a{fill:#fbbc05;}.b{fill:#bb001b;}.c{fill:#34a853;}.d{fill:#4285f4;}</style></defs><g transform="translate(123.184 -49.001)"><path class="a" d="M-69.209,70.931a3.963,3.963,0,0,1-.511,1.921l-10.1-11.3,9.994-8.745a3.956,3.956,0,0,1,.622,2.125Z" transform="translate(-21.975 -1.927)"/><path class="b" d="M-105.03,61.674l13.907-12.167A3.951,3.951,0,0,0-93.03,49h-24a3.943,3.943,0,0,0-1.906.506Z" transform="translate(-2.152)"/><path class="c" d="M-101.362,73.205l-3.218,2.818a1.014,1.014,0,0,1-.66.247,1,1,0,0,1-.657-.247l-3.221-2.818L-119.35,84.654a3.958,3.958,0,0,0,2.11.615h24a3.934,3.934,0,0,0,2.107-.615Z" transform="translate(-1.943 -12.267)"/><path class="d" d="M-122.56,52.8a3.984,3.984,0,0,0-.624,2.125v16a3.94,3.94,0,0,0,.516,1.921l10.1-11.306Z" transform="translate(0 -1.927)"/></g></svg>