<svg xmlns="http://www.w3.org/2000/svg" xmlns:xlink="http://www.w3.org/1999/xlink" width="127.73" height="122.412" viewBox="0 0 127.73 122.412">
  <defs>
    <style>
      .cls-1 {
        fill: #001c5c;
      }

      .cls-2 {
        fill: url(#radial-gradient);
      }

      .cls-3 {
        fill: url(#radial-gradient-2);
      }

      .cls-4 {
        fill: url(#radial-gradient-3);
      }

      .cls-5 {
        fill: url(#linear-gradient);
      }

      .cls-6 {
        fill: url(#linear-gradient-2);
      }

      .cls-7 {
        fill: url(#linear-gradient-3);
      }
    </style>
    <radialGradient id="radial-gradient" cx="0.55" cy="0.659" fx="0.6553175449371338" r="0.663" gradientTransform="matrix(0.255, -0.987, 1.116, 0.115, -0.326, 1.126)" gradientUnits="objectBoundingBox">
      <stop offset="0.421" stop-color="#001c5c"/>
      <stop offset="0.446" stop-color="#002b63"/>
      <stop offset="0.556" stop-color="#016b81"/>
      <stop offset="0.661" stop-color="#029f9a"/>
      <stop offset="0.759" stop-color="#03c9ae"/>
      <stop offset="0.847" stop-color="#04e6bc"/>
      <stop offset="0.922" stop-color="#04f8c4"/>
      <stop offset="0.977" stop-color="#05ffc8"/>
    </radialGradient>
    <radialGradient id="radial-gradient-2" cx="0.295" cy="0.963" fx="0.5574509501457214" fy="0.9091914296150208" r="2.063" gradientTransform="matrix(0.435, -0.273, 0.064, 0.495, 0.105, 0.567)" gradientUnits="objectBoundingBox">
      <stop offset="0.327" stop-color="#001c5c"/>
      <stop offset="0.357" stop-color="#00396a"/>
      <stop offset="0.411" stop-color="#01677f"/>
      <stop offset="0.467" stop-color="#029093"/>
      <stop offset="0.527" stop-color="#03b2a3"/>
      <stop offset="0.59" stop-color="#03ceb0"/>
      <stop offset="0.657" stop-color="#04e3bb"/>
      <stop offset="0.731" stop-color="#04f3c2"/>
      <stop offset="0.818" stop-color="#04fcc6"/>
      <stop offset="0.945" stop-color="#05ffc8"/>
    </radialGradient>
    <radialGradient id="radial-gradient-3" cx="0.581" cy="0.524" r="0.932" gradientTransform="matrix(0.708, -0.692, 0.504, 0.537, -0.095, 0.644)" gradientUnits="objectBoundingBox">
      <stop offset="0" stop-color="#05ffc8"/>
      <stop offset="0.25" stop-color="#05fcc7"/>
      <stop offset="0.363" stop-color="#06f5c6"/>
      <stop offset="0.448" stop-color="#09e8c4"/>
      <stop offset="0.519" stop-color="#0cd6c1"/>
      <stop offset="0.582" stop-color="#10bfbe"/>
      <stop offset="0.639" stop-color="#16a2b9"/>
      <stop offset="0.69" stop-color="#1c80b4"/>
      <stop offset="0.731" stop-color="#235faf"/>
    </radialGradient>
    <linearGradient id="linear-gradient" y1="0.5" x2="1" y2="0.5" gradientUnits="objectBoundingBox">
      <stop offset="0" stop-color="#235faf"/>
      <stop offset="0.45" stop-color="#14adbb"/>
      <stop offset="0.822" stop-color="#09e8c4"/>
      <stop offset="1" stop-color="#05ffc8"/>
    </linearGradient>
    <linearGradient id="linear-gradient-2" x1="0.428" y1="0.499" x2="0.152" y2="0.817" gradientUnits="objectBoundingBox">
      <stop offset="0" stop-color="#3178b2"/>
      <stop offset="1" stop-color="#05ffc8"/>
    </linearGradient>
    <linearGradient id="linear-gradient-3" x1="0.408" y1="0.761" x2="0.531" y2="0.382" xlink:href="#linear-gradient-2"/>
  </defs>
  <g id="logo" transform="translate(923.513 525.64)">
    <g id="Group_2311" data-name="Group 2311" transform="translate(-923.513 -525.64)">
      <path id="Path_2969" data-name="Path 2969" class="cls-1" d="M-803.737-486.754c-2.018-.07-27.924-.919-42.035,3.432-14.688,4.53-24.056,12.56-33.429,29.181-3.559,6.309-7.141,17.482-8.6,30.3a51.58,51.58,0,0,0,.484,15.03c2.415,13.314,4.605,17.068,4.605,17.068,1.007,3.926,2.005,7.837,2.76,11.821-.49-1.059-.982-2.108-1.451-3.159-.29-.842-2.552-7.545-3.334-9.823-.25-.729-.5-1.491-.744-2.278,0,0-4.426-17.447-3.544-26.553.622-6.409,2.518-27.964,15.435-43.062S-849.152-489.966-803.737-486.754Z" transform="translate(897.723 496.914)"/>
      <path id="Path_2970" data-name="Path 2970" class="cls-2" d="M-899.757-493.1c.125-.14.252-.28.38-.42-12.917,15.1-14.813,36.653-15.435,43.062-.882,9.106,3.544,26.553,3.544,26.553a2.493,2.493,0,0,0-.44-.252,3.043,3.043,0,0,0-1.076-.232,4.026,4.026,0,0,0-1.656.38,4.382,4.382,0,0,0-1.9,1.951,4.039,4.039,0,0,0-.307.987c-.027.125-.035.232-.045.3s-.012.107-.012.107,0-.04,0-.112,0-.182.02-.317a4.209,4.209,0,0,1,.24-1.079,4.173,4.173,0,0,1,.719-1.234,4,4,0,0,1,1.189-.939,4.212,4.212,0,0,1,1.726-.437,3.105,3.105,0,0,1,1.156.222c.062.027.12.055.175.082a.376.376,0,0,0-.032-.025,2.678,2.678,0,0,0-1.169-.4,4.748,4.748,0,0,0-1.876.195,4.191,4.191,0,0,0-2.288,1.786,3.049,3.049,0,0,0-.15.28,2.5,2.5,0,0,0-.122.265c-.062.177-.13.325-.162.462-.06.235-.1.387-.107.42,0-.035.03-.195.072-.447.022-.147.082-.307.132-.5a2.454,2.454,0,0,1,.107-.292c.042-.1.08-.215.135-.315a4.026,4.026,0,0,1,.912-1.194,3.973,3.973,0,0,1,1.4-.807,5.014,5.014,0,0,1,1.941-.242,3.373,3.373,0,0,1,1.167.358c-.01-.035-.01-.061-.023-.1a4.968,4.968,0,0,0-.437-.265,2.9,2.9,0,0,0-1.546-.325,2.829,2.829,0,0,0-.31.03c-.092.02-.18.04-.252.052a2.282,2.282,0,0,0-.3.085,5.877,5.877,0,0,0-1.766.982,7.133,7.133,0,0,0-1.266,1.289c-.172.2-.3.427-.432.607-.115.2-.215.37-.292.509-.13.262-.21.422-.227.46.015-.04.082-.215.195-.5.07-.157.162-.34.267-.554a7.694,7.694,0,0,1,.4-.667,6.913,6.913,0,0,1,1.244-1.414,5.371,5.371,0,0,1,1.8-1.054,2.6,2.6,0,0,1,.315-.09c.077-.015.165-.037.262-.06s.21-.025.325-.037a3.088,3.088,0,0,1,1.646.322c.047.022.095.05.142.077a.009.009,0,0,0,0-.007,1.127,1.127,0,0,0-.135-.162c-.06-.062-.127-.127-.2-.2a4.874,4.874,0,0,0-1.1-.774,6.964,6.964,0,0,0-1.174-.532c-.342-.08-.6-.142-.677-.16a5.758,5.758,0,0,0-2.675.207,5.093,5.093,0,0,0-.789.295c-.165.065-.262.107-.285.117.02-.015.115-.077.27-.172a4.381,4.381,0,0,1,.769-.415,4.554,4.554,0,0,1,2.72-.382c.08.015.345.077.7.152a7.314,7.314,0,0,1,1.216.522,4.61,4.61,0,0,1,.909.579,7.83,7.83,0,0,0-1.206-1.086,13.229,13.229,0,0,0-1.878-1.119,11.187,11.187,0,0,0-1.089-.462,6.3,6.3,0,0,0-4.391-.212,2,2,0,0,0-.385.172,2.513,2.513,0,0,0-.337.18,5.309,5.309,0,0,0-.517.377c-.237.22-.377.36-.41.39.03-.035.165-.195.39-.44a5.139,5.139,0,0,1,.5-.437,3.088,3.088,0,0,1,.335-.217,2.149,2.149,0,0,1,.382-.2,5.778,5.778,0,0,1,4.471.047c.127.047.554.195,1.109.457a13.437,13.437,0,0,1,1.921,1.119,7.8,7.8,0,0,1,1.044.889,9.511,9.511,0,0,0-1.071-1.429,8.93,8.93,0,0,0-2.026-1.651c-.3-.17-.6-.295-.9-.43s-.577-.295-.842-.442a8.887,8.887,0,0,0-1.414-.682,2.563,2.563,0,0,0-.987-.145,1.463,1.463,0,0,0-.27.032.843.843,0,0,1-.087.012c.013,0,.042-.015.085-.027a1.39,1.39,0,0,1,.27-.075,2.381,2.381,0,0,1,1.006.022,7.129,7.129,0,0,1,1.456.579c.267.13.549.277.839.4a8.432,8.432,0,0,1,.914.427,8.879,8.879,0,0,1,2.1,1.658,15.164,15.164,0,0,0-1.476-1.6,12.623,12.623,0,0,0-3.094-2.158c-.2-.092-.4-.187-.564-.25l-.8-.247c.072.01.652.107.814.135.172.045.37.117.582.19a9.714,9.714,0,0,1,3.182,2.038,15.945,15.945,0,0,1,1.871,2.055c-.14-.22-.295-.45-.452-.674A18.344,18.344,0,0,0-914.5-431a15.394,15.394,0,0,0-1.159-1.124,8.875,8.875,0,0,0-1-.764c-.145-.1-.285-.177-.4-.247s-.225-.127-.31-.167c-.147-.07-.24-.12-.26-.13l.27.077a2.653,2.653,0,0,1,.32.112,3.67,3.67,0,0,1,.42.192,6.267,6.267,0,0,1,1.057.669,9.862,9.862,0,0,1,1.2,1.1,20.2,20.2,0,0,1,1.4,1.688c.042.06.553.8.6.867-.1-.4-.153-.776-.247-1.181-.1-.435-.157-.834-.257-1.271-.127-.13-.825-1-.962-1.118a12.5,12.5,0,0,0-1.1-.777c-.332-.16-.574-.3-.654-.317a6.23,6.23,0,0,0-2.71-.465c-.17.015-.332.035-.472.052s-.26.067-.355.09c-.17.042-.275.075-.3.08.022-.01.125-.06.29-.135a3.206,3.206,0,0,1,.352-.147l.477-.12a5.1,5.1,0,0,1,2.777.31,7.212,7.212,0,0,0-.984-.33,11.238,11.238,0,0,0-2.982-.185c-.764.032-1.244.062-1.244.062l.33-.072c.215-.047.524-.112.909-.172a7.98,7.98,0,0,1,3.024.022,7.386,7.386,0,0,1,1.219.392.439.439,0,0,1-.045-.027,5.618,5.618,0,0,0-1.5-.644,7.869,7.869,0,0,0-.877-.18c-.682-.087-1.346-.117-1.946-.157a12.163,12.163,0,0,1-1.6-.195,5.575,5.575,0,0,1-1.061-.325c-.212-.092-.342-.155-.37-.17.03.01.162.052.38.115a6.839,6.839,0,0,0,1.064.195c.45.05.994.062,1.593.072a16.762,16.762,0,0,1,1.963.112c.085.012.327.04.657.112-.05-.017-.1-.037-.145-.055-.1-.022-.19-.042-.27-.062-.16-.037-.277-.057-.332-.065-.724-.107-1.441-.16-2.083-.25a6.111,6.111,0,0,1-1.691-.447,2.419,2.419,0,0,1-.332-.165c-.1-.062-.2-.112-.292-.17-.175-.132-.33-.232-.445-.34-.2-.19-.327-.312-.355-.34.027.02.157.122.372.285.117.092.277.172.455.282.09.047.192.087.295.135a2.188,2.188,0,0,0,.332.132,7.123,7.123,0,0,0,1.681.322c.3.025.619.047.952.072a8.983,8.983,0,0,1-1.648-.757,6,6,0,0,1-1.4-1.176,6.768,6.768,0,0,1-.782-1.129c-.125-.23-.2-.385-.232-.445.037.055.125.195.26.4a6.7,6.7,0,0,0,.822,1.016,6.2,6.2,0,0,0,1.4,1.041,12.327,12.327,0,0,0,1.858.779c.125.052.612.192,1.231.41-.175-.085-.3-.147-.36-.177a15.985,15.985,0,0,1-2.2-1.249,7.665,7.665,0,0,1-1.651-1.5,3.329,3.329,0,0,1-.292-.392c-.09-.132-.177-.25-.25-.375-.135-.262-.262-.475-.345-.672-.117-.3-.195-.509-.225-.592.035.082.12.275.255.552.087.185.225.382.37.624.075.117.167.225.257.345a3.656,3.656,0,0,0,.3.36,7.866,7.866,0,0,0,1.661,1.366,20.912,20.912,0,0,0,2.2,1.194c.1.047.914.437,1.209.574-.107-.055-.262-.135-.3-.157-.592-.292-1.166-.584-1.658-.884a9.284,9.284,0,0,1-1.3-.934c-.087-.075-.172-.15-.252-.217a1.775,1.775,0,0,1-.22-.212c-.127-.145-.245-.27-.337-.372l-.247-.287c.117.1.507.452.624.559a1.648,1.648,0,0,0,.227.182c.082.055.172.12.26.185a11.206,11.206,0,0,0,1.319.812c.5.267,1.071.547,1.663.839a16.411,16.411,0,0,1,2.1,1.194c.2.12.965.738,1.145.891-.01-.055-.02-.11-.032-.167-.065-.075-.718-.626-.792-.711a5.79,5.79,0,0,0-1.723-1.051,25.352,25.352,0,0,1-2.815-1.548,13.87,13.87,0,0,1-3.631-3.372c-.2-.28-.367-.559-.512-.8s-.262-.472-.35-.664c-.14-.31-.227-.512-.255-.577.032.062.13.25.285.537.095.18.227.377.375.617s.332.487.537.747a16.01,16.01,0,0,0,3.646,3.184,24.084,24.084,0,0,0,2.8,1.5,8.714,8.714,0,0,1,1.3.679,8.811,8.811,0,0,0-1.271-.937c-.932-.554-1.8-1-2.413-1.384a7.489,7.489,0,0,1-.961-.7c.045.027.42.252,1,.529a25.7,25.7,0,0,1,2.465,1.231,15.017,15.017,0,0,1,2.085,1.454c-.005-.02-.007-.04-.012-.06-.008-.045-.015-.095-.023-.14-.047-.062-.671-.47-.724-.535a7.386,7.386,0,0,0-1.464-1.316,13.229,13.229,0,0,0-1.636-.922c-.477-.232-.839-.395-.947-.447a15.619,15.619,0,0,1-2.053-1.1,7.2,7.2,0,0,1-1.523-1.369,6.424,6.424,0,0,1-.829-1.306c-.142-.3-.225-.5-.242-.542.022.042.117.222.272.5a6.21,6.21,0,0,0,.872,1.191,7.5,7.5,0,0,0,1.538,1.239,22.534,22.534,0,0,0,2.043,1.046c.11.05.472.21.952.437a12.982,12.982,0,0,1,1.671.909,15.9,15.9,0,0,1,1.977,1.654c-.015-.095-.032-.185-.047-.28-.135-.172-.878-.82-1.023-.99a8.949,8.949,0,0,0-2.033-1.561c-.609-.335-1.2-.622-1.733-.9s-1.016-.552-1.4-.8c-.192-.125-.37-.255-.522-.37-.075-.055-.147-.11-.21-.16s-.487-.437-.487-.437l.512.36c.067.042.14.085.22.132.155.092.34.2.534.3.4.2.889.442,1.429.687l.137.062a11.415,11.415,0,0,1-1.011-.769c-.242-.227-.475-.445-.687-.647s-.4-.417-.577-.6c-.619-.659-1.024-1.114-1.106-1.209.172.152,1.571,1.416,1.776,1.6s.452.385.7.592a7.273,7.273,0,0,0,1.688,1.064c.095.042.41.16.827.322a7.545,7.545,0,0,1,1.461.7c.122.082.25.175.375.267a.139.139,0,0,1,.022.017c-.037-.037-.075-.075-.11-.115a3.583,3.583,0,0,0-.312-.25c-.052-.04-.11-.082-.165-.127l-.175-.112a3.287,3.287,0,0,0-.362-.215c-.49-.267-1.016-.465-1.421-.662-.2-.1-.377-.212-.515-.285-.135-.09-.23-.162-.272-.192a7.937,7.937,0,0,1-1.5-1.586c-.425-.532-.8-1.029-1.134-1.406-.165-.187-.32-.36-.457-.492s-.257-.26-.362-.337l-.317-.267s.12.077.337.215a4,4,0,0,1,.385.287c.147.115.312.27.489.44.352.345.754.809,1.191,1.316a9.079,9.079,0,0,0,1.479,1.508c.042.03.135.1.265.182s.3.172.5.267c.392.185.922.372,1.434.639a3.228,3.228,0,0,1,.38.217c.062.04.122.077.185.115s.117.087.172.13a3.35,3.35,0,0,1,.33.26c.045.042.69.563.734.608-.025-.17-.05-.34-.072-.512-.072-.037-.747-.55-.822-.59-.182-.092-.377-.19-.569-.29a13.073,13.073,0,0,1-1.683-.964,13.677,13.677,0,0,1-2.255-1.776c-.272-.265-.484-.509-.627-.667s-.225-.252-.225-.252.35.31.919.759a23.974,23.974,0,0,0,2.3,1.616,12.98,12.98,0,0,0,1.431.8c-.1-.06-.207-.122-.31-.187a15.147,15.147,0,0,1-1.876-1.484,19.813,19.813,0,0,0-2.717-1.891c-.355-.232-.639-.43-.829-.584s-.295-.237-.295-.237.117.065.312.185.5.277.864.467a11.977,11.977,0,0,1,2.8,1.756,14.574,14.574,0,0,0,1.863,1.426c.07.042.142.082.215.122-.684-.654-1.316-1.174-1.451-1.276a20.639,20.639,0,0,0-2.957-1.943c-.2-.1-.375-.2-.534-.275s-.684-.31-.749-.34c.067.02.624.182.777.23s.35.13.552.21a13.082,13.082,0,0,1,3.037,1.806c.127.1.692.547,1.334,1.134-.08-.095-.16-.19-.232-.282s-.16-.165-.232-.24c-.285-.295-.51-.517-.577-.584a12.144,12.144,0,0,0-2.54-1.753,3.069,3.069,0,0,0-.472-.21c-.135-.057-.26-.1-.36-.147-.17-.072-.275-.115-.3-.125.025.005.135.027.312.07.1.025.227.055.372.092a2.658,2.658,0,0,1,.49.147,8.364,8.364,0,0,1,2.632,1.626c.07.07.3.29.6.587.072.072.16.145.237.237s.5.584.634.739c-.132-.22-.272-.442-.417-.657a7.935,7.935,0,0,0-1.064-1.309,7.059,7.059,0,0,0-.679-.582,5.646,5.646,0,0,0-1.638-.847c-.262-.08-.524-.13-.764-.195-.242-.045-.47-.09-.677-.127-.415-.08-.754-.155-.979-.222s-.355-.1-.355-.1.135.012.365.045.577.062.994.1c.21.017.442.04.689.065.247.042.515.077.787.142a4.9,4.9,0,0,1,1.7.827,7.783,7.783,0,0,1,.707.589c.077.075.16.16.245.25a6.865,6.865,0,0,0-.467-.522c-.085-.085-.162-.167-.232-.242s-.4-.365-.445-.4a8.234,8.234,0,0,0-1.618-1.064,5.374,5.374,0,0,0-.757-.31,4.789,4.789,0,0,0-.679-.2,4.464,4.464,0,0,0-.572-.1,3.166,3.166,0,0,0-.44-.04c-.24-.008-.377-.017-.377-.017s.137-.012.382-.04a2.743,2.743,0,0,1,.447-.017,3.876,3.876,0,0,1,.589.035,4.422,4.422,0,0,1,.7.135,5,5,0,0,1,.784.265,6.361,6.361,0,0,1,1.673,1.044c-.162-.155-.31-.275-.427-.37s-.22-.18-.265-.215a9.263,9.263,0,0,0-1.748-1.031,5.515,5.515,0,0,0-1.539-.432c-.112-.01-.222-.025-.325-.037l-.292.01a2.018,2.018,0,0,0-.472.045c-.23.045-.37.075-.4.08l.4-.137a2.108,2.108,0,0,1,.479-.1l.3-.042c.1,0,.217,0,.332,0a4.8,4.8,0,0,1,1.593.322,7.151,7.151,0,0,1,1.8,1.006c.045.035.137.112.27.215s.3.24.49.412c.092.087.195.177.3.272s.19.192.287.295a8.857,8.857,0,0,0-.6-.729c-.077-.085-.15-.167-.217-.242s-.375-.372-.412-.407A12.257,12.257,0,0,0-919.2-447c-.469-.322-.927-.587-1.294-.789-.182-.1-.36-.187-.509-.265s-.282-.14-.39-.187c-.187-.085-.3-.14-.33-.152.027.008.15.04.345.1.112.03.25.075.407.13s.34.122.529.2a9.921,9.921,0,0,1,1.341.684,9.212,9.212,0,0,1,1.534,1.164c.037.035.355.342.425.41s.145.157.225.24a12.618,12.618,0,0,1,1.066,1.329c.167.27.35.527.5.8.045.082.092.162.137.245,0-.015,0-.03,0-.045-.122-.227-.245-.455-.375-.679a23.754,23.754,0,0,0-1.818-2.662c-.537-.677-1.089-1.309-1.591-1.841s-.979-1-1.371-1.361c-.2-.185-.385-.35-.544-.487s-.3-.262-.42-.352c-.2-.157-.322-.26-.352-.287.027.017.157.1.375.235.12.075.272.18.44.3s.367.267.574.432a18.047,18.047,0,0,1,1.431,1.266,19.532,19.532,0,0,1,1.626,1.818c.095.122.432.549.857,1.139-.075-.14-.679-1.274-.739-1.391-.849-1.5-1.643-2.815-2.25-3.716-.145-.24-.292-.427-.415-.6s-.532-.749-.584-.822l.639.732a5.866,5.866,0,0,1,.45.552,27.5,27.5,0,0,1,2.353,3.614c.062.115.679,1.249.754,1.389l.524,1.024c-.035-.08-.07-.16-.1-.237-.12-.28-.235-.552-.345-.772-.222-.445-.377-.794-.427-.9-.694-1.359-1.354-2.555-1.838-3.4-.422-.734-.707-1.236-.769-1.351.035.045.112.15.222.307.152.215.377.517.642.914a30.022,30.022,0,0,1,1.941,3.3c.05.1.21.455.437.9.115.22.235.49.357.769.06.135.721,1.526.785,1.664-.035-.492-.062-.984-.087-1.476-.042-.112-.676-1.466-.691-1.511-.06-.145-.132-.295-.2-.46s-.147-.34-.232-.519a.521.521,0,0,0-.037-.075c-.245-.517-.544-1.074-.854-1.611-.859-1.488-1.823-2.93-1.988-3.2-.152-.25-.3-.5-.455-.749l-.023-.04c-.737-1.359-.969-1.783-1.1-2.038-.008-.017-.015-.035-.022-.05l-.023-.047c-.007-.02-.017-.04-.025-.057-.017-.04-.035-.077-.052-.12l-.022-.052a.29.29,0,0,1-.015-.037,18.675,18.675,0,0,1-1.119-4.5c0-.007,0-.015,0-.022q-.086-.8-.137-1.6v-.008c-.02-.317-.035-.632-.045-.949-.05-.18-.09-.345-.122-.492-.092-.43-.143-.7-.153-.762.015.057.08.315.192.729.023.08.045.162.072.252q-.026-.937-.013-1.856c-.045-.282-.077-.534-.1-.749-.055-.554-.075-.869-.075-.869s.035.3.112.842c.018.125.04.26.067.407.022-.942.072-1.858.14-2.732.007-.09.015-.18.022-.267.138-1.666.342-3.167.537-4.381.02-.217.04-.425.077-.627.042-.257.082-.5.117-.719s.07-.422.12-.607c.13-.529.22-.889.262-1.046,0-.015,0-.025.007-.035l.015-.062a70.584,70.584,0,0,1,3.292-10.387q.116-.285.24-.577.671-1.6,1.508-3.319a1.248,1.248,0,0,1,.057-.115c.579-1.184,1.226-2.4,1.943-3.639a.073.073,0,0,1,.01-.02s0,0,0-.005q1.322-2.281,2.765-4.348c.047-.07.1-.14.147-.207a.013.013,0,0,1,.005-.01c1.039-1.481,2.115-2.882,3.214-4.2.1-.117.195-.235.295-.35q.633-.753,1.279-1.471c.21-.237.425-.472.634-.7q.734-.794,1.471-1.546a.036.036,0,0,0,.007-.01.008.008,0,0,0,.005,0,.009.009,0,0,0,0-.005c.062-.06.122-.122.182-.182.112-.112.222-.225.335-.335l.057-.06a75.033,75.033,0,0,1,15.977-12.03q-1.03.888-2.043,1.888l-.047.047c-.018.017-.035.032-.052.052-.142.15-.445.462-.874.909-.312.325-.679.734-1.1,1.2s-.879,1.014-1.374,1.618a43.755,43.755,0,0,0-5.954,9.763c-.13.285-.514,1.231-.929,2.47a28.181,28.181,0,0,0-.784,2.845c0,.01-.005.02-.008.032a29.374,29.374,0,0,0-.522,6.041.008.008,0,0,0,0,.01c0,.182.005.365.013.549.135-.16.272-.32.41-.48.182-.757.452-1.811.807-3.042a32.842,32.842,0,0,1,1.234-3.586c.137-.322.262-.652.415-.987s1.179-2.328,1.286-2.532.18-.3.3-.507c.407-.679.824-1.356,1.249-2.02.462-.657.929-1.3,1.394-1.931.05-.065.1-.132.147-.2.067-.092.135-.18.2-.267l.015-.017a.178.178,0,0,1,.022-.027c7.845-10.412,18.879-14.268,24.59-15.934l.292-.085.619-.177.195-.055c.085-.022.167-.047.25-.07l.24-.067.137-.037c.21-.055.42-.11.629-.162,1.429-.36,2.75-.649,3.9-.857s2.16-.38,2.975-.49c1.146-.152,1.943-.245,2.313-.285-.372.047-1.166.152-2.313.322-.814.12-1.821.3-2.97.524s-2.465.524-3.889.9a61.905,61.905,0,0,0-9.723,3.489,52.9,52.9,0,0,0-10.5,6.518c-.257.2-.774.647-1.474,1.269-.347.31-.762.667-1.176,1.076s-.867.864-1.334,1.351c-.23.242-.484.495-.714.759s-1.676,1.978-1.8,2.128-.23.3-.342.46c-.46.619-.922,1.259-1.376,1.911q-.626.985-1.231,2c-.12.2-.18.3-.3.5s-1.109,2.175-1.269,2.5-.272.654-.4.972a32.569,32.569,0,0,0-1.219,3.544c-.28.969-.507,1.833-.682,2.527C-899.877-492.958-899.817-493.03-899.757-493.1Z" transform="translate(923.513 525.64)"/>
      <path id="Path_2971" data-name="Path 2971" class="cls-3" d="M-793.653-520.955c-.02.008-.05.015-.087.025C-793.7-520.942-793.673-520.95-793.653-520.955Zm36.631,6.916c-45.414-3.212-56.945,6.878-69.85,21.96a54.582,54.582,0,0,1,5.355-11.381,33.045,33.045,0,0,1,6.511-7.572,44.473,44.473,0,0,1,4.773-3.629,60.058,60.058,0,0,1,6.036-3.419,61.972,61.972,0,0,1,6.011-2.552,54.145,54.145,0,0,1,10.774-2.677c1.556-.22,2.979-.3,4.223-.382,1.234-.032,2.3-.035,3.162-.013,1.069.057,1.836.112,2.263.145l.022,0c.027,0,.055.008.085.01h.008c1.134.13,2.952.34,4.915.622l.022,0c2.028.29,4.685.727,7.855,1.4.7.137,1.359.282,1.968.43.025.008.05.01.075.017-.242-.047-1.021-.21-2.24-.437a60.389,60.389,0,0,0-6.4-.812c-.682-.037-1.4-.07-2.143-.095-.375-.012-1.531-.037-1.728-.04l-.6.015c-.8.022-1.638.055-2.492.1-.427.022-.862.05-1.3.08a51.4,51.4,0,0,0-18.359,5.357,45.2,45.2,0,0,1,19.99-4.036c.17.005.337.01.507.02.33.015.662.032,1,.057.185.012.37.027.557.042,7.213.592,15.35,3.089,19.118,6.793Z" transform="translate(851.008 524.199)"/>
      <path id="Path_2972" data-name="Path 2972" class="cls-4" d="M-866.863-446.692a.417.417,0,0,1,.045-.035A.33.33,0,0,1-866.863-446.692Zm3.948-4.925c-.13.095-.262.192-.4.3-.457.352-.974.779-1.531,1.249s-1.179.982-1.853,1.493c-.352.232-1.848,1.244-2.24,1.513-.784.534-1.623,1.106-2.465,1.743s-1.738,1.244-2.64,1.836c-.272.177-1.176.729-2.383,1.5-.537.342-1.134.744-1.753,1.2.762-.664,1.5-1.256,2.158-1.748C-875.17-443.171-867.315-448.588-862.915-451.617ZM-864.373-467a.458.458,0,0,1,.047-.022C-864.348-467.012-864.366-467.007-864.373-467Zm67.352-8.6c.025,0,.042.007.05.01C-796.978-475.593-797-475.6-797.021-475.6Zm-3.586-9.685s.005,0,.008,0,.007.005.01.008c.5.49.942.937,1.334,1.336.052.052.1.1.155.155,1.329,1.361,2.008,2.128,2.008,2.128,2.313,2.615,2.89,3.751,4.623,5.077a13.655,13.655,0,0,0,4.361,2.218c-1.176.03-3.117.082-5.527.152-2.577.072-4.52.135-4.738.14l-.192.007c-3.821.132-9.291.667-13.719,1.156h-.013c-2.22.245-4.176.477-5.529.639h-.01c-2.173.2-3.864.367-4.468.437-2.333.272-8.242,1.086-8.851,1.176-.16.025-1.349.227-3.015.512-.1.015-.2.032-.3.05-.085.012-.167.027-.25.042-.647.1-1.274.212-1.891.325-6.9,1.264-8.089,1.866-12.235,1.986-1.963.177-3.976.2-5.961.227-1,.012-2,.047-3,.1-.567.035-1.134.072-1.7.137a.044.044,0,0,0-.013,0,.09.09,0,0,1-.015,0c-.415.047-.829.11-1.241.2a18.339,18.339,0,0,0-5.507,2.145c-.282.167-.557.337-.819.512l-.025.015a14.788,14.788,0,0,0-2.235,1.686l-.013.012-.008.007c-.072.06-.142.122-.212.182-.092.107-.187.21-.28.315-.012.012-.027.027-.04.042-.267.287-.5.562-.687.809-.145.17-.287.342-.43.514.035-.025.067-.052.1-.08.262-.185.564-.39.9-.607.085-.055.172-.112.262-.167.537-.337,1.161-.7,1.868-1.064.175-.09.355-.18.542-.27.11-.055.222-.107.337-.16.065-.032.13-.062.2-.092l.15-.067c.115-.052.23-.1.347-.155s.235-.1.355-.15a.759.759,0,0,1,.08-.035c.2-.082.4-.162.6-.237l.185-.067c1.9-.684,4.123-1.064,11.364-1.936l.032-.005c5.462-.657,6.866-.764,10.17-1.291,2.393-.385,4.346-.759,5.627-1.019-.462.175-.907.337-1.329.492a.019.019,0,0,1-.01,0c-.052.017-.1.037-.152.057-.032.01-.062.02-.092.032s-.072.027-.11.04l-.01,0c-.06.022-.117.042-.175.062-.182.062-.387.132-.609.212-.065.022-.13.047-.2.075l-.11.037c-.047.017-.095.032-.14.047l-.027.01c-.018.008-.035.013-.05.017a.346.346,0,0,1-.047.015c-.062.022-.125.045-.187.065-.1.035-.195.067-.287.1-.33.11-.782.262-1.321.445l-.065.022c-.062.02-.125.04-.187.062-2.15.729-5.507,1.866-8.322,2.822l-.007,0a35.514,35.514,0,0,0-4.188,2.333,45.71,45.71,0,0,1-13.212,5.18,29.055,29.055,0,0,0,8.442-1.716,28.731,28.731,0,0,0,4.5-2.093c-.317.37-.747.842-1.289,1.366a.009.009,0,0,1,0,0l0,0a.008.008,0,0,1,0,.005,21.174,21.174,0,0,1-1.823,1.576c-3.029,2.328-5.195,2.67-8.169,4.358a24.35,24.35,0,0,0-6.039,4.908c2.223-.847,4.59-1.856,7.055-3.067l.008,0c1.449-.742,2.9-1.491,4.318-2.283l.122-.067c.225-.125.45-.252.674-.38.987-.564,1.841-1.1,2.545-1.551.05-.032.1-.062.147-.095.082-.052.162-.1.245-.157.355-.222.7-.45,1.042-.674.257-.17.512-.34.762-.509-.814.569-1.656,1.191-2.515,1.876.155-.117.3-.225.435-.325.609-.45,1.019-.737,1.181-.849-.16.12-.562.417-1.161.879-.242.19-.524.41-.829.652l.147-.087c-.047.032-.115.077-.207.137-.562.45-1.214.987-1.94,1.611-.008,0-.013.012-.02.017a49.442,49.442,0,0,0-7.4,8.447l.13-.115c1.344-1.171,3.639-3.164,4.993-4.328.045-.037.09-.075.132-.112l.13-.11c.057-.047.112-.095.165-.14l.227-.192c.152-.13.307-.26.462-.387q1.794-1.491,3.559-2.9l.085-.07.085-.07.082-.067c.032-.03.067-.055.1-.082l.03-.022a.342.342,0,0,1,.035-.027,24.766,24.766,0,0,0-2.915,3.1c-.1.125-.2.252-.295.382l0,0a24.47,24.47,0,0,0-1.414,2.083v0c-.272.447-.514.877-.729,1.284a.126.126,0,0,1-.017.02c-3.394,4.426-6.316,7.855-8.312,10.122l-.02.022c-.977,1.216-1.8,2.24-2.125,2.635-.857,1.044-1.8,2.123-2.747,3.2-.287.325-1.229,1.361-2.445,2.812q-.472.562-.919,1.144c0,.005-.008.01-.01.015a36.62,36.62,0,0,0-2.018,3.559c.267-.442.549-.874.852-1.289.23-.312.442-.6.634-.837.175-.195.772-.852.927-1.016-.14.172-.712.874-.879,1.081-.182.247-.382.544-.6.867a22.426,22.426,0,0,0-2.278,4.491c.122-.262.247-.519.372-.759a19.2,19.2,0,0,1,1.284-2.115c.1-.14.192-.275.282-.4s.182-.237.265-.345c.165-.215.312-.395.432-.537.187-.212.312-.355.362-.41l-.337.445c-.115.147-.252.34-.407.564l-.247.36c-.085.13-.175.27-.267.417a22.471,22.471,0,0,0-1.206,2.15,23.15,23.15,0,0,0-1.176,2.865c-.023.08-.075.25-.147.487s-.15.5-.227.834c.17-.43.362-.9.559-1.376.287-.679.6-1.354.857-1.873s.475-.894.534-1.014a13.494,13.494,0,0,1,1.364-2.023,9.006,9.006,0,0,1,.687-.754c.22-.23.442-.407.637-.577.1-.085.2-.16.29-.225s.182-.13.262-.187a4.308,4.308,0,0,1,.425-.27l.367-.212-.355.255c-.112.08-.255.177-.41.31-.075.065-.162.137-.25.21s-.18.152-.275.245c-.185.182-.4.372-.6.612-.215.225-.432.492-.649.772a15.889,15.889,0,0,0-1.306,2.013c-.06.117-.27.487-.517,1-.085.175-.175.37-.267.572.11-.195.22-.382.317-.552.172-.3.342-.554.47-.752s.222-.34.265-.4a12.15,12.15,0,0,1,3.594-3.524,8.439,8.439,0,0,1,1.236-.642l.46-.19s-.162.082-.452.235a9.917,9.917,0,0,0-1.2.729,14.248,14.248,0,0,0-3.472,3.586c-.042.065-.132.2-.255.4s-.285.442-.457.747c-.337.6-.767,1.371-1.139,2.173a14.471,14.471,0,0,0-.862,2.34c-.03.115-.055.225-.077.332l.022.277c.142-.517.315-1.091.522-1.653a20.2,20.2,0,0,1,.872-2.038c.137-.277.265-.522.367-.7s.177-.312.212-.372a12.463,12.463,0,0,1,1.5-2.088,10.37,10.37,0,0,1,.749-.762,8.266,8.266,0,0,1,.687-.587c.21-.175.415-.3.587-.422a5.324,5.324,0,0,1,.455-.28l.39-.217-.377.26c-.122.082-.272.185-.44.322s-.362.28-.564.465-.427.382-.654.624c-.235.227-.472.5-.712.787a14.129,14.129,0,0,0-1.444,2.075c-.032.06-.1.19-.2.367s-.222.42-.355.692a20.9,20.9,0,0,0-.832,2.013,23.444,23.444,0,0,0-.679,2.375c0,.032.007.067.01.1.1-.425.22-.882.352-1.331a18.838,18.838,0,0,1,.712-2c.12-.275.227-.514.32-.689s.152-.31.185-.37a8.835,8.835,0,0,1,1.4-2c.122-.127.247-.25.365-.37s.479-.4.537-.452.395-.275.5-.345a7.022,7.022,0,0,1,1.014-.524c.157-.06.272-.11.33-.132-.057.032-.167.09-.322.175a8.682,8.682,0,0,0-.982.617c-.1.077-.42.33-.474.375s-.39.365-.51.475-.227.25-.342.38A10.1,10.1,0,0,0-883-416.52l-.177.36c-.087.172-.19.407-.3.674a18.749,18.749,0,0,0-.674,1.966c-.215.754-.385,1.528-.507,2.133,0,.025,0,.052.007.08.125-.519.287-1.1.479-1.668a19.339,19.339,0,0,1,.807-2.013c.26-.549.482-.939.547-1.059a10.472,10.472,0,0,1,1.454-2.033,6.007,6.007,0,0,1,1.458-1.169,3.307,3.307,0,0,1,1.074-.382,2.147,2.147,0,0,1,.295-.032l.1-.008-.1.02a2.679,2.679,0,0,0-.29.067,3.665,3.665,0,0,0-1.041.475,6.607,6.607,0,0,0-1.379,1.224,12.051,12.051,0,0,0-1.389,2.013c-.065.12-.277.5-.524,1.044a19.509,19.509,0,0,0-.769,1.983,20.91,20.91,0,0,0-.549,2.1c-.025.112-.045.215-.062.315.027.215.057.427.087.639.027-.222.06-.445.087-.669a16.445,16.445,0,0,1,.49-2c.045-.135.085-.265.125-.382s.235-.624.257-.684a12.992,12.992,0,0,1,1.091-2.135c.2-.292.39-.579.582-.817.095-.117.187-.237.277-.35s.185-.2.27-.3a6.812,6.812,0,0,1,.479-.484c.072-.065.14-.13.2-.187s.45-.36.5-.4c-.045.045-.417.4-.472.455s-.122.132-.19.207c-.135.147-.29.317-.45.519-.077.1-.165.2-.252.317s-.167.237-.257.362c-.177.242-.355.537-.542.832a15.108,15.108,0,0,0-1.036,2.11c-.022.06-.2.557-.245.669s-.075.242-.117.377a15.859,15.859,0,0,0-.452,1.943c-.042.357-.1.714-.117,1.054-.012.17-.022.337-.032.495s0,.287-.005.42c.04.275.08.549.122.822.062-.862.155-1.543.182-1.716.032-.21.055-.425.1-.629s.087-.407.125-.6c.08-.392.2-.767.3-1.116a9.11,9.11,0,0,1,.35-.964c.057-.147.112-.295.177-.425s.125-.255.187-.372c.12-.23.225-.452.335-.622s.477-.727.524-.8c-.04.075-.375.682-.467.852s-.19.407-.3.647l-.167.377c-.055.132-.1.282-.155.43-.1.295-.22.614-.307.964s-.2.707-.265,1.1c-.04.195-.077.392-.117.592s-.062.41-.092.617a23.54,23.54,0,0,0-.2,2.91c.01.05.017.1.027.152.062.357.132.714.2,1.071,0-.145.007-.29.007-.43,0-.827,0-1.671.018-2.338.008-.335.022-.627.032-.857s.027-.39.035-.467a11.226,11.226,0,0,1,.569-2.825,13.565,13.565,0,0,1,.929-2.04c.3-.542.564-.964.747-1.254.16-.252.26-.4.282-.437l-.255.467c-.162.3-.4.747-.679,1.309a15.28,15.28,0,0,0-.847,2.053,11.811,11.811,0,0,0-.517,2.745c-.005.075-.017.235-.032.457s-.017.514-.022.842c-.013.659,0,1.5.005,2.34,0,.167,0,.33,0,.492.01-.142.062-.829.067-.887s.027-1.011.047-1.411.045-.787.07-1.124c.047-.674.122-1.176.137-1.331l.045-.382c.017-.127.042-.252.065-.377.045-.247.185-.969.212-1.084s.165-.567.2-.677.08-.21.12-.312a11.708,11.708,0,0,1,1.036-1.99c.33-.524.609-.942.8-1.226.115-.182.2-.312.25-.385-.142.257-.694,1.234-.957,1.7a13.227,13.227,0,0,0-.954,2.008c-.035.1-.072.2-.107.3s-.147.539-.177.649-.24,1.309-.255,1.434-.03.25-.045.377c-.013.152-.082.644-.122,1.311-.01.155-.02.32-.027.49.132-.829.257-1.464.3-1.638a17.507,17.507,0,0,1,.787-2.725,11.438,11.438,0,0,1,.989-2,8.073,8.073,0,0,1,.854-1.134c.16-.175.27-.292.32-.342-.042.05-.145.18-.3.375a9.531,9.531,0,0,0-.789,1.194,12.63,12.63,0,0,0-.9,2.01,20.494,20.494,0,0,0-.739,2.692c-.045.182-.177.887-.31,1.8.05-.207.1-.4.147-.584s.09-.322.135-.457.25-.752.277-.824a17.985,17.985,0,0,1,2.375-4.475c.36-.507.674-.892.892-1.154.187-.23.3-.37.332-.4-.025.032-.132.182-.31.43-.2.282-.495.692-.832,1.221a23.362,23.362,0,0,0-1.856,3.487,13.951,13.951,0,0,1,1.873-2.96c.2-.23.385-.43.552-.6s.312-.307.437-.41c.217-.182.35-.29.38-.315l-.36.352c-.12.115-.255.27-.415.445s-.332.392-.519.637a17.939,17.939,0,0,0-2.348,4.416,21.667,21.667,0,0,0-.822,2.875c-.01.065-.042.275-.047.32a21.871,21.871,0,0,1,1.046-2.86,16.081,16.081,0,0,1,2.945-4.493c.227-.232.442-.422.632-.589s.36-.295.5-.395c.245-.17.4-.272.432-.295-.032.027-.18.142-.415.335-.135.11-.292.262-.479.432s-.385.382-.6.627a18.638,18.638,0,0,0-2.817,4.533,21.437,21.437,0,0,0-1.251,3.811c-.057.272-.1.552-.142.827.015-.067.03-.135.047-.2a20.961,20.961,0,0,1,1.376-3.766,13.847,13.847,0,0,1,3.059-4.261,8.013,8.013,0,0,1,1.154-.894c.245-.15.4-.24.437-.26-.032.022-.185.127-.422.3a9.207,9.207,0,0,0-1.1.972,15.9,15.9,0,0,0-2.932,4.308,20.141,20.141,0,0,0-1.319,3.721c-.1.45-.195.909-.267,1.356l-.045.267c.057-.272.117-.547.18-.819a19.859,19.859,0,0,1,.742-2.47c.127-.332.245-.624.342-.844s.17-.377.2-.452a12.791,12.791,0,0,1,1.516-2.515,9.439,9.439,0,0,1,1.558-1.588,6.945,6.945,0,0,1,1.184-.762c.285-.142.45-.217.45-.217s-.157.09-.437.26a7.739,7.739,0,0,0-1.136.847,10.619,10.619,0,0,0-1.486,1.643,14.082,14.082,0,0,0-1.041,1.671,8.2,8.2,0,0,1,1.906-2.2,9.79,9.79,0,0,1,1.991-1.211c.584-.27,1.064-.455,1.4-.577.287-.107.467-.17.507-.185l-.5.227c-.325.15-.8.37-1.369.674a10.944,10.944,0,0,0-1.928,1.289,8.441,8.441,0,0,0-1.941,2.368c-.042.075-.137.23-.252.465s-.26.539-.4.9a16.535,16.535,0,0,0-.555,1.643,10.978,10.978,0,0,1,.525-1.331l.117-.257c.042-.08.275-.5.337-.617.125-.222.235-.367.28-.442a9.022,9.022,0,0,1,2.065-2.228,10.769,10.769,0,0,1,1.953-1.184,13.348,13.348,0,0,1,1.376-.562c.285-.1.462-.155.5-.167-.04.017-.212.087-.495.21-.32.142-.792.355-1.346.657a12.166,12.166,0,0,0-1.9,1.266,9.569,9.569,0,0,0-1.988,2.215c-.045.072-.15.215-.27.432-.062.11-.28.524-.322.6s-.072.167-.112.252c-.017.04-.037.082-.055.122.112-.2.2-.342.24-.412a9.262,9.262,0,0,1,1.918-2.26,5.264,5.264,0,0,1,1.931-.977c.285-.082.547-.145.769-.207s.422-.11.579-.16c.275-.085.445-.14.485-.152-.037.017-.2.085-.475.2-.155.062-.352.127-.574.207s-.48.16-.759.262a5.6,5.6,0,0,0-1.858,1.049,10.008,10.008,0,0,0-1.838,2.243,11.114,11.114,0,0,0-.659,1.264,12.611,12.611,0,0,0-.547,1.5c-.032.152-.06.3-.09.46a12.527,12.527,0,0,1,.577-1.551c.09-.192.167-.395.265-.572s.192-.35.287-.519a8.091,8.091,0,0,1,.6-.917,6.308,6.308,0,0,1,.612-.734c.1-.107.195-.215.29-.31s.195-.17.285-.25c.182-.155.347-.307.5-.412s.662-.435.724-.475l-.689.557c-.142.12-.3.287-.467.455a10.814,10.814,0,0,0-2.213,3.344,15.809,15.809,0,0,0-.892,2.952c-.037.195-.065.395-.09.592l.022.092c.042-.322.1-.652.162-.982a12.549,12.549,0,0,1,.609-2.088c.11-.277.217-.514.3-.7s.152-.3.182-.365a8.168,8.168,0,0,1,1.374-1.981,14.959,14.959,0,0,1,1.391-1.126c.195-.152.372-.3.522-.44s.27-.27.372-.37c.16-.2.26-.325.287-.355-.02.03-.112.165-.262.387-.1.112-.21.262-.355.415s-.317.32-.5.49c-.382.342-.862.717-1.334,1.206a9.016,9.016,0,0,0-1.3,1.956c-.03.06-.092.185-.175.36s-.182.415-.285.687a11.8,11.8,0,0,0-.482,1.641c.125-.482.247-.822.285-.929a8.575,8.575,0,0,1,1.946-3.107c.3-.317.562-.554.739-.709.157-.135.255-.217.277-.235-.02.022-.11.117-.255.275-.167.18-.407.445-.687.789a10.25,10.25,0,0,0-1.813,3.137,9.146,9.146,0,0,0-.275.942,9.349,9.349,0,0,0-.25,1.783c0,.09,0,.18,0,.27a13.556,13.556,0,0,1,.365-1.906c.09-.332.19-.612.26-.834s.145-.365.175-.437c.045-.117.1-.235.145-.352s.277-.544.332-.649.122-.2.182-.292a8.154,8.154,0,0,1,.749-1.041c.519-.6,1.016-1.074,1.4-1.516a5.885,5.885,0,0,0,.807-1.179c.037-.077.072-.15.1-.21s.067-.172.1-.245c-.023.075-.068.21-.082.257-.025.065-.055.14-.09.222a5.977,5.977,0,0,1-.759,1.264c-.367.48-.852,1-1.346,1.6a9.117,9.117,0,0,0-.709,1.041c-.057.095-.115.192-.175.29s-.26.524-.315.629-.092.23-.14.342c-.025.07-.087.215-.162.425s-.16.49-.245.812c-.035.132-.07.277-.1.425.087-.26.165-.49.237-.664.085-.2.145-.352.175-.42a9.668,9.668,0,0,1,1.359-2.29c.492-.6.969-1.086,1.346-1.516a9.436,9.436,0,0,0,.844-1.086c.135-.212.225-.355.262-.412-.03.06-.11.215-.232.442a9.062,9.062,0,0,1-.8,1.171c-.36.46-.819.979-1.286,1.593A10.712,10.712,0,0,0-881-401.233c-.03.067-.087.212-.167.412s-.162.47-.267.777a12.694,12.694,0,0,0-.442,2.3c-.012.095-.022.19-.03.282.008.03.018.06.025.09.008-.125.013-.23.015-.252.007-.065.012-.095.022-.157a8.3,8.3,0,0,1,.567-2.218c.057-.142.115-.28.167-.4s.107-.225.152-.317c.09-.182.157-.317.19-.377.11-.2.22-.395.33-.587l.337-.544c.12-.172.24-.34.355-.5s.245-.3.362-.442c.467-.554.934-1.024,1.281-1.439a7.5,7.5,0,0,0,.774-1.074c.117-.207.195-.35.23-.41-.027.062-.095.212-.2.435a7.123,7.123,0,0,1-.724,1.159c-.332.447-.782.954-1.231,1.523-.112.145-.227.3-.342.452s-.222.325-.335.495-.22.362-.327.547-.212.387-.322.582c-.032.057-.095.19-.18.37-.045.092-.1.195-.147.312s-.1.25-.155.39a7.972,7.972,0,0,0-.52,2.128c-.007.06-.012.092-.02.152s-.017.332-.02.422a11.015,11.015,0,0,1,.49-2.03c.107-.307.222-.562.3-.764s.16-.332.192-.4a7.644,7.644,0,0,1,1.479-2.078c.522-.514,1-.964,1.386-1.366a6.949,6.949,0,0,0,.839-1.046c.045-.07.082-.132.115-.187s.1-.19.13-.242c-.023.055-.09.21-.112.26l-.1.2a6.59,6.59,0,0,1-.794,1.136,15.273,15.273,0,0,0-2.747,3.514c-.03.065-.1.195-.182.387s-.182.447-.285.744c-.087.262-.177.567-.252.894a4.424,4.424,0,0,1,.217-.517,6.709,6.709,0,0,1,.6-1.031,12.911,12.911,0,0,1,1.6-1.806c.512-.5.979-.964,1.334-1.384a8.668,8.668,0,0,0,.789-1.079c.167-.277.257-.435.257-.435s-.08.167-.227.462a8.154,8.154,0,0,1-.739,1.164,18.029,18.029,0,0,1-1.294,1.481,15.9,15.9,0,0,0-1.551,1.823,6.158,6.158,0,0,0-.569,1,7.309,7.309,0,0,0-.355.952c-.042.182-.085.375-.127.567a2.232,2.232,0,0,0-.05.3c-.015.125-.023.185-.037.307a4.067,4.067,0,0,0-.045.794c.03.1.057.2.087.3.018-.207.032-.415.065-.609.04-.252.082-.5.125-.739a12.446,12.446,0,0,1,.35-1.271,9.244,9.244,0,0,1,.355-.914,4.348,4.348,0,0,1,.227-.472c.065-.125.135-.25.2-.372s.147-.232.22-.345.147-.22.222-.327.165-.195.245-.29.162-.187.247-.275.17-.162.255-.237c.167-.15.342-.29.509-.422a16.846,16.846,0,0,0,1.748-1.411,5.292,5.292,0,0,0,.917-1.321,4.361,4.361,0,0,0,.19-.42c.042-.095.065-.147.065-.147s-.018.055-.055.155-.085.252-.17.435a5.338,5.338,0,0,1-.872,1.414,15.21,15.21,0,0,1-1.718,1.521c-.162.135-.332.282-.495.435-.08.075-.162.157-.245.237s-.155.18-.23.27-.157.182-.232.28-.142.212-.21.32a3.387,3.387,0,0,0-.207.332c-.062.12-.13.24-.192.362a4.813,4.813,0,0,0-.215.46,8.657,8.657,0,0,0-.335.889,12.547,12.547,0,0,0-.327,1.239c-.037.232-.077.472-.115.714s-.045.5-.067.749c-.01.185-.012.367-.017.552.01.03.02.062.03.095,0-.06,0-.12.01-.18.025-.2.055-.415.082-.624s.082-.412.125-.617a9.457,9.457,0,0,1,.767-2.1c.14-.267.27-.5.375-.669s.187-.29.225-.345a10.314,10.314,0,0,1,1.563-1.858c.522-.49,1-.909,1.374-1.3a6.971,6.971,0,0,0,.814-1.031c.085-.132.145-.245.185-.32s.062-.115.062-.115l-.052.12c-.035.08-.09.2-.167.342a6.635,6.635,0,0,1-.764,1.119c-.362.43-.827.889-1.334,1.4a11.737,11.737,0,0,0-1.506,1.863c-.037.055-.11.175-.215.34s-.225.4-.357.659a9.227,9.227,0,0,0-.714,2.043c-.03.152-.067.3-.095.457a7.463,7.463,0,0,1,.647-1.846,8.3,8.3,0,0,1,.579-.952,13.417,13.417,0,0,1,1.481-1.743c.472-.5.9-.944,1.231-1.349.167-.2.315-.395.44-.564s.23-.322.307-.455c.155-.262.245-.407.245-.407s-.077.155-.215.435c-.07.142-.172.3-.282.49s-.255.392-.41.609c-.317.44-.729.922-1.186,1.446a18.734,18.734,0,0,0-1.439,1.763,8.43,8.43,0,0,0-.549.932,6.9,6.9,0,0,0-.395.989,9.357,9.357,0,0,1,.427-.957c.24-.465.455-.769.512-.869a12.686,12.686,0,0,1,1.3-1.638c.425-.457.822-.849,1.151-1.176.31-.307.971-.979,1.054-1.061-.02.027-.107.137-.25.317-.167.207-.417.5-.729.864s-.689.779-1.1,1.261a16.557,16.557,0,0,0-1.256,1.653,9.294,9.294,0,0,0-.487.854,8.424,8.424,0,0,0-.574,1.5c.092-.207.19-.4.282-.562a7.517,7.517,0,0,1,.6-.9,14.438,14.438,0,0,1,1.518-1.633c.48-.467.919-.879,1.259-1.261.167-.19.322-.367.45-.529s.24-.3.32-.43c.12-.19.2-.315.24-.362-.027.052-.1.187-.212.392-.072.137-.177.285-.292.467s-.265.37-.427.577c-.322.415-.749.867-1.216,1.359a20.686,20.686,0,0,0-1.471,1.661,6.511,6.511,0,0,0-.572.884,5.859,5.859,0,0,0-.659,1.891,6.288,6.288,0,0,0-.1,1.059.22.22,0,0,0,.013.037c.02-.12.047-.237.072-.352.023-.095.045-.187.067-.28.035-.11.052-.165.087-.272A5.925,5.925,0,0,1-879.2-395c.325-.407.587-.677.664-.762.257-.277.522-.547.774-.8.237-.272.457-.549.677-.8.41-.539.779-1.029,1.064-1.471s.522-.789.684-1.034l.252-.377s-.08.145-.222.407-.347.647-.624,1.1-.612.994-1.011,1.566c-.215.265-.432.559-.672.844s-.512.537-.769.819c-.077.085-.33.357-.642.762a5.756,5.756,0,0,0-.892,1.626c-.03.1-.047.152-.077.252s-.04.177-.06.265c-.022.112-.045.222-.062.332a5.4,5.4,0,0,1,.26-.669,7.207,7.207,0,0,1,1.007-1.553c.322-.387.582-.642.662-.724.544-.5,1.056-.967,1.5-1.431.21-.247.425-.467.6-.7.085-.117.177-.225.257-.337s.15-.227.22-.332a6.432,6.432,0,0,0,.352-.594c.05-.092.1-.172.137-.252s.207-.452.275-.592c-.05.147-.2.557-.227.629s-.077.17-.122.267a6.393,6.393,0,0,1-.322.639c-.067.112-.135.232-.207.357s-.165.237-.245.362c-.167.255-.375.492-.582.757a20.808,20.808,0,0,1-1.483,1.488,8.277,8.277,0,0,0-1.583,2.243,5.388,5.388,0,0,0-.37,1.164c.055-.127.11-.26.172-.382.02-.04.03-.062.05-.1s.025-.05.045-.095c.037-.085.06-.127.1-.215a7.46,7.46,0,0,1,.882-1.421c.285-.357.51-.6.577-.679.457-.507.909-.949,1.306-1.369a12.665,12.665,0,0,0,1.012-1.181,7.624,7.624,0,0,0,.577-.922c.092-.177.15-.295.177-.342-.018.05-.067.177-.145.367a7.064,7.064,0,0,1-.522,1,10.576,10.576,0,0,1-.967,1.281c-.387.45-.832.912-1.281,1.416a8.688,8.688,0,0,0-1.3,1.886,7.741,7.741,0,0,1,.959-1.174c.345-.35.619-.594.7-.669.549-.509,1.081-.969,1.536-1.431a7.333,7.333,0,0,0,1.091-1.376,4.964,4.964,0,0,0,.5-1.159c.06-.22.1-.372.12-.435-.012.062-.042.217-.085.452a5.313,5.313,0,0,1-.442,1.234,7.106,7.106,0,0,1-1.059,1.489c-.447.5-.977.982-1.521,1.491-.082.075-.355.325-.689.679a7.058,7.058,0,0,0-1.064,1.414,4.068,4.068,0,0,0-.25.527.471.471,0,0,1,.032-.04,5.087,5.087,0,0,1,1.1-1.029c.335-.242.592-.4.669-.45.519-.337,1.029-.624,1.469-.929a6.192,6.192,0,0,0,1.1-.937c.075-.075.132-.165.195-.237a2.554,2.554,0,0,0,.165-.222c.085-.152.182-.272.235-.39.072-.15.127-.255.16-.312-.022.057-.067.172-.127.34-.045.125-.132.26-.21.425a2.459,2.459,0,0,1-.152.247,3.156,3.156,0,0,1-.182.265,5.723,5.723,0,0,1-1.071,1.051c-.437.34-.944.652-1.456.989-.077.05-.332.215-.654.46a5.023,5.023,0,0,0-1.036,1.021,2.226,2.226,0,0,0-.41.732s-2.19-3.754-4.605-17.068a51.58,51.58,0,0,1-.484-15.03c1.456-12.822,5.038-24,8.6-30.3,9.373-16.621,18.741-24.65,33.429-29.181,14.111-4.351,40.017-3.5,42.035-3.432Z" transform="translate(894.703 495.456)"/>
      <path id="Path_2973" data-name="Path 2973" class="cls-5" d="M-863.117-88.273c.108-.1.241-.055.416-.161.376-.23.412-.859.377-1.381a6.065,6.065,0,0,1,.584,1,6.124,6.124,0,0,1,.515,1.819,7.093,7.093,0,0,1,.549,1.407c.348,1.284.137,1.957.412,3.191a6.968,6.968,0,0,0,.482,1.415,1.089,1.089,0,0,1-.016.939,6.485,6.485,0,0,0-.26.6,6.859,6.859,0,0,0-.379,3.18l-.067.013a20.419,20.419,0,0,1-.566-3.176c-.155-1.579.024-1.643-.154-2.745a17,17,0,0,0-1.3-4.049C-862.874-86.936-863.437-87.964-863.117-88.273Z" transform="translate(878.272 198.662)"/>
    </g>
    <g id="Group_2312" data-name="Group 2312" transform="translate(-882.636 -477.541)">
      <path id="Path_2974" data-name="Path 2974" d="M-651.38-88.21c.027.022.045.035.055.042C-651.335-88.175-651.353-88.19-651.38-88.21Zm0,0c.027.022.045.035.055.042C-651.335-88.175-651.353-88.19-651.38-88.21Z" transform="translate(678.468 149.359)"/>
      <path id="Path_2975" data-name="Path 2975" class="cls-6" d="M-678.758-221.213c.912-.285,1.421-.472,1.421-.472a28.724,28.724,0,0,0,6.229-3.044,27.222,27.222,0,0,1-8.919,2.5c-7.3.682-13.127-2.49-18.052-5.285-19-10.784-28.494-16.174-34.178-22.238a83.9,83.9,0,0,1-15.672-23.916c-.125.879-.285,2.11-.425,3.564a36.909,36.909,0,0,0-.2,4.323c.008.4,0,.8.022,1.219s.27,2.965.3,3.227.062.4.107.667c.145.892.3,1.783.472,2.667.212.894.437,1.776.664,2.635.057.215.115.427.172.639s.894,2.667,1.029,3.049.3.762.445,1.119c.292.722.587,1.4.857,2.015s.564,1.174.807,1.653c.484.967.847,1.663,1.041,1.988a59.271,59.271,0,0,0,8.494,11.419,69.314,69.314,0,0,0,8.944,7.765c1.364.984,2.642,1.846,3.776,2.552.772.482,1.476.914,2.108,1.286v0a36.587,36.587,0,0,0,3.412,1.888c3.741,1.816,6.843,2.522,12.89,3.7,2.735.529,5.262,1,7.55,1.414-.385-.082-.779-.172-1.179-.267.514.117,1.029.23,1.543.332-.12-.022-.242-.045-.365-.065,1.421.3,2.747.527,3.953.694-.042,0-.082-.012-.125-.02-.3-.055-1.181-.21-2.527-.475a69.278,69.278,0,0,1-7.13-1.836q-1.113-.371-2.315-.8c-.3-.11-1.1-.4-1.548-.572a55.844,55.844,0,0,1-14.366-8.7,53.049,53.049,0,0,0,13.054,6.249c.057.02.115.037.17.057l.342.1c.757.237,1.516.455,2.283.647a39.853,39.853,0,0,0,16.161,1.381l.03,0a.009.009,0,0,0,.007,0h.005c.9-.1,1.8-.242,2.68-.427.4-.082.757-.165,1.064-.235.227-.06.9-.247,1.214-.335l-1.236.31c-.24.05-.512.107-.807.165a36.583,36.583,0,0,0,6.091-1.916,10.556,10.556,0,0,1-1.7.145,10.328,10.328,0,0,1-1.508-.1c.41-.072.8-.135,1.151-.21C-679.829-220.933-679.22-221.068-678.758-221.213Zm-45.532-6.139c.027.02.045.035.055.042C-724.244-227.317-724.262-227.329-724.289-227.352Z" transform="translate(751.377 288.5)"/>
      <path id="Path_2976" data-name="Path 2976" class="cls-7" d="M-658.43-217.272s-3.489-1.538-6.99-3.182c-.387-.21-.862-.435-1.371-.7-2.85-1.479-18.874-9.56-21.034-10.724-.365-.195-.814-.44-1.314-.717-8.067-4.515-12.375-7.4-12.375-7.4a102.979,102.979,0,0,0-11.761-7.23,89.465,89.465,0,0,0-11.826-5.03,16.347,16.347,0,0,1-1.508-.879,20.864,20.864,0,0,1-4.935-4.6c-.43-.549-.817-1.1-1.166-1.648a80.322,80.322,0,0,0,13.237,19.52c7.33,7.952,16.1,12.645,33.631,22.03,5.175,2.772,10.674,5.467,17.707,5.15a33.008,33.008,0,0,0,6.141-.924c.322-.185.617-.375.882-.562l-.007,0-.008,0a23.015,23.015,0,0,1-2.248.617c.707-.187,1.411-.377,2.113-.582-.25.062-.8.2-1.606.4-.507.122-1.124.27-1.831.43-.762.12-1.479.2-2.133.24a31.334,31.334,0,0,1,3.809-1.131,31.3,31.3,0,0,1,5.559-.754,30.933,30.933,0,0,1,4.83.152C-654.231-215.452-656.194-216.286-658.43-217.272Zm-22.4-10.822c4.535,2.27,10.17,5.075,13.734,6.848C-672.2-223.671-676.791-225.979-680.827-228.094Z" transform="translate(739.486 277.772)"/>
      <path id="Path_2977" data-name="Path 2977" class="cls-1" d="M-678.9-269.729c-.212.145-.435.295-.667.445l-.008.005a27.222,27.222,0,0,1-8.919,2.5c-7.3.682-13.127-2.49-18.052-5.285-19-10.784-28.494-16.174-34.178-22.238a83.9,83.9,0,0,1-15.672-23.916,84.525,84.525,0,0,1-3.442-14.608l-.008-.222c.427,1.284.849,2.57,1.249,3.864a37.855,37.855,0,0,0,2.175,5.614q.6,2.36,1.349,4.665l.072-.037q.933,2.24,1.931,4.3a80.32,80.32,0,0,0,13.237,19.52c7.33,7.952,16.1,12.645,33.631,22.03,5.175,2.772,10.674,5.467,17.707,5.15a33.01,33.01,0,0,0,6.141-.924A30,30,0,0,1-678.9-269.729Z" transform="translate(759.84 333.05)"/>
    </g>
    <path id="Path_2978" data-name="Path 2978" d="M-464.873-59.4c.015.052-.225.217-.667.445C-465.308-59.105-465.085-59.255-464.873-59.4Z" transform="translate(-343.595 -349.797)"/>
  </g>
</svg>
