<svg xmlns="http://www.w3.org/2000/svg" width="22.431" height="33.903" viewBox="0 0 22.431 33.903"><defs><style>.a{fill:#045e8b;}</style></defs><path class="a" d="M44.632,307.9a11.229,11.229,0,0,0-11.216,11.214c0,2.491,1.592,6.553,4.862,12.415,2.315,4.146,4.591,7.6,4.687,7.748l1.666,2.527,1.669-2.527c.094-.146,2.372-3.6,4.685-7.748,3.272-5.862,4.862-9.924,4.862-12.415A11.229,11.229,0,0,0,44.632,307.9m0,16.952a5.812,5.812,0,1,1,5.814-5.81,5.811,5.811,0,0,1-5.814,5.81" transform="translate(-33.416 -307.901)"/></svg>