<svg xmlns="http://www.w3.org/2000/svg" xmlns:xlink="http://www.w3.org/1999/xlink" width="503.94" height="599.622" viewBox="0 0 503.94 599.622"><defs><style>.a,.bm,.bn,.bo{opacity:0.9;}.a{fill:url(#a);}.b,.bs,.cm,.cp,.cq,.dg{opacity:0.95;}.b{fill:url(#b);}.c{opacity:0.2;}.d,.z{fill:#afb6e5;}.d{opacity:0;}.e{fill:#abb2e2;opacity:0.048;}.cc,.f{fill:#a7addf;}.f{opacity:0.095;}.g{fill:#a3a9dc;opacity:0.143;}.h{fill:#9fa4d8;opacity:0.19;}.bb,.i{fill:#9ba0d5;}.i{opacity:0.238;}.j{fill:#979bd2;opacity:0.286;}.k{fill:#9397cf;opacity:0.333;}.cs,.l{fill:#8f92cc;}.l{opacity:0.381;}.m{fill:#8b8ec9;opacity:0.429;}.n{fill:#8789c6;opacity:0.476;}.o{fill:#8385c2;opacity:0.524;}.p{fill:#7f80bf;opacity:0.571;}.q{fill:#7b7cbc;opacity:0.619;}.r{fill:#7777b9;opacity:0.667;}.s{fill:#7373b6;opacity:0.714;}.t{fill:#6f6eb3;opacity:0.762;}.u{fill:#6b6ab0;opacity:0.81;}.bk,.v{fill:#6765ac;}.v{opacity:0.857;}.cl,.w{fill:#6361a9;}.w{opacity:0.905;}.x{fill:#5f5ca6;opacity:0.952;}.y{fill:#5b58a3;}.aa{fill:url(#c);}.ab{fill:url(#d);}.ac{fill:url(#e);}.ad{fill:url(#f);}.ae{fill:url(#g);}.af{fill:url(#h);}.ag{fill:url(#i);}.ah{fill:url(#j);}.ai{fill:url(#k);}.aj{fill:url(#l);}.ak{fill:url(#m);}.al{fill:url(#n);}.am{fill:url(#o);}.an{fill:url(#p);}.ao{fill:url(#q);}.ap{fill:url(#r);}.aq{fill:url(#s);}.ar{fill:url(#t);}.as{fill:url(#u);}.at{fill:url(#v);}.au{fill:url(#w);}.av,.bm,.dg{fill:#fff;}.aw{fill:url(#x);}.ax{fill:url(#y);}.ay{fill:url(#z);}.az{fill:url(#aa);}.ba{opacity:0.3;mix-blend-mode:multiply;}.ba,.bp,.bq,.cn,.co,.de{isolation:isolate;}.bb{opacity:0.238;}.bc{fill:#9599d0;opacity:0.307;}.bd{fill:#8f93cc;opacity:0.377;}.be{fill:#8a8cc7;opacity:0.446;}.bf{fill:#8486c3;opacity:0.515;}.bg{fill:#7e7fbe;opacity:0.584;}.bh{fill:#7879ba;opacity:0.654;}.bi,.cj{fill:#7272b5;}.bi{opacity:0.723;}.bj{fill:#6c6cb1;opacity:0.792;}.bk{opacity:0.861;}.bl{fill:#615fa8;opacity:0.931;}.bn{fill:url(#ab);}.bo{fill:url(#ac);}.bp,.cn,.de{mix-blend-mode:color-dodge;}.bp{fill:url(#ad);}.bq,.co{mix-blend-mode:screen;}.bq{fill:url(#ae);}.br{fill:url(#af);}.bs{fill:url(#ag);}.bt{fill:url(#ah);}.bu{fill:url(#ai);}.bv{fill:#ced3f4;}.bw{fill:url(#aj);}.bx{fill:url(#ak);}.by{fill:url(#al);}.bz{fill:url(#am);}.ca{fill:url(#an);}.cb{fill:url(#ao);}.cc{opacity:0.091;}.cd{fill:#a0a5d9;opacity:0.182;}.ce{fill:#989cd3;opacity:0.273;}.cf{fill:#9094cd;opacity:0.364;}.cg{fill:#898bc7;opacity:0.455;}.ch{fill:#8183c1;opacity:0.545;}.ci{fill:#7a7abb;opacity:0.636;}.cj{opacity:0.727;}.ck{fill:#6a69af;opacity:0.818;}.cl{opacity:0.909;}.cm{fill:url(#ap);}.cn{fill:url(#aq);}.co{fill:url(#ar);}.cp{fill:url(#as);}.cq{fill:url(#at);}.cr{fill:#dcdff4;}.cs{opacity:0.381;}.ct{fill:#8a8dc8;opacity:0.437;}.cu{fill:#8687c5;opacity:0.494;}.cv{fill:#8182c1;opacity:0.55;}.cw{fill:#7c7dbd;opacity:0.606;}.cx{fill:#7778b9;opacity:0.662;}.cy{fill:#7372b6;opacity:0.719;}.cz{fill:#6e6db2;opacity:0.775;}.da{fill:#6968ae;opacity:0.831;}.db{fill:#6463aa;opacity:0.887;}.dc{fill:#605da7;opacity:0.944;}.dd{fill:url(#au);}.de{fill:url(#av);}.df{fill:url(#aw);}.dh{fill:url(#ax);}.di{fill:url(#ay);}</style><linearGradient id="a" x1="0.434" y1="0.036" x2="0.547" y2="0.831" gradientUnits="objectBoundingBox"><stop offset="0.03" stop-color="#bb6df3"/><stop offset="0.376" stop-color="#976df3"/><stop offset="0.556" stop-color="#836df3"/><stop offset="0.691" stop-color="#786ff3"/><stop offset="0.925" stop-color="#5c74f6"/><stop offset="1" stop-color="#5277f7"/></linearGradient><linearGradient id="b" x1="0.279" y1="0.15" x2="0.805" y2="0.983" gradientUnits="objectBoundingBox"><stop offset="0.005" stop-color="#2be9a3"/><stop offset="0.29" stop-color="#07ccbf"/><stop offset="0.343" stop-color="#00c7c5"/><stop offset="0.436" stop-color="#08beca"/><stop offset="0.586" stop-color="#20a6d9"/><stop offset="0.774" stop-color="#4780f0"/><stop offset="0.817" stop-color="#5277f7"/></linearGradient><linearGradient id="c" x1="0.103" y1="0.006" x2="0.928" y2="0.991" gradientUnits="objectBoundingBox"><stop offset="0" stop-color="#b0b7e6"/><stop offset="0.192" stop-color="#b2b8e6"/><stop offset="0.283" stop-color="#b3b9e6"/><stop offset="0.409" stop-color="#afb6e5"/><stop offset="0.909" stop-color="#afb6e5"/><stop offset="1" stop-color="#b0b7e6"/></linearGradient><linearGradient id="d" x1="0.102" y1="0.006" x2="0.929" y2="0.991" gradientUnits="objectBoundingBox"><stop offset="0" stop-color="#b2b9e6"/><stop offset="0.192" stop-color="#b4bbe7"/><stop offset="0.283" stop-color="#b7bde7"/><stop offset="0.409" stop-color="#afb6e5"/><stop offset="0.909" stop-color="#afb6e5"/><stop offset="1" stop-color="#b2b9e6"/></linearGradient><linearGradient id="e" x1="0.102" y1="0.006" x2="0.929" y2="0.991" gradientUnits="objectBoundingBox"><stop offset="0" stop-color="#b3bae7"/><stop offset="0.192" stop-color="#b7bde9"/><stop offset="0.283" stop-color="#bac0e9"/><stop offset="0.409" stop-color="#afb6e5"/><stop offset="0.909" stop-color="#afb6e5"/><stop offset="1" stop-color="#b3bae7"/></linearGradient><linearGradient id="f" x1="0.101" y1="0.006" x2="0.93" y2="0.991" gradientUnits="objectBoundingBox"><stop offset="0" stop-color="#b5bbe8"/><stop offset="0.192" stop-color="#b9c0ea"/><stop offset="0.283" stop-color="#bec4ea"/><stop offset="0.409" stop-color="#afb6e5"/><stop offset="0.909" stop-color="#afb6e5"/><stop offset="1" stop-color="#b5bbe8"/></linearGradient><linearGradient id="g" x1="0.1" y1="0.006" x2="0.931" y2="0.991" gradientUnits="objectBoundingBox"><stop offset="0" stop-color="#b6bde8"/><stop offset="0.192" stop-color="#bcc2eb"/><stop offset="0.283" stop-color="#c2c7eb"/><stop offset="0.409" stop-color="#afb6e5"/><stop offset="0.909" stop-color="#afb6e5"/><stop offset="1" stop-color="#b6bde8"/></linearGradient><linearGradient id="h" x1="0.1" y1="0.006" x2="0.931" y2="0.991" gradientUnits="objectBoundingBox"><stop offset="0" stop-color="#b8bee9"/><stop offset="0.192" stop-color="#bec5ec"/><stop offset="0.283" stop-color="#c6cbec"/><stop offset="0.393" stop-color="#b2b9e6"/><stop offset="0.409" stop-color="#afb6e5"/><stop offset="0.909" stop-color="#afb6e5"/><stop offset="1" stop-color="#b8bee9"/></linearGradient><linearGradient id="i" x1="0.099" y1="0.005" x2="0.932" y2="0.991" gradientUnits="objectBoundingBox"><stop offset="0" stop-color="#b9bfea"/><stop offset="0.192" stop-color="#c1c7ee"/><stop offset="0.283" stop-color="#caceee"/><stop offset="0.378" stop-color="#b6bce7"/><stop offset="0.409" stop-color="#afb6e5"/><stop offset="0.909" stop-color="#afb6e5"/><stop offset="1" stop-color="#b9bfea"/></linearGradient><linearGradient id="j" x1="0.098" y1="0.005" x2="0.933" y2="0.991" gradientUnits="objectBoundingBox"><stop offset="0" stop-color="#bac1ea"/><stop offset="0.192" stop-color="#c4c9ef"/><stop offset="0.283" stop-color="#cdd2ef"/><stop offset="0.37" stop-color="#b9bfe8"/><stop offset="0.409" stop-color="#afb6e5"/><stop offset="0.909" stop-color="#afb6e5"/><stop offset="0.999" stop-color="#b9c0e9"/><stop offset="1" stop-color="#bac1ea"/></linearGradient><linearGradient id="k" x1="0.098" y1="0.005" x2="0.934" y2="0.991" gradientUnits="objectBoundingBox"><stop offset="0" stop-color="#bcc2eb"/><stop offset="0.192" stop-color="#c6ccf0"/><stop offset="0.277" stop-color="#d0d4f0"/><stop offset="0.283" stop-color="#d1d5f0"/><stop offset="0.361" stop-color="#bdc3e9"/><stop offset="0.409" stop-color="#afb6e5"/><stop offset="0.909" stop-color="#afb6e5"/><stop offset="0.988" stop-color="#b9c0ea"/><stop offset="1" stop-color="#bcc2eb"/></linearGradient><linearGradient id="l" x1="0.097" y1="0.005" x2="0.934" y2="0.992" gradientUnits="objectBoundingBox"><stop offset="0" stop-color="#bdc3ec"/><stop offset="0.192" stop-color="#c9cef1"/><stop offset="0.272" stop-color="#d3d7f1"/><stop offset="0.283" stop-color="#d5d9f1"/><stop offset="0.354" stop-color="#c1c6ea"/><stop offset="0.409" stop-color="#afb6e5"/><stop offset="0.909" stop-color="#afb6e5"/><stop offset="0.984" stop-color="#b9c0ea"/><stop offset="1" stop-color="#bdc3ec"/></linearGradient><linearGradient id="m" x1="0.096" y1="0.005" x2="0.935" y2="0.992" gradientUnits="objectBoundingBox"><stop offset="0" stop-color="#bfc5ec"/><stop offset="0.192" stop-color="#cbd1f3"/><stop offset="0.263" stop-color="#d5d8f3"/><stop offset="0.283" stop-color="#d9dcf3"/><stop offset="0.348" stop-color="#c5caec"/><stop offset="0.409" stop-color="#afb6e5"/><stop offset="0.909" stop-color="#afb6e5"/><stop offset="0.976" stop-color="#b9c0e9"/><stop offset="1" stop-color="#bfc5ec"/></linearGradient><linearGradient id="n" x1="0.096" y1="0.005" x2="0.936" y2="0.992" gradientUnits="objectBoundingBox"><stop offset="0" stop-color="#c0c6ed"/><stop offset="0.192" stop-color="#ced3f4"/><stop offset="0.259" stop-color="#d8dbf4"/><stop offset="0.283" stop-color="#dde0f4"/><stop offset="0.343" stop-color="#c9ceed"/><stop offset="0.409" stop-color="#afb6e5"/><stop offset="0.909" stop-color="#afb6e5"/><stop offset="0.973" stop-color="#b9c0ea"/><stop offset="1" stop-color="#c0c6ed"/></linearGradient><linearGradient id="o" x1="0.095" y1="0.005" x2="0.936" y2="0.992" gradientUnits="objectBoundingBox"><stop offset="0" stop-color="#c2c7ee"/><stop offset="0.192" stop-color="#d0d6f5"/><stop offset="0.253" stop-color="#daddf5"/><stop offset="0.283" stop-color="#e1e3f5"/><stop offset="0.339" stop-color="#cdd1ee"/><stop offset="0.409" stop-color="#afb6e5"/><stop offset="0.909" stop-color="#afb6e5"/><stop offset="0.968" stop-color="#b9bfea"/><stop offset="1" stop-color="#c2c7ee"/></linearGradient><linearGradient id="p" x1="0.094" y1="0.005" x2="0.937" y2="0.992" gradientUnits="objectBoundingBox"><stop offset="0" stop-color="#c3c9ee"/><stop offset="0.192" stop-color="#d3d8f6"/><stop offset="0.253" stop-color="#dde0f6"/><stop offset="0.283" stop-color="#e4e7f6"/><stop offset="0.336" stop-color="#d0d4ef"/><stop offset="0.409" stop-color="#afb6e5"/><stop offset="0.909" stop-color="#afb6e5"/><stop offset="0.966" stop-color="#b9c0e9"/><stop offset="1" stop-color="#c3c9ee"/></linearGradient><linearGradient id="q" x1="0.094" y1="0.005" x2="0.938" y2="0.992" gradientUnits="objectBoundingBox"><stop offset="0" stop-color="#c4caef"/><stop offset="0.192" stop-color="#d6daf8"/><stop offset="0.25" stop-color="#e0e2f8"/><stop offset="0.283" stop-color="#e8eaf8"/><stop offset="0.333" stop-color="#d4d8f1"/><stop offset="0.409" stop-color="#afb6e5"/><stop offset="0.909" stop-color="#afb6e5"/><stop offset="0.963" stop-color="#b9c0ea"/><stop offset="1" stop-color="#c4caef"/></linearGradient><linearGradient id="r" x1="0.093" y1="0.005" x2="0.939" y2="0.992" gradientUnits="objectBoundingBox"><stop offset="0" stop-color="#c6cbf0"/><stop offset="0.192" stop-color="#d8ddf9"/><stop offset="0.246" stop-color="#e2e5f9"/><stop offset="0.283" stop-color="#eceef9"/><stop offset="0.33" stop-color="#d8dbf2"/><stop offset="0.409" stop-color="#afb6e5"/><stop offset="0.909" stop-color="#afb6e5"/><stop offset="0.96" stop-color="#b9bfea"/><stop offset="1" stop-color="#c6cbf0"/></linearGradient><linearGradient id="s" x1="0.092" y1="0.004" x2="0.939" y2="0.992" gradientUnits="objectBoundingBox"><stop offset="0" stop-color="#c7cdf0"/><stop offset="0.192" stop-color="#dbdffa"/><stop offset="0.244" stop-color="#e5e7fa"/><stop offset="0.283" stop-color="#f0f1fa"/><stop offset="0.327" stop-color="#dcdff3"/><stop offset="0.409" stop-color="#afb6e5"/><stop offset="0.909" stop-color="#afb6e5"/><stop offset="0.958" stop-color="#b9c0e9"/><stop offset="1" stop-color="#c7cdf0"/></linearGradient><linearGradient id="t" x1="0.092" y1="0.004" x2="0.94" y2="0.992" gradientUnits="objectBoundingBox"><stop offset="0" stop-color="#c9cef1"/><stop offset="0.192" stop-color="#dde2fb"/><stop offset="0.24" stop-color="#e7eafb"/><stop offset="0.283" stop-color="#f4f5fb"/><stop offset="0.325" stop-color="#e0e3f4"/><stop offset="0.409" stop-color="#afb6e5"/><stop offset="0.909" stop-color="#afb6e5"/><stop offset="0.955" stop-color="#b9c0ea"/><stop offset="1" stop-color="#c9cef1"/></linearGradient><linearGradient id="u" x1="0.091" y1="0.004" x2="0.941" y2="0.993" gradientUnits="objectBoundingBox"><stop offset="0" stop-color="#cacff2"/><stop offset="0.192" stop-color="#e0e4fd"/><stop offset="0.24" stop-color="#eaecfd"/><stop offset="0.283" stop-color="#f7f8fd"/><stop offset="0.324" stop-color="#e3e5f6"/><stop offset="0.407" stop-color="#b0b7e5"/><stop offset="0.409" stop-color="#afb6e5"/><stop offset="0.909" stop-color="#afb6e5"/><stop offset="0.954" stop-color="#b9c0ea"/><stop offset="1" stop-color="#cacff2"/></linearGradient><linearGradient id="v" x1="0.09" y1="0.004" x2="0.941" y2="0.993" gradientUnits="objectBoundingBox"><stop offset="0" stop-color="#ccd1f2"/><stop offset="0.192" stop-color="#e2e7fe"/><stop offset="0.237" stop-color="#eceffe"/><stop offset="0.283" stop-color="#fbfcfe"/><stop offset="0.322" stop-color="#e7e9f7"/><stop offset="0.401" stop-color="#b4bbe6"/><stop offset="0.409" stop-color="#afb6e5"/><stop offset="0.909" stop-color="#afb6e5"/><stop offset="0.951" stop-color="#b9c0e9"/><stop offset="1" stop-color="#ccd1f2"/></linearGradient><linearGradient id="w" x1="0.09" y1="0.004" x2="0.942" y2="0.993" gradientUnits="objectBoundingBox"><stop offset="0" stop-color="#cdd2f3"/><stop offset="0.192" stop-color="#e5e9ff"/><stop offset="0.236" stop-color="#eff1ff"/><stop offset="0.283" stop-color="#fff"/><stop offset="0.32" stop-color="#ebedf8"/><stop offset="0.396" stop-color="#b8bee8"/><stop offset="0.409" stop-color="#afb6e5"/><stop offset="0.909" stop-color="#afb6e5"/><stop offset="0.95" stop-color="#b9c0ea"/><stop offset="1" stop-color="#cdd2f3"/></linearGradient><linearGradient id="x" x1="-1.318" y1="0.768" x2="1.886" y2="0.295" gradientUnits="objectBoundingBox"><stop offset="0" stop-color="#afb6e5"/><stop offset="0.145" stop-color="#b5bce8"/><stop offset="0.349" stop-color="#c7cdf0"/><stop offset="0.581" stop-color="#e5e9ff"/><stop offset="0.855" stop-color="#f4f6ff"/><stop offset="1" stop-color="#fff"/></linearGradient><linearGradient id="y" x1="-0.133" y1="0.086" x2="1.438" y2="1.114" gradientUnits="objectBoundingBox"><stop offset="0.005" stop-color="#273b98"/><stop offset="0.227" stop-color="#2e2ba2"/><stop offset="0.399" stop-color="#361cac"/><stop offset="0.768" stop-color="#440b88"/><stop offset="1" stop-color="#4e0070"/></linearGradient><linearGradient id="z" x1="2.581" y1="0.815" x2="-3.49" y2="-0.104" xlink:href="#x"/><linearGradient id="aa" x1="0.318" y1="0.958" x2="0.682" y2="0.042" gradientUnits="objectBoundingBox"><stop offset="0" stop-color="#5277f7"/><stop offset="0.091" stop-color="#5a76f6"/><stop offset="0.239" stop-color="#7273f5"/><stop offset="0.425" stop-color="#9970f4"/><stop offset="0.561" stop-color="#bb6df3"/><stop offset="1" stop-color="#f36dd4"/></linearGradient><linearGradient id="ab" x1="0.707" y1="0.954" x2="-0.074" y2="-0.854" xlink:href="#a"/><linearGradient id="ac" x1="0.938" y1="0.969" x2="0.049" y2="0.013" gradientUnits="objectBoundingBox"><stop offset="0.03" stop-color="#bb6df3"/><stop offset="0.601" stop-color="#5b41e0"/><stop offset="0.714" stop-color="#594be4"/><stop offset="0.908" stop-color="#5467f0"/><stop offset="1" stop-color="#5277f7"/></linearGradient><radialGradient id="ad" cx="0.5" cy="0.5" r="1.359" gradientTransform="translate(0.155) scale(0.689 1)" gradientUnits="objectBoundingBox"><stop offset="0" stop-color="#711f56"/><stop offset="0.161" stop-color="#6b1d51"/><stop offset="0.363" stop-color="#5c1946"/><stop offset="0.585" stop-color="#421232"/><stop offset="0.821" stop-color="#1f0818"/><stop offset="1"/></radialGradient><radialGradient id="ae" cx="0.5" cy="0.5" r="0.218" gradientTransform="translate(49.244 12.865) scale(2.29 2.29)" gradientUnits="objectBoundingBox"><stop offset="0" stop-color="#836df3"/><stop offset="0.114" stop-color="#6554bc"/><stop offset="0.235" stop-color="#4a3e8b"/><stop offset="0.358" stop-color="#332b60"/><stop offset="0.482" stop-color="#211b3d"/><stop offset="0.608" stop-color="#120f22"/><stop offset="0.735" stop-color="#08060f"/><stop offset="0.864" stop-color="#020103"/><stop offset="1"/></radialGradient><linearGradient id="af" x1="0.085" y1="-0.73" x2="0.88" y2="1.628" xlink:href="#a"/><linearGradient id="ag" x1="-0.05" y1="-0.699" x2="1.41" y2="2.486" xlink:href="#b"/><linearGradient id="ah" x1="0.021" y1="0.694" x2="0.997" y2="0.298" gradientUnits="objectBoundingBox"><stop offset="0.076" stop-color="#b4f759"/><stop offset="0.143" stop-color="#adf65c"/><stop offset="0.24" stop-color="#99f467"/><stop offset="0.355" stop-color="#7af178"/><stop offset="0.483" stop-color="#4eec8f"/><stop offset="0.576" stop-color="#2be9a3"/><stop offset="0.695" stop-color="#24e3a8"/><stop offset="0.868" stop-color="#10d4b7"/><stop offset="0.985" stop-color="#00c7c5"/></linearGradient><linearGradient id="ai" x1="-0.056" y1="0.097" x2="0.742" y2="1.182" gradientUnits="objectBoundingBox"><stop offset="0.061" stop-color="#f36dd4"/><stop offset="0.195" stop-color="#e86dd9"/><stop offset="0.428" stop-color="#cc6de9"/><stop offset="0.551" stop-color="#bb6df3"/><stop offset="1" stop-color="#836df3"/></linearGradient><linearGradient id="aj" x1="0.023" y1="0.046" x2="0.716" y2="0.957" gradientUnits="objectBoundingBox"><stop offset="0" stop-color="#836df3"/><stop offset="0.145" stop-color="#8b6df3"/><stop offset="0.379" stop-color="#a36df3"/><stop offset="0.561" stop-color="#bb6df3"/><stop offset="1" stop-color="#f36dd4"/></linearGradient><linearGradient id="ak" x1="0.495" y1="0.065" x2="0.531" y2="0.928" gradientUnits="objectBoundingBox"><stop offset="0" stop-color="#6cf"/><stop offset="0.45" stop-color="#5da8fb"/><stop offset="1" stop-color="#5277f7"/></linearGradient><linearGradient id="al" x1="0.815" y1="0.302" x2="0.205" y2="0.591" gradientUnits="objectBoundingBox"><stop offset="0" stop-color="#dfed72"/><stop offset="0.444" stop-color="#b4f759"/><stop offset="0.574" stop-color="#adf65c"/><stop offset="0.762" stop-color="#99f466"/><stop offset="0.984" stop-color="#7af177"/><stop offset="1" stop-color="#78f179"/></linearGradient><linearGradient id="am" x1="1.997" y1="-4.225" x2="1.12" y2="-1.457" gradientUnits="objectBoundingBox"><stop offset="0" stop-color="#ffe585"/><stop offset="0.276" stop-color="#dbed70"/><stop offset="0.551" stop-color="#b4f759"/><stop offset="0.656" stop-color="#adf65c"/><stop offset="0.807" stop-color="#99f466"/><stop offset="0.987" stop-color="#7af177"/><stop offset="1" stop-color="#78f179"/></linearGradient><linearGradient id="an" x1="1.382" y1="-2.404" x2="0.529" y2="0.403" xlink:href="#ak"/><linearGradient id="ao" x1="1.252" y1="-3.45" x2="0.667" y2="-0.377" xlink:href="#aj"/><linearGradient id="ap" x1="0" y1="0.5" x2="1" y2="0.5" xlink:href="#b"/><radialGradient id="aq" cx="0.5" cy="0.5" r="1.347" gradientTransform="translate(0.151) scale(0.699 1)" xlink:href="#ad"/><radialGradient id="ar" cx="0.5" cy="0.5" r="0.302" gradientTransform="translate(-2.297 9.03) scale(1.655 1.655)" gradientUnits="objectBoundingBox"><stop offset="0" stop-color="#00c7c5"/><stop offset="0.025" stop-color="#00bcba"/><stop offset="0.158" stop-color="#008b89"/><stop offset="0.294" stop-color="#00605f"/><stop offset="0.43" stop-color="#003d3c"/><stop offset="0.568" stop-color="#022"/><stop offset="0.708" stop-color="#000f0f"/><stop offset="0.85" stop-color="#000303"/><stop offset="1"/></radialGradient><linearGradient id="as" x1="0.997" y1="1.068" x2="-0.113" y2="-0.201" xlink:href="#b"/><linearGradient id="at" x1="1.416" y1="1.388" x2="-0.284" y2="0.167" xlink:href="#b"/><linearGradient id="au" x1="-0.126" y1="-0.065" x2="0.897" y2="0.859" gradientUnits="objectBoundingBox"><stop offset="0" stop-color="#fffa84"/><stop offset="0.392" stop-color="#c7f764"/><stop offset="0.525" stop-color="#b4f759"/><stop offset="0.831" stop-color="#88f270"/><stop offset="1" stop-color="#6ef07f"/></linearGradient><radialGradient id="av" cx="0.451" cy="0.419" r="1.345" gradientTransform="translate(0.14) scale(0.719 1)" xlink:href="#ad"/><linearGradient id="aw" x1="-0.2" y1="0.152" x2="1.086" y2="0.916" xlink:href="#au"/><linearGradient id="ax" x1="-0.333" y1="0.258" x2="1.268" y2="1.422" xlink:href="#ai"/><linearGradient id="ay" x1="-0.293" y1="0.562" x2="1.873" y2="0.264" xlink:href="#ah"/></defs><path class="a" d="M-754.759,2394.474l-.327,0a.917.917,0,0,1-.9-.935.951.951,0,0,1,.933-.9l.3,0a11.6,11.6,0,0,0,4.683-.934.922.922,0,0,1,1.21.476.919.919,0,0,1-.474,1.209A13.478,13.478,0,0,1-754.759,2394.474Zm-5.7-.994a.955.955,0,0,1-.29-.048,28.22,28.22,0,0,1-5.113-2.339.941.941,0,0,1-.36-1.268.9.9,0,0,1,1.231-.351l.048.028a26.355,26.355,0,0,0,4.775,2.186.921.921,0,0,1,.582,1.163A.924.924,0,0,1-760.459,2393.479Zm15.074-3.325a.925.925,0,0,1-.58-.206.923.923,0,0,1-.133-1.294,14.173,14.173,0,0,0,2.42-4.53.921.921,0,0,1,1.163-.583.919.919,0,0,1,.581,1.161,16.009,16.009,0,0,1-2.737,5.115A.921.921,0,0,1-745.385,2390.154Zm-24.831-1.708a.92.92,0,0,1-.458-.123l-4.769-2.742a.922.922,0,0,1-.34-1.255.919.919,0,0,1,1.255-.338l4.769,2.743a.919.919,0,0,1,.338,1.254A.918.918,0,0,1-770.217,2388.446Zm-9.537-5.49a.916.916,0,0,1-.457-.121l-4.769-2.745a.919.919,0,0,1-.338-1.255.917.917,0,0,1,1.253-.338l4.769,2.745a.922.922,0,0,1,.34,1.255A.918.918,0,0,1-779.753,2382.956Zm37.98-3.011c-.026,0-.048,0-.072,0a.919.919,0,0,1-.847-.985c.055-.7.083-1.431.083-2.178v-3.25a.919.919,0,0,1,.918-.919.919.919,0,0,1,.919.919v3.25c0,.8-.031,1.571-.086,2.319A.918.918,0,0,1-741.774,2379.945Zm-47.515-2.476a.9.9,0,0,1-.458-.124l-4.767-2.743a.922.922,0,0,1-.34-1.255.917.917,0,0,1,1.255-.338l4.768,2.745a.92.92,0,0,1,.338,1.255A.917.917,0,0,1-789.288,2377.469Zm-9.537-5.488a.919.919,0,0,1-.458-.123l-4.765-2.745a.913.913,0,0,1-.34-1.252.918.918,0,0,1,1.255-.338l4.765,2.745a.914.914,0,0,1,.34,1.253A.92.92,0,0,1-798.825,2371.981Zm57.134-3.035a.919.919,0,0,1-.918-.919v-5.5a.917.917,0,0,1,.918-.918.918.918,0,0,1,.919.918v5.5A.919.919,0,0,1-741.691,2368.946Zm-66.669-2.453a.907.907,0,0,1-.458-.124l-4.768-2.745a.919.919,0,0,1-.338-1.254.916.916,0,0,1,1.253-.336l4.767,2.743a.919.919,0,0,1,.338,1.254A.914.914,0,0,1-808.36,2366.493Zm-9.535-5.489a.922.922,0,0,1-.458-.121l-4.768-2.745a.919.919,0,0,1-.34-1.255.921.921,0,0,1,1.255-.338l4.767,2.746a.917.917,0,0,1,.34,1.254A.922.922,0,0,1-817.895,2361Zm76.2-3.062a.917.917,0,0,1-.918-.919v-5.5a.919.919,0,0,1,.918-.919.919.919,0,0,1,.919.919v5.5A.918.918,0,0,1-741.691,2357.943Zm-85.739-2.426a.928.928,0,0,1-.458-.122l-4.769-2.744a.92.92,0,0,1-.338-1.255.919.919,0,0,1,1.253-.338l4.769,2.743a.922.922,0,0,1,.34,1.255A.92.92,0,0,1-827.43,2355.516Zm-9.535-5.488a.907.907,0,0,1-.457-.124l-4.769-2.742a.925.925,0,0,1-.34-1.257.923.923,0,0,1,1.255-.337l4.769,2.744a.92.92,0,0,1,.338,1.255A.92.92,0,0,1-836.965,2350.029Zm95.274-3.086a.919.919,0,0,1-.918-.919v-5.5a.919.919,0,0,1,.918-.918.919.919,0,0,1,.919.918v5.5A.919.919,0,0,1-741.691,2346.943Zm-104.811-2.4a.9.9,0,0,1-.457-.122l-4.768-2.744a.918.918,0,0,1-.338-1.255.914.914,0,0,1,1.253-.336l4.768,2.743a.92.92,0,0,1,.34,1.254A.922.922,0,0,1-846.5,2344.539Zm-9.535-5.488a.9.9,0,0,1-.458-.123l-4.767-2.745a.919.919,0,0,1-.34-1.253.919.919,0,0,1,1.255-.338l4.767,2.745a.919.919,0,0,1,.338,1.255A.916.916,0,0,1-856.036,2339.051Zm114.346-3.112a.918.918,0,0,1-.918-.918v-5.5a.919.919,0,0,1,.918-.918.919.919,0,0,1,.919.918v5.5A.918.918,0,0,1-741.691,2335.94Zm-123.882-2.375a.914.914,0,0,1-.458-.123l-4.766-2.745a.916.916,0,0,1-.34-1.254.918.918,0,0,1,1.255-.337l4.766,2.745a.914.914,0,0,1,.34,1.253A.919.919,0,0,1-865.573,2333.564Zm-9.5-5.541a.924.924,0,0,1-.5-.15,40.337,40.337,0,0,1-4.466-3.425.919.919,0,0,1-.083-1.3.916.916,0,0,1,1.3-.083,38.728,38.728,0,0,0,4.262,3.269.918.918,0,0,1,.263,1.273A.919.919,0,0,1-875.075,2328.023Zm133.384-3.084a.919.919,0,0,1-.918-.918v-5.5a.919.919,0,0,1,.918-.918.919.919,0,0,1,.919.918v5.5A.919.919,0,0,1-741.691,2324.938Zm-141.653-4.134a.919.919,0,0,1-.682-.3,55.2,55.2,0,0,1-3.526-4.343.917.917,0,0,1,.2-1.284.915.915,0,0,1,1.282.2,53.272,53.272,0,0,0,3.408,4.2.918.918,0,0,1-.068,1.3A.914.914,0,0,1-883.344,2320.8Zm141.653-6.869a.919.919,0,0,1-.918-.919v-5.5a.919.919,0,0,1,.918-.919.919.919,0,0,1,.919.919v5.5A.919.919,0,0,1-741.691,2313.936Zm-148.149-1.993a.916.916,0,0,1-.79-.45c-.952-1.6-1.832-3.261-2.622-4.937a.917.917,0,0,1,.439-1.221.917.917,0,0,1,1.222.439c.764,1.624,1.62,3.232,2.539,4.781a.917.917,0,0,1-.322,1.26A.919.919,0,0,1-889.84,2311.943Zm148.149-9.01a.918.918,0,0,1-.918-.918v-5.5a.919.919,0,0,1,.918-.919.919.919,0,0,1,.919.919v5.5A.918.918,0,0,1-741.691,2302.933ZM-894.516,2302a.918.918,0,0,1-.865-.612,49.424,49.424,0,0,1-1.576-5.379.919.919,0,0,1,.689-1.1.913.913,0,0,1,1.1.689,47.219,47.219,0,0,0,1.517,5.177.918.918,0,0,1-.56,1.172A.883.883,0,0,1-894.516,2302Zm152.825-10.068a.919.919,0,0,1-.918-.918v-5.5a.919.919,0,0,1,.918-.919.919.919,0,0,1,.919.919v5.5A.919.919,0,0,1-741.691,2291.932Zm-155.256-.637a.919.919,0,0,1-.913-.834c-.1-1.089-.151-2.17-.151-3.208v-2.373a.919.919,0,0,1,.919-.919.919.919,0,0,1,.919.919v2.373c0,.981.048,2,.143,3.039a.919.919,0,0,1-.83,1C-896.89,2291.292-896.917,2291.294-896.947,2291.294Zm155.256-10.365a.918.918,0,0,1-.918-.919v-5.5a.919.919,0,0,1,.918-.919.919.919,0,0,1,.919.919v5.5A.918.918,0,0,1-741.691,2280.929Zm-155.4-.632a.919.919,0,0,1-.919-.919v-5.5a.918.918,0,0,1,.919-.918.919.919,0,0,1,.919.918v5.5A.919.919,0,0,1-897.092,2280.3Zm155.4-10.369a.919.919,0,0,1-.918-.919v-5.5a.919.919,0,0,1,.918-.918.919.919,0,0,1,.919.918v5.5A.919.919,0,0,1-741.691,2269.928Zm-155.4-.634a.918.918,0,0,1-.919-.919v-5.5a.919.919,0,0,1,.919-.918.919.919,0,0,1,.919.918v5.5A.918.918,0,0,1-897.092,2269.294Zm155.4-10.369a.917.917,0,0,1-.918-.918v-5.5a.919.919,0,0,1,.918-.919.919.919,0,0,1,.919.919v5.5A.918.918,0,0,1-741.691,2258.925Zm-155.4-.632a.919.919,0,0,1-.919-.919v-5.5a.918.918,0,0,1,.919-.918.918.918,0,0,1,.919.918v5.5A.919.919,0,0,1-897.092,2258.293Zm155.4-10.371a.918.918,0,0,1-.918-.918v-5.5a.918.918,0,0,1,.918-.918.918.918,0,0,1,.919.918v5.5A.918.918,0,0,1-741.691,2247.922Zm-155.4-.632a.917.917,0,0,1-.919-.918v-5.5a.919.919,0,0,1,.919-.918.919.919,0,0,1,.919.918v5.5A.918.918,0,0,1-897.092,2247.29Zm155.4-10.368a.918.918,0,0,1-.918-.919v-5.5a.918.918,0,0,1,.918-.918.918.918,0,0,1,.919.918v5.5A.918.918,0,0,1-741.691,2236.922Zm-155.4-.634a.918.918,0,0,1-.919-.919v-5.5a.919.919,0,0,1,.919-.918.919.919,0,0,1,.919.918v5.5A.918.918,0,0,1-897.092,2236.288Zm155.4-10.369a.918.918,0,0,1-.918-.918v-5.5a.919.919,0,0,1,.918-.918.919.919,0,0,1,.919.918v5.5A.918.918,0,0,1-741.691,2225.918Zm-155.4-.632a.918.918,0,0,1-.919-.919v-5.5a.918.918,0,0,1,.919-.918.918.918,0,0,1,.919.918v5.5A.918.918,0,0,1-897.092,2225.287Zm155.4-10.369a.918.918,0,0,1-.918-.918v-5.5a.918.918,0,0,1,.918-.919.918.918,0,0,1,.919.919v5.5A.918.918,0,0,1-741.691,2214.917Zm-155.4-.634a.918.918,0,0,1-.919-.918v-5.5a.919.919,0,0,1,.919-.918.919.919,0,0,1,.919.918v5.5A.918.918,0,0,1-897.092,2214.284Zm155.4-10.369a.918.918,0,0,1-.918-.919v-5.5a.919.919,0,0,1,.918-.919.919.919,0,0,1,.919.919v5.5A.918.918,0,0,1-741.691,2203.915Zm-155.4-.632a.919.919,0,0,1-.919-.919v-5.5a.918.918,0,0,1,.919-.919.918.918,0,0,1,.919.919v5.5A.919.919,0,0,1-897.092,2203.283Zm155.4-10.369a.919.919,0,0,1-.918-.919v-5.5a.919.919,0,0,1,.918-.918.919.919,0,0,1,.919.918v5.5A.919.919,0,0,1-741.691,2192.914Zm-155.4-.634a.918.918,0,0,1-.919-.919v-5.5a.917.917,0,0,1,.919-.918.917.917,0,0,1,.919.918v5.5A.918.918,0,0,1-897.092,2192.28Zm155.4-10.369a.917.917,0,0,1-.918-.918v-5.5a.917.917,0,0,1,.918-.918.918.918,0,0,1,.919.918v5.5A.918.918,0,0,1-741.691,2181.911Zm-155.4-.632a.919.919,0,0,1-.919-.919v-5.5a.919.919,0,0,1,.919-.918.919.919,0,0,1,.919.918v5.5A.919.919,0,0,1-897.092,2181.279Zm155.4-10.369a.918.918,0,0,1-.918-.918v-5.5a.918.918,0,0,1,.918-.919.919.919,0,0,1,.919.919v5.5A.919.919,0,0,1-741.691,2170.91Zm-155.4-.634a.918.918,0,0,1-.919-.919v-5.5a.918.918,0,0,1,.919-.918.918.918,0,0,1,.919.918v5.5A.918.918,0,0,1-897.092,2170.276Zm155.4-10.369a.918.918,0,0,1-.918-.918v-5.5a.918.918,0,0,1,.918-.918.918.918,0,0,1,.919.918v5.5A.918.918,0,0,1-741.691,2159.907Zm-155.4-.632a.918.918,0,0,1-.919-.918v-5.5a.919.919,0,0,1,.919-.918.919.919,0,0,1,.919.918v5.5A.918.918,0,0,1-897.092,2159.275Zm155.4-10.369a.918.918,0,0,1-.918-.918v-5.5a.919.919,0,0,1,.918-.919.919.919,0,0,1,.919.919v5.5A.918.918,0,0,1-741.691,2148.906Zm-155.4-.633a.919.919,0,0,1-.919-.919v-5.5a.917.917,0,0,1,.919-.919.918.918,0,0,1,.919.919v5.5A.919.919,0,0,1-897.092,2148.272Zm155.4-10.369a.919.919,0,0,1-.918-.918v-5.5a.918.918,0,0,1,.918-.918.918.918,0,0,1,.919.918v5.5A.919.919,0,0,1-741.691,2137.9Zm-155.4-.632a.919.919,0,0,1-.919-.918v-5.5a.919.919,0,0,1,.919-.918.919.919,0,0,1,.919.918v5.5A.919.919,0,0,1-897.092,2137.271Zm155.4-10.371a.918.918,0,0,1-.918-.919v-5.5a.918.918,0,0,1,.918-.919.918.918,0,0,1,.919.919v5.5A.918.918,0,0,1-741.691,2126.9Zm-155.4-.632a.918.918,0,0,1-.919-.918v-5.5a.917.917,0,0,1,.919-.918.918.918,0,0,1,.919.918v5.5A.918.918,0,0,1-897.092,2126.268Zm155.4-10.368a.919.919,0,0,1-.918-.919v-2.425c0-.967-.046-1.972-.138-2.991a.917.917,0,0,1,.832-1,.922.922,0,0,1,1,.834c.1,1.073.145,2.135.145,3.155v2.425A.919.919,0,0,1-741.691,2115.9Zm-155.4-.634a.918.918,0,0,1-.919-.918v-5.5a.918.918,0,0,1,.919-.919.918.918,0,0,1,.919.919v5.5A.918.918,0,0,1-897.092,2115.266Zm154.383-10.292a.917.917,0,0,1-.895-.713,47.753,47.753,0,0,0-1.51-5.181.916.916,0,0,1,.56-1.17.923.923,0,0,1,1.172.56,49.943,49.943,0,0,1,1.569,5.381.921.921,0,0,1-.689,1.1A1.025,1.025,0,0,1-742.709,2104.974Zm-154.383-.709a.918.918,0,0,1-.919-.918v-5.5a.918.918,0,0,1,.919-.918.918.918,0,0,1,.919.918v5.5A.919.919,0,0,1-897.092,2104.265Zm150.753-9.656a.913.913,0,0,1-.83-.527c-.757-1.606-1.607-3.215-2.535-4.784a.918.918,0,0,1,.322-1.258.922.922,0,0,1,1.26.323c.955,1.619,1.835,3.28,2.614,4.936a.919.919,0,0,1-.439,1.224A.935.935,0,0,1-746.339,2094.608Zm-150.753-1.346a.919.919,0,0,1-.919-.919v-5.5a.918.918,0,0,1,.919-.919.918.918,0,0,1,.919.919v5.5A.919.919,0,0,1-897.092,2093.262Zm145.149-8.109a.918.918,0,0,1-.742-.377,53.382,53.382,0,0,0-3.4-4.2.917.917,0,0,1,.07-1.3.918.918,0,0,1,1.3.068,55.223,55.223,0,0,1,3.52,4.346.922.922,0,0,1-.2,1.284A.918.918,0,0,1-751.942,2085.153Zm-145.149-2.892a.919.919,0,0,1-.919-.918v-5.5a.919.919,0,0,1,.919-.918.919.919,0,0,1,.919.918v5.5A.919.919,0,0,1-897.092,2082.261ZM-759.306,2077a.917.917,0,0,1-.608-.229,38.53,38.53,0,0,0-4.255-3.272.919.919,0,0,1-.261-1.273.916.916,0,0,1,1.271-.261,40.422,40.422,0,0,1,4.461,3.428.919.919,0,0,1,.081,1.3A.915.915,0,0,1-759.306,2077Zm-137.786-5.745a.919.919,0,0,1-.919-.919v-5.5a.918.918,0,0,1,.919-.919.918.918,0,0,1,.919.919v5.5A.919.919,0,0,1-897.092,2071.258Zm128.7-.406a.911.911,0,0,1-.458-.124l-4.769-2.743a.922.922,0,0,1-.34-1.254.92.92,0,0,1,1.255-.341l4.77,2.745a.92.92,0,0,1,.338,1.255A.914.914,0,0,1-768.4,2070.852Zm-9.537-5.49a.9.9,0,0,1-.457-.123l-4.766-2.743a.918.918,0,0,1-.34-1.255.917.917,0,0,1,1.255-.336l4.766,2.743a.919.919,0,0,1,.34,1.255A.919.919,0,0,1-777.933,2065.363Zm-119.159-5.105a.919.919,0,0,1-.919-.919v-5.5a.919.919,0,0,1,.919-.919.919.919,0,0,1,.919.919v5.5A.919.919,0,0,1-897.092,2060.258Zm109.624-.383a.9.9,0,0,1-.457-.123l-4.768-2.743a.918.918,0,0,1-.338-1.255.917.917,0,0,1,1.253-.338l4.767,2.745a.921.921,0,0,1,.34,1.255A.922.922,0,0,1-787.468,2059.875Zm-9.535-5.488a.93.93,0,0,1-.459-.123l-4.766-2.745a.916.916,0,0,1-.34-1.253.915.915,0,0,1,1.255-.338l4.768,2.745a.915.915,0,0,1,.338,1.253A.919.919,0,0,1-797,2054.387Zm-100.089-5.133a.919.919,0,0,1-.919-.919v-5.5a.918.918,0,0,1,.919-.918.918.918,0,0,1,.919.918v5.5A.919.919,0,0,1-897.092,2049.254Zm90.552-.356a.912.912,0,0,1-.458-.121l-4.767-2.744a.92.92,0,0,1-.338-1.255.916.916,0,0,1,1.253-.336l4.768,2.743a.921.921,0,0,1,.34,1.254A.918.918,0,0,1-806.539,2048.9Zm-9.533-5.488a.9.9,0,0,1-.458-.123l-4.769-2.744a.92.92,0,0,1-.34-1.255.92.92,0,0,1,1.255-.336l4.769,2.745a.918.918,0,0,1,.338,1.255A.922.922,0,0,1-816.072,2043.41Zm-81.019-5.159a.919.919,0,0,1-.919-.919v-5.5a.919.919,0,0,1,.919-.918.919.919,0,0,1,.919.918v5.5A.919.919,0,0,1-897.092,2038.251Zm71.482-.331a.911.911,0,0,1-.457-.121l-4.769-2.745a.919.919,0,0,1-.338-1.255.918.918,0,0,1,1.255-.338l4.768,2.745a.922.922,0,0,1,.34,1.255A.917.917,0,0,1-825.609,2037.921Zm-9.535-5.488a.893.893,0,0,1-.457-.123l-4.767-2.742a.92.92,0,0,1-.34-1.255.917.917,0,0,1,1.255-.338l4.767,2.745a.917.917,0,0,1,.338,1.255A.916.916,0,0,1-835.144,2032.433Zm-61.947-5.182a.919.919,0,0,1-.919-.918v-3.3c0-.773.026-1.53.079-2.263a.935.935,0,0,1,.983-.847.918.918,0,0,1,.85.983c-.049.687-.077,1.4-.075,2.125v3.306A.919.919,0,0,1-897.092,2027.251Zm52.411-.3a.91.91,0,0,1-.457-.124l-4.766-2.744a.915.915,0,0,1-.34-1.253.915.915,0,0,1,1.255-.338l4.766,2.745a.916.916,0,0,1,.34,1.253A.92.92,0,0,1-844.681,2026.946Zm-9.535-5.49a.91.91,0,0,1-.458-.121l-4.767-2.745a.918.918,0,0,1-.338-1.255.915.915,0,0,1,1.253-.336l4.768,2.743a.917.917,0,0,1,.338,1.254A.913.913,0,0,1-854.216,2021.456Zm-41.774-5.094a.928.928,0,0,1-.289-.046.917.917,0,0,1-.584-1.159,16.065,16.065,0,0,1,2.719-5.122.918.918,0,0,1,1.292-.137.921.921,0,0,1,.136,1.293,14.245,14.245,0,0,0-2.4,4.54A.916.916,0,0,1-895.989,2016.362Zm32.237-.393a.907.907,0,0,1-.458-.123l-4.766-2.743a.918.918,0,0,1-.34-1.254.918.918,0,0,1,1.255-.338l4.766,2.745a.919.919,0,0,1,.34,1.255A.923.923,0,0,1-863.753,2015.969Zm-9.566-5.5a.829.829,0,0,1-.421-.114l-.092-.051a26.324,26.324,0,0,0-4.832-2.207.918.918,0,0,1-.582-1.159.918.918,0,0,1,1.161-.584,28.139,28.139,0,0,1,5.166,2.355.967.967,0,0,1,.384,1.279A.915.915,0,0,1-873.319,2010.474Zm-15.8-2.272a.916.916,0,0,1-.84-.548.917.917,0,0,1,.469-1.211,13.456,13.456,0,0,1,5.471-1.108l.276,0a.918.918,0,0,1,.9.937.919.919,0,0,1-.918.9h-.02l-.224,0a11.619,11.619,0,0,0-4.74.952A.95.95,0,0,1-889.122,2008.2Z" transform="translate(935.029 -2005.335)"/><path class="b" d="M-617.917,2380.329h-.018a19.244,19.244,0,0,1-5.662-1.038.921.921,0,0,1-.581-1.163.922.922,0,0,1,1.163-.578,17.372,17.372,0,0,0,5.118.942.919.919,0,0,1,.9.938A.92.92,0,0,1-617.917,2380.329Zm5.361-1a.917.917,0,0,1-.841-.55.92.92,0,0,1,.474-1.21,10.558,10.558,0,0,0,3.977-3.046.919.919,0,0,1,1.293-.132.917.917,0,0,1,.131,1.291,12.356,12.356,0,0,1-4.666,3.57A.893.893,0,0,1-612.556,2379.325Zm-15.739-2.275a.916.916,0,0,1-.457-.121l-4.768-2.743a.921.921,0,0,1-.338-1.256.922.922,0,0,1,1.253-.338l4.767,2.743a.922.922,0,0,1,.338,1.257A.917.917,0,0,1-628.295,2377.051Zm-9.535-5.488a.92.92,0,0,1-.457-.12l-4.766-2.743a.919.919,0,0,1-.34-1.255.919.919,0,0,1,1.255-.338l4.765,2.743a.918.918,0,0,1,.34,1.254A.92.92,0,0,1-637.83,2371.562Zm32.172-.367a.929.929,0,0,1-.288-.046.919.919,0,0,1-.582-1.161,21.815,21.815,0,0,0,.99-5.168.924.924,0,0,1,.987-.844.92.92,0,0,1,.847.986,23.618,23.618,0,0,1-1.08,5.6A.921.921,0,0,1-605.657,2371.2Zm-41.706-5.118a.91.91,0,0,1-.457-.123l-4.768-2.745a.916.916,0,0,1-.338-1.253.913.913,0,0,1,1.253-.337l4.768,2.744a.921.921,0,0,1,.34,1.254A.921.921,0,0,1-647.363,2366.077Zm-9.533-5.487a.922.922,0,0,1-.457-.122l-4.766-2.743a.92.92,0,0,1-.34-1.256.921.921,0,0,1,1.255-.338l4.766,2.745a.918.918,0,0,1,.34,1.255A.923.923,0,0,1-656.9,2360.59Zm52.358-.278a.916.916,0,0,1-.919-.919v-5.5a.917.917,0,0,1,.919-.919.918.918,0,0,1,.919.919v5.5A.918.918,0,0,1-604.538,2360.312Zm-61.891-5.21a.909.909,0,0,1-.457-.121l-4.768-2.743a.919.919,0,0,1-.338-1.254.918.918,0,0,1,1.253-.338l4.767,2.743a.921.921,0,0,1,.34,1.255A.921.921,0,0,1-666.429,2355.1Zm-9.533-5.486a.918.918,0,0,1-.458-.123l-4.768-2.745a.919.919,0,0,1-.34-1.253.918.918,0,0,1,1.255-.338l4.767,2.745a.917.917,0,0,1,.338,1.253A.918.918,0,0,1-675.962,2349.616Zm71.424-.3a.918.918,0,0,1-.919-.919v-5.5a.918.918,0,0,1,.919-.918.919.919,0,0,1,.919.918v5.5A.919.919,0,0,1-604.538,2349.313Zm-80.957-5.185a.909.909,0,0,1-.458-.121l-4.767-2.743a.921.921,0,0,1-.338-1.257.92.92,0,0,1,1.253-.338l4.767,2.745a.921.921,0,0,1,.34,1.255A.923.923,0,0,1-685.5,2344.128Zm-9.533-5.485a.916.916,0,0,1-.457-.124l-4.768-2.745a.919.919,0,0,1-.34-1.253.918.918,0,0,1,1.255-.338l4.767,2.745a.915.915,0,0,1,.338,1.253A.92.92,0,0,1-695.028,2338.643Zm90.49-.329a.918.918,0,0,1-.919-.918v-5.5a.918.918,0,0,1,.919-.919.919.919,0,0,1,.919.919v5.5A.919.919,0,0,1-604.538,2338.314Zm-100.025-5.159a.916.916,0,0,1-.457-.121l-4.768-2.745a.92.92,0,0,1-.338-1.255.92.92,0,0,1,1.253-.338l4.767,2.743a.923.923,0,0,1,.34,1.256A.919.919,0,0,1-704.563,2333.154Zm-9.533-5.487a.9.9,0,0,1-.458-.123l-4.765-2.743a.918.918,0,0,1-.34-1.253.916.916,0,0,1,1.255-.338l4.766,2.742a.918.918,0,0,1,.338,1.255A.917.917,0,0,1-714.1,2327.667Zm109.558-.353a.918.918,0,0,1-.919-.919v-5.5a.918.918,0,0,1,.919-.919.919.919,0,0,1,.919.919v5.5A.919.919,0,0,1-604.538,2327.315Zm-119.091-5.134a.908.908,0,0,1-.457-.124l-4.766-2.744a.915.915,0,0,1-.34-1.253.919.919,0,0,1,1.255-.337l4.766,2.744a.914.914,0,0,1,.34,1.253A.92.92,0,0,1-723.629,2322.181Zm-9.533-5.488a.9.9,0,0,1-.457-.123l-3.062-1.761q-.868-.5-1.72-1.06a.919.919,0,0,1-.263-1.273.916.916,0,0,1,1.271-.263c.538.353,1.08.689,1.628,1l3.061,1.764a.919.919,0,0,1,.338,1.255A.916.916,0,0,1-733.162,2316.694Zm128.624-.379a.917.917,0,0,1-.919-.918v-5.5a.917.917,0,0,1,.919-.919.918.918,0,0,1,.919.919v5.5A.919.919,0,0,1-604.538,2316.315Zm-137.723-5.759a.918.918,0,0,1-.606-.228,48.167,48.167,0,0,1-3.983-3.943.916.916,0,0,1,.066-1.3.917.917,0,0,1,1.3.066,46.228,46.228,0,0,0,3.832,3.792.923.923,0,0,1,.085,1.3A.918.918,0,0,1-742.262,2310.556Zm137.723-5.241a.917.917,0,0,1-.919-.919v-5.5a.917.917,0,0,1,.919-.919.918.918,0,0,1,.919.919v5.5A.918.918,0,0,1-604.538,2305.315Zm-145.1-2.895a.911.911,0,0,1-.74-.374c-1.088-1.485-2.127-3.053-3.083-4.665a.915.915,0,0,1,.32-1.258.918.918,0,0,1,1.259.32c.928,1.56,1.933,3.079,2.985,4.518a.918.918,0,0,1-.2,1.284A.919.919,0,0,1-749.634,2302.42Zm145.1-8.105a.918.918,0,0,1-.919-.918v-5.5a.918.918,0,0,1,.919-.919.919.919,0,0,1,.919.919v5.5A.919.919,0,0,1-604.538,2294.315Zm-150.716-1.343a.919.919,0,0,1-.83-.526c-.8-1.707-1.521-3.445-2.133-5.166a.918.918,0,0,1,.56-1.172.92.92,0,0,1,1.172.558,53.892,53.892,0,0,0,2.063,5,.92.92,0,0,1-.441,1.224A.922.922,0,0,1-755.254,2292.972Zm150.716-9.656a.918.918,0,0,1-.919-.919v-5.5a.918.918,0,0,1,.919-.919.919.919,0,0,1,.919.919v5.5A.919.919,0,0,1-604.538,2283.316Zm-154.363-.7a.919.919,0,0,1-.895-.713,41.063,41.063,0,0,1-.908-5.549.915.915,0,0,1,.83-1,.914.914,0,0,1,1,.83,39.965,39.965,0,0,0,.867,5.3.918.918,0,0,1-.687,1.1A.9.9,0,0,1-758.9,2282.62Zm154.363-10.305a.916.916,0,0,1-.919-.918v-5.5a.917.917,0,0,1,.919-.919.918.918,0,0,1,.919.919v5.5A.918.918,0,0,1-604.538,2272.315Zm-155.4-.617a.916.916,0,0,1-.919-.918v-5.5a.917.917,0,0,1,.919-.919.918.918,0,0,1,.918.919v5.5A.918.918,0,0,1-759.937,2271.7Zm155.4-10.382a.917.917,0,0,1-.919-.918v-5.5a.918.918,0,0,1,.919-.919.919.919,0,0,1,.919.919v5.5A.918.918,0,0,1-604.538,2261.316Zm-155.4-.617a.918.918,0,0,1-.919-.919v-5.5a.918.918,0,0,1,.919-.918.919.919,0,0,1,.918.918v5.5A.919.919,0,0,1-759.937,2260.7Zm155.4-10.381a.918.918,0,0,1-.919-.919v-5.5a.918.918,0,0,1,.919-.919.919.919,0,0,1,.919.919v5.5A.919.919,0,0,1-604.538,2250.317Zm-155.4-.618a.918.918,0,0,1-.919-.919v-5.5a.918.918,0,0,1,.919-.918.919.919,0,0,1,.918.918v5.5A.919.919,0,0,1-759.937,2249.7Zm155.4-10.384a.917.917,0,0,1-.919-.919v-5.5a.916.916,0,0,1,.919-.918.917.917,0,0,1,.919.918v5.5A.918.918,0,0,1-604.538,2239.316Zm-155.4-.617a.917.917,0,0,1-.919-.919v-5.5a.917.917,0,0,1,.919-.919.918.918,0,0,1,.918.919v5.5A.918.918,0,0,1-759.937,2238.7Zm155.4-10.382a.918.918,0,0,1-.919-.919v-5.5a.918.918,0,0,1,.919-.918.919.919,0,0,1,.919.918v5.5A.919.919,0,0,1-604.538,2228.317Zm-155.4-.617a.918.918,0,0,1-.919-.918v-5.5a.918.918,0,0,1,.919-.919.92.92,0,0,1,.918.919v5.5A.919.919,0,0,1-759.937,2227.7Zm155.4-10.382a.918.918,0,0,1-.919-.919v-5.5a.917.917,0,0,1,.919-.918.918.918,0,0,1,.919.918v5.5A.919.919,0,0,1-604.538,2217.317Zm-155.4-.617a.918.918,0,0,1-.919-.919v-5.5a.918.918,0,0,1,.919-.919.919.919,0,0,1,.918.919v5.5A.919.919,0,0,1-759.937,2216.7Zm155.4-10.381a.918.918,0,0,1-.919-.919v-2.384c0-.991-.049-2.011-.143-3.027a.919.919,0,0,1,.832-1,.93.93,0,0,1,1,.83c.1,1.073.151,2.148.151,3.2v2.384A.92.92,0,0,1-604.538,2206.319Zm-155.4-.618a.918.918,0,0,1-.919-.918v-5.5a.918.918,0,0,1,.919-.919.919.919,0,0,1,.918.919v5.5A.919.919,0,0,1-759.937,2205.7Zm154.372-10.3a.916.916,0,0,1-.895-.713,47.94,47.94,0,0,0-1.516-5.177.919.919,0,0,1,.562-1.172.922.922,0,0,1,1.172.56,50.022,50.022,0,0,1,1.571,5.377.917.917,0,0,1-.689,1.1A.893.893,0,0,1-605.565,2195.4Zm-154.372-.7a.916.916,0,0,1-.919-.918v-5.5a.917.917,0,0,1,.919-.919.918.918,0,0,1,.918.919v5.5A.917.917,0,0,1-759.937,2194.7Zm150.734-9.663a.917.917,0,0,1-.83-.527c-.76-1.615-1.615-3.225-2.537-4.781a.919.919,0,0,1,.322-1.259.919.919,0,0,1,1.258.322c.952,1.608,1.834,3.267,2.62,4.935a.918.918,0,0,1-.441,1.222A.9.9,0,0,1-609.2,2185.037Zm-150.734-1.336a.918.918,0,0,1-.919-.918v-5.5a.918.918,0,0,1,.919-.919.919.919,0,0,1,.918.919v5.5A.919.919,0,0,1-759.937,2183.7Zm145.129-8.117a.915.915,0,0,1-.742-.375c-1.082-1.479-2.229-2.892-3.4-4.2a.917.917,0,0,1,.066-1.3.917.917,0,0,1,1.3.067,54.644,54.644,0,0,1,3.524,4.343.919.919,0,0,1-.2,1.284A.917.917,0,0,1-614.808,2175.584Zm-145.129-2.883a.918.918,0,0,1-.919-.918v-5.5a.917.917,0,0,1,.919-.918.918.918,0,0,1,.918.918v5.5A.919.919,0,0,1-759.937,2172.7Zm137.762-5.26a.914.914,0,0,1-.606-.23,38.827,38.827,0,0,0-4.26-3.27.919.919,0,0,1-.259-1.273.918.918,0,0,1,1.271-.261,40.646,40.646,0,0,1,4.461,3.425.917.917,0,0,1,.083,1.3A.915.915,0,0,1-622.175,2167.442Zm-137.762-5.741a.917.917,0,0,1-.919-.919v-5.5a.917.917,0,0,1,.919-.919.918.918,0,0,1,.918.919v5.5A.918.918,0,0,1-759.937,2161.7Zm128.668-.4a.914.914,0,0,1-.457-.123l-4.767-2.743a.921.921,0,0,1-.34-1.255.919.919,0,0,1,1.255-.338l4.768,2.743a.92.92,0,0,1,.338,1.255A.915.915,0,0,1-631.269,2161.3Zm-9.533-5.488a.917.917,0,0,1-.458-.123l-4.767-2.744a.919.919,0,0,1-.338-1.254.921.921,0,0,1,1.255-.338l4.766,2.743a.918.918,0,0,1,.34,1.254A.919.919,0,0,1-640.8,2155.809Zm-119.135-5.107a.917.917,0,0,1-.919-.919v-5.5a.916.916,0,0,1,.919-.918.918.918,0,0,1,.918.918v5.5A.918.918,0,0,1-759.937,2150.7Zm109.6-.38a.912.912,0,0,1-.457-.122l-4.767-2.744a.921.921,0,0,1-.34-1.255.918.918,0,0,1,1.255-.336l4.768,2.742a.92.92,0,0,1,.338,1.255A.912.912,0,0,1-650.336,2150.322Zm-9.535-5.486a.915.915,0,0,1-.458-.123l-4.765-2.742a.919.919,0,0,1-.34-1.255.92.92,0,0,1,1.255-.338l4.766,2.743a.919.919,0,0,1,.34,1.255A.92.92,0,0,1-659.87,2144.836Zm-100.067-5.133a.917.917,0,0,1-.919-.919v-5.5a.917.917,0,0,1,.919-.918.918.918,0,0,1,.918.918v5.5A.918.918,0,0,1-759.937,2139.7Zm90.536-.355a.9.9,0,0,1-.457-.123l-4.767-2.744a.917.917,0,0,1-.338-1.254.914.914,0,0,1,1.253-.336l4.767,2.743a.918.918,0,0,1,.338,1.255A.917.917,0,0,1-669.4,2139.348Zm-9.535-5.488a.916.916,0,0,1-.457-.121L-684.16,2131a.919.919,0,0,1-.34-1.255.921.921,0,0,1,1.255-.339l4.766,2.743a.918.918,0,0,1,.34,1.255A.917.917,0,0,1-678.936,2133.86Zm-81-5.156a.918.918,0,0,1-.919-.918v-5.5a.918.918,0,0,1,.919-.919.919.919,0,0,1,.918.919v5.5A.919.919,0,0,1-759.937,2128.7Zm71.468-.329a.914.914,0,0,1-.457-.123l-4.768-2.743a.919.919,0,0,1-.338-1.254.918.918,0,0,1,1.253-.338l4.768,2.743a.922.922,0,0,1,.34,1.255A.92.92,0,0,1-688.469,2128.375Zm-9.535-5.487a.922.922,0,0,1-.459-.124l-4.764-2.743a.917.917,0,0,1-.338-1.254.919.919,0,0,1,1.257-.337l4.764,2.743a.918.918,0,0,1,.338,1.255A.919.919,0,0,1-698,2122.887Zm-61.933-5.183a.918.918,0,0,1-.919-.918v-3.3c0-.783.026-1.538.081-2.271a.941.941,0,0,1,.983-.849.922.922,0,0,1,.85.985c-.051.689-.077,1.4-.077,2.135v3.3A.919.919,0,0,1-759.937,2117.7Zm52.4-.3a.913.913,0,0,1-.457-.123l-4.768-2.743a.919.919,0,0,1-.338-1.254.917.917,0,0,1,1.253-.339l4.767,2.743a.921.921,0,0,1,.34,1.255A.918.918,0,0,1-707.536,2117.4Zm-9.533-5.487a.918.918,0,0,1-.458-.124l-4.767-2.743a.922.922,0,0,1-.34-1.255.921.921,0,0,1,1.255-.338l4.767,2.743a.919.919,0,0,1,.338,1.254A.918.918,0,0,1-717.069,2111.914Zm-41.766-5.1a.9.9,0,0,1-.287-.045.916.916,0,0,1-.584-1.159,16.022,16.022,0,0,1,2.717-5.122.918.918,0,0,1,1.292-.136.917.917,0,0,1,.136,1.292,14.267,14.267,0,0,0-2.4,4.539A.922.922,0,0,1-758.835,2106.819Zm32.231-.392a.9.9,0,0,1-.458-.123l-4.766-2.743a.915.915,0,0,1-.338-1.252.916.916,0,0,1,1.253-.339l4.765,2.743a.92.92,0,0,1,.34,1.255A.918.918,0,0,1-726.6,2106.426Zm-9.565-5.493a.846.846,0,0,1-.422-.114l-.09-.052a26.161,26.161,0,0,0-4.828-2.2.922.922,0,0,1-.584-1.161.923.923,0,0,1,1.161-.584,28.123,28.123,0,0,1,5.166,2.356.963.963,0,0,1,.382,1.278A.917.917,0,0,1-736.168,2100.933Zm-15.8-2.272a.918.918,0,0,1-.839-.548.917.917,0,0,1,.469-1.211,13.439,13.439,0,0,1,5.471-1.108h.276a.92.92,0,0,1,.9.939.917.917,0,0,1-.919.9h-.018l-.228,0a11.593,11.593,0,0,0-4.736.952A.928.928,0,0,1-751.968,2098.661Z" transform="translate(1049.851 -1929.605)"/><g class="c" transform="translate(136.39 378.516)"><path class="d" d="M-637.295,2432.473a35.22,35.22,0,0,1-17.583-4.239l-178.955-105.587c-6.412-3.7-10.09-9.561-10.088-16.072,0-7.137,4.428-13.788,12.149-18.245l108.792-71.535a43.3,43.3,0,0,1,21.355-5.427,35.225,35.225,0,0,1,17.583,4.239l98.79,55.471,98.792,55.471c6.412,3.7,10.088,9.559,10.088,16.07,0,7.137-4.428,13.787-12.147,18.246l-127.421,66.181A43.31,43.31,0,0,1-637.295,2432.473Z" transform="translate(843.921 -2211.367)"/><path class="e" d="M-729.181,2219.029a44.408,44.408,0,0,1,17.132-5.315c1.321-.127,2.653-.216,3.991-.239a35.252,35.252,0,0,1,17.449,3.922c.184.011,11.058,6.064,11.19,6.142l86.8,48.764,13.13,7.379,84.815,47.649c5.37,3.1,9.23,8.138,10.051,13.425a18.683,18.683,0,0,1,.23,2.269c.231,7-4.029,13.639-11.743,18.093l-28.667,14.87c-.393.228-55.418,28.522-55.758,28.326l-39.758,19.715c-5.774,3.334-13.413,4.932-20.753,4.932a34.935,34.935,0,0,1-17.089-4.231l-104.16-61.409-70.158-41.362c-6.107-3.525-9.98-9.317-9.98-15.519,0-6.8,3.785-13.376,11.139-17.621l65.287-44.852C-766.373,2243.77-729.574,2219.257-729.181,2219.029Z" transform="translate(845.145 -2209.606)"/><path class="f" d="M-735.381,2221.268a46.728,46.728,0,0,1,16.948-5.379c1.3-.136,2.616-.259,3.941-.3a35.231,35.231,0,0,1,17.315,3.606c.364.02,10.874,5.817,11.139,5.969l86.052,48.372,13.016,7.315,84.084,47.263c5.1,2.947,9.3,8.1,10.172,13.112a21.494,21.494,0,0,1,.3,2.21c.465,6.862-3.628,13.491-11.335,17.94l-27.908,14.456c-.786.455-53.686,27.36-54.368,26.966l-38.67,18.216c-5.488,3.167-13.18,4.437-20.154,4.437a34.7,34.7,0,0,1-16.593-4.224L-762.834,2361.5l-68.291-40.229c-5.8-3.349-9.873-9.072-9.871-14.964a19.325,19.325,0,0,1,10.126-17l60.379-43.547C-771.172,2245.37-736.169,2221.722-735.381,2221.268Z" transform="translate(846.37 -2207.847)"/><path class="g" d="M-741.582,2223.512a49.449,49.449,0,0,1,16.764-5.443c1.288-.146,2.583-.3,3.893-.362A35.015,35.015,0,0,1-703.745,2221c.548.031,10.692,5.57,11.089,5.8l85.3,47.974,12.9,7.257L-511.1,2328.9c4.834,2.791,9.386,8.067,10.3,12.8.138.712.29,1.421.366,2.149.7,6.73-3.226,13.342-10.927,17.79l-27.15,14.042c-1.18.681-51.953,26.2-52.977,25.608L-629.079,2418c-5.2,3-12.947,3.943-19.551,3.943a34.486,34.486,0,0,1-16.1-4.216l-98.616-58.04-66.428-39.1c-5.5-3.172-9.763-8.829-9.763-14.409,0-6.119,2.5-12.559,9.116-16.378l55.47-42.239C-775.972,2246.977-742.763,2224.194-741.582,2223.512Z" transform="translate(847.594 -2206.096)"/><path class="h" d="M-747.783,2225.759a52.51,52.51,0,0,1,16.582-5.506c1.271-.156,2.548-.345,3.843-.425a34.983,34.983,0,0,1,17.043,2.971c.729.044,10.51,5.324,11.04,5.631l84.55,47.577,12.792,7.2,82.617,46.491c4.564,2.636,9.472,8.03,10.417,12.479.149.7.334,1.384.435,2.091.937,6.595-2.827,13.193-10.522,17.636l-26.389,13.629c-1.576.909-50.223,25.037-51.586,24.25L-633.46,2415c-4.907,2.834-12.711,3.446-18.95,3.446a34.33,34.33,0,0,1-15.6-4.207l-95.844-56.357-64.564-37.964c-5.19-3-9.652-8.585-9.652-13.856,0-5.778,1.852-12.147,8.1-15.754l50.559-40.934C-780.771,2248.588-749.358,2226.668-747.783,2225.759Z" transform="translate(848.818 -2204.347)"/><path class="i" d="M-753.983,2228.011a55.966,55.966,0,0,1,16.4-5.571c1.255-.166,2.513-.388,3.794-.485a34.944,34.944,0,0,1,16.907,2.653c.913.055,10.329,5.078,10.992,5.459l83.8,47.185,12.678,7.137,81.885,46.106c4.3,2.48,9.568,8,10.54,12.164.16.681.378,1.343.5,2.031,1.176,6.462-2.427,13.044-10.115,17.483l-25.629,13.215c-1.97,1.136-48.49,23.876-50.2,22.891L-637.839,2412c-4.621,2.667-12.478,2.952-18.352,2.952a34.227,34.227,0,0,1-15.105-4.2l-93.071-54.671-62.7-36.832c-4.885-2.82-9.544-8.34-9.542-13.3,0-5.438,1.209-11.738,7.091-15.133l45.65-39.626C-785.571,2250.2-755.953,2229.148-753.983,2228.011Z" transform="translate(850.043 -2202.603)"/><path class="j" d="M-760.184,2230.267a60.041,60.041,0,0,1,16.217-5.635c1.238-.175,2.476-.428,3.742-.546a34.869,34.869,0,0,1,16.775,2.337c1.093.064,10.145,4.83,10.94,5.289l83.049,46.787,12.564,7.079,81.153,45.72c4.027,2.326,9.669,7.958,10.661,11.847.171.667.422,1.3.573,1.971,1.417,6.333-2.026,12.9-9.709,17.333l-24.87,12.8c-2.363,1.362-46.758,22.713-48.8,21.531L-642.219,2409c-4.33,2.5-12.245,2.456-17.749,2.456-4.786,0-11.179-2.214-14.609-4.194l-90.3-52.988-60.834-35.7c-4.58-2.643-9.436-8.1-9.436-12.748,0-5.1.566-11.326,6.081-14.51l40.741-38.32C-790.37,2251.821-762.547,2231.632-760.184,2230.267Z" transform="translate(851.267 -2200.863)"/><path class="k" d="M-766.386,2232.529a64.663,64.663,0,0,1,16.035-5.7c1.222-.184,2.442-.471,3.693-.609a34.842,34.842,0,0,1,16.639,2.019c1.277.075,9.965,4.584,10.891,5.118l82.3,46.394,12.451,7.018,80.42,45.334c3.759,2.169,9.783,7.922,10.784,11.531.182.654.468,1.266.641,1.912,1.661,6.2-1.626,12.747-9.3,17.18l-24.111,12.386c-2.756,1.591-45.025,21.552-47.412,20.175l-33.242,10.722c-4.044,2.333-12.011,1.96-17.15,1.96-4.466,0-10.911-2.337-14.113-4.187l-87.526-51.3-58.969-34.563c-4.275-2.469-9.327-7.854-9.325-12.2,0-4.758-.079-10.917,5.069-13.887l35.83-37.015C-795.171,2253.445-769.142,2234.12-766.386,2232.529Z" transform="translate(852.492 -2199.129)"/><path class="l" d="M-772.569,2234.8c3.1-1.787,12-5.142,15.853-5.763,1.207-.193,2.407-.511,3.643-.669a34.815,34.815,0,0,1,16.5,1.7c1.459.086,9.783,4.338,10.841,4.949l81.548,46,12.339,6.96,79.689,44.948c3.489,2.015,9.9,7.885,10.905,11.216.193.641.513,1.225.711,1.854,1.907,6.07-1.227,12.6-8.9,17.026l-23.352,11.971c-3.149,1.819-43.293,20.393-46.021,18.816l-32.156,9.223c-3.754,2.165-11.776,1.466-16.548,1.466-4.148,0-10.644-2.464-13.619-4.18l-84.753-49.618-57.107-33.431c-3.968-2.293-9.217-7.612-9.217-11.642,0-4.418-.722-10.507,4.058-13.264l30.921-35.708C-799.952,2255.075-775.717,2236.613-772.569,2234.8Z" transform="translate(853.698 -2197.399)"/><path class="m" d="M-778.7,2237.067c2.857-1.65,12.118-5.217,15.669-5.825,1.192-.2,2.372-.553,3.593-.733a34.756,34.756,0,0,1,16.367,1.388c1.643.095,9.6,4.09,10.792,4.776l80.8,45.6,12.225,6.9,78.956,44.563c3.222,1.859,10.589,7.72,11.029,10.9a13.384,13.384,0,0,1,.779,1.793c2.157,5.941-.827,12.45-8.49,16.876l-22.592,11.558c-3.544,2.044-41.561,19.229-44.629,17.458l-31.07,7.721c-3.465,2-11.545.97-15.948.97-3.829,0-10.376-2.587-13.121-4.17l-81.982-47.936-55.242-32.3c-3.663-2.116-9.107-7.367-9.107-11.088,0-4.079-1.367-10.1,3.046-12.643l26.012-34.4C-804.678,2256.709-782.239,2239.112-778.7,2237.067Z" transform="translate(854.85 -2195.674)"/><path class="n" d="M-784.76,2239.344c2.618-1.512,12.237-5.3,15.487-5.89,1.178-.213,2.335-.593,3.544-.794a34.749,34.749,0,0,1,16.233,1.07c1.822.106,9.417,3.843,10.74,4.607l80.049,45.208,12.111,6.839,78.225,44.176c2.952,1.706,10.747,7.668,11.15,10.584a13.166,13.166,0,0,1,.847,1.734c2.41,5.811-.424,12.3-8.082,16.722l-21.833,11.144c-3.937,2.274-39.828,18.068-43.238,16.1l-29.984,6.223c-3.177,1.833-11.31.476-15.346.476-3.511,0-10.11-2.712-12.627-4.165l-79.21-46.249-53.375-31.166c-3.358-1.94-9-7.123-9-10.533,0-3.74-2.01-9.687,2.036-12.021l21.1-33.095C-809.339,2258.347-788.7,2241.616-784.76,2239.344Z" transform="translate(855.937 -2193.954)"/><path class="o" d="M-790.767,2241.625c2.381-1.374,12.357-5.385,15.305-5.953,1.163-.224,2.3-.635,3.493-.856a34.74,34.74,0,0,1,16.1.751c2.006.12,9.235,3.6,10.691,4.439l79.3,44.81,12,6.781,77.492,43.791c2.684,1.551,10.907,7.617,11.273,10.268a12.853,12.853,0,0,1,.917,1.676c2.666,5.678-.026,12.153-7.676,16.569l-21.074,10.731c-4.33,2.5-38.1,16.905-41.845,14.741l-28.9,4.723c-2.888,1.667-11.076-.02-14.747-.02-3.191,0-9.844-2.835-12.131-4.156l-76.436-44.566-51.512-30.032c-3.053-1.764-8.89-6.879-8.89-9.98,0-3.4-2.655-9.276,1.023-11.4l16.193-31.788C-813.944,2259.991-795.1,2244.125-790.767,2241.625Z" transform="translate(856.967 -2192.24)"/><path class="p" d="M-796.722,2243.913c2.142-1.237,12.473-5.478,15.122-6.017,1.148-.233,2.265-.676,3.443-.917a34.683,34.683,0,0,1,15.963.434c2.188.13,9.054,3.351,10.641,4.267l78.548,44.418,11.887,6.72,76.759,43.4c2.416,1.4,11.065,7.568,11.394,9.952a12.862,12.862,0,0,1,.985,1.615c2.925,5.549.375,12-7.27,16.419l-20.314,10.316c-4.723,2.727-36.363,15.746-40.455,13.383l-27.813,3.224c-2.6,1.5-10.843-.514-14.146-.514-2.871,0-9.575-2.961-11.633-4.15l-73.665-42.88-49.648-28.9c-2.747-1.587-8.782-6.634-8.78-9.425,0-3.058-3.3-8.866.011-10.777l11.284-30.479C-818.5,2261.643-801.447,2246.64-796.722,2243.913Z" transform="translate(857.947 -2190.531)"/><path class="q" d="M-802.637,2246.205c1.905-1.1,12.59-5.574,14.94-6.079,1.135-.245,2.23-.719,3.393-.979a34.62,34.62,0,0,1,15.827.118c2.372.14,8.872,3.1,10.591,4.1l77.8,44.021,11.773,6.661,76.026,43.019c2.148,1.24,11.225,7.516,11.517,9.637a12.569,12.569,0,0,1,1.055,1.556c3.188,5.412.775,11.855-6.864,16.266l-19.555,9.9c-5.117,2.954-34.631,14.583-39.064,12.024l-26.725,1.725c-2.311,1.333-10.61-1.011-13.545-1.011-2.552,0-9.309-3.084-11.139-4.141l-70.891-41.2-47.783-27.767c-2.443-1.411-8.673-6.391-8.673-8.872,0-2.719-3.942-8.454-1-10.154l6.373-29.174C-823.013,2263.3-807.755,2249.162-802.637,2246.205Z" transform="translate(858.885 -2188.829)"/><path class="r" d="M-808.517,2248.507c1.666-.963,12.708-5.681,14.758-6.145,1.122-.254,2.194-.757,3.344-1.04a34.588,34.588,0,0,1,15.693-.2c2.552.15,8.688,2.857,10.54,3.926l77.049,43.627,11.659,6.6,75.295,42.633c1.878,1.084,11.383,7.465,11.638,9.321a12.717,12.717,0,0,1,1.123,1.5c3.452,5.275,1.176,11.707-6.456,16.112l-18.794,9.49c-5.513,3.182-32.9,13.422-37.673,10.667l-25.641.227c-2.021,1.167-10.375-1.506-12.945-1.506-2.232,0-9.041-3.21-10.643-4.134l-68.119-39.514-45.918-26.634c-2.138-1.234-8.563-6.147-8.563-8.317,0-2.379-4.585-8.047-2.013-9.531l1.466-27.87C-827.491,2264.96-814.028,2251.688-808.517,2248.507Z" transform="translate(859.788 -2187.132)"/><path class="s" d="M-812.467,2250.812c1.427-.824,12.822-5.79,14.574-6.208,1.11-.264,2.159-.8,3.294-1.1a34.558,34.558,0,0,1,15.557-.518c2.736.161,8.506,2.611,10.49,3.757l76.3,43.23,11.545,6.542,74.562,42.246c1.611.931,11.541,7.417,11.761,9.006a12.754,12.754,0,0,1,1.192,1.436c3.72,5.137,1.575,11.56-6.05,15.962l-18.036,9.074c-5.906,3.41-31.167,12.26-36.282,9.309l-24.554-1.271c-1.732,1-10.143-2-12.344-2-1.914,0-8.774-3.334-10.147-4.127l-65.346-37.827-44.055-25.5c-1.832-1.058-8.455-5.9-8.455-7.764,0-2.039-5.229-7.635-3.024-8.908l-3.443-26.562C-830.042,2266.631-818.374,2254.222-812.467,2250.812Z" transform="translate(858.764 -2185.442)"/><path class="t" d="M-815.824,2253.125c1.191-.687,12.936-5.907,14.392-6.273,1.1-.275,2.124-.839,3.244-1.165a34.519,34.519,0,0,1,15.421-.832c2.917.171,8.324,2.363,10.442,3.584l75.546,42.835,11.433,6.484,73.83,41.86c1.341.775,11.7,7.365,11.883,8.69a12.579,12.579,0,0,1,1.26,1.378c3.99,4.993,1.975,11.41-5.644,15.809l-17.275,8.66c-6.3,3.637-29.435,11.1-34.892,7.95l-23.468-2.771c-1.444.832-9.908-2.5-11.743-2.5-1.595,0-8.506-3.459-9.651-4.119l-62.574-36.144-42.191-24.368c-1.527-.882-8.344-5.659-8.344-7.209,0-1.7-5.873-7.225-4.036-8.288l-8.354-25.255C-832,2268.3-822.123,2256.76-815.824,2253.125Z" transform="translate(857.143 -2183.758)"/><path class="u" d="M-819.144,2255.445c.952-.55,13.048-6.03,14.209-6.334,1.088-.287,2.091-.88,3.195-1.227a34.48,34.48,0,0,1,15.287-1.15c3.1.184,8.142,2.116,10.393,3.415l74.8,42.44,11.319,6.423,73.1,41.474c1.073.621,11.859,7.314,12.006,8.374a12.294,12.294,0,0,1,1.328,1.319c4.262,4.846,2.377,11.26-5.236,15.656l-16.516,8.245c-6.693,3.865-27.7,9.939-33.5,6.591l-22.384-4.269c-1.154.667-9.673-2.993-11.141-2.993-1.277,0-8.241-3.582-9.156-4.112l-59.8-34.458-40.324-23.236c-1.222-.706-8.238-5.415-8.238-6.654,0-1.362-6.516-6.816-5.047-7.665l-13.263-23.949C-833.915,2269.988-825.837,2259.308-819.144,2255.445Z" transform="translate(855.487 -2182.082)"/><path class="v" d="M-822.418,2257.772c.715-.412,13.13-6.32,14.027-6.4a27.731,27.731,0,0,1,3.145-1.288,34.385,34.385,0,0,1,15.153-1.468,28.291,28.291,0,0,1,10.341,3.247l74.047,42.044,11.2,6.362,72.364,41.091c.806.465,12.019,7.262,12.129,8.058a12.845,12.845,0,0,1,1.4,1.258c4.534,4.7,2.776,11.114-4.83,15.506l-15.757,7.833c-7.086,4.091-25.97,8.776-32.108,5.232l-21.3-5.768c-.867.5-9.441-3.487-10.542-3.487-.957,0-7.973-3.707-8.658-4.1l-57.03-32.775-38.461-22.1c-.917-.529-8.128-5.172-8.128-6.1,0-1.02-7.161-6.4-6.059-7.042l-18.171-22.643C-835.787,2271.678-829.5,2261.863-822.418,2257.772Z" transform="translate(853.784 -2180.414)"/><path class="w" d="M-825.633,2260.107c.476-.274,13.246-6.41,13.843-6.461a26.8,26.8,0,0,1,3.1-1.351,34.329,34.329,0,0,1,15.017-1.786,26.491,26.491,0,0,1,10.292,3.076l73.3,41.65,11.091,6.3,71.633,40.7c.536.31,12.177,7.212,12.25,7.742a12.9,12.9,0,0,1,1.466,1.2c4.81,4.544,3.177,10.964-4.422,15.352l-15,7.418c-7.481,4.319-24.238,7.615-30.716,3.875L-684,2370.56c-.577.334-9.206-3.983-9.941-3.983-.638,0-7.705-3.832-8.163-4.095l-54.257-31.091-36.6-20.972c-.61-.352-8.017-4.927-8.017-5.546,0-.68-7.806-6-7.071-6.421l-23.082-21.337C-837.6,2273.377-833.114,2264.426-825.633,2260.107Z" transform="translate(852.024 -2178.753)"/><path class="x" d="M-828.782,2262.451c.239-.137,13.362-6.5,13.661-6.528a26.486,26.486,0,0,1,3.046-1.411,34.316,34.316,0,0,1,14.881-2.1,24.832,24.832,0,0,1,10.242,2.9l72.546,41.254,10.979,6.243,70.9,40.318c.27.154,12.337,7.161,12.373,7.426a13.056,13.056,0,0,1,1.536,1.141c5.083,4.385,3.577,10.815-4.018,15.2l-14.238,7.005c-7.874,4.545-22.505,6.452-29.325,2.515l-19.125-8.767c-.289.167-8.973-4.477-9.34-4.477-.319,0-7.438-3.958-7.668-4.09l-51.483-29.405-34.734-19.838c-.305-.176-7.909-4.682-7.909-4.993,0-.339-8.449-5.585-8.082-5.8l-27.991-20.031C-839.349,2275.082-836.656,2267-828.782,2262.451Z" transform="translate(850.196 -2177.1)"/><path class="y" d="M-668.539,2375.015l-82.662-47.042-82.662-47.042c-7.161-4.134-6.263-11.354,2-16.127l13.479-6.59c8.267-4.775,20.775-5.293,27.934-1.159l82.662,47.042,82.663,47.043c7.159,4.133,6.261,11.356-2.006,16.129l-13.479,6.59C-648.872,2378.631-661.377,2379.15-668.539,2375.015Z" transform="translate(848.295 -2175.456)"/></g><g transform="translate(133.429 7.115)"><g transform="translate(8.536)"><path class="z" d="M-659.542,2569.4l-146.1-84.347c-16.479-9.516-29.837-35.039-29.837-57.013V2038.971c0-11.174-9.186-13.645-3.623-17.659.211-.152,22.3-10.052,22.537-10.147,5.989-2.294,12.4-3.315,20.177,1.176l146.094,84.349c16.479,9.514,29.839,35.038,29.839,57.012v389.069c0,11.675-3.772,20-9.779,23.808-.355.226-25.067,11.648-25.463,11.782C-661.019,2580.135-652.337,2573.56-659.542,2569.4Z" transform="translate(840.887 -2009.208)"/><path class="aa" d="M-659.542,2569.339l-146.1-84.348c-16.479-9.515-29.837-35.039-29.837-57.013V2038.91c0-11.174-9.186-13.645-3.623-17.658.212-.153,21.936-9.921,22.177-10.013,5.989-2.295,12.4-3.318,20.177,1.174l146.094,84.349c16.479,9.514,29.839,35.04,29.839,57.012v389.07c0,11.675-3.772,20-9.779,23.807-.354.226-24.706,11.516-25.1,11.649C-661.019,2580.074-652.337,2573.5-659.542,2569.339Z" transform="translate(840.887 -2009.147)"/><path class="ab" d="M-659.542,2569.278l-146.1-84.347c-16.479-9.515-29.838-35.039-29.838-57.013V2038.849c0-11.173-9.186-13.645-3.623-17.659.211-.153,21.576-9.787,21.816-9.88,5.989-2.292,12.4-3.316,20.178,1.176l146.094,84.348c16.479,9.514,29.839,35.04,29.839,57.013v389.068c0,11.675-3.772,20-9.779,23.808-.354.226-24.346,11.382-24.743,11.516C-661.019,2580.013-652.337,2573.438-659.542,2569.278Z" transform="translate(840.887 -2009.086)"/><path class="ac" d="M-659.542,2569.217l-146.1-84.348c-16.479-9.514-29.838-35.039-29.838-57.013V2038.788c0-11.174-9.186-13.645-3.623-17.659.211-.152,21.216-9.653,21.456-9.746,5.989-2.295,12.4-3.316,20.177,1.176l146.094,84.347c16.479,9.515,29.839,35.039,29.839,57.013v389.069c0,11.675-3.772,20-9.779,23.808-.355.226-23.986,11.248-24.383,11.381C-661.019,2579.952-652.336,2573.377-659.542,2569.217Z" transform="translate(840.887 -2009.026)"/><path class="ad" d="M-659.542,2569.157l-146.1-84.348c-16.48-9.515-29.838-35.039-29.838-57.013V2038.727c0-11.173-9.186-13.645-3.623-17.659.211-.153,20.855-9.521,21.1-9.612,5.989-2.295,12.4-3.318,20.177,1.174l146.094,84.348c16.479,9.514,29.839,35.04,29.839,57.013V2543.06c0,11.675-3.772,20-9.779,23.808-.354.226-23.626,11.115-24.023,11.249C-661.019,2579.892-652.337,2573.317-659.542,2569.157Z" transform="translate(840.887 -2008.964)"/><path class="ae" d="M-659.542,2569.1l-146.1-84.348c-16.479-9.515-29.838-35.039-29.838-57.013V2038.666c0-11.174-9.186-13.645-3.623-17.659.211-.152,20.5-9.386,20.736-9.48,5.989-2.293,12.4-3.315,20.177,1.176l146.094,84.349c16.479,9.515,29.839,35.04,29.839,57.013v389.069c0,11.676-3.772,20-9.779,23.808-.355.226-23.266,10.981-23.663,11.115C-661.019,2579.831-652.336,2573.256-659.542,2569.1Z" transform="translate(840.887 -2008.904)"/><path class="af" d="M-659.542,2569.035l-146.1-84.348c-16.479-9.515-29.837-35.039-29.837-57.013V2038.605c0-11.173-9.186-13.645-3.623-17.658.212-.153,20.135-9.252,20.376-9.346,5.989-2.294,12.4-3.316,20.177,1.176l146.094,84.348c16.479,9.514,29.839,35.038,29.839,57.012v389.069c0,11.675-3.772,20-9.779,23.808-.356.226-22.906,10.847-23.3,10.981C-661.019,2579.77-652.337,2573.2-659.542,2569.035Z" transform="translate(840.887 -2008.843)"/><path class="ag" d="M-659.542,2568.975l-146.1-84.347c-16.48-9.515-29.838-35.039-29.838-57.013V2038.545c0-11.174-9.186-13.645-3.623-17.659.211-.152,19.775-9.12,20.016-9.212,5.989-2.295,12.4-3.318,20.178,1.174L-652.81,2097.2c16.479,9.514,29.839,35.041,29.839,57.013v389.069c0,11.675-3.772,20-9.779,23.808-.356.226-22.546,10.715-22.943,10.848C-661.019,2579.709-652.336,2573.135-659.542,2568.975Z" transform="translate(840.887 -2008.782)"/><path class="ah" d="M-659.542,2568.913l-146.1-84.348c-16.479-9.515-29.837-35.039-29.837-57.013V2038.484c0-11.173-9.186-13.645-3.623-17.658.211-.152,19.415-8.986,19.656-9.079,5.989-2.293,12.4-3.316,20.178,1.176l146.094,84.348c16.479,9.515,29.839,35.041,29.839,57.013v389.069c0,11.675-3.772,20-9.779,23.807-.356.226-22.186,10.58-22.582,10.715C-661.019,2579.648-652.336,2573.073-659.542,2568.913Z" transform="translate(840.887 -2008.721)"/><path class="ai" d="M-659.542,2568.852l-146.1-84.347c-16.479-9.515-29.838-35.039-29.838-57.013V2038.423c0-11.173-9.186-13.645-3.623-17.659.211-.152,19.055-8.851,19.3-8.945,5.989-2.295,12.4-3.316,20.177,1.176l146.094,84.348c16.479,9.514,29.839,35.039,29.839,57.013v389.069c0,11.675-3.772,20-9.779,23.808-.356.226-21.826,10.446-22.222,10.58C-661.019,2579.587-652.336,2573.012-659.542,2568.852Z" transform="translate(840.887 -2008.66)"/><path class="aj" d="M-659.542,2568.792l-146.1-84.347c-16.479-9.514-29.837-35.039-29.837-57.013V2038.362c0-11.173-9.186-13.645-3.623-17.659.212-.152,18.7-8.719,18.936-8.811,5.989-2.295,12.4-3.318,20.177,1.174l146.094,84.348c16.479,9.515,29.839,35.04,29.839,57.013V2543.5c0,11.675-3.772,20-9.779,23.808-.357.226-21.466,10.315-21.863,10.448C-661.019,2579.527-652.336,2572.951-659.542,2568.792Z" transform="translate(840.887 -2008.6)"/><path class="ak" d="M-659.542,2568.73l-146.1-84.348c-16.479-9.514-29.837-35.038-29.837-57.012V2038.3c0-11.173-9.186-13.645-3.623-17.659.212-.152,18.335-8.585,18.576-8.679,5.989-2.292,12.4-3.316,20.178,1.176l146.094,84.348c16.479,9.514,29.839,35.041,29.839,57.013v389.069c0,11.676-3.772,20-9.779,23.809-.356.225-21.106,10.18-21.5,10.313C-661.019,2579.466-652.336,2572.891-659.542,2568.73Z" transform="translate(840.887 -2008.539)"/><path class="al" d="M-659.542,2568.67l-146.1-84.348c-16.479-9.514-29.837-35.039-29.837-57.013V2038.24c0-11.173-9.186-13.645-3.623-17.658.211-.153,17.975-8.451,18.216-8.545,5.989-2.295,12.4-3.316,20.177,1.176l146.094,84.349c16.479,9.514,29.839,35.038,29.839,57.012v389.069c0,11.675-3.772,20-9.779,23.808-.356.226-20.745,10.046-21.142,10.18C-661.019,2579.405-652.337,2572.83-659.542,2568.67Z" transform="translate(840.887 -2008.478)"/><path class="am" d="M-659.542,2568.61l-146.1-84.348c-16.479-9.515-29.838-35.039-29.838-57.013V2038.18c0-11.173-9.186-13.645-3.623-17.659.211-.152,17.615-8.319,17.855-8.41,5.989-2.294,12.4-3.318,20.178,1.174l146.094,84.348c16.479,9.514,29.839,35.04,29.839,57.013v389.068c0,11.676-3.772,20-9.779,23.808-.356.225-20.385,9.914-20.782,10.048C-661.019,2579.344-652.336,2572.77-659.542,2568.61Z" transform="translate(840.887 -2008.417)"/><path class="an" d="M-659.542,2568.549l-146.1-84.348c-16.479-9.514-29.838-35.039-29.838-57.013V2038.119c0-11.174-9.186-13.645-3.623-17.659.211-.153,17.255-8.185,17.5-8.279,5.989-2.293,12.4-3.316,20.177,1.176l146.094,84.348c16.479,9.514,29.839,35.041,29.839,57.013v389.068c0,11.675-3.772,20-9.779,23.808-.356.226-20.025,9.779-20.422,9.913C-661.019,2579.283-652.336,2572.708-659.542,2568.549Z" transform="translate(840.887 -2008.356)"/><path class="ao" d="M-659.542,2568.488l-146.1-84.347c-16.479-9.515-29.837-35.039-29.837-57.013V2038.058c0-11.173-9.186-13.645-3.623-17.659.211-.152,16.895-8.051,17.135-8.144,5.989-2.295,12.4-3.316,20.177,1.176l146.094,84.348c16.479,9.515,29.839,35.039,29.839,57.013v389.069c0,11.675-3.772,20-9.779,23.807-.356.226-19.665,9.645-20.062,9.78C-661.019,2579.222-652.336,2572.648-659.542,2568.488Z" transform="translate(840.887 -2008.295)"/><path class="ap" d="M-659.542,2568.427l-146.1-84.347c-16.479-9.515-29.837-35.039-29.837-57.013V2038c0-11.174-9.186-13.645-3.623-17.659.211-.153,16.533-7.918,16.775-8.01,5.989-2.294,12.4-3.318,20.176,1.174l146.1,84.348c16.479,9.514,29.839,35.041,29.839,57.013v389.068c0,11.676-3.772,20-9.779,23.808-.356.227-19.305,9.513-19.7,9.647C-661.019,2579.162-652.336,2572.586-659.542,2568.427Z" transform="translate(840.887 -2008.234)"/><path class="aq" d="M-659.542,2568.366l-146.1-84.348c-16.479-9.515-29.837-35.039-29.837-57.013V2037.936c0-11.173-9.186-13.645-3.623-17.659.211-.153,16.173-7.784,16.415-7.878,5.989-2.292,12.4-3.316,20.176,1.176l146.1,84.349c16.479,9.515,29.839,35.04,29.839,57.013V2544c0,11.676-3.772,20-9.779,23.808-.356.226-18.945,9.379-19.342,9.513C-661.019,2579.1-652.336,2572.526-659.542,2568.366Z" transform="translate(840.887 -2008.174)"/><path class="ar" d="M-659.542,2568.305l-146.1-84.348c-16.479-9.514-29.838-35.039-29.838-57.013V2037.876c0-11.173-9.186-13.645-3.623-17.659.211-.153,15.813-7.65,16.055-7.743,5.989-2.295,12.4-3.317,20.176,1.176l146.1,84.348c16.479,9.515,29.839,35.039,29.839,57.013v389.069c0,11.675-3.772,20-9.779,23.808-.356.226-18.585,9.245-18.982,9.379C-661.019,2579.04-652.336,2572.465-659.542,2568.305Z" transform="translate(840.887 -2008.113)"/><path class="as" d="M-659.542,2568.245l-146.1-84.348c-16.48-9.515-29.837-35.039-29.837-57.013V2037.815c0-11.173-9.186-13.645-3.623-17.659.211-.152,15.452-7.518,15.695-7.61,5.989-2.295,12.4-3.318,20.176,1.174l146.1,84.349c16.479,9.514,29.839,35.041,29.839,57.013V2544.15c0,11.675-3.772,20-9.779,23.808-.356.227-18.225,9.113-18.621,9.247C-661.019,2578.979-652.337,2572.4-659.542,2568.245Z" transform="translate(840.887 -2008.052)"/><path class="at" d="M-659.542,2568.183l-146.1-84.348c-16.479-9.514-29.838-35.039-29.838-57.013V2037.754c0-11.173-9.186-13.645-3.623-17.659.211-.152,15.092-7.384,15.335-7.477,5.989-2.293,12.4-3.316,20.176,1.176l146.1,84.348c16.479,9.515,29.839,35.04,29.839,57.013v389.069c0,11.675-3.772,20-9.779,23.808-.356.226-17.865,8.979-18.261,9.112C-661.019,2578.919-652.336,2572.343-659.542,2568.183Z" transform="translate(840.887 -2007.991)"/><path class="au" d="M-659.542,2568.122l-146.1-84.348c-16.479-9.515-29.838-35.039-29.838-57.013V2037.693c0-11.174-9.186-13.645-3.623-17.659.211-.152,14.732-7.249,14.975-7.344,5.989-2.294,12.4-3.316,20.176,1.176l146.1,84.349c16.479,9.514,29.839,35.038,29.839,57.012V2544.3c0,11.675-3.772,20-9.779,23.808-.357.226-17.5,8.844-17.9,8.979C-661.019,2578.857-652.337,2572.282-659.542,2568.122Z" transform="translate(840.887 -2007.93)"/></g><path class="av" d="M-669.6,2571.338l-146.094-84.348c-16.481-9.514-29.839-35.04-29.839-57.012V2040.908c0-21.973,13.358-32.071,29.839-22.559L-669.6,2102.7c16.479,9.515,29.839,35.041,29.839,57.013v389.071C-639.761,2570.754-653.121,2580.853-669.6,2571.338Z" transform="translate(845.533 -2004.552)"/><path class="aw" d="M-659.1,2570.615a20.982,20.982,0,0,1-10.367-3.186l-146.1-84.346c-15.636-9.028-28.359-33.456-28.359-54.452V2039.561c0-14.082,5.9-23.181,15.037-23.181a20.986,20.986,0,0,1,10.367,3.184l146.1,84.349c15.636,9.028,28.358,33.454,28.358,54.452v389.07C-644.064,2561.516-649.965,2570.615-659.1,2570.615Z" transform="translate(846.88 -2003.204)"/><path class="z" d="M-840.154,2428.824V2041.249c0-16.123,9.8-23.534,21.894-16.553l142.221,82.11c12.09,6.983,21.894,25.711,21.894,41.834v387.575c0,16.123-9.8,23.535-21.894,16.553l-142.221-82.11C-830.353,2463.677-840.154,2444.948-840.154,2428.824Z" transform="translate(850.036 -1998.441)"/><path class="ax" d="M-817.937,2027.123c-11.4-6.579-20.635-1.312-20.635,11.765v391.935c0,13.076,9.237,29.012,20.635,35.591l138.925,80.209c11.4,6.58,20.635,1.311,20.635-11.765V2142.926c0-13.077-9.239-29.013-20.635-35.593Z" transform="translate(851.36 -1996.582)"/><path class="ay" d="M-723.968,2187.328h0c-4.192,2.42-7.589-.149-7.589-5.738v-31.661c0-5.589,3.4-12.082,7.589-14.5h0c4.192-2.419,7.589.149,7.589,5.738v31.662C-716.378,2178.416-719.775,2184.909-723.968,2187.328Z" transform="translate(940.95 -1904.302)"/></g><path class="av" d="M-759.833,2078.243l19.278,11.13c.733.424,1.328.085,1.328-.759a2.934,2.934,0,0,0-1.328-2.293l-19.278-11.129c-.735-.425-1.33-.085-1.33.759A2.93,2.93,0,0,0-759.833,2078.243Zm19.278,14.944-19.278-11.13c-.735-.424-1.33-.084-1.33.758a2.932,2.932,0,0,0,1.33,2.294l19.278,11.129c.733.425,1.328.085,1.328-.759A2.933,2.933,0,0,0-740.555,2093.187Zm0,6.865-19.278-11.129c-.735-.425-1.33-.085-1.33.756a2.925,2.925,0,0,0,1.33,2.293l19.278,11.131c.733.422,1.328.084,1.328-.759A2.93,2.93,0,0,0-740.555,2100.052Z" transform="translate(1049.594 -1947.006)"/><g transform="translate(161.33 58.079)"><path class="av" d="M-813.385,2049.049c0,2.034-1.437,2.854-3.21,1.83a7.073,7.073,0,0,1-3.211-5.536c0-2.033,1.439-2.853,3.211-1.83A7.07,7.07,0,0,1-813.385,2049.049Z" transform="translate(839.17 -2031.82)"/><path class="av" d="M-818.657,2045.988c0,2.033-1.437,2.853-3.21,1.83a7.073,7.073,0,0,1-3.209-5.537c0-2.034,1.437-2.853,3.209-1.83A7.072,7.072,0,0,1-818.657,2045.988Z" transform="translate(834.758 -2034.385)"/><path class="av" d="M-823.927,2042.925c0,2.033-1.437,2.853-3.21,1.83a7.07,7.07,0,0,1-3.209-5.536c0-2.033,1.437-2.853,3.209-1.83A7.071,7.071,0,0,1-823.927,2042.925Z" transform="translate(830.346 -2036.948)"/></g><g transform="translate(155.131 111.121)"><path class="az" d="M-690.469,2435.942h0a22.446,22.446,0,0,1-11.1-3.38l-107.974-62.144c-13.331-7.7-24.173-26.4-24.173-41.7V2083.514c0-10.749,5.489-17.693,13.988-17.693a22.422,22.422,0,0,1,11.1,3.378l107.974,62.146c13.331,7.7,24.174,26.4,24.174,41.7v245.207c0,5.35-1.325,9.827-3.831,12.95A12.569,12.569,0,0,1-690.469,2435.942Zm-129.263-368.285c-7.5,0-12.151,6.075-12.151,15.856v245.206c0,14.71,10.432,32.7,23.253,40.107l107.974,62.142a20.917,20.917,0,0,0,10.187,3.136h0a10.788,10.788,0,0,0,8.725-4.056c2.239-2.792,3.425-6.873,3.425-11.8V2173.041c0-14.71-10.431-32.7-23.253-40.105l-107.974-62.145A20.637,20.637,0,0,0-819.732,2067.657Z" transform="translate(833.72 -2065.82)"/></g><g transform="translate(80.937 46.654)"><g class="ba" transform="translate(0.823)"><path class="bb" d="M-845.7,2034.335c-14.5-8.372-26.255-1.67-26.255,14.969v282.127c0,16.638,11.754,36.914,26.255,45.286l135.53,77.859c14.5,8.37,32.066.749,32.066-15.889V2156.56c0-16.639-17.565-36-32.066-44.366Z" transform="translate(875.084 -2030.729)"/><path class="bc" d="M-845.886,2034.589c-14.482-8.361-26.222-1.668-26.222,14.949V2330.56c0,16.617,11.74,36.866,26.222,45.229l135.1,77.609c14.482,8.361,31.5.832,31.5-15.786v-281.02c0-16.619-17.021-36.033-31.5-44.394Z" transform="translate(874.954 -2030.513)"/><path class="bd" d="M-846.074,2034.843c-14.464-8.35-26.189-1.666-26.189,14.931v279.913c0,16.6,11.725,36.821,26.189,45.171l134.67,77.362c14.464,8.35,30.943.913,30.943-15.684V2156.624c0-16.6-16.479-36.07-30.943-44.421Z" transform="translate(874.824 -2030.297)"/><path class="be" d="M-846.262,2035.1c-14.446-8.341-26.156-1.662-26.156,14.913v278.8c0,16.575,11.71,36.775,26.156,45.114l134.24,77.111c14.446,8.341,30.381,1,30.381-15.581V2156.653c0-16.574-15.936-36.1-30.381-44.445Z" transform="translate(874.694 -2030.08)"/><path class="bf" d="M-846.45,2035.351c-14.427-8.33-26.123-1.661-26.123,14.894v277.7c0,16.554,11.7,36.727,26.123,45.057l133.81,76.862c14.427,8.33,29.821,1.076,29.821-15.478v-277.7c0-16.555-15.394-36.143-29.821-44.473Z" transform="translate(874.565 -2029.864)"/><path class="bg" d="M-846.638,2035.6c-14.409-8.319-26.09-1.659-26.09,14.876v276.59c0,16.533,11.681,36.681,26.09,45l133.38,76.613C-698.849,2457-684,2449.841-684,2433.306v-276.59c0-16.533-14.85-36.179-29.259-44.5Z" transform="translate(874.435 -2029.647)"/><path class="bh" d="M-846.826,2035.859c-14.391-8.308-26.057-1.657-26.057,14.857V2326.2c0,16.513,11.666,36.636,26.057,44.944l132.951,76.363c14.39,8.308,28.7,1.24,28.7-15.274V2156.748c0-16.512-14.306-36.217-28.7-44.526Z" transform="translate(874.305 -2029.431)"/><path class="bi" d="M-847.013,2036.112c-14.374-8.3-26.024-1.654-26.024,14.839v274.374c0,16.492,11.65,36.587,26.024,44.886l132.519,76.114c14.372,8.3,28.136,1.321,28.136-15.171V2156.78c0-16.493-13.764-36.255-28.136-44.552Z" transform="translate(874.176 -2029.214)"/><path class="bj" d="M-847.2,2036.368c-14.356-8.287-25.99-1.654-25.99,14.817v273.267c0,16.472,11.635,36.543,25.99,44.83l132.089,75.865c14.354,8.287,27.574,1.4,27.574-15.069V2156.811c0-16.47-13.22-36.291-27.574-44.579Z" transform="translate(874.046 -2028.998)"/><path class="bk" d="M-847.39,2036.622c-14.335-8.276-25.957-1.651-25.957,14.8v272.158c0,16.451,11.622,36.5,25.957,44.774l131.657,75.616c14.337,8.277,27.016,1.483,27.016-14.967V2156.843c0-16.45-12.678-36.329-27.016-44.6Z" transform="translate(873.917 -2028.781)"/><path class="bl" d="M-847.578,2036.876c-14.317-8.267-25.924-1.65-25.924,14.78v271.051c0,16.43,11.607,36.45,25.924,44.717l131.227,75.366c14.319,8.266,26.453,1.565,26.453-14.865V2156.875c0-16.43-12.135-36.365-26.453-44.633Z" transform="translate(873.787 -2028.565)"/><path class="y" d="M-847.766,2037.13c-14.3-8.256-25.891-1.646-25.891,14.762v269.943c0,16.41,11.593,36.4,25.891,44.66l130.8,75.117c14.3,8.256,25.891,1.648,25.891-14.762V2156.906c0-16.408-11.591-36.4-25.891-44.658Z" transform="translate(873.657 -2028.348)"/></g><g transform="translate(0 3.049)"><path class="bm" d="M-690.746,2156.235c0-16.465-11.631-36.529-25.979-44.812l-131.4-75.466c-14.348-8.284-25.979-1.652-25.979,14.813v201.189l183.359,105.371Z" transform="translate(874.105 -2032.389)"/><path class="bn" d="M-848.126,2280.192l131.4,75.464c14.348,8.283,25.979,1.653,25.979-14.813v-83.567L-874.105,2151.9v83.474C-874.105,2251.844-862.474,2271.906-848.126,2280.192Z" transform="translate(874.105 -1932.334)"/><path class="bo" d="M-848.126,2280.192l131.4,75.464c14.348,8.283,25.979,1.653,25.979-14.813v-83.567L-874.105,2151.9v83.474C-874.105,2251.844-862.474,2271.906-848.126,2280.192Z" transform="translate(874.105 -1932.334)"/></g><path class="bp" d="M-716.726,2111.423l-131.4-75.466c-14.348-8.284-25.979-1.652-25.979,14.813v2.513c0-16.465,11.631-23.1,25.979-14.813l131.4,75.466c14.348,8.283,25.979,28.347,25.979,44.812v-2.513C-690.746,2139.77-702.378,2119.706-716.726,2111.423Z" transform="translate(874.105 -2029.34)"/><ellipse class="bq" cx="27.021" cy="61.874" rx="27.021" ry="61.874" transform="translate(64.145 288.652)"/></g><g transform="translate(0 204.116)"><ellipse class="av" cx="20.891" cy="36.185" rx="20.891" ry="36.185" transform="matrix(0.863, -0.505, 0.505, 0.863, 0, 21.086)"/><path class="br" d="M-874.769,2188.521a24.208,24.208,0,0,1-11.98-3.646c-14.405-8.317-26.124-28.533-26.124-45.066,0-11.589,5.914-19.077,15.065-19.077a24.189,24.189,0,0,1,11.978,3.646c14.407,8.319,26.126,28.535,26.126,45.068C-859.7,2181.034-865.619,2188.521-874.769,2188.521Zm-23.04-65.952c-8.159,0-13.228,6.606-13.228,17.24,0,15.949,11.308,35.45,25.206,43.475a22.413,22.413,0,0,0,11.062,3.4c8.159,0,13.228-6.6,13.228-17.238,0-15.948-11.308-35.452-25.208-43.475A22.386,22.386,0,0,0-897.809,2122.569Z" transform="translate(922.586 -2112.845)"/></g><g transform="translate(407.331 253.614)"><ellipse class="av" cx="20.891" cy="36.185" rx="20.891" ry="36.185" transform="matrix(0.863, -0.505, 0.505, 0.863, 0, 21.087)"/><path class="bs" d="M-653.053,2215.465a24.178,24.178,0,0,1-11.978-3.649c-14.407-8.316-26.126-28.533-26.126-45.065,0-11.589,5.914-19.077,15.065-19.077a24.194,24.194,0,0,1,11.98,3.649c14.405,8.317,26.125,28.533,26.125,45.066C-637.988,2207.976-643.9,2215.465-653.053,2215.465Zm-23.04-65.954c-8.159,0-13.228,6.606-13.228,17.24,0,15.948,11.308,35.45,25.208,43.475a22.4,22.4,0,0,0,11.06,3.4c8.159,0,13.228-6.606,13.228-17.24,0-15.947-11.308-35.45-25.206-43.475A22.408,22.408,0,0,0-676.092,2149.51Z" transform="translate(700.87 -2139.787)"/></g><path class="bt" d="M-655.176,2177.74l-8.668-5v-9.944a3.053,3.053,0,0,0-1.381-2.387l-7.894-4.556c-.763-.441-1.382-.088-1.382.788v9.945l-8.668-5c-.764-.441-1.383-.088-1.383.788v9.057a3.046,3.046,0,0,0,1.383,2.385l8.668,5v9.945a3.054,3.054,0,0,0,1.382,2.387l7.894,4.555c.762.442,1.381.088,1.381-.787v-9.945l8.668,5c.764.441,1.383.088,1.383-.788v-9.058A3.045,3.045,0,0,0-655.176,2177.74Z" transform="translate(1113.73 -1879.49)"/><path class="bu" d="M-880.639,2155.125l-18.1-25.077c-1.63-2.258-3.877-2.218-3.877.07v29.259c0,2.288,2.247,4.921,3.877,4.545l18.1-4.18C-879.249,2159.42-879.249,2157.055-880.639,2155.125Z" transform="translate(931.175 -1902.327)"/><g transform="translate(97.471 116.627)"><path class="bv" d="M-790.72,2249.714c-41.015-23.681-74.385-81.238-74.385-128.3s33.37-66.089,74.385-42.409,74.385,81.236,74.385,128.3S-749.7,2273.4-790.72,2249.714Zm0-165.534c-38.527-22.244-69.873-4.375-69.873,39.837s31.346,98.276,69.873,120.52,69.873,4.373,69.873-39.839S-752.191,2106.425-790.72,2084.18Z" transform="translate(865.105 -2068.817)"/><path class="bv" d="M-795.415,2231.86c-35.334-20.4-64.081-69.983-64.081-110.53s28.746-56.936,64.081-36.534,64.08,69.981,64.08,110.528S-760.083,2252.258-795.415,2231.86Zm0-141.888c-32.847-18.963-59.568-3.728-59.568,33.964s26.722,83.784,59.568,102.748,59.568,3.727,59.568-33.964S-762.569,2108.937-795.415,2089.971Z" transform="translate(869.801 -2062.787)"/><path class="bv" d="M-800.11,2214c-29.652-17.119-53.778-58.729-53.778-92.755s24.126-47.779,53.778-30.659,53.776,58.729,53.776,92.755S-770.457,2231.124-800.11,2214Zm0-118.236c-27.164-15.685-49.265-3.085-49.265,28.087s22.1,69.29,49.265,84.974,49.266,3.083,49.266-28.088S-772.944,2111.448-800.11,2095.767Z" transform="translate(874.495 -2056.756)"/><path class="bw" d="M-790.72,2244.487c-41.015-23.68-74.385-81.238-74.385-128.3,0-17.35,4.512-31.447,13.046-40.764.707-.769,2.111-.26,3.136,1.144s1.288,3.164.583,3.936c-8.016,8.75-12.252,21.991-12.252,38.291,0,44.209,31.346,98.276,69.873,120.52a4.974,4.974,0,0,1,2.256,3.891C-788.464,2244.631-789.474,2245.2-790.72,2244.487Z" transform="translate(865.105 -2063.59)"/><path class="bx" d="M-795.416,2231.86c-35.334-20.4-64.08-69.983-64.08-110.53s28.746-56.936,64.08-36.534a4.968,4.968,0,0,1,2.256,3.89c0,1.429-1.01,2.006-2.256,1.285-32.847-18.963-59.568-3.728-59.568,33.964s26.722,83.784,59.568,102.748a4.97,4.97,0,0,1,2.256,3.891C-793.16,2232-794.17,2232.578-795.416,2231.86Z" transform="translate(869.801 -2062.787)"/><path class="by" d="M-800.11,2214c-29.652-17.119-53.778-58.729-53.778-92.755s24.126-47.779,53.778-30.659c16.244,9.377,31.449,26.456,41.718,46.854.787,1.563.641,3.108-.325,3.454s-2.386-.641-3.173-2.2c-9.408-18.69-23.339-34.335-38.221-42.925-27.164-15.685-49.265-3.085-49.265,28.087s22.1,69.29,49.265,84.974a4.97,4.97,0,0,1,2.256,3.89C-797.854,2214.146-798.865,2214.723-800.11,2214Z" transform="translate(874.495 -2056.756)"/><path class="bz" d="M-818.868,2157.549c0,2.383-1.685,3.344-3.76,2.144a8.281,8.281,0,0,1-3.759-6.483c0-2.383,1.683-3.344,3.759-2.144A8.284,8.284,0,0,1-818.868,2157.549Z" transform="translate(897.519 -2000.393)"/><path class="ca" d="M-818.868,2163.985c0,2.383-1.685,3.344-3.76,2.144a8.281,8.281,0,0,1-3.759-6.485c0-2.381,1.683-3.341,3.759-2.142A8.284,8.284,0,0,1-818.868,2163.985Z" transform="translate(897.519 -1995.005)"/><path class="cb" d="M-818.868,2170.486c0,2.381-1.685,3.342-3.76,2.142a8.278,8.278,0,0,1-3.759-6.483c0-2.383,1.683-3.342,3.759-2.144A8.287,8.287,0,0,1-818.868,2170.486Z" transform="translate(897.519 -1989.563)"/></g><g transform="translate(224.385 184.353)"><g class="ba" transform="translate(0.825 2.218)"><path class="d" d="M-767.617,2110.495c-14.5-8.372-26.255-1.67-26.255,14.969v150.088c0,16.639,11.754,36.914,26.255,45.286l122.433,70.483c14.5,8.37,32.064.749,32.064-15.89V2225.344c0-16.639-17.565-35.994-32.064-44.366Z" transform="translate(797.001 -2106.889)"/><path class="cc" d="M-767.805,2110.748c-14.482-8.361-26.222-1.668-26.222,14.951v148.979c0,16.618,11.739,36.867,26.222,45.23l122,70.233c14.482,8.361,31.506.83,31.506-15.787v-148.98c0-16.619-17.023-36.033-31.506-44.394Z" transform="translate(796.871 -2106.672)"/><path class="cd" d="M-767.993,2111c-14.462-8.35-26.189-1.665-26.189,14.932v147.872c0,16.6,11.727,36.821,26.189,45.171l121.571,69.985c14.464,8.35,30.943.913,30.943-15.684V2225.406c0-16.6-16.479-36.069-30.943-44.419Z" transform="translate(796.741 -2106.456)"/><path class="ce" d="M-768.18,2111.255c-14.446-8.338-26.156-1.662-26.156,14.913v146.766c0,16.575,11.71,36.774,26.156,45.114l121.14,69.735c14.446,8.341,30.381,1,30.381-15.581V2225.438c0-16.577-15.936-36.106-30.381-44.448Z" transform="translate(796.612 -2106.239)"/><path class="cf" d="M-768.368,2111.51c-14.427-8.328-26.123-1.661-26.123,14.894v145.658c0,16.555,11.7,36.727,26.123,45.057l120.709,69.485c14.427,8.33,29.821,1.077,29.821-15.478V2225.469c0-16.556-15.394-36.145-29.821-44.472Z" transform="translate(796.482 -2106.023)"/><path class="cg" d="M-768.556,2111.766c-14.409-8.321-26.09-1.661-26.09,14.873v144.551c0,16.533,11.681,36.681,26.09,45l120.28,69.238c14.409,8.318,29.259,1.157,29.259-15.378V2225.5c0-16.535-14.85-36.181-29.259-44.5Z" transform="translate(796.353 -2105.806)"/><path class="ch" d="M-768.744,2112.019c-14.391-8.31-26.057-1.656-26.057,14.856v143.442c0,16.513,11.666,36.635,26.057,44.943l119.85,68.988c14.391,8.308,28.7,1.239,28.7-15.274V2225.531c0-16.512-14.308-36.217-28.7-44.526Z" transform="translate(796.223 -2105.589)"/><path class="ci" d="M-768.932,2112.273c-14.372-8.3-26.023-1.655-26.023,14.837v142.335c0,16.493,11.651,36.587,26.023,44.885l119.42,68.738c14.372,8.3,28.136,1.321,28.136-15.171V2225.563c0-16.492-13.764-36.253-28.136-44.551Z" transform="translate(796.093 -2105.373)"/><path class="cj" d="M-769.121,2112.527c-14.354-8.288-25.991-1.654-25.991,14.819V2268.57c0,16.472,11.637,36.544,25.991,44.831l118.99,68.488c14.354,8.287,27.574,1.4,27.574-15.069V2225.594c0-16.471-13.22-36.292-27.574-44.579Z" transform="translate(795.963 -2105.156)"/><path class="ck" d="M-769.309,2112.78c-14.335-8.276-25.957-1.651-25.957,14.8V2267.7c0,16.452,11.622,36.5,25.957,44.774l118.56,68.24c14.336,8.277,27.014,1.482,27.014-14.968V2225.625c0-16.45-12.678-36.328-27.014-44.605Z" transform="translate(795.834 -2104.94)"/><path class="cl" d="M-769.495,2113.035c-14.319-8.265-25.926-1.648-25.926,14.78v139.011c0,16.43,11.607,36.449,25.926,44.717l118.128,67.99c14.317,8.266,26.452,1.566,26.452-14.864V2225.657c0-16.43-12.135-36.366-26.452-44.633Z" transform="translate(795.704 -2104.724)"/><path class="y" d="M-769.684,2113.288c-14.3-8.254-25.891-1.646-25.891,14.762v137.9c0,16.409,11.591,36.4,25.891,44.66l117.7,67.74c14.3,8.256,25.891,1.646,25.891-14.762v-137.9c0-16.408-11.593-36.4-25.891-44.658Z" transform="translate(795.575 -2104.507)"/></g><path class="cm" d="M-625.762,2225.018c0-16.465-11.633-36.529-25.981-44.812l-118.3-68.088c-14.35-8.286-25.981-1.653-25.981,14.812v35.047l170.262,98Z" transform="translate(796.024 -2103.281)"/><path class="bm" d="M-770.043,2300.019l118.3,68.088c14.348,8.284,25.981,1.651,25.981-14.813V2235.625l-170.262-97.994v117.575C-796.024,2271.672-784.393,2291.734-770.043,2300.019Z" transform="translate(796.024 -2078.935)"/><path class="cn" d="M-651.744,2180.205l-118.3-68.088c-14.348-8.286-25.981-1.653-25.981,14.812v2.513c0-16.465,11.633-23.1,25.981-14.813l118.3,68.089c14.348,8.284,25.981,28.348,25.981,44.813v-2.513C-625.762,2208.552-637.4,2188.489-651.744,2180.205Z" transform="translate(796.024 -2103.281)"/><ellipse class="co" cx="29.724" cy="49.179" rx="29.724" ry="49.179" transform="translate(6.212)"/><ellipse class="cp" cx="20.891" cy="36.185" rx="20.891" ry="36.185" transform="matrix(0.863, -0.505, 0.505, 0.863, 8.906, 64.13)"/><path class="cq" d="M-771.419,2135.822c14.174,8.182,25.665,28,25.665,44.27s-11.491,22.819-25.665,14.634Z" transform="translate(816.622 -2080.448)"/><g transform="translate(31.97 65.373)"><path class="av" d="M-753.824,2184.72a2.448,2.448,0,0,1-1.236-.356l-21.545-12.44a4.317,4.317,0,0,1-2.017-3.483V2163.8c0-3.355,2.377-5.366,5.332-4.478a4.62,4.62,0,0,0,3.268-.036,2.288,2.288,0,0,0-.362-1.294,25.818,25.818,0,0,1-2.2-4.917,5.947,5.947,0,0,1-1.834-3.7,2.7,2.7,0,0,1,1.15-2.468c.437-4.634,2.614-5.639,4.42-5.639a8.662,8.662,0,0,1,4.213,1.4c4.617,2.666,7.132,6.927,7.477,12.673a5.449,5.449,0,0,1,1.112,3.263,2.294,2.294,0,0,1-2.2,2.353,6.537,6.537,0,0,1-2.269,2.225,3.549,3.549,0,0,0,.419,1.233,19.624,19.624,0,0,0,4.044,4.846,12.286,12.286,0,0,1,4.211,8.622v4.645a2.34,2.34,0,0,1-.482,1.488A1.883,1.883,0,0,1-753.824,2184.72Zm-20.878-23.229c-1.383,0-1.532,1.613-1.532,2.306v4.644a1.959,1.959,0,0,0,.823,1.415l21.168,12.222.005-4.2a9.867,9.867,0,0,0-3.371-6.8,22.152,22.152,0,0,1-4.545-5.439,4.23,4.23,0,0,1-.6-3.111,2.255,2.255,0,0,1,1.027-1.412,4.271,4.271,0,0,0,1.71-1.916l.424-.915,1.229.276a3.437,3.437,0,0,0-.788-1.862l-.358-.334-.02-.491c-.209-5.166-2.273-8.809-6.307-11.139a6.391,6.391,0,0,0-3.018-1.077c-.474,0-1.914,0-2.1,4.245l-.061,1.424-1.007-.224a1.87,1.87,0,0,0-.017.272,3.912,3.912,0,0,0,1.279,2.151l.255.224.1.327a23.1,23.1,0,0,0,2.083,4.723,4.306,4.306,0,0,1,.571,3.219,2.135,2.135,0,0,1-1.051,1.324,6.865,6.865,0,0,1-5.19.267A2.5,2.5,0,0,0-774.7,2161.491Z" transform="translate(778.622 -2141.265)"/></g><g transform="translate(18.895 111.354)"><path class="cr" d="M-653.8,2273.863l-131.937-76.324v-31.246l131.937,76.325Z" transform="translate(785.739 -2166.293)"/><path class="z" d="M-782.4,2196.286v-28.064l-3.34-1.928v31.246l131.937,76.324v-3.181Z" transform="translate(785.739 -2166.293)"/></g><g transform="translate(18.895 153.674)"><path class="cr" d="M-653.8,2296.9l-131.937-76.325v-31.246l131.937,76.325Z" transform="translate(785.739 -2189.328)"/><path class="z" d="M-782.4,2219.322v-28.065l-3.34-1.928v31.245L-653.8,2296.9v-3.181Z" transform="translate(785.739 -2189.328)"/></g></g><path class="bv" d="M-784.442,2155.411a37.712,37.712,0,0,0-.327-4.633l6.215-.786c.893-.114,1.334-1.1,1.016-2.43a70.233,70.233,0,0,0-2.153-7.187,4.562,4.562,0,0,0-2.574-2.791l-7.082-2.142a61.884,61.884,0,0,0-5.48-9.45l1.7-7.149a4.525,4.525,0,0,0-1.137-3.61,70.67,70.67,0,0,0-5.179-5.46c-1-.941-2.081-1.06-2.629-.353l-3.812,4.931a38.755,38.755,0,0,0-3.873-2.611,29.778,29.778,0,0,0-3.875-1.86l-3.812-9.334a4.393,4.393,0,0,0-2.627-2.682,23.455,23.455,0,0,0-5.181-.521c-.928.014-1.382.99-1.137,2.3l1.7,9.109a12.088,12.088,0,0,0-5.48,3.123l-7.082-6.037c-1.016-.867-2.094-.968-2.574-.18a22.949,22.949,0,0,0-2.153,4.7,4.354,4.354,0,0,0,1.016,3.6l6.215,7.964a29.226,29.226,0,0,0-.327,4.255,37.708,37.708,0,0,0,.327,4.633l-6.215.786c-.893.112-1.334,1.1-1.016,2.431a70.377,70.377,0,0,0,2.153,7.187,4.576,4.576,0,0,0,2.574,2.791l7.082,2.14a61.974,61.974,0,0,0,5.48,9.452l-1.7,7.147a4.522,4.522,0,0,0,1.137,3.61,70.775,70.775,0,0,0,5.181,5.462c1,.94,2.081,1.059,2.627.352l3.812-4.93a38.561,38.561,0,0,0,3.875,2.61,29.726,29.726,0,0,0,3.873,1.861l3.812,9.333a4.4,4.4,0,0,0,2.627,2.682,23.39,23.39,0,0,0,5.181.521c.928-.015,1.381-.989,1.137-2.3l-1.7-9.107a12.1,12.1,0,0,0,5.48-3.123l7.082,6.037c1.016.865,2.094.969,2.574.18a23.037,23.037,0,0,0,2.153-4.7,4.352,4.352,0,0,0-1.016-3.6l-6.215-7.964A29.255,29.255,0,0,0-784.442,2155.411Zm-25.318-2.95c-5.616-3.243-10.17-11.095-10.17-17.54s4.554-9.041,10.17-5.8,10.169,11.1,10.169,17.542S-804.144,2155.7-809.76,2152.46Z" transform="translate(981.846 -1928.313)"/><g transform="translate(121.296 327.142)"><g class="ba" transform="translate(2.715)"><path class="cs" d="M-830.279,2185.841c-9.8-5.658-17.745-1.13-17.745,10.118v25.968c0,11.245,7.946,24.949,17.745,30.607l64.628,37.645c9.8,5.659,21.673.508,21.673-10.738v-25.969c0-11.245-11.874-24.327-21.673-29.986Z" transform="translate(852.865 -2183.403)"/><path class="ct" d="M-830.6,2186.265c-9.754-5.63-17.659-1.122-17.659,10.068v24.722c0,11.19,7.905,24.829,17.659,30.459l64.044,37.309c9.752,5.631,21.228.558,21.228-10.634v-24.721c0-11.192-11.477-24.264-21.228-29.894Z" transform="translate(852.665 -2183.038)"/><path class="cu" d="M-830.931,2186.69c-9.7-5.6-17.572-1.117-17.572,10.02v23.475c0,11.135,7.869,24.705,17.572,30.308l63.461,36.973c9.706,5.6,20.786.61,20.786-10.527v-23.473c0-11.137-11.08-24.2-20.786-29.8Z" transform="translate(852.464 -2182.673)"/><path class="cv" d="M-831.258,2187.115c-9.656-5.575-17.484-1.111-17.484,9.969v22.228c0,11.082,7.828,24.585,17.484,30.161l62.879,36.637c9.658,5.576,20.343.66,20.343-10.422v-22.228c0-11.08-10.685-24.131-20.343-29.707Z" transform="translate(852.264 -2182.307)"/><path class="cw" d="M-831.582,2187.54c-9.61-5.548-17.4-1.106-17.4,9.921v20.98c0,11.027,7.79,24.464,17.4,30.012l62.295,36.3c9.61,5.546,19.9.71,19.9-10.316v-20.982c0-11.027-10.288-24.067-19.9-29.615Z" transform="translate(852.063 -2181.94)"/><path class="cx" d="M-831.909,2187.966c-9.561-5.521-17.312-1.1-17.312,9.868v19.735c0,10.972,7.751,24.343,17.312,29.862L-770.2,2283.4c9.561,5.521,19.454.762,19.454-10.209v-19.734c0-10.972-9.893-24-19.454-29.523Z" transform="translate(851.863 -2181.575)"/><path class="cy" d="M-832.236,2188.391c-9.513-5.494-17.225-1.1-17.225,9.821V2216.7c0,10.918,7.712,24.22,17.225,29.712l61.132,35.629c9.513,5.491,19.011.811,19.011-10.1v-18.487c0-10.917-9.5-23.936-19.011-29.43Z" transform="translate(851.662 -2181.209)"/><path class="cz" d="M-832.56,2188.816c-9.467-5.466-17.141-1.091-17.141,9.772v17.24c0,10.863,7.674,24.1,17.141,29.564l60.548,35.291c9.465,5.465,18.566.865,18.566-10v-17.24c0-10.863-9.1-23.872-18.566-29.338Z" transform="translate(851.461 -2180.843)"/><path class="da" d="M-832.887,2189.241c-9.417-5.438-17.053-1.084-17.053,9.722v15.994c0,10.808,7.635,23.977,17.053,29.413l59.965,34.956c9.417,5.438,18.124.915,18.124-9.893v-15.995c0-10.805-8.706-23.806-18.124-29.244Z" transform="translate(851.261 -2180.478)"/><path class="db" d="M-833.214,2189.666c-9.369-5.41-16.966-1.08-16.966,9.672v14.747c0,10.753,7.6,23.854,16.966,29.264l59.383,34.618c9.371,5.411,17.681.967,17.681-9.785v-14.749c0-10.751-8.31-23.741-17.681-29.15Z" transform="translate(851.06 -2180.112)"/><path class="dc" d="M-833.539,2190.091c-9.324-5.383-16.88-1.073-16.88,9.623v13.5c0,10.7,7.556,23.732,16.88,29.114l58.8,34.282c9.324,5.384,17.238,1.018,17.238-9.679v-13.5c0-10.7-7.914-23.675-17.238-29.058Z" transform="translate(850.86 -2179.746)"/><path class="y" d="M-833.866,2190.515c-9.274-5.353-16.794-1.068-16.794,9.576v12.253c0,10.643,7.52,23.612,16.794,28.967l58.218,33.946c9.274,5.353,16.792,1.067,16.792-9.576v-12.254c0-10.642-7.518-23.612-16.792-28.967Z" transform="translate(850.659 -2179.38)"/></g><path class="dd" d="M-763.161,2286.5l-74.4-43.274c-8.016-4.628-14.576-17.161-14.576-27.85V2199.6c0-10.691,6.561-15.649,14.576-11.02l74.4,43.275c8.016,4.627,14.576,17.161,14.576,27.849v15.778C-748.585,2286.17-755.145,2291.129-763.161,2286.5Z" transform="translate(852.137 -2180.523)"/><path class="de" d="M-763.161,2231.855l-74.4-43.275c-8.016-4.63-14.576.329-14.576,11.017v1.637c0-10.688,6.561-15.647,14.576-11.02l74.4,43.277c8.015,4.628,14.574,17.161,14.574,27.849V2259.7C-748.587,2249.016-755.146,2236.482-763.161,2231.855Z" transform="translate(852.137 -2180.523)"/><path class="df" d="M-786.309,2221.463l-38.178-22.206V2253.9l38.178,22.205c8.015,4.63,14.576-.329,14.576-11.017v-15.778C-771.733,2238.624-778.293,2226.091-786.309,2221.463Z" transform="translate(875.285 -2170.131)"/></g><g transform="translate(139.76 169.029)"><path class="z" d="M-809.553,2127.177l3.878-.49c.67-.087,1.086-.667,1.117-1.512l-5.133.648C-809.634,2126.277-809.6,2126.727-809.553,2127.177Z" transform="translate(869.208 -2074.037)"/><path class="z" d="M-820.915,2107.4l2.853-3.691a1.208,1.208,0,0,0-1.24.41l-2.208,2.855C-821.312,2107.114-821.112,2107.248-820.915,2107.4Z" transform="translate(859.313 -2092.036)"/><path class="z" d="M-815.166,2138.1l.14.746a12.117,12.117,0,0,0,2.87-1.986A12.283,12.283,0,0,1-815.166,2138.1Z" transform="translate(864.624 -2064.253)"/><path class="z" d="M-831.956,2108a12.244,12.244,0,0,1,2.337-.9l-1.7-9.107a3.456,3.456,0,0,1-.035-.6c-.342-.011-.691-.047-1.025-.043-.928.014-1.38.99-1.137,2.3Z" transform="translate(849.209 -2097.34)"/><path class="z" d="M-817.877,2154.617a70.786,70.786,0,0,1-5.179-5.46,4.533,4.533,0,0,1-1.139-3.61l1.7-7.149a61.747,61.747,0,0,1-5.479-9.45l-7.084-2.142a4.567,4.567,0,0,1-2.572-2.791,70.225,70.225,0,0,1-2.153-7.187,3.454,3.454,0,0,1-.1-.918l-1.082.137c-.891.113-1.333,1.1-1.016,2.431a70.219,70.219,0,0,0,2.153,7.186,4.567,4.567,0,0,0,2.574,2.792l7.082,2.141a61.839,61.839,0,0,0,5.48,9.452l-1.7,7.146a4.53,4.53,0,0,0,1.137,3.611,70.848,70.848,0,0,0,5.181,5.461c1,.941,2.08,1.06,2.627.353l.959-1.24A2.783,2.783,0,0,1-817.877,2154.617Z" transform="translate(842.087 -2081.795)"/><path class="z" d="M-810.485,2150.974a4.4,4.4,0,0,1-2.627-2.682l-3.812-9.333a29.715,29.715,0,0,1-3.875-1.86,38.278,38.278,0,0,1-3.873-2.613l-1.606,2.076a36.363,36.363,0,0,0,3.279,2.185,29.959,29.959,0,0,0,3.875,1.861l3.812,9.332a4.4,4.4,0,0,0,2.627,2.682,23.361,23.361,0,0,0,5.181.521c.773-.011,1.19-.709,1.174-1.692A23.774,23.774,0,0,1-810.485,2150.974Z" transform="translate(855.323 -2066.242)"/><path class="z" d="M-804.116,2141.873l-7.082-6.037a12.225,12.225,0,0,1-2.162,1.681l7.045,6.006c1.016.865,2.095.969,2.574.18.239-.393.443-.829.662-1.248A3.029,3.029,0,0,1-804.116,2141.873Z" transform="translate(866.136 -2065.112)"/><path class="z" d="M-834.753,2118.362a29.238,29.238,0,0,0-.327,4.255c0,1.077.081,2.175.191,3.279l2.335-.3a37.708,37.708,0,0,1-.327-4.631,29.267,29.267,0,0,1,.327-4.257l-6.215-7.963a4.351,4.351,0,0,1-1.016-3.6,23.532,23.532,0,0,1,1.492-3.454,1.211,1.211,0,0,0-1.538.4,22.962,22.962,0,0,0-2.153,4.7,4.362,4.362,0,0,0,1.016,3.6Z" transform="translate(842.087 -2093.784)"/><path class="z" d="M-834.117,2104.222c-.107.063-.2.14-.309.2l.037.033C-834.3,2104.373-834.206,2104.3-834.117,2104.222Z" transform="translate(848.5 -2091.578)"/></g><path class="av" d="M-750.579,2246.9l-6.507,6.843c-.586.617.009,2.275,1.027,2.863l13.014,7.514c1.018.589,1.613-.385,1.027-1.677l-6.507-14.357C-749.027,2246.982-750.078,2246.374-750.579,2246.9Z" transform="translate(1052.813 -1803.265)"/><path class="dg" d="M-814.377,2223.391c0,4.337-3.065,6.085-6.845,3.9a15.083,15.083,0,0,1-6.843-11.806c0-4.338,3.064-6.085,6.843-3.9A15.081,15.081,0,0,1-814.377,2223.391Z" transform="translate(993.584 -1833.455)"/><path class="dh" d="M-884.723,2151.154l-13.014-18.031v25.654l13.014-3.005C-883.332,2155.449-883.332,2153.083-884.723,2151.154Z" transform="translate(935.258 -1898.356)"/><path class="di" d="M-662.137,2176.642l-8.668-5v-9.944a3.053,3.053,0,0,0-1.381-2.387l-4.051-2.337v35.3l4.051,2.337c.762.441,1.381.088,1.381-.788v-9.944l8.668,5c.764.441,1.383.088,1.383-.788v-9.057A3.046,3.046,0,0,0-662.137,2176.642Z" transform="translate(1120.691 -1878.392)"/><path class="av" d="M-702.735,2354.392a10.319,10.319,0,0,1-4.2-.893.916.916,0,0,1-.469-1.211.919.919,0,0,1,1.211-.468,8.5,8.5,0,0,0,4.869.617.924.924,0,0,1,1.058.754.918.918,0,0,1-.753,1.058A10.443,10.443,0,0,1-702.735,2354.392Zm6.458-2.506a.907.907,0,0,1-.682-.3.918.918,0,0,1,.066-1.3,8.5,8.5,0,0,0,2.543-4.189.915.915,0,0,1,1.117-.662.917.917,0,0,1,.661,1.117,10.315,10.315,0,0,1-3.09,5.1A.921.921,0,0,1-696.277,2351.886Zm-15.1-.986a.9.9,0,0,1-.454-.12l-4.791-2.724a.915.915,0,0,1-.346-1.251.913.913,0,0,1,1.253-.345l4.791,2.724a.919.919,0,0,1,.345,1.252A.919.919,0,0,1-711.373,2350.9Zm-9.584-5.448a.9.9,0,0,1-.454-.119l-4.79-2.724a.919.919,0,0,1-.345-1.252.915.915,0,0,1,1.253-.345l4.789,2.724a.915.915,0,0,1,.345,1.251A.918.918,0,0,1-720.958,2345.453Zm27.8-3.693a.919.919,0,0,1-.919-.919v-5.513a.919.919,0,0,1,.919-.918.919.919,0,0,1,.919.918v5.513A.919.919,0,0,1-693.156,2341.76Zm-37.385-1.754a.907.907,0,0,1-.454-.12l-4.791-2.722a.919.919,0,0,1-.344-1.253.913.913,0,0,1,1.251-.345l4.793,2.725a.917.917,0,0,1,.344,1.252A.917.917,0,0,1-730.541,2340.006Zm-9.583-5.446a.9.9,0,0,1-.454-.122l-4.793-2.722a.918.918,0,0,1-.344-1.253.912.912,0,0,1,1.251-.344l4.793,2.723a.917.917,0,0,1,.344,1.253A.914.914,0,0,1-740.123,2334.56Zm46.967-3.825a.919.919,0,0,1-.919-.919v-5.511a.919.919,0,0,1,.919-.919.919.919,0,0,1,.919.919v5.511A.919.919,0,0,1-693.156,2330.735Zm-56.55-1.622a.925.925,0,0,1-.454-.119l-4.793-2.724a.916.916,0,0,1-.344-1.251.918.918,0,0,1,1.253-.345l4.791,2.725a.915.915,0,0,1,.343,1.251A.911.911,0,0,1-749.706,2329.113Zm-9.585-5.447a.924.924,0,0,1-.454-.119l-4.791-2.723a.918.918,0,0,1-.346-1.253.919.919,0,0,1,1.253-.345l4.791,2.725a.917.917,0,0,1,.345,1.251A.915.915,0,0,1-759.291,2323.666Zm66.135-3.954a.919.919,0,0,1-.919-.918v-5.511a.919.919,0,0,1,.919-.919.919.919,0,0,1,.919.919v5.511A.918.918,0,0,1-693.156,2319.712Zm-75.719-1.492a.908.908,0,0,1-.454-.121l-4.789-2.723a.918.918,0,0,1-.345-1.251.917.917,0,0,1,1.253-.345l4.789,2.722a.917.917,0,0,1,.345,1.253A.917.917,0,0,1-768.875,2318.22Zm-9.583-5.446a.919.919,0,0,1-.454-.12l-4.792-2.724a.917.917,0,0,1-.345-1.251.917.917,0,0,1,1.253-.346l4.793,2.724a.916.916,0,0,1,.344,1.251A.919.919,0,0,1-778.458,2312.774Zm85.3-4.084a.919.919,0,0,1-.919-.919v-5.511a.919.919,0,0,1,.919-.918.919.919,0,0,1,.919.918v5.511A.919.919,0,0,1-693.156,2308.69Zm-94.884-1.364a.929.929,0,0,1-.454-.119l-4.793-2.725a.916.916,0,0,1-.344-1.251.915.915,0,0,1,1.251-.345l4.793,2.724a.916.916,0,0,1,.343,1.251A.913.913,0,0,1-788.04,2307.326Zm-9.583-5.446a.924.924,0,0,1-.454-.119l-4.793-2.725a.916.916,0,0,1-.344-1.252.914.914,0,0,1,1.253-.344l4.791,2.723a.918.918,0,0,1,.344,1.253A.912.912,0,0,1-797.623,2301.881Zm104.467-4.215a.918.918,0,0,1-.919-.918v-5.512a.919.919,0,0,1,.919-.918.919.919,0,0,1,.919.918v5.512A.918.918,0,0,1-693.156,2297.666Zm-114.052-1.232a.925.925,0,0,1-.454-.119l-2.414-1.373c-.816-.464-1.617-.974-2.383-1.512a.917.917,0,0,1-.222-1.279.917.917,0,0,1,1.281-.225c.716.506,1.47.983,2.232,1.418l2.414,1.372a.918.918,0,0,1,.346,1.251A.919.919,0,0,1-807.208,2296.434Zm-8.888-6.428a.914.914,0,0,1-.665-.285,29.05,29.05,0,0,1-3.5-4.477.916.916,0,0,1,.281-1.267.918.918,0,0,1,1.268.283,27.4,27.4,0,0,0,3.279,4.195.917.917,0,0,1-.031,1.3A.918.918,0,0,1-816.1,2290.006Zm122.94-3.363a.919.919,0,0,1-.919-.918v-5.268a.918.918,0,0,1,.919-.918.918.918,0,0,1,.919.918v5.268A.918.918,0,0,1-693.156,2286.643Zm-128.81-5.884a.919.919,0,0,1-.856-.587,29.144,29.144,0,0,1-1.529-5.471.921.921,0,0,1,.744-1.065.923.923,0,0,1,1.064.746,27.226,27.226,0,0,0,1.433,5.126.919.919,0,0,1-.524,1.189A.914.914,0,0,1-821.966,2280.759Zm-1.907-10.786a.918.918,0,0,1-.919-.918v-5.512a.916.916,0,0,1,.919-.918.918.918,0,0,1,.919.918v5.512A.919.919,0,0,1-823.873,2269.973Zm0-11.023a.918.918,0,0,1-.919-.919v-5.511a.916.916,0,0,1,.919-.918.918.918,0,0,1,.919.918v5.511A.919.919,0,0,1-823.873,2258.95Zm0-11.023a.918.918,0,0,1-.919-.919V2241.5a.917.917,0,0,1,.919-.919.918.918,0,0,1,.919.919v5.511A.919.919,0,0,1-823.873,2247.927Zm0-11.022a.918.918,0,0,1-.919-.919v-5.511a.917.917,0,0,1,.919-.919.918.918,0,0,1,.919.919v5.511A.92.92,0,0,1-823.873,2236.9Zm0-11.023a.918.918,0,0,1-.919-.919v-5.511a.916.916,0,0,1,.919-.918.917.917,0,0,1,.919.918v5.511A.919.919,0,0,1-823.873,2225.881Z" transform="translate(996.326 -1826.853)"/></svg>