<svg xmlns="http://www.w3.org/2000/svg" width="701.008" height="457.131" viewBox="0 0 701.008 457.131"><defs><style>.a{fill:#1e2531;}.b{fill:#303945;}.c{fill:#101722;}.d{fill:#00b8c4;}.e{fill:#3b4553;}.f{fill:#212934;}.g{fill:#79cfe1;}.h,.n,.q{fill:#fff;}.i{fill:#77bf43;}.j{fill:#65bdbd;}.k{fill:#e77067;}.l{fill:#d0d2d3;}.m{fill:#afd68f;}.n{opacity:0.5;}.o{fill:#bbbdbf;}.p{fill:#1d242f;}.q{opacity:0.3;}</style></defs><g transform="translate(673.613 -2515.803)"><g transform="translate(-455.203 2515.803)"><rect class="a" width="108.69" height="40.037" transform="translate(155.826 296.293)"/><path class="b" d="M8.2,0H412.141a8.2,8.2,0,0,1,8.2,8.2V292.922a8.2,8.2,0,0,1-8.2,8.2H8.2a8.2,8.2,0,0,1-8.2-8.2V8.2A8.2,8.2,0,0,1,8.2,0Z"/><path class="c" d="M7.024,0H368.451a7.025,7.025,0,0,1,7.025,7.025V250.831a7.025,7.025,0,0,1-7.025,7.025H7.026A7.026,7.026,0,0,1,0,250.83V7.024A7.024,7.024,0,0,1,7.024,0Z" transform="translate(22.435 21.633)"/><path class="d" d="M6.76,0H358.526a6.759,6.759,0,0,1,6.759,6.759V241.367a6.76,6.76,0,0,1-6.76,6.76H6.761A6.761,6.761,0,0,1,0,241.366V6.76A6.76,6.76,0,0,1,6.76,0Z" transform="translate(27.53 26.497)"/><g transform="translate(117.984 328.687)"><path class="e" d="M-203.63,2808.623H-388.008l22.633-13.759H-228.5Z" transform="translate(388.008 -2794.864)"/><rect class="f" width="184.378" height="10.698" transform="translate(0 13.758)"/></g><g transform="translate(55.361 35.144)"><rect class="g" width="309.62" height="229.052"/><rect class="h" width="249.692" height="229.052" transform="translate(29.989)"/><rect class="i" width="249.692" height="15.751" transform="translate(29.989 7.641)"/><g transform="translate(45.708 66.721)"><rect class="j" width="70.436" height="12.384"/><rect class="j" width="70.44" height="12.384" transform="translate(73.907)"/><rect class="j" width="70.436" height="12.384" transform="translate(147.818)"/></g><g transform="translate(35.254 203.555)"><rect class="j" width="235.169" height="6.192"/></g><rect class="k" width="233.17" height="9.321" transform="translate(38.248 29.296)"/><rect class="g" width="259.411" height="14.125" transform="translate(25.13 43.864)"/><path class="h" d="M-198.579,2589.468a3.912,3.912,0,0,1-3.909,3.912h-59.761a3.913,3.913,0,0,1-3.914-3.912h0a3.913,3.913,0,0,1,3.914-3.912h59.761a3.911,3.911,0,0,1,3.909,3.912Z" transform="translate(472.299 -2538.542)"/><path class="h" d="M-266.374,2592.3l-2.365-2.367a.571.571,0,0,0-.494-.159l-.612-.613a2.7,2.7,0,0,0-.315-3.45,2.706,2.706,0,0,0-3.828,0,2.708,2.708,0,0,0,0,3.828,2.708,2.708,0,0,0,3.452.315l.61.613a.566.566,0,0,0,.157.495l2.369,2.365a.572.572,0,0,0,.81,0l.216-.218A.574.574,0,0,0-266.374,2592.3Zm-7.3-3.072a2.268,2.268,0,0,1,0-3.206,2.268,2.268,0,0,1,3.2,0,2.264,2.264,0,0,1,0,3.206A2.263,2.263,0,0,1-273.675,2589.228Z" transform="translate(470.767 -2538.657)"/><g transform="translate(45.708 85.061)"><rect class="l" width="218.254" height="25.965"/><g transform="translate(4.397 4.661)"><rect class="h" width="209.408" height="1.701" transform="translate(0.048)"/><rect class="h" width="209.411" height="1.701" transform="translate(0 5.051)"/><rect class="h" width="209.411" height="1.702" transform="translate(0 9.71)"/><rect class="h" width="209.411" height="1.702" transform="translate(0 14.371)"/></g></g><rect class="m" width="109.104" height="77.404" transform="translate(45.708 120.687)"/><rect class="m" width="109.104" height="77.404" transform="translate(157.071 120.687)"/></g><path class="n" d="M-474.666,2521.181a9.3,9.3,0,0,0-9.307,9.305v271.352a9.3,9.3,0,0,0,9.307,9.3H-88.515a9.3,9.3,0,0,0,9.307-9.3Z" transform="translate(488.927 -2514.846)"/></g><g transform="translate(-673.613 2676.446)"><g transform="translate(40.71)"><path class="h" d="M6.9,0H346.625a6.9,6.9,0,0,1,6.9,6.9V246.355a6.9,6.9,0,0,1-6.9,6.9H6.9a6.9,6.9,0,0,1-6.9-6.9V6.9A6.9,6.9,0,0,1,6.9,0Z"/><path class="c" d="M5.908,0h303.97a5.906,5.906,0,0,1,5.906,5.906v205.05a5.909,5.909,0,0,1-5.909,5.909H5.906A5.906,5.906,0,0,1,0,210.959V5.908A5.908,5.908,0,0,1,5.908,0Z" transform="translate(18.869 18.195)"/><path class="d" d="M-312.178,2873.1a6.692,6.692,0,0,1-6.695,6.692H-612.7a6.7,6.7,0,0,1-6.7-6.692v-195.29a6.7,6.7,0,0,1,6.7-6.7h293.823a6.693,6.693,0,0,1,6.695,6.7Z" transform="translate(642.545 -2648.827)"/><g transform="translate(44.841 27.914)"><rect class="g" width="263.837" height="195.183"/><rect class="h" width="212.772" height="195.183" transform="translate(25.554)"/><rect class="i" width="212.772" height="13.422" transform="translate(25.554 6.511)"/><g transform="translate(38.95 56.856)"><rect class="j" width="60.021" height="10.553"/><rect class="j" width="60.024" height="10.553" transform="translate(62.976)"/><rect class="j" width="60.021" height="10.553" transform="translate(125.96)"/></g><g transform="translate(30.039 173.455)"><rect class="j" width="200.397" height="5.277"/></g><rect class="k" width="198.692" height="7.944" transform="translate(32.591 24.964)"/><rect class="g" width="221.052" height="12.036" transform="translate(21.414 37.377)"/><path class="h" d="M-394.255,2713.239a3.332,3.332,0,0,1-3.332,3.334H-448.51a3.333,3.333,0,0,1-3.333-3.334h0a3.334,3.334,0,0,1,3.333-3.334h50.922a3.333,3.333,0,0,1,3.332,3.334Z" transform="translate(627.5 -2669.843)"/><path class="h" d="M-452.023,2715.652l-2.018-2.018a.487.487,0,0,0-.419-.137l-.521-.521a2.308,2.308,0,0,0-.27-2.941,2.3,2.3,0,0,0-3.26,0,2.3,2.3,0,0,0,0,3.264,2.305,2.305,0,0,0,2.939.268l.519.522a.487.487,0,0,0,.135.419l2.018,2.018a.488.488,0,0,0,.69,0l.186-.186A.491.491,0,0,0-452.023,2715.652Zm-6.224-2.618a1.934,1.934,0,0,1,0-2.731,1.934,1.934,0,0,1,2.729,0,1.928,1.928,0,0,1,0,2.731A1.929,1.929,0,0,1-458.247,2713.034Z" transform="translate(626.193 -2669.94)"/><g transform="translate(38.95 72.483)"><rect class="l" width="185.981" height="22.126"/><g transform="translate(3.746 3.971)"><rect class="h" width="178.444" height="1.451" transform="translate(0.041)"/><rect class="h" width="178.446" height="1.451" transform="translate(0 4.304)"/><rect class="h" width="178.446" height="1.449" transform="translate(0 8.276)"/><rect class="h" width="178.446" height="1.449" transform="translate(0 12.247)"/></g></g><rect class="m" width="92.969" height="65.958" transform="translate(38.95 102.842)"/><rect class="m" width="92.972" height="65.958" transform="translate(133.844 102.842)"/></g></g><g transform="translate(0 265.221)"><path class="h" d="M-673.613,2877.37h434.941s-6.326,29.28-26.886,31.267H-645.143S-668.868,2904.33-673.613,2877.37Z" transform="translate(673.613 -2877.37)"/><path class="o" d="M-668.685,2890.332a37.472,37.472,0,0,0,22.666,16h379.584c10.108-.978,16.77-8.55,20.937-16Z" transform="translate(674.489 -2875.065)"/></g><path class="n" d="M-623.667,2660.533a7.609,7.609,0,0,0-7.611,7.608v221.922a7.607,7.607,0,0,0,7.611,7.606h315.8a7.606,7.606,0,0,0,7.612-7.606Z" transform="translate(681.141 -2650.709)"/></g><g transform="translate(-96.291 2750.013)"><path class="b" d="M-179.018,2937.573c-2.452,0-4.438-2.256-4.438-5.04V2719.695c0-2.784,1.986-5.042,4.438-5.042H-64.209c2.451,0,4.439,2.258,4.439,5.042v212.838c0,2.784-1.988,5.04-4.439,5.04Z" transform="translate(183.456 -2714.652)"/><g transform="translate(2.9 9.556)"><path class="c" d="M3.667,0H114.219a3.665,3.665,0,0,1,3.665,3.665V185.121a3.665,3.665,0,0,1-3.665,3.665H3.665A3.665,3.665,0,0,1,0,185.121V3.667A3.667,3.667,0,0,1,3.667,0Z"/><path class="d" d="M3.527,0H109.279a3.527,3.527,0,0,1,3.527,3.527V179.944a3.526,3.526,0,0,1-3.526,3.526H3.526A3.526,3.526,0,0,1,0,179.944V3.527A3.527,3.527,0,0,1,3.527,0Z" transform="translate(2.539 2.658)"/><rect class="p" width="35.714" height="8.825" rx="3.746" transform="translate(41.086 194.296)"/></g><path d="M-117.9,2719.6a1.232,1.232,0,0,1-1.356,1.044h-19.974a1.231,1.231,0,0,1-1.355-1.044h0a1.23,1.23,0,0,1,1.355-1.045h19.974a1.231,1.231,0,0,1,1.356,1.045Z" transform="translate(191.081 -2713.958)"/><g transform="translate(11.309 18.177)"><rect class="g" width="101.066" height="173.335"/><rect class="h" width="81.504" height="173.335" transform="translate(9.787)"/><rect class="i" width="81.504" height="11.92" transform="translate(9.787 5.784)"/><g transform="translate(14.918 50.493)"><rect class="j" width="22.992" height="9.37"/><rect class="j" width="22.993" height="9.37" transform="translate(24.127)"/><rect class="j" width="22.991" height="9.37" transform="translate(48.251)"/></g><g transform="translate(11.506 154.039)"><rect class="j" width="76.764" height="4.685"/></g><rect class="k" width="76.115" height="7.052" transform="translate(12.48 22.172)"/><rect class="g" width="84.676" height="10.691" transform="translate(8.202 33.193)"/><path class="h" d="M-92.1,2763.253c0,1.634-1.012,2.959-2.265,2.959h-34.555c-1.246,0-2.26-1.325-2.26-2.959h0c0-1.636,1.014-2.961,2.26-2.961h34.555c1.253,0,2.265,1.325,2.265,2.961Z" transform="translate(181.443 -2724.713)"/><path class="h" d="M-130.753,2766.467l-1.433-2.226a.455.455,0,0,0-.357-.21l-.372-.578a2.065,2.065,0,0,0,.365-2.677,2.238,2.238,0,0,0-3.008-.7,2.064,2.064,0,0,0-.677,2.907,2.238,2.238,0,0,0,2.652.869l.37.577a.457.457,0,0,0,.033.4l1.45,2.23a.47.47,0,0,0,.634.147l.2-.127A.418.418,0,0,0-130.753,2766.467Zm-5.175-3.662a1.728,1.728,0,0,1,.564-2.435,1.862,1.862,0,0,1,2.505.583,1.715,1.715,0,0,1-.562,2.434A1.86,1.86,0,0,1-135.929,2762.805Z" transform="translate(180.484 -2724.806)"/><g transform="translate(14.918 64.372)"><rect class="l" width="71.243" height="19.646"/><g transform="translate(1.437 3.525)"><rect class="h" width="68.355" height="1.289" transform="translate(0.014)"/><rect class="h" width="68.357" height="1.288" transform="translate(0 3.822)"/><rect class="h" width="68.357" height="1.287" transform="translate(0 7.349)"/><rect class="h" width="68.357" height="1.289" transform="translate(0 10.875)"/></g></g><rect class="m" width="34.97" height="58.575" transform="translate(14.918 91.331)"/><rect class="m" width="35.218" height="58.575" transform="translate(51.665 91.331)"/></g><path class="q" d="M-177.132,2715.77h-.389a4.621,4.621,0,0,0-4.3,4.884v206.212a4.622,4.622,0,0,0,4.3,4.886H-66.287a4.622,4.622,0,0,0,4.3-4.886v-30.8Z" transform="translate(183.746 -2714.453)"/></g><circle cx="0.959" cy="0.959" r="0.959" transform="translate(-51.49 2754.698)"/></g></svg>