<svg xmlns="http://www.w3.org/2000/svg" width="32" height="32" viewBox="0 0 32 32"><defs><style>.a{fill:#00d18a;}.b{fill:#fff;}</style></defs><g transform="translate(-160 -4509)"><circle class="a" cx="16" cy="16" r="16" transform="translate(160 4509)"/><path class="b" d="M48.853,380.428a.745.745,0,0,1-.23.654L46.45,383.24a1.241,1.241,0,0,1-.384.28,1.658,1.658,0,0,1-.466.146l-.1.008c-.056,0-.127.008-.214.008a7.213,7.213,0,0,1-2.705-.63A14.342,14.342,0,0,1,40.3,381.8a17.072,17.072,0,0,1-2.714-2.288,17.919,17.919,0,0,1-1.9-2.159,15.374,15.374,0,0,1-1.211-1.905,10.19,10.19,0,0,1-.686-1.586,8.187,8.187,0,0,1-.31-1.226,3.9,3.9,0,0,1-.066-.81c.01-.2.016-.3.016-.326a1.581,1.581,0,0,1,.148-.466,1.235,1.235,0,0,1,.276-.384l2.175-2.175a.721.721,0,0,1,.524-.228.609.609,0,0,1,.376.122,1.113,1.113,0,0,1,.278.3l1.75,3.319a.8.8,0,0,1,.082.572,1.02,1.02,0,0,1-.278.524l-.8.8a.232.232,0,0,0-.056.106.368.368,0,0,0-.026.122,2.952,2.952,0,0,0,.294.786,7.51,7.51,0,0,0,.606.956,10.406,10.406,0,0,0,1.162,1.3,10.584,10.584,0,0,0,1.308,1.168,7.49,7.49,0,0,0,.956.614,2.6,2.6,0,0,0,.588.238l.2.04a.384.384,0,0,0,.106-.024.267.267,0,0,0,.108-.058l.932-.948a1,1,0,0,1,.686-.262.853.853,0,0,1,.442.1h.016l3.155,1.865a.816.816,0,0,1,.41.538" transform="translate(134.584 4148.751)"/></g></svg>