<?xml version="1.0" encoding="utf-8"?>
<!-- Generator: Adobe Illustrator 25.0.0, SVG Export Plug-In . SVG Version: 6.00 Build 0)  -->
<svg version="1.1" baseProfile="basic" id="Layer_1"
	 xmlns="http://www.w3.org/2000/svg" xmlns:xlink="http://www.w3.org/1999/xlink" x="0px" y="0px" viewBox="0 0 85.63 85.63"
	 xml:space="preserve">
<style type="text/css">
	.st0{fill:#003764;}
</style>
<path class="st0" d="M69.94,43.35l-2.37,2.37L46.65,24.8c-2.12-2.12-5.55-2.12-7.67,0L18.06,45.72l-2.37-2.37
	c-2.12-2.12-2.12-5.56,0-7.67l23.29-23.29c2.12-2.12,5.55-2.12,7.67,0l23.29,23.29C72.06,37.79,72.06,41.23,69.94,43.35z"/>
<path class="st0" d="M69.94,58.47l-1.81,1.81L46.65,38.79c-2.12-2.12-5.55-2.12-7.67,0L23.7,54.07l-6.21,6.21l-1.81-1.81
	c-2.12-2.12-2.12-5.55,0-7.67l2.37-2.37L38.98,27.5c2.12-2.12,5.55-2.12,7.67,0L69.94,50.8C72.06,52.92,72.06,56.35,69.94,58.47z"/>
<path class="st0" d="M69.94,72.46l-2.37,2.37L46.65,53.92c-2.12-2.12-5.55-2.12-7.67,0l-9.07,9.07l-6.21,6.21l-5.65,5.64l-2.37-2.37
	c-2.12-2.12-2.12-5.55,0-7.67l1.81-1.81l6.21-6.21l15.28-15.28c2.12-2.12,5.55-2.12,7.67,0l23.29,23.29
	C72.06,66.91,72.06,70.34,69.94,72.46z"/>
</svg>
