<svg xmlns="http://www.w3.org/2000/svg" width="58" height="58" viewBox="0 0 58 58"><defs><style>.a{fill:#b0d2e8;}.b{fill:#045e8b;}</style></defs><rect class="a" width="58" height="58" rx="12" transform="translate(0 0)"/><g transform="translate(0.956 1.206)"><path class="b" d="M-2614.821,2546.36a11.3,11.3,0,0,1-11.3-11.3v-33.674a11.3,11.3,0,0,1,11.3-11.3h33.674a11.3,11.3,0,0,1,11.3,11.3v33.674a11.3,11.3,0,0,1-11.3,11.3Zm32.844-4.424a7.562,7.562,0,0,0,7.563-7.562v-32.31a7.562,7.562,0,0,0-7.563-7.562h-32.015a7.562,7.562,0,0,0-7.562,7.562v32.31a7.562,7.562,0,0,0,7.562,7.562Z" transform="translate(2626.125 -2490.078)"/><g transform="translate(12.135 10.475)"><path class="b" d="M-2580.112,2547.605h-12.579a7.724,7.724,0,0,1-7.723-7.724V2520a7.723,7.723,0,0,1,7.723-7.723h9.222a7.723,7.723,0,0,1,7.724,7.723v4.782h4.764a2.581,2.581,0,0,1,2.58,2.58v8.536A11.712,11.712,0,0,1-2580.112,2547.605Zm-12.363-14.888v5.288a1.659,1.659,0,0,0,1.66,1.66h10.7a3.771,3.771,0,0,0,3.771-3.771v-3.176Zm0-7.94h8.79v-2.906a1.659,1.659,0,0,0-1.66-1.66h-5.47a1.659,1.659,0,0,0-1.66,1.66Z" transform="translate(2600.414 -2512.272)"/></g></g></svg>