<svg xmlns="http://www.w3.org/2000/svg" viewBox="0 0 32.3 32.3"><defs><style>.cls-1{fill:#ffffff;}</style></defs><g id="Layer_2" data-name="Layer 2"><g id="OBJECTS"><path class="cls-1" d="M16.09,0a16.15,16.15,0,0,0,0,32.3A16.3,16.3,0,0,0,32.3,16.09,16.19,16.19,0,0,0,16.09,0Zm0,30.42A14.27,14.27,0,1,1,30.42,16.09,14.3,14.3,0,0,1,16.09,30.42Z"/><path class="cls-1" d="M16.09,5.68a10.47,10.47,0,0,0,0,20.94,10.79,10.79,0,0,0,6.45-2.14A.95.95,0,1,0,21.39,23a8.88,8.88,0,0,1-5.3,1.76,8.59,8.59,0,1,1,8.64-8.65V17A1.89,1.89,0,1,1,21,17V12.3a1,1,0,0,0-1.9,0v.06a4.87,4.87,0,0,0-3-1,4.73,4.73,0,0,0,0,9.46,4.92,4.92,0,0,0,3.64-1.63A3.78,3.78,0,0,0,26.62,17v-.94A10.51,10.51,0,0,0,16.09,5.68Zm0,13.26a2.85,2.85,0,0,1,0-5.7,3,3,0,0,1,3,2.85,3,3,0,0,1-3,2.85Z"/></g></g></svg>