<svg xmlns="http://www.w3.org/2000/svg" width="58" height="58" viewBox="0 0 58 58"><defs><style>.a{fill:#b0d2e8;}.b{fill:#045e8b;}</style></defs><g transform="translate(-0.454)"><rect class="a" width="58" height="58" rx="13" transform="translate(0.454 0)"/><g transform="translate(1.26 1.242)"><path class="b" d="M-1944.936,2546.36a11.3,11.3,0,0,1-11.3-11.3v-33.673a11.3,11.3,0,0,1,11.3-11.3h33.673a11.3,11.3,0,0,1,11.3,11.3v33.673a11.3,11.3,0,0,1-11.3,11.3Zm32.844-4.572a7.562,7.562,0,0,0,7.562-7.562v-32.31a7.562,7.562,0,0,0-7.562-7.562h-32.015a7.562,7.562,0,0,0-7.562,7.562v32.31a7.562,7.562,0,0,0,7.562,7.562Z" transform="translate(1956.241 -2490.077)"/><path class="b" d="M-1898.306,2533.475a14.227,14.227,0,0,1-14.227,14.227,14.227,14.227,0,0,1-14.227-14.227,14.227,14.227,0,0,1,14.227-14.227A14.227,14.227,0,0,1-1898.306,2533.475Zm-14.227-8.911a8.912,8.912,0,0,0-8.912,8.911,8.912,8.912,0,0,0,8.912,8.912,8.912,8.912,0,0,0,8.912-8.912A8.912,8.912,0,0,0-1912.533,2524.563Z" transform="translate(1940.674 -2505.48)"/><circle class="b" cx="2.756" cy="2.756" r="2.756" transform="translate(41.086 14.454) rotate(-80.783)"/></g></g></svg>