<svg width="12" height="9" viewBox="0 0 12 9" fill="none" xmlns="http://www.w3.org/2000/svg">
<path d="M2.71579 0.308332C2.52749 0.114724 2.26998 0.00384906 1.99993 9.83323e-05C1.72988 -0.0036524 1.4694 0.100029 1.27579 0.288333C1.08218 0.476636 0.971307 0.734138 0.967556 1.00419C0.963805 1.27424 1.06749 1.53472 1.25579 1.72833L3.59579 4.01833L1.25579 6.30833C1.16206 6.4013 1.08767 6.5119 1.0369 6.63376C0.986129 6.75561 0.959991 6.88632 0.959991 7.01833C0.959991 7.15034 0.986129 7.28105 1.0369 7.40291C1.08767 7.52477 1.16206 7.63537 1.25579 7.72833C1.34875 7.82206 1.45935 7.89645 1.58121 7.94722C1.70307 7.99799 1.83378 8.02413 1.96579 8.02413C2.0978 8.02413 2.22851 7.99799 2.35037 7.94722C2.47223 7.89645 2.58283 7.82206 2.67579 7.72833L5.67579 4.72833C5.76952 4.63537 5.84391 4.52477 5.89468 4.40291C5.94545 4.28105 5.97159 4.15034 5.97159 4.01833C5.97159 3.88632 5.94545 3.75561 5.89468 3.63376C5.84391 3.5119 5.76952 3.40129 5.67579 3.30833L2.71579 0.308332ZM11.2158 3.30833L8.21579 0.308332C8.02749 0.120028 7.77209 0.0142404 7.50579 0.0142404C7.23949 0.0142404 6.98409 0.120028 6.79579 0.308332C6.60749 0.496636 6.5017 0.75203 6.5017 1.01833C6.5017 1.28463 6.60749 1.54003 6.79579 1.72833L9.09579 4.01833L6.79579 6.30833C6.70206 6.4013 6.62767 6.5119 6.5769 6.63376C6.52613 6.75561 6.49999 6.88632 6.49999 7.01833C6.49999 7.15034 6.52613 7.28105 6.5769 7.40291C6.62767 7.52477 6.70206 7.63537 6.79579 7.72833C6.88875 7.82206 6.99935 7.89645 7.12121 7.94722C7.24307 7.99799 7.37378 8.02413 7.50579 8.02413C7.6378 8.02413 7.76851 7.99799 7.89037 7.94722C8.01223 7.89645 8.12283 7.82206 8.21579 7.72833L11.2158 4.72833C11.3122 4.63804 11.3897 4.52954 11.444 4.40911C11.4982 4.28868 11.528 4.1587 11.5318 4.02667C11.5355 3.89464 11.513 3.76319 11.4656 3.63989C11.4183 3.5166 11.3469 3.40391 11.2558 3.30833H11.2158Z" fill="white"/>
</svg>
