<svg xmlns="http://www.w3.org/2000/svg" width="58" height="58" viewBox="0 0 58 58"><defs><style>.a{fill:#b0d2e8;}.b{fill:#045e8b;}</style></defs><g transform="translate(-0.415)"><rect class="a" width="58" height="58" rx="29" transform="translate(0.415 0)"/><g transform="translate(1.625 1.206)"><path class="b" d="M-2252.893,2539.591c7.909,0,11.906-6.078,11.906-14.113,0-7.66-5.245-13.363-14.9-13.363-9.325,0-14.071,8.159-14.071,13.654,0,5.065,3.178,8.076,4.663,8.076a1.013,1.013,0,0,0,1-1.124c0-1.221-1.5-1.54-1.5-6.786a10.421,10.421,0,0,1,10.657-9.963c5.828,0,8.576,5.092,8.576,9.505,0,6.744-3.747,9.866-7.077,9.866-1.665,0-3.83-1.665-3.08-5.079,2-4.413,2-9.908-.667-9.908-2.775,0-5.079,4-3.5,8.992,0,0-3.414,15.486-3.414,16.651,0,.916-.144,3.259.167,3.414,1,.5,4.746-5,4.912-5.828.08-.4.657-3.481,1.238-6.58A5.786,5.786,0,0,0-2252.893,2539.591Z" transform="translate(2283.199 -2501.714)"/><path class="b" d="M-2241.728,2518.219a28.141,28.141,0,0,1-28.141,28.141,28.141,28.141,0,0,1-28.141-28.141,28.141,28.141,0,0,1,28.141-28.142A28.141,28.141,0,0,1-2241.728,2518.219Zm-28.141-24.077a24.077,24.077,0,0,0-24.077,24.077,24.076,24.076,0,0,0,24.077,24.076,24.076,24.076,0,0,0,24.076-24.076A24.076,24.076,0,0,0-2269.869,2494.142Z" transform="translate(2298.01 -2490.077)"/></g></g></svg>