<svg xmlns="http://www.w3.org/2000/svg" width="58" height="58" viewBox="0 0 58 58"><defs><style>.a{fill:#b0d2e8;}.b{fill:#045e8b;}</style></defs><g transform="translate(-0.476)"><rect class="a" width="58" height="58" rx="29" transform="translate(0.476 0)"/><g transform="translate(0.846 1.206)"><path class="b" d="M-2075.368,2518.219a28.142,28.142,0,0,1-28.141,28.141,28.142,28.142,0,0,1-28.142-28.141,28.142,28.142,0,0,1,28.142-28.142A28.142,28.142,0,0,1-2075.368,2518.219Zm-28.141-24.181a24.181,24.181,0,0,0-24.181,24.181,24.181,24.181,0,0,0,24.181,24.18,24.18,24.18,0,0,0,24.18-24.18A24.181,24.181,0,0,0-2103.509,2494.038Z" transform="translate(2131.651 -2490.077)"/><path class="b" d="M-2090.049,2532.767a20.906,20.906,0,0,1-16.577-8.931s-2.773,5.117,1.459,9.3l-2.412-.682s-1.5,4.959,4.687,7.962l-3.094.182a16.781,16.781,0,0,0,10.146,5.141c-2.912,2.957-9.055,3.731-12.833,3.144a20.829,20.829,0,0,0,11.923,3.726,20.93,20.93,0,0,0,20.93-20.93q0-.8-.059-1.585l3.835-3.6-3.913.819,3.458-3.731a20.448,20.448,0,0,1-5.564,1.567,7.257,7.257,0,0,0-5.128-2.113,7.28,7.28,0,0,0-7.28,7.28A7.274,7.274,0,0,0-2090.049,2532.767Z" transform="translate(2119.517 -2507.482)"/></g></g></svg>