<svg xmlns="http://www.w3.org/2000/svg" width="494" height="410.582" viewBox="0 0 494 410.582"><defs><style>.a{opacity:0.3;}.b{fill:#a99d31;}.c{fill:#47d1db;}.d{fill:#c69bae;}.e{fill:#8f7353;}.f{fill:#b1d8c1;}.g{fill:#ad6b8c;}.h{fill:#d67749;}.i{fill:#baaf46;}.j{fill:#00b480;}.k{fill:#1cbda0;}.l{fill:#56bfb8;}.m{fill:#b0a226;}.n{fill:#b6ad53;}.o{fill:#bbb567;}.p{fill:#d65b20;}.q{fill:#d7845c;}.r{fill:#d89676;}.s{fill:#d8b29f;}.t{fill:#91d4d3;}</style></defs><g class="a" transform="translate(-54.777 -99.333)"><g transform="translate(327.496 157.368)"><path class="b" d="M281.922,324.448a1.207,1.207,0,0,1-.853-2.06L455.689,147.767a1.207,1.207,0,0,1,1.707,1.707L282.776,324.094A1.2,1.2,0,0,1,281.922,324.448Z" transform="translate(-280.715 -147.413)"/></g><g transform="translate(208.562 270.777)"><path class="c" d="M185.8,358.05a3.621,3.621,0,0,1-2.56-6.181l109.44-109.44a3.621,3.621,0,0,1,5.12,5.12l-109.44,109.44A3.61,3.61,0,0,1,185.8,358.05Z" transform="translate(-182.182 -241.368)"/></g><g transform="translate(84.238 223.115)"><path class="c" d="M81.6,316.15a2.414,2.414,0,0,1-1.707-4.121l109.439-109.44A2.414,2.414,0,1,1,192.745,206L83.306,315.443A2.407,2.407,0,0,1,81.6,316.15Z" transform="translate(-79.185 -201.882)"/></g><g transform="translate(391.337 314.172)"><rect class="d" width="98.549" height="155.813" rx="7.333" transform="translate(69.119 0) rotate(26.334)"/><path class="e" d="M417.6,458.576a10.022,10.022,0,0,1-4.452-1.049l-72.457-35.863a10.072,10.072,0,0,1-4.553-13.477L397.406,284.41a10.057,10.057,0,0,1,13.477-4.553l72.455,35.863a10.072,10.072,0,0,1,4.554,13.477L426.626,452.974a10.084,10.084,0,0,1-9.025,5.6ZM406.428,281.223a7.668,7.668,0,0,0-6.857,4.257L338.3,409.258a7.653,7.653,0,0,0,3.459,10.242l72.456,35.863a7.647,7.647,0,0,0,10.243-3.459l61.265-123.777a7.652,7.652,0,0,0-3.461-10.242l-72.455-35.863A7.6,7.6,0,0,0,406.428,281.223Z" transform="translate(-333.295 -277.012)"/><g transform="translate(11.506 8.772)"><rect class="f" width="85.231" height="136.836" rx="3.667" transform="translate(60.7 0) rotate(26.334)"/><path class="e" d="M417.46,444.683a5.611,5.611,0,0,1-2.49-.584l-68.453-33.881a5.643,5.643,0,0,1-2.549-7.548l56.774-114.7a5.643,5.643,0,0,1,7.547-2.551L476.74,319.3a5.632,5.632,0,0,1,2.552,7.547l-56.775,114.7A5.639,5.639,0,0,1,417.46,444.683Zm-1.419-2.748a3.218,3.218,0,0,0,4.313-1.456l56.775-114.7a3.219,3.219,0,0,0-1.457-4.312l-68.453-33.883a3.225,3.225,0,0,0-4.313,1.456l-56.774,114.7a3.223,3.223,0,0,0,1.456,4.313Z" transform="translate(-343.086 -284.536)"/></g></g><g transform="translate(142.778 150.386)"><g transform="translate(124.51 192.894)"><rect class="d" width="44.235" height="52.772"/></g><g transform="translate(124.51 205.505)"><path class="g" d="M230.835,313.532c0,2.489,44.127,22.064,44.127,22.064V311.883Z" transform="translate(-230.835 -311.883)"/></g><g transform="translate(123.303 191.688)"><path class="e" d="M276.484,355.621H229.835V300.436h46.649Zm-44.235-2.414H274.07V302.85H232.249Z" transform="translate(-229.835 -300.436)"/></g><rect class="d" width="292.873" height="204.298" rx="8.165" transform="translate(1.206 1.207)"/><path class="e" d="M411.906,348.342H138.746a11.075,11.075,0,0,1-11.063-11.063V152.692a11.075,11.075,0,0,1,11.063-11.063H411.906a11.075,11.075,0,0,1,11.063,11.063V337.279A11.075,11.075,0,0,1,411.906,348.342Zm-273.161-204.3a8.659,8.659,0,0,0-8.649,8.649V337.279a8.658,8.658,0,0,0,8.649,8.649H411.906a8.657,8.657,0,0,0,8.648-8.649V152.692a8.658,8.658,0,0,0-8.648-8.649Z" transform="translate(-127.683 -141.629)"/><g transform="translate(11.264 11.663)"><rect class="h" width="271.552" height="166.465" rx="4.5" transform="translate(0.603 0.604)"/><path class="e" d="M403.737,318.963H143.05a6.042,6.042,0,0,1-6.035-6.035v-155.6a6.042,6.042,0,0,1,6.035-6.035H403.737a6.042,6.042,0,0,1,6.035,6.035v155.6A6.042,6.042,0,0,1,403.737,318.963ZM143.05,152.5a4.833,4.833,0,0,0-4.828,4.828v155.6a4.833,4.833,0,0,0,4.828,4.828H403.737a4.833,4.833,0,0,0,4.828-4.828v-155.6a4.833,4.833,0,0,0-4.828-4.828Z" transform="translate(-137.015 -151.291)"/></g><g transform="translate(0 244.459)"><rect class="d" width="292.873" height="14.745" rx="2.46" transform="translate(1.206 1.207)"/><path class="e" d="M418.793,361.314H131.859a4.181,4.181,0,0,1-4.176-4.176v-8.807a4.181,4.181,0,0,1,4.176-4.176H418.793a4.18,4.18,0,0,1,4.176,4.176v8.807A4.18,4.18,0,0,1,418.793,361.314ZM131.859,346.569a1.764,1.764,0,0,0-1.762,1.762v8.807a1.764,1.764,0,0,0,1.762,1.762H418.793a1.764,1.764,0,0,0,1.762-1.762v-8.807a1.765,1.765,0,0,0-1.762-1.762Z" transform="translate(-127.683 -344.155)"/></g></g><g transform="translate(99.525 99.333)"><g transform="translate(7.467 7.688)"><g transform="translate(1.208 1.207)"><rect class="f" width="66.345" height="66.345"/></g><g transform="translate(66.346 66.345)"><rect class="e" width="2.414" height="2.414"/></g><g transform="translate(4.782 66.346)"><path class="e" d="M161.192,163.081h-2.367v-2.414h2.367Zm-4.735,0h-2.368v-2.414h2.368Zm-4.736,0h-2.367v-2.414h2.367Zm-4.735,0h-2.367v-2.414h2.367Zm-4.735,0h-2.368v-2.414h2.368Zm-4.736,0h-2.367v-2.414h2.367Zm-4.735,0h-2.367v-2.414h2.367Zm-4.735,0h-2.368v-2.414h2.368Zm-4.735,0h-2.368v-2.414h2.368Zm-4.735,0H116.2v-2.414h2.368Zm-4.736,0h-2.368v-2.414h2.368Zm-4.735,0h-2.368v-2.414H109.1Zm-4.736,0H102v-2.414h2.367Z" transform="translate(-101.997 -160.667)"/></g><g transform="translate(0 66.345)"><rect class="e" width="2.414" height="2.414"/></g><g transform="translate(0 4.782)"><path class="e" d="M100.449,168.859H98.035v-2.367h2.414Zm0-4.735H98.035v-2.368h2.414Zm0-4.736H98.035V157.02h2.414Zm0-4.735H98.035v-2.367h2.414Zm0-4.735H98.035v-2.368h2.414Zm0-4.736H98.035v-2.367h2.414Zm0-4.735H98.035v-2.367h2.414Zm0-4.735H98.035v-2.368h2.414Zm0-4.735H98.035v-2.368h2.414Zm0-4.735H98.035v-2.368h2.414Zm0-4.736H98.035v-2.368h2.414Zm0-4.735H98.035V114.4h2.414Zm0-4.736H98.035v-2.367h2.414Z" transform="translate(-98.035 -109.664)"/></g><g transform="translate(0 0)"><rect class="e" width="2.414" height="2.414"/></g><g transform="translate(4.782)"><path class="e" d="M161.192,108.116h-2.367V105.7h2.367Zm-4.735,0h-2.368V105.7h2.368Zm-4.735,0h-2.368V105.7h2.368Zm-4.735,0h-2.368V105.7h2.368Zm-4.736,0h-2.368V105.7h2.368Zm-4.735,0h-2.368V105.7h2.368Zm-4.735,0h-2.368V105.7h2.368Zm-4.736,0h-2.367V105.7h2.367Zm-4.735,0h-2.368V105.7h2.368Zm-4.735,0H116.2V105.7h2.368Zm-4.736,0h-2.367V105.7h2.367Zm-4.735,0h-2.368V105.7H109.1Zm-4.736,0H102V105.7h2.367Z" transform="translate(-101.997 -105.702)"/></g><g transform="translate(66.346 0)"><rect class="e" width="2.414" height="2.414"/></g><g transform="translate(66.346 4.782)"><path class="e" d="M155.414,168.859H153v-2.368h2.414Zm0-4.735H153v-2.368h2.414Zm0-4.736H153v-2.368h2.414Zm0-4.735H153v-2.368h2.414Zm0-4.735H153v-2.368h2.414Zm0-4.736H153v-2.368h2.414Zm0-4.735H153v-2.367h2.414Zm0-4.735H153v-2.368h2.414Zm0-4.736H153v-2.367h2.414Zm0-4.735H153v-2.367h2.414Zm0-4.735H153v-2.368h2.414Zm0-4.736H153V114.4h2.414Zm0-4.735H153v-2.367h2.414Z" transform="translate(-153 -109.664)"/></g></g><g transform="translate(28.944 29.555)"><path class="i" d="M124.478,126.941h-8.65v-3.123h21.056v3.123h-8.693v25.318h-3.713Z" transform="translate(-115.828 -123.818)"/></g><path class="d" d="M99.847,100.333l3.5,6.382,3.5,6.382-7-2.206-7,2.206,3.5-6.382Z" transform="translate(-91.642 -99.126)"/><path class="e" d="M107.051,114.513a1.175,1.175,0,0,1-.362-.057l-6.635-2.092-6.634,2.092A1.207,1.207,0,0,1,92,112.725l7-12.765a1.206,1.206,0,0,1,1.057-.628h0a1.207,1.207,0,0,1,1.059.628l7,12.765a1.208,1.208,0,0,1-1.059,1.788Zm-7-11.461-4.494,8.2,4.132-1.3a1.2,1.2,0,0,1,.725,0l4.132,1.3Z" transform="translate(-91.849 -99.333)"/></g><g transform="translate(54.777 352.933)"><g transform="translate(6.183)"><g transform="translate(0.615 0.614)"><path class="f" d="M1.542,0H144.224a1.542,1.542,0,0,1,1.542,1.542V36.955a1.541,1.541,0,0,1-1.541,1.541H1.542A1.542,1.542,0,0,1,0,36.955V1.542A1.542,1.542,0,0,1,1.542,0Z" transform="matrix(-0.85, -0.526, 0.526, -0.85, 123.937, 109.46)"/></g><g transform="translate(96.935 60.245)"><rect class="j" width="18.446" height="38.496" transform="translate(15.684 42.441) rotate(-148.239)"/><g transform="translate(22.3 26.366)"><path class="i" d="M160.88,395.5a1.2,1.2,0,0,1-.518-1.3l-.021,0a1.042,1.042,0,0,1-1.155.07,1.182,1.182,0,0,1-.269-1.7,1.086,1.086,0,0,1,1.527-.495,1.066,1.066,0,0,1,.473,1.108l.017.01a1.17,1.17,0,0,1,1.374-.148,1.3,1.3,0,0,1,.286,1.862A1.247,1.247,0,0,1,160.88,395.5Zm-1.445-1.716c.358.222.718.071,1.085-.276a.832.832,0,0,0-.313-.948.656.656,0,0,0-.96.245A.671.671,0,0,0,159.435,393.779Zm2.617-.227c-.435-.268-.832-.1-1.27.3a.918.918,0,0,0,.339,1.1.781.781,0,0,0,1.127-.3A.763.763,0,0,0,162.052,393.552Z" transform="translate(-158.681 -378.965)"/><path class="i" d="M162.878,393.077a1.916,1.916,0,0,0,.718-.653.827.827,0,0,0-.193-1.243c-.506-.3-1,.014-1.289.484l-.168.27-.363-.226.167-.269a.838.838,0,0,0-.111-1.177.637.637,0,0,0-.929.3,1.537,1.537,0,0,0-.205.862l-.432-.089a2.011,2.011,0,0,1,.3-1.111,1.022,1.022,0,0,1,1.924.689l.012.007a1.1,1.1,0,0,1,1.415-.229,1.339,1.339,0,0,1,.266,1.971,2.151,2.151,0,0,1-.82.782Z" transform="translate(-158.393 -379.449)"/><path class="i" d="M162.821,387.091a1.879,1.879,0,0,0-.2.377,1.71,1.71,0,0,0,.5,2.033l.01-.017A1.285,1.285,0,0,1,165.08,388a1.411,1.411,0,0,1,.525,1.974,1.56,1.56,0,0,1-2.312.322,2.649,2.649,0,0,1-1.24-1.605,2.3,2.3,0,0,1,.18-1.476,3.032,3.032,0,0,1,.192-.369Zm1.982,1.415a.857.857,0,0,0-1.278.23.941.941,0,0,0,.011.969.493.493,0,0,0,.181.188c.6.354,1.2.354,1.512-.156A.882.882,0,0,0,164.8,388.506Z" transform="translate(-157.993 -380.014)"/><path class="i" d="M167.228,387.168l-.977-.6-1.031,1.665-.319-.2-1.3-3.015.323-.524,2.227,1.38.311-.5.379.235-.311.5.978.606Zm-1.357-.839-1.195-.741c-.188-.117-.372-.238-.553-.365l-.011.016c.142.241.243.425.345.625l.676,1.631.011.007Z" transform="translate(-157.661 -380.502)"/><path class="i" d="M164.662,383.44l2.2,1.36c.83.515,1.412.365,1.719-.13.343-.552.2-1.129-.624-1.638l-2.2-1.363.3-.483,2.165,1.339c1.142.707,1.238,1.6.74,2.4-.471.762-1.261,1.066-2.414.351l-2.187-1.353Z" transform="translate(-157.504 -381.186)"/></g></g><g transform="translate(70.852 44.097)"><rect class="k" width="18.446" height="38.496" transform="matrix(-0.85, -0.526, 0.526, -0.85, 15.684, 42.441)"/><g transform="translate(22.301 26.365)"><path class="i" d="M139.273,382.119a1.2,1.2,0,0,1-.519-1.3l-.019,0a1.048,1.048,0,0,1-1.158.069,1.18,1.18,0,0,1-.267-1.7,1.086,1.086,0,0,1,1.527-.495,1.069,1.069,0,0,1,.473,1.108l.016.01a1.17,1.17,0,0,1,1.374-.148,1.3,1.3,0,0,1,.287,1.862A1.247,1.247,0,0,1,139.273,382.119Zm-1.445-1.719c.358.225.718.074,1.085-.273a.832.832,0,0,0-.314-.949.654.654,0,0,0-.958.245A.668.668,0,0,0,137.829,380.4Zm2.618-.223c-.437-.269-.833-.1-1.272.3a.918.918,0,0,0,.34,1.1.781.781,0,0,0,1.127-.3A.763.763,0,0,0,140.447,380.176Z" transform="translate(-137.073 -365.586)"/><path class="i" d="M141.272,379.7a1.912,1.912,0,0,0,.717-.655.826.826,0,0,0-.193-1.241c-.5-.3-1,.014-1.29.484l-.167.27-.365-.226.168-.269a.84.84,0,0,0-.111-1.176.636.636,0,0,0-.931.295,1.546,1.546,0,0,0-.206.863l-.431-.093a2,2,0,0,1,.305-1.106,1.021,1.021,0,0,1,1.923.687l.01.007a1.1,1.1,0,0,1,1.416-.232,1.341,1.341,0,0,1,.267,1.974,2.151,2.151,0,0,1-.82.782Z" transform="translate(-136.786 -366.069)"/><path class="i" d="M141.215,373.712a2.1,2.1,0,0,0-.2.377,1.712,1.712,0,0,0,.5,2.035l.01-.017a1.284,1.284,0,0,1,1.948-1.485A1.411,1.411,0,0,1,144,376.6a1.561,1.561,0,0,1-2.313.322,2.657,2.657,0,0,1-1.24-1.608,2.3,2.3,0,0,1,.181-1.474,2.653,2.653,0,0,1,.191-.369Zm1.982,1.419a.857.857,0,0,0-1.279.228.944.944,0,0,0,.012.969.476.476,0,0,0,.18.186c.6.356,1.2.356,1.514-.153A.879.879,0,0,0,143.2,375.132Z" transform="translate(-136.386 -366.635)"/><path class="i" d="M144.311,374.791a1.88,1.88,0,0,0,.716-.653.824.824,0,0,0-.192-1.24c-.5-.3-1,.015-1.29.483l-.167.269-.365-.223.168-.272c.218-.354.311-.913-.112-1.174a.636.636,0,0,0-.929.292,1.558,1.558,0,0,0-.206.865l-.432-.092a2.019,2.019,0,0,1,.307-1.108,1.022,1.022,0,0,1,1.923.688l.01,0a1.1,1.1,0,0,1,1.416-.228,1.341,1.341,0,0,1,.267,1.974,2.16,2.16,0,0,1-.82.78Z" transform="translate(-136.157 -367.085)"/><path class="i" d="M143.056,370.063l2.2,1.36c.833.515,1.413.365,1.721-.133.34-.552.2-1.129-.626-1.636l-2.2-1.363.3-.485,2.167,1.341a1.609,1.609,0,0,1,.739,2.4c-.471.762-1.261,1.066-2.413.351l-2.19-1.356Z" transform="translate(-135.897 -367.807)"/></g></g><g transform="translate(44.257 27.633)"><rect class="l" width="18.446" height="38.496" transform="matrix(-0.85, -0.526, 0.526, -0.85, 15.684, 42.441)"/><g transform="translate(22.301 26.366)"><path class="i" d="M117.24,368.477a1.2,1.2,0,0,1-.518-1.3l-.021,0a1.044,1.044,0,0,1-1.156.071,1.183,1.183,0,0,1-.268-1.7,1.086,1.086,0,0,1,1.527-.495,1.068,1.068,0,0,1,.473,1.108l.017.008a1.17,1.17,0,0,1,1.372-.148,1.3,1.3,0,0,1,.287,1.862A1.246,1.246,0,0,1,117.24,368.477Zm-1.444-1.716c.357.222.718.071,1.084-.275a.831.831,0,0,0-.313-.948.655.655,0,0,0-.96.245A.67.67,0,0,0,115.8,366.761Zm2.616-.226c-.435-.269-.832-.1-1.27.3a.917.917,0,0,0,.339,1.1.78.78,0,0,0,1.126-.295A.761.761,0,0,0,118.412,366.535Z" transform="translate(-115.041 -351.947)"/><path class="i" d="M119.238,366.059a1.916,1.916,0,0,0,.719-.653.827.827,0,0,0-.194-1.242c-.506-.3-1,.013-1.29.483l-.167.272-.363-.227.167-.268a.839.839,0,0,0-.111-1.177.636.636,0,0,0-.929.295,1.55,1.55,0,0,0-.206.863l-.431-.089a1.989,1.989,0,0,1,.3-1.111,1.021,1.021,0,0,1,1.922.688l.013.007a1.1,1.1,0,0,1,1.415-.229,1.338,1.338,0,0,1,.266,1.971,2.148,2.148,0,0,1-.82.783Z" transform="translate(-114.753 -352.43)"/><path class="i" d="M119.182,360.073a1.894,1.894,0,0,0-.2.378,1.71,1.71,0,0,0,.5,2.031l.011-.016a1.286,1.286,0,0,1,1.949-1.486,1.41,1.41,0,0,1,.525,1.974,1.56,1.56,0,0,1-2.312.324,2.659,2.659,0,0,1-1.24-1.607,2.277,2.277,0,0,1,.181-1.475,2.929,2.929,0,0,1,.189-.371Zm1.982,1.415a.857.857,0,0,0-1.278.232.939.939,0,0,0,.011.968.5.5,0,0,0,.181.19c.6.352,1.2.352,1.512-.156A.884.884,0,0,0,121.164,361.488Z" transform="translate(-114.353 -352.996)"/><path class="i" d="M122.754,361.622l-.3-.185-.134-.611c-.3-1.452-.511-2.152-1.049-2.494a.753.753,0,0,0-1.141.278,1.437,1.437,0,0,0-.167.949l-.437-.057a1.847,1.847,0,0,1,.263-1.241,1.187,1.187,0,0,1,1.721-.45c.661.408.9,1.219,1.16,2.426l.087.45.01,0,1-1.608.4.247Z" transform="translate(-114.115 -353.455)"/><path class="i" d="M121.024,356.422l2.2,1.36c.832.517,1.413.366,1.721-.129.34-.552.2-1.13-.625-1.639l-2.2-1.363.3-.483,2.165,1.339a1.609,1.609,0,0,1,.74,2.4c-.471.76-1.261,1.065-2.414.351l-2.187-1.353Z" transform="translate(-113.864 -354.168)"/></g></g><g transform="translate(17.663 11.168)"><rect class="c" width="18.446" height="38.497" transform="matrix(-0.85, -0.526, 0.526, -0.85, 15.684, 42.441)"/><g transform="translate(22.299 26.363)"><path class="i" d="M95.206,354.838a1.209,1.209,0,0,1-.52-1.306l-.018,0a1.04,1.04,0,0,1-1.156.07,1.179,1.179,0,0,1-.268-1.7,1.09,1.09,0,0,1,1.528-.5,1.075,1.075,0,0,1,.472,1.11l.017.01a1.163,1.163,0,0,1,1.372-.148,1.3,1.3,0,0,1,.288,1.862A1.25,1.25,0,0,1,95.206,354.838Zm-1.445-1.719c.358.221.719.07,1.085-.274a.827.827,0,0,0-.314-.948.655.655,0,0,0-.958.243A.671.671,0,0,0,93.762,353.119Zm2.618-.225c-.437-.268-.833-.1-1.272.3a.918.918,0,0,0,.34,1.1.778.778,0,0,0,1.127-.292A.763.763,0,0,0,96.38,352.894Z" transform="translate(-93.006 -338.304)"/><path class="i" d="M97.205,352.418a1.9,1.9,0,0,0,.716-.655.824.824,0,0,0-.192-1.24c-.5-.3-1,.015-1.29.483l-.167.269-.365-.223.168-.272c.218-.351.313-.913-.112-1.174a.634.634,0,0,0-.928.295,1.548,1.548,0,0,0-.208.863l-.431-.092a2.014,2.014,0,0,1,.3-1.108,1.022,1.022,0,0,1,1.924.688l.01.007a1.1,1.1,0,0,1,1.417-.231A1.342,1.342,0,0,1,98.317,352a2.129,2.129,0,0,1-.818.78Z" transform="translate(-92.719 -338.787)"/><path class="i" d="M98.244,349.931a1.207,1.207,0,0,1-.519-1.306l-.019,0a1.044,1.044,0,0,1-1.156.071,1.182,1.182,0,0,1-.268-1.7,1.09,1.09,0,0,1,1.528-.495,1.071,1.071,0,0,1,.472,1.108l.017.008a1.17,1.17,0,0,1,1.372-.148,1.3,1.3,0,0,1,.288,1.865A1.249,1.249,0,0,1,98.244,349.931ZM96.8,348.213c.359.221.719.07,1.085-.274a.831.831,0,0,0-.313-.95.655.655,0,0,0-.96.245A.672.672,0,0,0,96.8,348.213Zm2.618-.224c-.436-.272-.834-.1-1.272.3a.918.918,0,0,0,.34,1.1.781.781,0,0,0,1.127-.294A.76.76,0,0,0,99.418,347.988Z" transform="translate(-92.377 -339.319)"/><path class="i" d="M100.243,347.51a1.9,1.9,0,0,0,.716-.653.824.824,0,0,0-.192-1.24c-.5-.307-1,.014-1.29.48l-.167.272-.363-.227.167-.268c.218-.354.311-.913-.112-1.174a.633.633,0,0,0-.928.292,1.555,1.555,0,0,0-.208.863l-.431-.092a2,2,0,0,1,.305-1.106,1.021,1.021,0,0,1,1.923.686l.01.007a1.1,1.1,0,0,1,1.417-.228,1.337,1.337,0,0,1,.266,1.97,2.163,2.163,0,0,1-.818.783Z" transform="translate(-92.09 -339.803)"/><path class="i" d="M98.99,342.78l2.2,1.362c.833.517,1.415.363,1.721-.132.342-.552.2-1.129-.625-1.638l-2.2-1.36.3-.486,2.167,1.342a1.608,1.608,0,0,1,.739,2.4c-.471.762-1.261,1.063-2.413.351l-2.19-1.356Z" transform="translate(-91.83 -340.525)"/></g></g><path class="e" d="M184.9,421.445a1.188,1.188,0,0,1-.3-.036,1.205,1.205,0,0,1-.909-1.1.784.784,0,0,0-.024-.165c.007.04-.14,0-.25-.037a4.02,4.02,0,0,1-.948-.407L61.218,344.633a2.782,2.782,0,0,1-.9-3.83L78.923,310.75a2.781,2.781,0,0,1,3.83-.9l121.258,75.07c1.809,1.121,1.286,3.485.654,5.612a1.216,1.216,0,0,1-.132.291l-18.606,30.053A1.205,1.205,0,0,1,184.9,421.445ZM81.29,311.846a.431.431,0,0,0-.086.01.363.363,0,0,0-.229.165L62.37,342.074a.358.358,0,0,0-.046.276.366.366,0,0,0,.164.229l121.259,75.07a2.115,2.115,0,0,0,.412.159,4.222,4.222,0,0,1,.666.261L202.4,389.69c.664-2.295.379-2.692.375-2.7L81.482,311.9h0A.351.351,0,0,0,81.29,311.846Zm122.218,78.34h0Z" transform="translate(-59.899 -309.432)"/></g><g transform="translate(4.048 0.519)"><g transform="translate(0.691 0.691)"><rect class="f" width="38.497" height="145.765" rx="1.239" transform="matrix(0.89, -0.456, 0.456, 0.89, 0, 17.552)"/></g><g transform="translate(52.342 101.515)"><rect class="b" width="18.446" height="38.497" transform="translate(8.41 33.969) rotate(-117.126)"/><g transform="translate(14.877 27.848)"><path class="i" d="M114.751,426.676a1.2,1.2,0,0,1,.229-1.383l-.013-.014a1.045,1.045,0,0,1-1.027-.54,1.181,1.181,0,0,1,.648-1.592,1.089,1.089,0,0,1,1.564.363,1.071,1.071,0,0,1-.169,1.2l.01.019a1.164,1.164,0,0,1,1.252.579,1.3,1.3,0,0,1-.716,1.745A1.245,1.245,0,0,1,114.751,426.676Zm-.35-2.216c.192.375.579.432,1.071.326a.831.831,0,0,0,.222-.974.654.654,0,0,0-.948-.285A.669.669,0,0,0,114.4,424.46Zm2.357,1.158c-.233-.455-.663-.512-1.244-.393a.913.913,0,0,0-.279,1.118.776.776,0,0,0,1.117.33A.763.763,0,0,0,116.758,425.618Z" transform="translate(-113.82 -415.806)"/><path class="i" d="M117.712,425.633a1.886,1.886,0,0,0,.952-.188.827.827,0,0,0,.477-1.162c-.276-.521-.864-.5-1.354-.252l-.282.144-.2-.379.282-.147c.369-.188.74-.617.512-1.062a.637.637,0,0,0-.948-.229,1.542,1.542,0,0,0-.622.634l-.324-.3a2.008,2.008,0,0,1,.833-.792,1.022,1.022,0,0,1,1.292,1.582l.007.012a1.1,1.1,0,0,1,1.329.535,1.341,1.341,0,0,1-.791,1.827,2.144,2.144,0,0,1-1.106.243Z" transform="translate(-113.325 -416.066)"/><path class="i" d="M121,420.039l.17.334.117,4.254-.525.269-.071-4.152-.007-.012-1.835.939-.215-.42Z" transform="translate(-112.822 -416.413)"/><path class="i" d="M124.457,422.882l-.524-1.02-1.743.891-.17-.333.447-3.253.548-.28,1.194,2.331.525-.268.2.4-.525.268.524,1.021Zm-.728-1.419-.641-1.252c-.1-.2-.2-.394-.285-.6l-.017.007c0,.281-.012.488-.029.715l-.263,1.744.006.012Z" transform="translate(-112.122 -416.652)"/><path class="i" d="M124.308,418.244l1.178,2.3c.447.87,1.022,1.043,1.543.776.576-.295.751-.865.31-1.724l-1.179-2.3.508-.262,1.161,2.268a1.61,1.61,0,0,1-.608,2.441c-.8.407-1.63.258-2.249-.949l-1.172-2.289Z" transform="translate(-111.753 -417.035)"/></g></g><g transform="translate(38.355 74.212)"><rect class="m" width="18.446" height="38.497" transform="matrix(-0.456, -0.89, 0.89, -0.456, 8.41, 33.969)"/><g transform="translate(14.878 27.854)"><path class="i" d="M103.163,404.062a1.209,1.209,0,0,1,.231-1.387l-.014-.013a1.044,1.044,0,0,1-1.026-.538A1.182,1.182,0,0,1,103,400.53a1.088,1.088,0,0,1,1.563.366,1.069,1.069,0,0,1-.168,1.193l.01.019a1.163,1.163,0,0,1,1.252.582,1.3,1.3,0,0,1-.716,1.742A1.246,1.246,0,0,1,103.163,404.062Zm-.349-2.219c.192.374.578.433,1.071.327a.833.833,0,0,0,.222-.973.654.654,0,0,0-.948-.289A.67.67,0,0,0,102.814,401.843Zm2.357,1.16c-.234-.455-.664-.512-1.244-.4a.914.914,0,0,0-.28,1.117.779.779,0,0,0,1.117.333A.763.763,0,0,0,105.171,403Z" transform="translate(-102.233 -393.191)"/><path class="i" d="M106.125,403.018a1.948,1.948,0,0,0,.952-.19.825.825,0,0,0,.476-1.161c-.275-.524-.863-.5-1.353-.255l-.284.146-.194-.383.282-.146c.369-.188.739-.617.511-1.061a.632.632,0,0,0-.946-.228,1.542,1.542,0,0,0-.623.631l-.322-.3a2,2,0,0,1,.832-.792,1.022,1.022,0,0,1,1.293,1.582l.006.013a1.1,1.1,0,0,1,1.33.536,1.337,1.337,0,0,1-.792,1.824,2.141,2.141,0,0,1-1.106.246Z" transform="translate(-101.738 -393.451)"/><path class="i" d="M109.414,397.424l.171.332.117,4.254-.525.268-.072-4.151-.006-.012-1.835.94-.216-.419Z" transform="translate(-101.235 -393.798)"/><path class="i" d="M111.262,400.385a1.884,1.884,0,0,0,.951-.188.825.825,0,0,0,.477-1.162c-.275-.521-.863-.5-1.354-.252l-.282.144-.2-.381.282-.145c.369-.188.74-.617.512-1.062a.636.636,0,0,0-.948-.229,1.554,1.554,0,0,0-.623.634l-.321-.3a2,2,0,0,1,.832-.792,1.022,1.022,0,0,1,1.293,1.582l.006.013a1.094,1.094,0,0,1,1.329.534,1.337,1.337,0,0,1-.791,1.825,2.124,2.124,0,0,1-1.1.245Z" transform="translate(-100.674 -393.996)"/><path class="i" d="M112.72,395.627l1.179,2.3c.445.87,1.022,1.042,1.541.779.577-.3.751-.868.311-1.726l-1.18-2.3.508-.26,1.161,2.266a1.608,1.608,0,0,1-.608,2.439c-.8.408-1.63.259-2.248-.948l-1.173-2.289Z" transform="translate(-100.166 -394.42)"/></g></g><g transform="translate(24.094 46.374)"><rect class="n" width="18.446" height="38.497" transform="translate(8.41 33.97) rotate(-117.125)"/><g transform="translate(14.88 26.263)"><path class="i" d="M91.348,381a1.205,1.205,0,0,1,.232-1.386l-.016-.015a1.043,1.043,0,0,1-1.025-.537,1.182,1.182,0,0,1,.648-1.593,1.089,1.089,0,0,1,1.563.365,1.071,1.071,0,0,1-.169,1.194l.01.016a1.169,1.169,0,0,1,1.253.585,1.3,1.3,0,0,1-.717,1.742A1.251,1.251,0,0,1,91.348,381ZM91,378.778c.192.375.578.432,1.071.326a.83.83,0,0,0,.222-.972.656.656,0,0,0-.949-.287A.669.669,0,0,0,91,378.778Zm2.356,1.16c-.233-.455-.663-.511-1.244-.4a.913.913,0,0,0-.279,1.118.778.778,0,0,0,1.117.332A.761.761,0,0,0,93.357,379.938Z" transform="translate(-90.42 -368.537)"/><path class="i" d="M94.31,379.951a1.885,1.885,0,0,0,.952-.188.823.823,0,0,0,.476-1.16c-.274-.523-.863-.507-1.353-.255l-.282.144-.2-.379.282-.146c.369-.188.74-.618.512-1.061a.634.634,0,0,0-.948-.229,1.552,1.552,0,0,0-.623.632l-.321-.3a1.994,1.994,0,0,1,.833-.792,1.021,1.021,0,0,1,1.29,1.581l.006.012a1.1,1.1,0,0,1,1.33.535,1.337,1.337,0,0,1-.791,1.825,2.132,2.132,0,0,1-1.106.247Z" transform="translate(-89.925 -368.798)"/><path class="i" d="M97.6,374.357l.171.336.118,4.252-.525.269-.074-4.152,0-.011-1.836.94-.216-.422Z" transform="translate(-89.423 -369.145)"/><path class="i" d="M99.623,377.97l-.159-.311.2-.591c.49-1.4.676-2.109.391-2.678a.752.752,0,0,0-1.119-.351,1.435,1.435,0,0,0-.635.725l-.344-.273a1.847,1.847,0,0,1,.867-.927,1.184,1.184,0,0,1,1.707.5c.355.693.14,1.509-.261,2.676l-.158.431.006.01,1.685-.863.215.422Z" transform="translate(-88.859 -369.346)"/><path class="i" d="M102.017,376a1.884,1.884,0,0,0,.951-.188.822.822,0,0,0,.476-1.16c-.274-.524-.862-.507-1.353-.255l-.282.144-.2-.379.284-.146c.368-.189.739-.618.512-1.061a.637.637,0,0,0-.949-.232,1.578,1.578,0,0,0-.623.635l-.321-.3a2,2,0,0,1,.833-.793,1.021,1.021,0,0,1,1.29,1.582l.007.012a1.1,1.1,0,0,1,1.33.535,1.338,1.338,0,0,1-.792,1.825,2.155,2.155,0,0,1-1.1.247Z" transform="translate(-88.329 -369.615)"/><path class="i" d="M103.475,371.248l1.179,2.3c.445.873,1.021,1.043,1.541.776.577-.295.751-.865.311-1.724l-1.181-2.3.508-.26L107,372.3a1.61,1.61,0,0,1-.608,2.441c-.8.407-1.63.258-2.248-.946l-1.173-2.291Z" transform="translate(-87.822 -370.039)"/></g></g><g transform="translate(9.833 18.536)"><rect class="o" width="18.446" height="38.497" transform="matrix(-0.456, -0.89, 0.89, -0.456, 8.411, 33.97)"/><g transform="translate(14.877 27.85)"><path class="i" d="M79.533,357.935a1.206,1.206,0,0,1,.229-1.387l-.014-.013A1.045,1.045,0,0,1,78.722,356a1.182,1.182,0,0,1,.648-1.593,1.088,1.088,0,0,1,1.563.366,1.069,1.069,0,0,1-.167,1.193l.008.017a1.168,1.168,0,0,1,1.252.582,1.3,1.3,0,0,1-.716,1.744A1.247,1.247,0,0,1,79.533,357.935Zm-.35-2.219c.193.374.579.431,1.071.325a.828.828,0,0,0,.222-.973.654.654,0,0,0-.948-.285A.669.669,0,0,0,79.183,355.716Zm2.357,1.16c-.233-.455-.664-.512-1.244-.4a.915.915,0,0,0-.28,1.118.779.779,0,0,0,1.117.332A.763.763,0,0,0,81.54,356.876Z" transform="translate(-78.602 -347.062)"/><path class="i" d="M82.493,356.889a1.9,1.9,0,0,0,.952-.188.825.825,0,0,0,.476-1.162c-.275-.524-.863-.5-1.353-.252l-.282.144-.2-.38.284-.146c.368-.188.739-.617.511-1.063a.634.634,0,0,0-.948-.226,1.55,1.55,0,0,0-.623.631l-.321-.3a2,2,0,0,1,.832-.792,1.022,1.022,0,0,1,1.292,1.582l.007.011a1.1,1.1,0,0,1,1.329.536,1.337,1.337,0,0,1-.791,1.824,2.153,2.153,0,0,1-1.106.249Z" transform="translate(-78.106 -347.322)"/><path class="i" d="M85.783,351.3l.173.334.117,4.254-.525.268L85.474,352l-.006-.012-1.835.94-.216-.421Z" transform="translate(-77.604 -347.669)"/><path class="i" d="M87.176,351.062l-.011,0-.472.687-.3-.336.6-.858.432-.221,1.922,3.75-.49.25Z" transform="translate(-76.988 -347.867)"/><path class="i" d="M89.089,349.5l1.179,2.3c.447.87,1.022,1.042,1.541.776.577-.294.752-.865.311-1.726l-1.179-2.3.507-.26,1.161,2.268A1.606,1.606,0,0,1,92,353c-.8.408-1.63.262-2.248-.945l-1.173-2.291Z" transform="translate(-76.535 -348.291)"/></g></g><path class="e" d="M125.935,458.529a2.715,2.715,0,0,1-.833-.132,2.686,2.686,0,0,1-1.575-1.339l-65.1-127.072a2.7,2.7,0,0,1,1.173-3.637L91.2,310.16a2.7,2.7,0,0,1,3.637,1.174l65.1,127.07a2.707,2.707,0,0,1-1.172,3.637l-31.6,16.188A2.676,2.676,0,0,1,125.935,458.529Zm-33.5-146.253a.272.272,0,0,0-.13.034L60.7,328.5a.287.287,0,0,0-.126.387l65.1,127.071a.287.287,0,0,0,.387.126l31.6-16.188a.289.289,0,0,0,.126-.387l-65.1-127.072h0a.284.284,0,0,0-.167-.142A.316.316,0,0,0,92.433,312.276Z" transform="translate(-58.13 -309.862)"/></g><g transform="translate(0 8.469)"><g transform="translate(1.193 1.193)"><rect class="f" width="145.766" height="38.497" rx="1.239" transform="translate(0 145.759) rotate(-89.451)"/></g><g transform="translate(1.327 114.472)"><rect class="p" width="18.446" height="38.497" transform="matrix(0.01, -1, 1, 0.01, 0, 18.445)"/><g transform="translate(4.083 22.921)"><path class="i" d="M59.259,433.475a1.2,1.2,0,0,1,.846-1.118l-.006-.022a1.041,1.041,0,0,1-.659-.952,1.184,1.184,0,0,1,1.314-1.11,1.091,1.091,0,0,1,1.215,1.05,1.071,1.071,0,0,1-.7.98v.019a1.167,1.167,0,0,1,.839,1.1,1.3,1.3,0,0,1-1.445,1.212C59.778,434.623,59.252,434.093,59.259,433.475Zm2.269,0c0-.512-.35-.762-.919-.929a.918.918,0,0,0-.768.861.778.778,0,0,0,.836.811A.763.763,0,0,0,61.528,433.473Zm-1.55-2.122c0,.42.311.651.8.785a.83.83,0,0,0,.648-.758.654.654,0,0,0-.706-.694A.671.671,0,0,0,59.978,431.351Z" transform="translate(-59.259 -430.273)"/><path class="i" d="M62.325,433.92a1.878,1.878,0,0,0,.931.275c.733.007.964-.457.961-.809,0-.589-.53-.846-1.082-.851l-.317,0,0-.426.319,0c.414,0,.942-.205.946-.7,0-.337-.208-.636-.733-.641a1.569,1.569,0,0,0-.846.27l-.145-.416a2,2,0,0,1,1.106-.314c.83.007,1.2.5,1.195,1.016a1.044,1.044,0,0,1-.786.985v.014a1.1,1.1,0,0,1,.929,1.089c-.007.675-.538,1.259-1.55,1.249a2.142,2.142,0,0,1-1.092-.294Z" transform="translate(-58.657 -430.267)"/><path class="i" d="M65.03,433.531a1.2,1.2,0,0,1,.846-1.119l0-.019a1.045,1.045,0,0,1-.659-.955,1.179,1.179,0,0,1,1.313-1.108,1.088,1.088,0,0,1,1.216,1.049,1.07,1.07,0,0,1-.7.979v.018a1.167,1.167,0,0,1,.839,1.1,1.3,1.3,0,0,1-1.445,1.209C65.55,434.678,65.024,434.147,65.03,433.531Zm2.269,0c0-.512-.35-.762-.919-.929a.914.914,0,0,0-.766.861.781.781,0,0,0,.835.814A.764.764,0,0,0,67.3,433.527Zm-1.549-2.122c0,.421.311.651.8.785a.832.832,0,0,0,.648-.759.654.654,0,0,0-.706-.693A.67.67,0,0,0,65.751,431.406Z" transform="translate(-58.064 -430.261)"/><path class="i" d="M69.745,434.633l.011-1.148-1.958-.019,0-.374,1.906-2.674.616.007-.025,2.619.59,0,0,.448-.59-.007-.011,1.148Zm.014-1.593.014-1.407c0-.222.01-.441.025-.663h-.021c-.132.247-.237.427-.355.62l-1.045,1.423v.012Z" transform="translate(-57.491 -430.243)"/><path class="i" d="M71.606,430.312l-.025,2.586c-.008.979.421,1.4,1,1.405.649,0,1.068-.419,1.078-1.383l.024-2.589.571.007-.024,2.546c-.013,1.345-.725,1.887-1.672,1.877-.894-.007-1.564-.525-1.551-1.881l.024-2.572Z" transform="translate(-56.826 -430.266)"/></g></g><g transform="translate(1.621 83.796)"><rect class="q" width="18.446" height="38.497" transform="matrix(0.01, -1, 1, 0.01, 0, 18.446)"/><g transform="translate(4.079 22.92)"><path class="i" d="M59.5,408.061a1.2,1.2,0,0,1,.847-1.12l-.007-.019a1.044,1.044,0,0,1-.658-.952,1.182,1.182,0,0,1,1.313-1.11,1.087,1.087,0,0,1,1.216,1.05,1.069,1.069,0,0,1-.7.978v.019a1.168,1.168,0,0,1,.838,1.1,1.3,1.3,0,0,1-1.444,1.212C60.02,409.207,59.493,408.676,59.5,408.061Zm2.269,0c0-.512-.349-.762-.919-.929a.915.915,0,0,0-.766.861.78.78,0,0,0,.835.814A.762.762,0,0,0,61.768,408.057Zm-1.549-2.122c0,.422.311.653.8.785a.828.828,0,0,0,.649-.757.657.657,0,0,0-.707-.7A.67.67,0,0,0,60.22,405.935Z" transform="translate(-59.499 -404.859)"/><path class="i" d="M62.564,408.506a1.938,1.938,0,0,0,.932.275c.733.007.963-.46.96-.809,0-.591-.529-.849-1.08-.853l-.317,0,0-.429.317,0c.415,0,.943-.205.948-.7,0-.337-.208-.639-.733-.643a1.567,1.567,0,0,0-.846.27L62.6,405.2a2,2,0,0,1,1.1-.315c.83.01,1.2.5,1.2,1.019a1.045,1.045,0,0,1-.788.983v.014a1.1,1.1,0,0,1,.929,1.091c-.006.675-.537,1.259-1.547,1.249a2.137,2.137,0,0,1-1.094-.3Z" transform="translate(-58.897 -404.854)"/><path class="i" d="M65.271,408.115A1.2,1.2,0,0,1,66.117,407l-.006-.022a1.041,1.041,0,0,1-.659-.952,1.182,1.182,0,0,1,1.314-1.11,1.089,1.089,0,0,1,1.215,1.049,1.068,1.068,0,0,1-.7.979v.021a1.169,1.169,0,0,1,.839,1.1,1.3,1.3,0,0,1-1.445,1.211C65.791,409.262,65.265,408.733,65.271,408.115Zm2.268,0c0-.512-.349-.762-.917-.927a.914.914,0,0,0-.768.861.779.779,0,0,0,.835.811A.762.762,0,0,0,67.539,408.112Zm-1.549-2.12c0,.419.311.651.8.785a.831.831,0,0,0,.649-.759.655.655,0,0,0-.707-.693A.67.67,0,0,0,65.99,405.992Z" transform="translate(-58.304 -404.848)"/><path class="i" d="M68.337,408.56a1.9,1.9,0,0,0,.931.276c.733.007.963-.457.96-.809,0-.589-.529-.846-1.08-.853l-.317,0,0-.426.316,0c.415,0,.943-.205.948-.7,0-.338-.208-.637-.733-.642a1.54,1.54,0,0,0-.846.272l-.145-.418a2.006,2.006,0,0,1,1.106-.314c.829.007,1.2.5,1.2,1.016a1.045,1.045,0,0,1-.788.984v.013a1.1,1.1,0,0,1,.929,1.092c-.006.674-.537,1.259-1.547,1.249A2.164,2.164,0,0,1,68.176,409Z" transform="translate(-57.702 -404.842)"/><path class="i" d="M71.846,404.9l-.024,2.588c-.01.979.421,1.4,1,1.4.648.007,1.067-.418,1.077-1.383l.025-2.587.57,0-.024,2.548c-.013,1.342-.725,1.887-1.672,1.877-.894-.01-1.564-.526-1.551-1.882l.024-2.573Z" transform="translate(-57.066 -404.852)"/></g></g><g transform="translate(1.921 52.519)"><rect class="r" width="18.446" height="38.496" transform="matrix(0.01, -1, 1, 0.01, 0, 18.445)"/><g transform="translate(4.079 22.925)"><path class="i" d="M59.748,382.153a1.2,1.2,0,0,1,.846-1.12l-.006-.019a1.046,1.046,0,0,1-.659-.952,1.183,1.183,0,0,1,1.314-1.11A1.088,1.088,0,0,1,62.459,380a1.07,1.07,0,0,1-.7.979V381a1.17,1.17,0,0,1,.839,1.1,1.3,1.3,0,0,1-1.445,1.209C60.268,383.3,59.742,382.768,59.748,382.153Zm2.269,0c0-.512-.35-.762-.919-.929a.916.916,0,0,0-.768.861.779.779,0,0,0,.835.811A.761.761,0,0,0,62.017,382.148Zm-1.549-2.122c0,.421.311.653.8.785a.828.828,0,0,0,.649-.757.656.656,0,0,0-.706-.7A.669.669,0,0,0,60.469,380.027Z" transform="translate(-59.748 -378.951)"/><path class="i" d="M62.814,382.6a1.929,1.929,0,0,0,.931.275c.733.007.963-.46.961-.809,0-.591-.53-.849-1.08-.853l-.319,0,0-.428.319,0c.415,0,.941-.205.946-.7,0-.338-.208-.64-.733-.645a1.559,1.559,0,0,0-.845.272l-.146-.415a2,2,0,0,1,1.106-.315c.829.008,1.2.5,1.2,1.018a1.045,1.045,0,0,1-.788.984v.013a1.1,1.1,0,0,1,.931,1.092c-.007.674-.538,1.257-1.549,1.247a2.144,2.144,0,0,1-1.094-.295Z" transform="translate(-59.146 -378.946)"/><path class="i" d="M65.519,382.207a1.2,1.2,0,0,1,.847-1.118l-.007-.021a1.041,1.041,0,0,1-.658-.952,1.181,1.181,0,0,1,1.313-1.11,1.088,1.088,0,0,1,1.215,1.049,1.07,1.07,0,0,1-.7.979v.021a1.168,1.168,0,0,1,.838,1.1,1.293,1.293,0,0,1-1.444,1.209C66.039,383.353,65.513,382.825,65.519,382.207Zm2.269,0c0-.512-.35-.762-.919-.926a.914.914,0,0,0-.766.861.778.778,0,0,0,.834.81A.762.762,0,0,0,67.788,382.2Zm-1.549-2.12c0,.42.311.652.8.786a.831.831,0,0,0,.649-.759.654.654,0,0,0-.706-.693A.67.67,0,0,0,66.24,380.083Z" transform="translate(-58.553 -378.94)"/><path class="i" d="M68.439,383.3l0-.349.451-.431c1.086-1.011,1.578-1.551,1.591-2.188a.753.753,0,0,0-.828-.832,1.439,1.439,0,0,0-.9.349l-.177-.4a1.839,1.839,0,0,1,1.2-.418,1.186,1.186,0,0,1,1.278,1.238c-.007.777-.577,1.4-1.474,2.249l-.339.309v.012l1.891.018,0,.472Z" transform="translate(-57.948 -378.934)"/><path class="i" d="M72.1,378.987l-.024,2.589c-.01.978.42,1.4,1,1.4.648.007,1.066-.418,1.075-1.384l.025-2.586.57,0-.024,2.548c-.012,1.341-.724,1.884-1.671,1.875-.894-.007-1.564-.524-1.551-1.879l.025-2.575Z" transform="translate(-57.315 -378.945)"/></g></g><g transform="translate(2.221 21.242)"><rect class="s" width="18.446" height="38.497" transform="matrix(0.01, -1, 1, 0.01, 0, 18.445)"/><g transform="translate(4.081 22.925)"><path class="i" d="M60,356.24a1.2,1.2,0,0,1,.846-1.119l-.006-.019a1.048,1.048,0,0,1-.659-.952,1.181,1.181,0,0,1,1.314-1.111,1.089,1.089,0,0,1,1.215,1.049,1.07,1.07,0,0,1-.7.979v.018a1.173,1.173,0,0,1,.839,1.1A1.3,1.3,0,0,1,61.4,357.4C60.518,357.389,59.992,356.856,60,356.24Zm2.269,0c0-.513-.35-.763-.919-.931a.919.919,0,0,0-.768.863.781.781,0,0,0,.836.811A.762.762,0,0,0,62.267,356.238Zm-1.549-2.123c0,.421.311.653.8.785a.825.825,0,0,0,.648-.757.656.656,0,0,0-.706-.7A.67.67,0,0,0,60.719,354.115Z" transform="translate(-59.998 -353.039)"/><path class="i" d="M63.064,356.685a1.9,1.9,0,0,0,.931.276c.733.007.964-.457.962-.809,0-.589-.531-.849-1.082-.853l-.319,0,0-.429.317,0c.415,0,.942-.208.948-.7,0-.338-.209-.637-.734-.645a1.552,1.552,0,0,0-.845.272l-.146-.418a2.027,2.027,0,0,1,1.106-.311c.83.007,1.2.5,1.2,1.016a1.049,1.049,0,0,1-.787.986v.011a1.1,1.1,0,0,1,.929,1.092c-.007.674-.538,1.259-1.549,1.249a2.168,2.168,0,0,1-1.094-.295Z" transform="translate(-59.396 -353.033)"/><path class="i" d="M65.769,356.3a1.207,1.207,0,0,1,.847-1.123l-.006-.018a1.044,1.044,0,0,1-.659-.952,1.178,1.178,0,0,1,1.313-1.108,1.087,1.087,0,0,1,1.215,1.049,1.07,1.07,0,0,1-.7.978v.019a1.165,1.165,0,0,1,.838,1.1,1.3,1.3,0,0,1-1.444,1.212C66.289,357.443,65.763,356.913,65.769,356.3Zm2.269,0c0-.514-.35-.764-.919-.931a.917.917,0,0,0-.766.863.781.781,0,0,0,.835.812A.763.763,0,0,0,68.038,356.292ZM66.49,354.17c0,.422.311.651.8.786a.83.83,0,0,0,.648-.759.654.654,0,0,0-.7-.693A.67.67,0,0,0,66.49,354.17Z" transform="translate(-58.803 -353.027)"/><path class="i" d="M69.891,353.712h-.013l-.735.386-.106-.433.925-.485.486,0-.041,4.215-.55,0Z" transform="translate(-58.127 -353.01)"/><path class="i" d="M72.345,353.075l-.024,2.587c-.01.98.42,1.4,1,1.405.648.007,1.067-.418,1.077-1.385l.024-2.586.571,0-.024,2.548c-.013,1.341-.725,1.887-1.672,1.877-.894-.007-1.564-.526-1.551-1.882l.025-2.575Z" transform="translate(-57.565 -353.033)"/></g></g><path class="e" d="M92.985,464.961h-.028l-35.5-.34a2.7,2.7,0,0,1-2.676-2.728l1.369-142.769a2.674,2.674,0,0,1,.81-1.9,2.845,2.845,0,0,1,1.918-.774l35.5.34a2.7,2.7,0,0,1,2.676,2.728h0l-1.369,142.77A2.7,2.7,0,0,1,92.985,464.961Zm-34.138-146.1a.289.289,0,0,0-.287.286L57.191,461.917a.277.277,0,0,0,.082.2.281.281,0,0,0,.2.086l35.507.34h0a.287.287,0,0,0,.287-.285L94.64,319.493a.279.279,0,0,0-.082-.2.285.285,0,0,0-.2-.087l-35.505-.34Zm37,.642h0Z" transform="translate(-54.777 -316.448)"/><g transform="translate(16.389 6.94)"><path class="e" d="M71.957,329.42a3.618,3.618,0,1,1,.834-.1A3.7,3.7,0,0,1,71.957,329.42Zm.012-6.016a2.4,2.4,0,1,0,1.261.358A2.4,2.4,0,0,0,71.969,323.4Z" transform="translate(-68.354 -322.197)"/></g></g></g><g transform="translate(179.171 179.602)"><g transform="translate(2.012 45.868)"><path class="t" d="M213.012,292.753H210.6a.6.6,0,1,1,0-1.207h2.414a.6.6,0,1,1,0,1.207Zm-4.828,0H205.77a.6.6,0,1,1,0-1.207h2.414a.6.6,0,1,1,0,1.207Zm-4.828,0h-2.414a.6.6,0,1,1,0-1.207h2.414a.6.6,0,1,1,0,1.207Zm-4.828,0h-2.414a.6.6,0,1,1,0-1.207h2.414a.6.6,0,1,1,0,1.207Zm-4.828,0h-2.414a.6.6,0,1,1,0-1.207H193.7a.6.6,0,0,1,0,1.207Zm-4.828,0h-2.414a.6.6,0,0,1,0-1.207h2.414a.6.6,0,1,1,0,1.207Zm-4.828,0h-2.414a.6.6,0,1,1,0-1.207h2.414a.6.6,0,0,1,0,1.207Zm-4.828,0H176.8a.6.6,0,0,1,0-1.207h2.414a.6.6,0,1,1,0,1.207Zm-4.828,0h-2.414a.6.6,0,1,1,0-1.207h2.414a.6.6,0,0,1,0,1.207Zm-4.827-.008h-.025a10.446,10.446,0,0,1-2.522-.414.6.6,0,0,1,.34-1.158,9.2,9.2,0,0,0,2.231.365.6.6,0,0,1-.024,1.207Zm45.053-.121a.6.6,0,0,1-.1-1.2,9.216,9.216,0,0,0,2.168-.635.6.6,0,1,1,.479,1.108,10.5,10.5,0,0,1-2.453.718A.534.534,0,0,1,214.613,292.624Zm-49.64-1.224a.62.62,0,0,1-.305-.082,10.4,10.4,0,0,1-2.028-1.556.6.6,0,1,1,.845-.859,9.291,9.291,0,0,0,1.794,1.372.6.6,0,0,1-.305,1.125ZM219,290.727a.6.6,0,0,1-.367-1.083,9.269,9.269,0,0,0,1.615-1.581.6.6,0,1,1,.943.752,10.441,10.441,0,0,1-1.824,1.789A.605.605,0,0,1,219,290.727Zm-57.439-2.674a.6.6,0,0,1-.514-.287,10.374,10.374,0,0,1-1.063-2.325.6.6,0,0,1,1.152-.362,9.3,9.3,0,0,0,.939,2.056.6.6,0,0,1-.513.919Zm60.42-1.062a.613.613,0,0,1-.25-.054.6.6,0,0,1-.3-.8,9.252,9.252,0,0,0,.68-2.156.6.6,0,0,1,1.187.22,10.378,10.378,0,0,1-.769,2.438A.6.6,0,0,1,221.981,286.992ZM160.122,283.5a.6.6,0,0,1-.6-.569c-.012-.209-.019-.422-.019-.636v-1.812a.6.6,0,0,1,1.207,0v1.811c0,.188.006.378.017.567a.6.6,0,0,1-.567.637Zm62.749-1.2a.6.6,0,0,1-.6-.6v-2.414a.6.6,0,0,1,1.207,0v2.414A.6.6,0,0,1,222.87,282.293ZM160.1,278.67a.6.6,0,0,1-.6-.6v-2.414a.6.6,0,0,1,1.207,0v2.414A.6.6,0,0,1,160.1,278.67Zm62.767-1.206a.6.6,0,0,1-.6-.6v-2.414a.6.6,0,0,1,1.207,0v2.414A.6.6,0,0,1,222.87,277.464ZM160.1,273.842a.6.6,0,0,1-.6-.6v-2.414a.6.6,0,0,1,1.207,0v2.414A.6.6,0,0,1,160.1,273.842Zm62.767-1.206a.6.6,0,0,1-.6-.6v-2.414a.6.6,0,1,1,1.207,0v2.414A.6.6,0,0,1,222.87,272.636ZM160.1,269.014a.6.6,0,0,1-.6-.6V266a.6.6,0,0,1,1.207,0v2.414A.6.6,0,0,1,160.1,269.014Zm62.767-1.206a.6.6,0,0,1-.6-.6V264.79a.6.6,0,0,1,1.207,0V267.2A.6.6,0,0,1,222.87,267.808ZM160.1,264.186a.6.6,0,0,1-.6-.6v-2.414a.6.6,0,0,1,1.207,0v2.414A.6.6,0,0,1,160.1,264.186Zm62.767-1.206a.6.6,0,0,1-.6-.6v-2.414a.6.6,0,0,1,1.207,0v2.414A.6.6,0,0,1,222.87,262.98ZM160.1,259.357a.6.6,0,0,1-.6-.6V256.34a.6.6,0,1,1,1.207,0v2.414A.6.6,0,0,1,160.1,259.357Zm62.767-1.206a.6.6,0,0,1-.6-.6v-2.414a.6.6,0,1,1,1.207,0v2.414A.6.6,0,0,1,222.87,258.152ZM160.1,254.529a.6.6,0,0,1-.6-.6v-2.414a.6.6,0,1,1,1.207,0v2.414A.6.6,0,0,1,160.1,254.529Zm62.767-1.206a.6.6,0,0,1-.6-.6v-2.414a.6.6,0,0,1,1.207,0v2.414A.6.6,0,0,1,222.87,253.323ZM160.1,249.7a.6.6,0,0,1-.6-.6v-2.414a.6.6,0,0,1,1.207,0V249.1A.6.6,0,0,1,160.1,249.7ZM222.87,248.5a.6.6,0,0,1-.6-.6v-2.414a.6.6,0,0,1,1.207,0v2.414A.6.6,0,0,1,222.87,248.5ZM160.1,244.873a.6.6,0,0,1-.6-.6v-2.414a.6.6,0,0,1,1.207,0v2.414A.6.6,0,0,1,160.1,244.873Zm62.767-1.206a.6.6,0,0,1-.6-.6v-2.414a.6.6,0,0,1,1.207,0v2.414A.6.6,0,0,1,222.87,243.667ZM160.1,240.045a.6.6,0,0,1-.6-.6v-2.414a.6.6,0,0,1,1.207,0v2.414A.6.6,0,0,1,160.1,240.045Zm62.767-1.206a.6.6,0,0,1-.6-.6v-2.414a.6.6,0,1,1,1.207,0v2.414A.6.6,0,0,1,222.87,238.839ZM160.1,235.216a.6.6,0,0,1-.6-.6V232.2a.6.6,0,1,1,1.207,0v2.414A.6.6,0,0,1,160.1,235.216Zm62.767-1.206a.6.6,0,0,1-.6-.6v-2.414a.6.6,0,1,1,1.207,0v2.414A.6.6,0,0,1,222.87,234.011ZM160.1,230.388a.6.6,0,0,1-.6-.6v-2.414a.6.6,0,0,1,1.207,0v2.414A.6.6,0,0,1,160.1,230.388Zm62.767-1.206a.6.6,0,0,1-.6-.6v-2.414a.6.6,0,0,1,1.207,0v2.414A.6.6,0,0,1,222.87,229.182ZM160.1,225.56a.6.6,0,0,1-.6-.6v-2.414a.6.6,0,0,1,1.207,0v2.414A.6.6,0,0,1,160.1,225.56Zm62.767-1.206a.6.6,0,0,1-.6-.6v-2.414a.6.6,0,0,1,1.207,0v2.414A.6.6,0,0,1,222.87,224.354ZM160.1,220.732a.6.6,0,0,1-.6-.6v-2.414a.6.6,0,0,1,1.207,0v2.414A.6.6,0,0,1,160.1,220.732Zm62.767-1.206a.6.6,0,0,1-.6-.6v-2.414a.6.6,0,1,1,1.207,0v2.414A.6.6,0,0,1,222.87,219.526ZM160.1,215.9a.6.6,0,0,1-.6-.6v-1.005a10.511,10.511,0,0,1,.105-1.488.6.6,0,1,1,1.195.17,9.387,9.387,0,0,0-.093,1.318V215.3A.6.6,0,0,1,160.1,215.9Zm62.766-1.207a.6.6,0,0,1-.6-.59,9.291,9.291,0,0,0-.32-2.238.6.6,0,1,1,1.165-.315,10.474,10.474,0,0,1,.362,2.528.6.6,0,0,1-.591.616Zm-62.036-3.526a.6.6,0,0,1-.559-.832,10.418,10.418,0,0,1,1.249-2.229.6.6,0,0,1,.973.715,9.277,9.277,0,0,0-1.1,1.972A.6.6,0,0,1,160.833,211.171Zm60.786-1.085a.6.6,0,0,1-.527-.309,9.261,9.261,0,0,0-1.337-1.821.6.6,0,0,1,.88-.827,10.475,10.475,0,0,1,1.511,2.059.6.6,0,0,1-.526.9Zm-57.958-2.769a.6.6,0,0,1-.386-1.067,10.475,10.475,0,0,1,2.147-1.382.6.6,0,1,1,.525,1.086,9.3,9.3,0,0,0-1.9,1.224A.607.607,0,0,1,163.661,207.317Zm54.683-.712a.6.6,0,0,1-.326-.1,9.261,9.261,0,0,0-2.036-.983.6.6,0,1,1,.386-1.143,10.441,10.441,0,0,1,2.3,1.11.6.6,0,0,1-.327,1.11Zm-50.38-1.362a.6.6,0,0,1-.121-1.195,10.53,10.53,0,0,1,2.118-.215h.4a.6.6,0,1,1,0,1.207h-.4a9.279,9.279,0,0,0-1.876.191A.6.6,0,0,1,167.964,205.243Zm45.854-.17h-.049q-.373-.031-.756-.031H211.4a.6.6,0,1,1,0-1.207h1.609q.431,0,.853.035a.6.6,0,0,1-.048,1.2Zm-4.828-.033h-2.414a.6.6,0,0,1,0-1.207h2.414a.6.6,0,1,1,0,1.207Zm-4.828,0h-2.414a.6.6,0,1,1,0-1.207h2.414a.6.6,0,0,1,0,1.207Zm-4.828,0h-2.414a.6.6,0,0,1,0-1.207h2.414a.6.6,0,1,1,0,1.207Zm-4.828,0H192.09a.6.6,0,1,1,0-1.207H194.5a.6.6,0,0,1,0,1.207Zm-4.828,0h-2.414a.6.6,0,0,1,0-1.207h2.414a.6.6,0,1,1,0,1.207Zm-4.828,0h-2.414a.6.6,0,1,1,0-1.207h2.414a.6.6,0,0,1,0,1.207Zm-4.828,0h-2.414a.6.6,0,0,1,0-1.207h2.414a.6.6,0,1,1,0,1.207Zm-4.828,0h-2.414a.6.6,0,1,1,0-1.207h2.414a.6.6,0,0,1,0,1.207Z" transform="translate(-159.5 -203.833)"/></g><g transform="translate(79.264 45.868)"><path class="t" d="M277.012,292.753H274.6a.6.6,0,0,1,0-1.207h2.414a.6.6,0,1,1,0,1.207Zm-4.828,0H269.77a.6.6,0,0,1,0-1.207h2.414a.6.6,0,0,1,0,1.207Zm-4.828,0h-2.414a.6.6,0,0,1,0-1.207h2.414a.6.6,0,0,1,0,1.207Zm-4.828,0h-2.414a.6.6,0,0,1,0-1.207h2.414a.6.6,0,1,1,0,1.207Zm-4.828,0h-2.414a.6.6,0,0,1,0-1.207H257.7a.6.6,0,0,1,0,1.207Zm-4.828,0h-2.414a.6.6,0,0,1,0-1.207h2.414a.6.6,0,0,1,0,1.207Zm-4.828,0h-2.414a.6.6,0,1,1,0-1.207h2.414a.6.6,0,0,1,0,1.207Zm-4.828,0H240.8a.6.6,0,0,1,0-1.207h2.414a.6.6,0,1,1,0,1.207Zm-4.828,0h-2.414a.6.6,0,0,1,0-1.207h2.414a.6.6,0,0,1,0,1.207Zm-4.828-.008h-.024a10.437,10.437,0,0,1-2.522-.414.6.6,0,1,1,.34-1.158,9.187,9.187,0,0,0,2.229.365.6.6,0,0,1-.024,1.207Zm45.053-.121a.6.6,0,0,1-.1-1.2,9.225,9.225,0,0,0,2.169-.635.6.6,0,1,1,.478,1.108,10.506,10.506,0,0,1-2.452.718A.538.538,0,0,1,278.612,292.624Zm-49.64-1.224a.616.616,0,0,1-.3-.082,10.4,10.4,0,0,1-2.029-1.556.6.6,0,1,1,.845-.859,9.3,9.3,0,0,0,1.795,1.372.6.6,0,0,1-.307,1.125ZM283,290.726a.6.6,0,0,1-.367-1.083,9.23,9.23,0,0,0,1.615-1.581.6.6,0,0,1,.943.752,10.485,10.485,0,0,1-1.824,1.789A.605.605,0,0,1,283,290.726Zm-57.439-2.672a.6.6,0,0,1-.514-.287,10.375,10.375,0,0,1-1.063-2.325.6.6,0,0,1,1.152-.362,9.3,9.3,0,0,0,.939,2.056.6.6,0,0,1-.513.919Zm60.421-1.061a.615.615,0,0,1-.251-.054.6.6,0,0,1-.3-.8,9.29,9.29,0,0,0,.681-2.156.6.6,0,0,1,1.185.22,10.409,10.409,0,0,1-.768,2.438A.606.606,0,0,1,285.982,286.993ZM224.12,283.5a.6.6,0,0,1-.6-.569c-.013-.21-.019-.422-.019-.639v-1.811a.6.6,0,0,1,1.207,0v1.811c0,.192,0,.38.017.568a.6.6,0,0,1-.567.637Zm62.75-1.206a.6.6,0,0,1-.6-.6v-2.414a.6.6,0,0,1,1.207,0v2.414A.6.6,0,0,1,286.87,282.293ZM224.1,278.67a.6.6,0,0,1-.6-.6v-2.414a.6.6,0,0,1,1.207,0v2.414A.6.6,0,0,1,224.1,278.67Zm62.767-1.206a.6.6,0,0,1-.6-.6v-2.414a.6.6,0,0,1,1.207,0v2.414A.6.6,0,0,1,286.87,277.464ZM224.1,273.842a.6.6,0,0,1-.6-.6v-2.414a.6.6,0,0,1,1.207,0v2.414A.6.6,0,0,1,224.1,273.842Zm62.767-1.206a.6.6,0,0,1-.6-.6v-2.414a.6.6,0,1,1,1.207,0v2.414A.6.6,0,0,1,286.87,272.636ZM224.1,269.014a.6.6,0,0,1-.6-.6V266a.6.6,0,0,1,1.207,0v2.414A.6.6,0,0,1,224.1,269.014Zm62.767-1.206a.6.6,0,0,1-.6-.6V264.79a.6.6,0,0,1,1.207,0V267.2A.6.6,0,0,1,286.87,267.808ZM224.1,264.186a.6.6,0,0,1-.6-.6v-2.414a.6.6,0,0,1,1.207,0v2.414A.6.6,0,0,1,224.1,264.186Zm62.767-1.206a.6.6,0,0,1-.6-.6v-2.414a.6.6,0,0,1,1.207,0v2.414A.6.6,0,0,1,286.87,262.98ZM224.1,259.357a.6.6,0,0,1-.6-.6V256.34a.6.6,0,1,1,1.207,0v2.414A.6.6,0,0,1,224.1,259.357Zm62.767-1.206a.6.6,0,0,1-.6-.6v-2.414a.6.6,0,1,1,1.207,0v2.414A.6.6,0,0,1,286.87,258.152ZM224.1,254.529a.6.6,0,0,1-.6-.6v-2.414a.6.6,0,1,1,1.207,0v2.414A.6.6,0,0,1,224.1,254.529Zm62.767-1.206a.6.6,0,0,1-.6-.6v-2.414a.6.6,0,0,1,1.207,0v2.414A.6.6,0,0,1,286.87,253.323ZM224.1,249.7a.6.6,0,0,1-.6-.6v-2.414a.6.6,0,0,1,1.207,0V249.1A.6.6,0,0,1,224.1,249.7ZM286.87,248.5a.6.6,0,0,1-.6-.6v-2.414a.6.6,0,0,1,1.207,0v2.414A.6.6,0,0,1,286.87,248.5ZM224.1,244.873a.6.6,0,0,1-.6-.6v-2.414a.6.6,0,0,1,1.207,0v2.414A.6.6,0,0,1,224.1,244.873Zm62.767-1.206a.6.6,0,0,1-.6-.6v-2.414a.6.6,0,0,1,1.207,0v2.414A.6.6,0,0,1,286.87,243.667ZM224.1,240.045a.6.6,0,0,1-.6-.6v-2.414a.6.6,0,0,1,1.207,0v2.414A.6.6,0,0,1,224.1,240.045Zm62.767-1.206a.6.6,0,0,1-.6-.6v-2.414a.6.6,0,1,1,1.207,0v2.414A.6.6,0,0,1,286.87,238.839ZM224.1,235.216a.6.6,0,0,1-.6-.6V232.2a.6.6,0,1,1,1.207,0v2.414A.6.6,0,0,1,224.1,235.216Zm62.767-1.206a.6.6,0,0,1-.6-.6v-2.414a.6.6,0,1,1,1.207,0v2.414A.6.6,0,0,1,286.87,234.011ZM224.1,230.388a.6.6,0,0,1-.6-.6v-2.414a.6.6,0,0,1,1.207,0v2.414A.6.6,0,0,1,224.1,230.388Zm62.767-1.206a.6.6,0,0,1-.6-.6v-2.414a.6.6,0,0,1,1.207,0v2.414A.6.6,0,0,1,286.87,229.182ZM224.1,225.56a.6.6,0,0,1-.6-.6v-2.414a.6.6,0,0,1,1.207,0v2.414A.6.6,0,0,1,224.1,225.56Zm62.767-1.206a.6.6,0,0,1-.6-.6v-2.414a.6.6,0,0,1,1.207,0v2.414A.6.6,0,0,1,286.87,224.354ZM224.1,220.732a.6.6,0,0,1-.6-.6v-2.414a.6.6,0,0,1,1.207,0v2.414A.6.6,0,0,1,224.1,220.732Zm62.767-1.206a.6.6,0,0,1-.6-.6v-2.414a.6.6,0,1,1,1.207,0v2.414A.6.6,0,0,1,286.87,219.526ZM224.1,215.9a.6.6,0,0,1-.6-.6v-1.005a10.541,10.541,0,0,1,.105-1.49.6.6,0,1,1,1.195.171,9.374,9.374,0,0,0-.093,1.318V215.3A.6.6,0,0,1,224.1,215.9Zm62.764-1.206a.6.6,0,0,1-.6-.59,9.325,9.325,0,0,0-.319-2.238.6.6,0,0,1,1.165-.316,10.526,10.526,0,0,1,.361,2.529.6.6,0,0,1-.591.616Zm-62.035-3.527a.6.6,0,0,1-.559-.833,10.5,10.5,0,0,1,1.249-2.228.6.6,0,0,1,.974.715,9.2,9.2,0,0,0-1.106,1.971A.6.6,0,0,1,224.833,211.171Zm60.784-1.084a.606.606,0,0,1-.527-.309,9.229,9.229,0,0,0-1.335-1.821.6.6,0,0,1,.879-.828,10.477,10.477,0,0,1,1.51,2.06.6.6,0,0,1-.526.9Zm-57.954-2.77a.6.6,0,0,1-.387-1.068,10.517,10.517,0,0,1,2.149-1.382.6.6,0,0,1,.524,1.089,9.216,9.216,0,0,0-1.9,1.222A.6.6,0,0,1,227.662,207.317Zm54.683-.711a.6.6,0,0,1-.327-.1,9.227,9.227,0,0,0-2.035-.983.6.6,0,1,1,.386-1.143,10.461,10.461,0,0,1,2.3,1.11.6.6,0,0,1-.326,1.112Zm-50.381-1.363a.6.6,0,0,1-.121-1.194,10.6,10.6,0,0,1,2.117-.216h.4a.6.6,0,0,1,0,1.207h-.4a9.446,9.446,0,0,0-1.876.191A.6.6,0,0,1,231.964,205.243Zm45.855-.17h-.049c-.249-.021-.5-.031-.757-.031H275.4a.6.6,0,0,1,0-1.207h1.608q.431,0,.853.035a.6.6,0,0,1-.047,1.2Zm-4.828-.033h-2.414a.6.6,0,0,1,0-1.207h2.414a.6.6,0,0,1,0,1.207Zm-4.828,0h-2.414a.6.6,0,1,1,0-1.207h2.414a.6.6,0,0,1,0,1.207Zm-4.828,0H260.92a.6.6,0,1,1,0-1.207h2.414a.6.6,0,1,1,0,1.207Zm-4.828,0h-2.414a.6.6,0,0,1,0-1.207h2.414a.6.6,0,1,1,0,1.207Zm-4.828,0h-2.414a.6.6,0,0,1,0-1.207h2.414a.6.6,0,0,1,0,1.207Zm-4.828,0h-2.414a.6.6,0,0,1,0-1.207h2.414a.6.6,0,0,1,0,1.207Zm-4.828,0h-2.414a.6.6,0,1,1,0-1.207h2.414a.6.6,0,0,1,0,1.207Zm-4.828,0h-2.414a.6.6,0,0,1,0-1.207h2.414a.6.6,0,1,1,0,1.207Z" transform="translate(-223.5 -203.833)"/></g><path class="t" d="M375.908,198.423h-2.414a.6.6,0,1,1,0-1.207h2.414a3.99,3.99,0,0,0,1.463-.274.6.6,0,0,1,.441,1.125A5.214,5.214,0,0,1,375.908,198.423Zm-4.828,0h-2.414a.6.6,0,0,1,0-1.207h2.414a.6.6,0,1,1,0,1.207Zm-4.828,0h-2.414a.6.6,0,0,1,0-1.207h2.414a.6.6,0,0,1,0,1.207Zm-4.828,0h-2.414a.6.6,0,0,1,0-1.207h2.414a.6.6,0,0,1,0,1.207Zm-4.828,0h-2.414a.6.6,0,1,1,0-1.207h2.414a.6.6,0,0,1,0,1.207Zm-4.828,0h-2.414a.6.6,0,1,1,0-1.207h2.414a.6.6,0,1,1,0,1.207Zm-4.828,0h-2.414a.6.6,0,0,1,0-1.207h2.414a.6.6,0,1,1,0,1.207Zm-4.828,0H339.7a.6.6,0,0,1,0-1.207h2.414a.6.6,0,0,1,0,1.207Zm-4.828,0h-2.414a.6.6,0,1,1,0-1.207h2.414a.6.6,0,0,1,0,1.207Zm-4.828,0H330.04a.6.6,0,1,1,0-1.207h2.414a.6.6,0,0,1,0,1.207Zm-4.828,0h-2.414a.6.6,0,0,1,0-1.207h2.414a.6.6,0,1,1,0,1.207Zm-4.828,0h-2.414a.6.6,0,0,1,0-1.207H322.8a.6.6,0,0,1,0,1.207Zm-4.828,0h-2.414a.6.6,0,0,1,0-1.207h2.414a.6.6,0,0,1,0,1.207Zm-4.828,0h-2.414a.6.6,0,1,1,0-1.207h2.414a.6.6,0,0,1,0,1.207Zm-4.828,0H305.9a.6.6,0,0,1,0-1.207h2.414a.6.6,0,1,1,0,1.207Zm-4.828,0H301.07a.6.6,0,0,1,0-1.207h2.414a.6.6,0,0,1,0,1.207Zm-4.828,0h-2.414a.6.6,0,0,1,0-1.207h2.414a.6.6,0,0,1,0,1.207Zm-4.828,0h-2.414a.6.6,0,1,1,0-1.207h2.414a.6.6,0,0,1,0,1.207Zm-4.828,0h-2.414a.6.6,0,0,1,0-1.207H289a.6.6,0,1,1,0,1.207Zm-4.828,0h-2.414a.6.6,0,0,1,0-1.207h2.414a.6.6,0,1,1,0,1.207Zm-4.828,0h-2.414a.6.6,0,0,1,0-1.207h2.414a.6.6,0,0,1,0,1.207Zm-4.828,0H272.1a.6.6,0,1,1,0-1.207h2.414a.6.6,0,0,1,0,1.207Zm-4.828,0h-2.414a.6.6,0,1,1,0-1.207h2.414a.6.6,0,1,1,0,1.207Zm-4.828,0h-2.414a.6.6,0,0,1,0-1.207h2.414a.6.6,0,1,1,0,1.207Zm-4.828,0h-2.414a.6.6,0,0,1,0-1.207h2.414a.6.6,0,0,1,0,1.207Zm-4.828,0h-2.414a.6.6,0,1,1,0-1.207H255.2a.6.6,0,0,1,0,1.207Zm-4.828,0H247.96a.6.6,0,1,1,0-1.207h2.414a.6.6,0,0,1,0,1.207Zm-4.828,0h-2.414a.6.6,0,0,1,0-1.207h2.414a.6.6,0,1,1,0,1.207Zm-4.828,0H238.3a.6.6,0,0,1,0-1.207h2.414a.6.6,0,0,1,0,1.207Zm-4.828,0h-2.414a.6.6,0,0,1,0-1.207h2.414a.6.6,0,0,1,0,1.207Zm-4.828,0h-2.414a.6.6,0,1,1,0-1.207h2.414a.6.6,0,0,1,0,1.207Zm-4.828,0h-2.414a.6.6,0,0,1,0-1.207h2.414a.6.6,0,1,1,0,1.207Zm-4.828,0h-2.414a.6.6,0,0,1,0-1.207H221.4a.6.6,0,1,1,0,1.207Zm-4.828,0h-2.414a.6.6,0,0,1,0-1.207h2.414a.6.6,0,0,1,0,1.207Zm-4.828,0h-2.414a.6.6,0,0,1,0-1.207h2.414a.6.6,0,1,1,0,1.207Zm-4.828,0h-2.414a.6.6,0,0,1,0-1.207h2.414a.6.6,0,1,1,0,1.207Zm-4.828,0h-2.414a.6.6,0,0,1,0-1.207h2.414a.6.6,0,1,1,0,1.207Zm-4.828,0H194.85a.6.6,0,0,1,0-1.207h2.414a.6.6,0,1,1,0,1.207Zm-4.828,0h-2.414a.6.6,0,0,1,0-1.207h2.414a.6.6,0,1,1,0,1.207Zm-4.828,0h-2.414a.6.6,0,0,1,0-1.207h2.414a.6.6,0,0,1,0,1.207Zm-4.828,0h-2.414a.6.6,0,0,1,0-1.207h2.414a.6.6,0,1,1,0,1.207Zm-4.828,0h-2.414a.6.6,0,0,1,0-1.207h2.414a.6.6,0,0,1,0,1.207Zm-4.828,0h-2.414a.6.6,0,0,1,0-1.207h2.414a.6.6,0,0,1,0,1.207Zm-4.828,0H165.88a.6.6,0,0,1,0-1.207h2.414a.6.6,0,0,1,0,1.207Zm-4.828,0h-.4a5.2,5.2,0,0,1-2.2-.484.6.6,0,0,1,.508-1.1,3.99,3.99,0,0,0,1.695.373h.4a.6.6,0,0,1,0,1.207ZM379.513,196.7a.6.6,0,0,1-.47-.983,4.019,4.019,0,0,0,.839-1.9.6.6,0,0,1,1.193.185,5.216,5.216,0,0,1-1.091,2.468A.6.6,0,0,1,379.513,196.7Zm-220.229-.233a.6.6,0,0,1-.494-.255,5.213,5.213,0,0,1-.934-2.531.6.6,0,1,1,1.2-.11,4.019,4.019,0,0,0,.717,1.945.6.6,0,0,1-.491.951Zm221.25-4.361a.6.6,0,0,1-.6-.6v-2.414a.6.6,0,1,1,1.207,0V191.5A.6.6,0,0,1,380.534,192.1Zm-222.1-.29a.6.6,0,0,1-.6-.6V188.8a.6.6,0,0,1,1.207,0v2.414A.6.6,0,0,1,158.437,191.814Zm222.1-4.539a.6.6,0,0,1-.6-.6v-2.414a.6.6,0,1,1,1.207,0v2.414A.6.6,0,0,1,380.534,187.275Zm-222.1-.29a.6.6,0,0,1-.6-.6v-2.414a.6.6,0,0,1,1.207,0v2.414A.6.6,0,0,1,158.437,186.985Zm222.1-4.539a.6.6,0,0,1-.6-.6v-2.414a.6.6,0,1,1,1.207,0v2.414A.6.6,0,0,1,380.534,182.447Zm-222.1-.29a.6.6,0,0,1-.6-.6V179.14a.6.6,0,0,1,1.207,0v2.414A.6.6,0,0,1,158.437,182.157Zm222.1-4.539a.6.6,0,0,1-.6-.6V174.6a.6.6,0,0,1,1.207,0v2.414A.6.6,0,0,1,380.534,177.619Zm-222.1-.29a.6.6,0,0,1-.6-.6v-2.414a.6.6,0,0,1,1.207,0v2.414A.6.6,0,0,1,158.437,177.329Zm222.1-4.539a.6.6,0,0,1-.6-.6v-1.123a4,4,0,0,0-.153-1.109.6.6,0,1,1,1.16-.331,5.2,5.2,0,0,1,.2,1.441v1.121A.6.6,0,0,1,380.534,172.79Zm-222.1-.29a.6.6,0,0,1-.6-.6v-.833a5.2,5.2,0,0,1,.3-1.754.6.6,0,1,1,1.137.406,4.008,4.008,0,0,0-.232,1.348v.833A.6.6,0,0,1,158.437,172.5Zm220.693-4.155a.608.608,0,0,1-.421-.17,4.01,4.01,0,0,0-1.811-1.013.6.6,0,0,1-.436-.733.6.6,0,0,1,.733-.438,5.239,5.239,0,0,1,2.356,1.317.6.6,0,0,1,.011.853A.6.6,0,0,1,379.129,168.346Zm-219.073-.2a.6.6,0,0,1-.392-1.061,5.218,5.218,0,0,1,2.432-1.167.6.6,0,0,1,.223,1.187,4.023,4.023,0,0,0-1.871.9A.6.6,0,0,1,160.056,168.151Zm214.587-1.111H372.23a.6.6,0,0,1,0-1.207h2.414a.6.6,0,1,1,0,1.207Zm-4.828,0H367.4a.6.6,0,0,1,0-1.207h2.414a.6.6,0,0,1,0,1.207Zm-4.828,0h-2.414a.6.6,0,1,1,0-1.207h2.414a.6.6,0,0,1,0,1.207Zm-4.828,0h-2.414a.6.6,0,1,1,0-1.207h2.414a.6.6,0,1,1,0,1.207Zm-4.828,0h-2.414a.6.6,0,0,1,0-1.207h2.414a.6.6,0,1,1,0,1.207Zm-4.828,0h-2.414a.6.6,0,0,1,0-1.207H350.5a.6.6,0,0,1,0,1.207Zm-4.828,0H343.26a.6.6,0,1,1,0-1.207h2.414a.6.6,0,0,1,0,1.207Zm-4.828,0h-2.414a.6.6,0,1,1,0-1.207h2.414a.6.6,0,0,1,0,1.207Zm-4.828,0H333.6a.6.6,0,0,1,0-1.207h2.414a.6.6,0,1,1,0,1.207Zm-4.828,0h-2.414a.6.6,0,0,1,0-1.207h2.414a.6.6,0,0,1,0,1.207Zm-4.828,0h-2.414a.6.6,0,0,1,0-1.207h2.414a.6.6,0,0,1,0,1.207Zm-4.828,0h-2.414a.6.6,0,1,1,0-1.207h2.414a.6.6,0,0,1,0,1.207Zm-4.828,0h-2.414a.6.6,0,0,1,0-1.207h2.414a.6.6,0,1,1,0,1.207Zm-4.828,0h-2.414a.6.6,0,0,1,0-1.207h2.414a.6.6,0,0,1,0,1.207Zm-4.828,0h-2.414a.6.6,0,0,1,0-1.207h2.414a.6.6,0,0,1,0,1.207Zm-4.828,0h-2.414a.6.6,0,1,1,0-1.207h2.414a.6.6,0,0,1,0,1.207Zm-4.828,0h-2.414a.6.6,0,0,1,0-1.207h2.414a.6.6,0,1,1,0,1.207Zm-4.828,0H290.15a.6.6,0,0,1,0-1.207h2.414a.6.6,0,1,1,0,1.207Zm-4.828,0h-2.414a.6.6,0,0,1,0-1.207h2.414a.6.6,0,0,1,0,1.207Zm-4.828,0h-2.414a.6.6,0,1,1,0-1.207h2.414a.6.6,0,0,1,0,1.207Zm-4.828,0h-2.414a.6.6,0,1,1,0-1.207h2.414a.6.6,0,1,1,0,1.207Zm-4.828,0h-2.414a.6.6,0,0,1,0-1.207h2.414a.6.6,0,1,1,0,1.207Zm-4.827,0H266.01a.6.6,0,0,1,0-1.207h2.414a.6.6,0,0,1,0,1.207Zm-4.828,0h-2.414a.6.6,0,1,1,0-1.207H263.6a.6.6,0,0,1,0,1.207Zm-4.828,0h-2.414a.6.6,0,0,1,0-1.207h2.414a.6.6,0,1,1,0,1.207Zm-4.828,0h-2.414a.6.6,0,0,1,0-1.207h2.414a.6.6,0,0,1,0,1.207Zm-4.828,0H246.7a.6.6,0,0,1,0-1.207h2.414a.6.6,0,0,1,0,1.207Zm-4.828,0h-2.414a.6.6,0,1,1,0-1.207h2.414a.6.6,0,0,1,0,1.207Zm-4.828,0h-2.414a.6.6,0,0,1,0-1.207h2.414a.6.6,0,1,1,0,1.207Zm-4.828,0h-2.414a.6.6,0,0,1,0-1.207h2.414a.6.6,0,0,1,0,1.207Zm-4.828,0h-2.414a.6.6,0,0,1,0-1.207H229.8a.6.6,0,0,1,0,1.207Zm-4.828,0h-2.414a.6.6,0,0,1,0-1.207h2.414a.6.6,0,0,1,0,1.207Zm-4.828,0h-2.414a.6.6,0,0,1,0-1.207h2.414a.6.6,0,1,1,0,1.207Zm-4.828,0H212.9a.6.6,0,1,1,0-1.207h2.414a.6.6,0,0,1,0,1.207Zm-4.828,0h-2.414a.6.6,0,1,1,0-1.207h2.414a.6.6,0,1,1,0,1.207Zm-4.828,0h-2.414a.6.6,0,1,1,0-1.207h2.414a.6.6,0,1,1,0,1.207Zm-4.828,0h-2.414a.6.6,0,1,1,0-1.207h2.414a.6.6,0,0,1,0,1.207Zm-4.828,0h-2.414a.6.6,0,1,1,0-1.207H196a.6.6,0,0,1,0,1.207Zm-4.828,0h-2.414a.6.6,0,0,1,0-1.207h2.414a.6.6,0,0,1,0,1.207Zm-4.828,0h-2.414a.6.6,0,1,1,0-1.207h2.414a.6.6,0,0,1,0,1.207Zm-4.828,0H179.1a.6.6,0,0,1,0-1.207h2.414a.6.6,0,0,1,0,1.207Zm-4.828,0h-2.414a.6.6,0,1,1,0-1.207h2.414a.6.6,0,0,1,0,1.207Zm-4.828,0h-2.414a.6.6,0,0,1,0-1.207h2.414a.6.6,0,0,1,0,1.207Zm-4.828,0h-2.414a.6.6,0,0,1,0-1.207h2.414a.6.6,0,0,1,0,1.207Z" transform="translate(-157.833 -165.833)"/><g transform="translate(155.308 45.868)"><path class="t" d="M340.012,292.753H337.6a.6.6,0,0,1,0-1.207h2.414a.6.6,0,0,1,0,1.207Zm-4.828,0H332.77a.6.6,0,1,1,0-1.207h2.414a.6.6,0,0,1,0,1.207Zm-4.828,0h-2.414a.6.6,0,0,1,0-1.207h2.414a.6.6,0,1,1,0,1.207Zm-4.828,0h-2.414a.6.6,0,0,1,0-1.207h2.414a.6.6,0,0,1,0,1.207Zm-4.828,0h-2.414a.6.6,0,0,1,0-1.207H320.7a.6.6,0,0,1,0,1.207Zm-4.828,0h-2.414a.6.6,0,1,1,0-1.207h2.414a.6.6,0,0,1,0,1.207Zm-4.828,0h-2.414a.6.6,0,0,1,0-1.207h2.414a.6.6,0,1,1,0,1.207Zm-4.828,0H303.8a.6.6,0,0,1,0-1.207h2.414a.6.6,0,0,1,0,1.207Zm-4.828,0h-2.414a.6.6,0,0,1,0-1.207h2.414a.6.6,0,0,1,0,1.207Zm-4.827-.008h-.025a10.417,10.417,0,0,1-2.519-.414.6.6,0,1,1,.339-1.158,9.187,9.187,0,0,0,2.229.365.6.6,0,0,1-.024,1.207Zm45.051-.119a.6.6,0,0,1-.1-1.2,9.225,9.225,0,0,0,2.169-.635.6.6,0,0,1,.479,1.108,10.534,10.534,0,0,1-2.453.718A.538.538,0,0,1,341.61,292.625ZM291.973,291.4a.617.617,0,0,1-.305-.082,10.451,10.451,0,0,1-2.028-1.555.6.6,0,1,1,.844-.862,9.272,9.272,0,0,0,1.795,1.374.6.6,0,0,1-.305,1.125ZM346,290.727a.6.6,0,0,1-.367-1.083,9.269,9.269,0,0,0,1.615-1.581.6.6,0,0,1,.943.752,10.483,10.483,0,0,1-1.824,1.789A.6.6,0,0,1,346,290.727Zm-57.44-2.674a.606.606,0,0,1-.514-.287,10.341,10.341,0,0,1-1.062-2.325.6.6,0,0,1,1.152-.362,9.212,9.212,0,0,0,.939,2.056.6.6,0,0,1-.2.829A.59.59,0,0,1,288.559,288.054Zm60.423-1.061a.615.615,0,0,1-.251-.054.6.6,0,0,1-.3-.8,9.289,9.289,0,0,0,.681-2.156.6.6,0,0,1,1.185.22,10.41,10.41,0,0,1-.768,2.438A.606.606,0,0,1,348.982,286.993Zm-61.86-3.5a.6.6,0,0,1-.6-.569c-.013-.21-.019-.422-.019-.637v-1.811a.6.6,0,0,1,1.207,0v1.811c0,.191.006.379.017.567a.6.6,0,0,1-.567.637Zm62.749-1.2a.6.6,0,0,1-.6-.6v-2.414a.6.6,0,1,1,1.207,0v2.414A.6.6,0,0,1,349.87,282.294ZM287.1,278.67a.6.6,0,0,1-.6-.6v-2.414a.6.6,0,0,1,1.207,0v2.414A.6.6,0,0,1,287.1,278.67Zm62.767-1.2a.6.6,0,0,1-.6-.6v-2.414a.6.6,0,0,1,1.207,0v2.414A.6.6,0,0,1,349.87,277.466ZM287.1,273.842a.6.6,0,0,1-.6-.6v-2.414a.6.6,0,0,1,1.207,0v2.414A.6.6,0,0,1,287.1,273.842Zm62.767-1.2a.6.6,0,0,1-.6-.6V269.62a.6.6,0,0,1,1.207,0v2.414A.6.6,0,0,1,349.87,272.637ZM287.1,269.014a.6.6,0,0,1-.6-.6V266a.6.6,0,0,1,1.207,0v2.414A.6.6,0,0,1,287.1,269.014Zm62.767-1.2a.6.6,0,0,1-.6-.6v-2.414a.6.6,0,0,1,1.207,0v2.414A.6.6,0,0,1,349.87,267.809ZM287.1,264.186a.6.6,0,0,1-.6-.6v-2.414a.6.6,0,0,1,1.207,0v2.414A.6.6,0,0,1,287.1,264.186Zm62.767-1.2a.6.6,0,0,1-.6-.6v-2.415a.6.6,0,0,1,1.207,0v2.415A.6.6,0,0,1,349.87,262.981ZM287.1,259.357a.6.6,0,0,1-.6-.6V256.34a.6.6,0,1,1,1.207,0v2.414A.6.6,0,0,1,287.1,259.357Zm62.767-1.206a.6.6,0,0,1-.6-.6v-2.414a.6.6,0,1,1,1.207,0v2.414A.6.6,0,0,1,349.87,258.152ZM287.1,254.529a.6.6,0,0,1-.6-.6v-2.414a.6.6,0,1,1,1.207,0v2.414A.6.6,0,0,1,287.1,254.529Zm62.767-1.206a.6.6,0,0,1-.6-.6v-2.414a.6.6,0,0,1,1.207,0v2.414A.6.6,0,0,1,349.87,253.323ZM287.1,249.7a.6.6,0,0,1-.6-.6v-2.414a.6.6,0,0,1,1.207,0V249.1A.6.6,0,0,1,287.1,249.7ZM349.87,248.5a.6.6,0,0,1-.6-.6v-2.414a.6.6,0,0,1,1.207,0v2.414A.6.6,0,0,1,349.87,248.5ZM287.1,244.873a.6.6,0,0,1-.6-.6v-2.414a.6.6,0,0,1,1.207,0v2.414A.6.6,0,0,1,287.1,244.873Zm62.767-1.206a.6.6,0,0,1-.6-.6v-2.414a.6.6,0,0,1,1.207,0v2.414A.6.6,0,0,1,349.87,243.667ZM287.1,240.045a.6.6,0,0,1-.6-.6v-2.414a.6.6,0,0,1,1.207,0v2.414A.6.6,0,0,1,287.1,240.045Zm62.767-1.206a.6.6,0,0,1-.6-.6v-2.414a.6.6,0,1,1,1.207,0v2.414A.6.6,0,0,1,349.87,238.839ZM287.1,235.216a.6.6,0,0,1-.6-.6V232.2a.6.6,0,1,1,1.207,0v2.414A.6.6,0,0,1,287.1,235.216Zm62.767-1.206a.6.6,0,0,1-.6-.6v-2.414a.6.6,0,1,1,1.207,0v2.414A.6.6,0,0,1,349.87,234.011ZM287.1,230.388a.6.6,0,0,1-.6-.6v-2.414a.6.6,0,0,1,1.207,0v2.414A.6.6,0,0,1,287.1,230.388Zm62.767-1.206a.6.6,0,0,1-.6-.6v-2.414a.6.6,0,0,1,1.207,0v2.414A.6.6,0,0,1,349.87,229.182ZM287.1,225.56a.6.6,0,0,1-.6-.6v-2.414a.6.6,0,0,1,1.207,0v2.414A.6.6,0,0,1,287.1,225.56Zm62.767-1.206a.6.6,0,0,1-.6-.6v-2.414a.6.6,0,0,1,1.207,0v2.414A.6.6,0,0,1,349.87,224.354ZM287.1,220.732a.6.6,0,0,1-.6-.6v-2.414a.6.6,0,0,1,1.207,0v2.414A.6.6,0,0,1,287.1,220.732Zm62.767-1.206a.6.6,0,0,1-.6-.6v-2.414a.6.6,0,1,1,1.207,0v2.414A.6.6,0,0,1,349.87,219.526ZM287.1,215.9a.6.6,0,0,1-.6-.6v-1.005a10.613,10.613,0,0,1,.105-1.488.6.6,0,1,1,1.195.169,9.495,9.495,0,0,0-.093,1.319V215.3A.6.6,0,0,1,287.1,215.9Zm62.764-1.206a.6.6,0,0,1-.6-.59,9.325,9.325,0,0,0-.319-2.238.6.6,0,0,1,1.165-.316,10.526,10.526,0,0,1,.361,2.529.6.6,0,0,1-.591.616Zm-62.035-3.527a.6.6,0,0,1-.558-.832,10.378,10.378,0,0,1,1.249-2.229.6.6,0,1,1,.973.715,9.205,9.205,0,0,0-1.106,1.971A.6.6,0,0,1,287.833,211.171Zm60.784-1.083a.606.606,0,0,1-.527-.309,9.22,9.22,0,0,0-1.335-1.823.6.6,0,1,1,.879-.827,10.383,10.383,0,0,1,1.51,2.06.6.6,0,0,1-.526.9Zm-57.957-2.771a.6.6,0,0,1-.386-1.068,10.516,10.516,0,0,1,2.149-1.382.6.6,0,0,1,.524,1.089,9.144,9.144,0,0,0-1.9,1.222A.6.6,0,0,1,290.66,207.317Zm54.686-.711a.6.6,0,0,1-.327-.1,9.228,9.228,0,0,0-2.035-.983.6.6,0,1,1,.386-1.143,10.46,10.46,0,0,1,2.3,1.11.6.6,0,0,1-.326,1.112Zm-50.381-1.363a.6.6,0,0,1-.121-1.194,10.6,10.6,0,0,1,2.118-.216h.4a.6.6,0,0,1,0,1.207h-.4a9.446,9.446,0,0,0-1.876.191A.6.6,0,0,1,294.964,205.243Zm45.855-.17h-.049c-.249-.021-.5-.031-.757-.031H338.4a.6.6,0,1,1,0-1.207h1.608q.431,0,.853.035a.6.6,0,0,1-.047,1.2Zm-4.828-.033h-2.414a.6.6,0,0,1,0-1.207h2.414a.6.6,0,1,1,0,1.207Zm-4.828,0h-2.414a.6.6,0,0,1,0-1.207h2.414a.6.6,0,0,1,0,1.207Zm-4.828,0H323.92a.6.6,0,0,1,0-1.207h2.414a.6.6,0,0,1,0,1.207Zm-4.828,0h-2.414a.6.6,0,1,1,0-1.207h2.414a.6.6,0,0,1,0,1.207Zm-4.828,0h-2.414a.6.6,0,1,1,0-1.207h2.414a.6.6,0,1,1,0,1.207Zm-4.828,0h-2.414a.6.6,0,0,1,0-1.207h2.414a.6.6,0,1,1,0,1.207Zm-4.828,0h-2.414a.6.6,0,0,1,0-1.207h2.414a.6.6,0,0,1,0,1.207Zm-4.828,0h-2.414a.6.6,0,1,1,0-1.207h2.414a.6.6,0,0,1,0,1.207Z" transform="translate(-286.5 -203.833)"/></g></g><g transform="translate(463.053 323.138)"><g transform="translate(18.147 0.259)"><g transform="translate(0 14.198)"><path class="c" d="M446.807,296.725l-19.244,5.088-19.509,37.964,5.314,5.638,39.918-16.675,6.206-18.557Z" transform="translate(-408.054 -296.725)"/></g><g transform="translate(34.46)"><path class="h" d="M444.072,285.748l-6.823,9.522,19.884,21.1,9.566-6.612Z" transform="translate(-436.468 -284.799)"/><path class="e" d="M457.182,317.319,436.6,295.484l7.54-10.522,23.61,25.051Zm-19.02-21.939,19.187,20.357,8.562-5.917-21.642-22.963Z" transform="translate(-436.602 -284.962)"/></g><g transform="translate(1.793 42.256)"><path class="e" d="M410.746,339.353a1.206,1.206,0,0,1-.827-2.085l18-16.97a1.207,1.207,0,1,1,1.655,1.756l-18,16.97A1.2,1.2,0,0,1,410.746,339.353Z" transform="translate(-409.539 -319.969)"/></g><g transform="translate(18.159 32.76)"><path class="e" d="M429.992,325.882a6.89,6.89,0,1,1,4.726-1.875h0A6.869,6.869,0,0,1,429.992,325.882Zm0-11.366a4.476,4.476,0,1,0,3.261,1.4A4.47,4.47,0,0,0,429.988,314.516Zm3.9,8.612h0Z" transform="translate(-423.097 -312.102)"/></g></g><g transform="translate(16.941)"><g transform="translate(0 13.25)"><path class="e" d="M413.575,346.829a1.2,1.2,0,0,1-.878-.38l-5.315-5.638a1.205,1.205,0,0,1-.2-1.378l19.51-37.964a1.206,1.206,0,0,1,.765-.614l19.244-5.089a1.208,1.208,0,0,1,1.188.339l12.684,13.457a1.206,1.206,0,0,1,.267,1.211l-6.207,18.557a1.209,1.209,0,0,1-.68.731l-39.917,16.674A1.212,1.212,0,0,1,413.575,346.829Zm-3.849-7.053,4.155,4.409,38.641-16.142,5.8-17.353-11.7-12.408L428.6,303.049Z" transform="translate(-407.054 -295.725)"/></g><g transform="translate(35.239)"><path class="e" d="M457.34,317.779a1.2,1.2,0,0,1-.879-.379l-19.884-21.1a1.2,1.2,0,0,1-.1-1.529l6.823-9.522a1.21,1.21,0,0,1,.9-.5,1.229,1.229,0,0,1,.96.378l22.626,24.006a1.206,1.206,0,0,1-.192,1.82l-9.566,6.612A1.2,1.2,0,0,1,457.34,317.779Zm-18.325-22.408,18.492,19.618,7.557-5.223-20.658-21.919Z" transform="translate(-436.248 -284.748)"/></g><g transform="translate(3 42.514)"><path class="e" d="M410.746,339.353a1.206,1.206,0,0,1-.827-2.085l18-16.97a1.207,1.207,0,1,1,1.655,1.756l-18,16.97A1.2,1.2,0,0,1,410.746,339.353Z" transform="translate(-409.539 -319.969)"/></g><g transform="translate(19.366 33.018)"><path class="e" d="M429.992,325.882a6.89,6.89,0,1,1,4.726-1.875h0A6.869,6.869,0,0,1,429.992,325.882Zm0-11.366a4.476,4.476,0,1,0,3.261,1.4A4.47,4.47,0,0,0,429.988,314.516Zm3.9,8.612h0Z" transform="translate(-423.097 -312.102)"/></g></g><g transform="translate(0 14.693)"><g transform="translate(9.101)"><path class="e" d="M401.766,317.538a1.206,1.206,0,0,1-1.207-1.207v-18.2a1.207,1.207,0,0,1,2.414,0v18.2A1.207,1.207,0,0,1,401.766,317.538Z" transform="translate(-400.559 -296.92)"/></g><g transform="translate(0 9.101)"><path class="e" d="M412.43,306.874h-18.2a1.207,1.207,0,0,1,0-2.414h18.2a1.207,1.207,0,1,1,0,2.414Z" transform="translate(-393.019 -304.46)"/></g></g></g><g transform="translate(397.791 210.128)"><path class="d" d="M339.952,192.124l8.507,4.277,8.507,4.277-9.175,2.819-5.9,7.572-.97-9.472Z" transform="translate(-338.745 -190.916)"/><path class="e" d="M342.1,212.482a1.183,1.183,0,0,1-.334-.047,1.207,1.207,0,0,1-.868-1.037l-1.94-18.943a1.208,1.208,0,0,1,1.743-1.2l17.015,8.553a1.208,1.208,0,0,1-.187,2.233l-8.813,2.707-5.663,7.271A1.21,1.21,0,0,1,342.1,212.482Zm-.515-18.084,1.41,13.765,4.051-5.2a1.213,1.213,0,0,1,.6-.413l6.3-1.936Z" transform="translate(-338.952 -191.123)"/></g><g transform="translate(182.489 257.211)"><g transform="translate(18.13 7.55)"><path class="f" d="M182.931,237.384l-6.238,11.491L186.05,275.3h5.089l10.013-26.592-6.074-11.326Z" transform="translate(-175.376 -236.177)"/><path class="e" d="M192.2,276.718h-6.776L175.6,248.978l6.837-12.594h13.588l6.674,12.447Zm-5.071-2.414h3.4l9.526-25.3L194.582,238.8H183.876l-5.639,10.388Z" transform="translate(-175.602 -236.384)"/></g><g transform="translate(19.377)"><path class="h" d="M177.85,231.129l1.477,7.551h19.041l1.149-7.551Z" transform="translate(-176.384 -229.922)"/><path class="e" d="M199.657,240.093H178.584l-1.949-9.964h24.538Zm-19.085-2.414h17.01l.782-5.136h-18.8Z" transform="translate(-176.635 -230.129)"/></g><g transform="translate(30.47 30.426)"><line class="f" y1="16.251" transform="translate(1.207)"/><rect class="e" width="2.414" height="16.25" transform="translate(0 0.001)"/></g><g transform="translate(26.735 21.832)"><path class="f" d="M191.2,252.951a3.735,3.735,0,1,1-3.735-3.735A3.734,3.734,0,0,1,191.2,252.951Z" transform="translate(-182.524 -248.009)"/><path class="e" d="M187.673,258.1a4.941,4.941,0,1,1,4.942-4.94A4.947,4.947,0,0,1,187.673,258.1Zm0-7.468a2.527,2.527,0,1,0,2.528,2.528A2.53,2.53,0,0,0,187.673,250.63Z" transform="translate(-182.731 -248.216)"/></g><g transform="translate(2.956 30.33)"><path class="e" d="M191.752,283.315c-26.828,0-28.7-27.615-28.721-27.894l2.41-.139c.06,1.047,1.78,25.618,26.31,25.618,24.554,0,26.842-24.6,26.928-25.645l2.407.192C221.064,255.727,218.553,283.315,191.752,283.315Z" transform="translate(-163.031 -255.256)"/></g><g transform="translate(5.584 55.975)"><path class="f" d="M165.525,277.5c.492.164,52.364,0,52.364,0" transform="translate(-165.142 -276.295)"/><path class="e" d="M181.08,278.992c-15.461,0-15.7-.082-15.872-.139l.383-1.144.148-1.2c1.328.11,31.952.053,52.211-.011l.008,2.414C200.517,278.972,188.866,278.992,181.08,278.992Z" transform="translate(-165.208 -276.502)"/></g><g transform="translate(0 54.005)"><rect class="f" width="4.76" height="4.76" transform="translate(1.206 1.208)"/><path class="e" d="M167.756,282.045h-7.173V274.87h7.173ZM163,279.631h2.345v-2.347H163Z" transform="translate(-160.582 -274.87)"/></g><g transform="translate(28.561 54.005)"><rect class="f" width="4.76" height="4.76" transform="translate(1.207 1.208)"/><path class="e" d="M191.419,282.045h-7.175V274.87h7.175Zm-4.761-2.414H189v-2.347h-2.347Z" transform="translate(-184.244 -274.87)"/></g><g transform="translate(58.109 54.005)"><rect class="f" width="4.76" height="4.76" transform="translate(1.207 1.208)"/><path class="e" d="M215.9,282.045h-7.175V274.87H215.9Zm-4.761-2.414h2.347v-2.347h-2.347Z" transform="translate(-208.723 -274.87)"/></g><g transform="translate(56.139 24.459)"><rect class="f" width="4.76" height="4.76" transform="translate(1.207 1.207)"/><path class="e" d="M214.266,257.567h-7.175v-7.175h7.175Zm-4.761-2.414h2.346v-2.346h-2.346Z" transform="translate(-207.091 -250.392)"/></g><g transform="translate(0 24.459)"><rect class="f" width="4.76" height="4.76" transform="translate(1.206 1.207)"/><path class="e" d="M167.756,257.567h-7.173v-7.175h7.173ZM163,255.153h2.345v-2.346H163Z" transform="translate(-160.582 -250.392)"/></g></g></g></svg>